<svg width="1801" height="951" viewBox="0 0 1801 951" fill="none" xmlns="http://www.w3.org/2000/svg">
<g filter="url(#filter0_d)">
<path fill-rule="evenodd" clip-rule="evenodd" d="M300.632 412.346C326.227 433.638 364.192 433.962 390.252 411.511C419.29 386.495 422.55 342.676 397.534 313.638C382.055 295.67 359.375 287.572 337.454 289.936C332.905 274.401 325.043 259.565 313.79 246.503C271.592 197.52 197.675 192.02 148.692 234.218C99.7087 276.416 94.2087 350.333 136.407 399.316C178.355 448.009 251.648 453.732 300.632 412.346Z" fill="url(#paint0_linear)"/>
</g>
<path fill-rule="evenodd" clip-rule="evenodd" d="M1672.68 546.119L1683.37 559.058L1684.92 557.784L1674.22 544.845L1672.68 546.119ZM1637.17 526.465L1697.59 599.573L1699.14 598.299L1638.71 525.191L1637.17 526.465ZM1697.33 624.289L1613.11 522.392L1614.66 521.118L1698.87 623.015L1697.33 624.289ZM1595.97 524.042L1693.29 641.791L1694.83 640.517L1597.51 522.768L1595.97 524.042ZM1684.2 655.832L1579.13 528.703L1580.67 527.428L1685.74 654.558L1684.2 655.832ZM1675.23 668.692L1564.54 534.769L1566.08 533.495L1676.77 667.418L1675.23 668.692ZM1664.77 678.429L1553.81 544.183L1555.35 542.909L1666.31 677.155L1664.77 678.429ZM1544.33 554.197L1652.34 684.885L1653.89 683.611L1545.87 552.923L1544.33 554.197ZM1638.67 690.741L1536.54 567.169L1538.08 565.895L1640.21 689.466L1638.67 690.741ZM1529.28 580.789L1623.4 694.656L1624.94 693.382L1530.83 579.515L1529.28 580.789ZM1605.98 695.983L1525.77 598.937L1527.31 597.663L1607.52 694.708L1605.98 695.983ZM1526 621.614L1583.22 690.84L1584.76 689.565L1527.54 620.34L1526 621.614ZM1548.69 671.463L1538 658.523L1539.54 657.249L1550.23 670.188L1548.69 671.463Z" fill="url(#paint1_linear)"/>
<g filter="url(#filter1_d)">
<circle cx="1534.5" cy="713.5" r="139.5" fill="url(#paint2_linear)"/>
</g>
<g filter="url(#filter2_d)">
<path d="M1523.43 276.525L1751.22 487.24L1450.83 578.215L1523.43 276.525Z" fill="url(#paint3_linear)"/>
</g>
<g filter="url(#filter3_d)">
<path d="M429.226 682.76L355.114 819.627L273.596 684.944L429.226 682.76Z" fill="url(#paint4_linear)"/>
</g>
<g filter="url(#filter4_d)">
<path d="M1115.05 170.957L1234.95 173.018L1354.4 183.623L1389.49 298.292L1416.31 415.17L1318.1 483.978L1215.23 545.608L1119.44 473.465L1029.04 394.676L1068.05 281.281L1115.05 170.957Z" fill="url(#paint5_linear)"/>
</g>
<g filter="url(#filter5_d)">
<circle cx="1377.5" cy="591.5" r="52.5" fill="url(#paint6_linear)"/>
</g>
<g filter="url(#filter6_d)">
<circle cx="468" cy="412" r="56" fill="url(#paint7_linear)" fill-opacity="0.5"/>
</g>
<path d="M919.897 494.161C917.256 495.829 917.673 484.151 911 485.542L917.395 481.927C921.287 479.842 920.314 492.353 924.346 490.824L919.897 494.161Z" fill="url(#paint8_linear)"/>
<path d="M965.217 602.873C969.109 609.268 948.674 613.16 951.871 619.972L947.7 611.214C944.503 604.402 958.822 595.227 955.763 588.693L965.217 602.873Z" fill="url(#paint9_linear)"/>
<path d="M1210.58 438.275C1208.78 434.244 1196.68 449.119 1192.09 441.89L1195.01 448.285C1196.82 452.316 1212.81 443.28 1214.62 447.173L1210.58 438.275Z" fill="url(#paint10_linear)"/>
<path d="M1192.23 442.168C1190.29 437.997 1199.88 433.41 1197.24 429.934L1201.27 435.634C1203.77 439.249 1193.21 444.67 1195.01 448.702L1192.23 442.168Z" fill="url(#paint11_linear)"/>
<path d="M1194.46 425.764C1191.68 422.149 1185.42 432.715 1182.36 429.517L1186.26 433.549C1189.31 436.746 1197.24 430.768 1200.16 433.827L1194.46 425.764Z" fill="url(#paint12_linear)"/>
<path d="M1074.9 457.321C1069.9 455.931 1068.92 432.437 1063.36 432.298L1074.76 432.715C1085.88 433.688 1072.82 456.904 1084.08 459.962L1074.9 457.321Z" fill="url(#paint13_linear)"/>
<path d="M1148.16 489.712C1150.53 491.936 1146.36 501.529 1152.75 504.309L1145.11 502.224C1142.74 501.39 1146.36 492.353 1142.88 487.21L1148.16 489.712Z" fill="url(#paint14_linear)"/>
<path d="M1101.59 490.685C1103.82 496.802 1085.88 491.519 1086.16 506.811L1084.91 496.941C1084.22 489.295 1100.2 486.793 1097.56 479.564L1101.59 490.685Z" fill="url(#paint15_linear)"/>
<path d="M1103.54 571.316C1103.26 576.32 1093.95 577.015 1092.97 581.603L1091.45 577.154C1092.42 572.428 1103.4 565.616 1104.37 560.889L1103.54 571.316Z" fill="url(#paint16_linear)"/>
<path d="M1093.53 556.858C1092.56 561.584 1104.65 565.477 1103.68 570.064L1104.37 561.028C1104.65 556.163 1095.2 554.216 1096.17 549.49L1093.53 556.858Z" fill="url(#paint17_linear)"/>
<path d="M1108.41 551.297C1107.71 556.023 1095.2 552.131 1093.53 556.719L1096.31 549.351C1097.98 544.624 1108.96 548.377 1109.66 543.651L1108.41 551.297Z" fill="url(#paint18_linear)"/>
<path d="M1099.37 636.803C1096.03 638.332 1092.56 630.408 1089.64 632.493L1094.36 629.296C1097.28 627.349 1101.45 635.969 1104.65 634.578L1099.37 636.803Z" fill="url(#paint19_linear)"/>
<path d="M1539.29 639.977C1540.34 643.464 1550.01 636.953 1550.84 646.546L1551.28 639.133C1551.56 635.699 1538.28 636.138 1537.41 632.669L1539.29 639.977Z" fill="url(#paint20_linear)"/>
<path d="M1464.92 583.142C1458.37 582.971 1458.66 567.815 1452.52 568.754L1462.46 567.157C1468.7 566.139 1468.82 583.206 1475.18 583.533L1464.92 583.142Z" fill="url(#paint21_linear)"/>
<path d="M1474.81 583.671C1481.37 583.842 1481.07 598.998 1487.21 598.059L1477.27 599.656C1471.03 600.674 1470.91 583.607 1464.55 583.28L1474.81 583.671Z" fill="url(#paint22_linear)"/>
<path d="M1437.93 721.202C1432.45 720.169 1430.11 732.797 1425.25 730.943L1433.28 733.936C1438.32 735.81 1441.25 721.736 1446.58 722.574L1437.93 721.202Z" fill="url(#paint23_linear)"/>
<path d="M1424.14 730.557C1418.94 728.489 1414.21 740.327 1409.71 737.535L1416.86 742.034C1421.36 744.826 1427.12 731.677 1432.24 733.648L1424.14 730.557Z" fill="url(#paint24_linear)"/>
<path d="M1422.66 642.555C1418.43 648.852 1438.77 653.789 1435.13 660.415L1439.78 651.854C1443.42 645.229 1429.4 635.196 1432.94 628.649L1422.66 642.555Z" fill="url(#paint25_linear)"/>
<path d="M1485.24 823.272C1491.38 826.506 1475.56 842.306 1493.29 847.584L1479.18 845.803C1472.6 845.008 1478.38 820.138 1472.21 817.254L1485.24 823.272Z" fill="url(#paint26_linear)"/>
<path d="M1389.49 806.775C1398.77 812.124 1391.52 834.972 1400.6 836.479L1385.35 838.662C1376.28 837.155 1387.48 819.617 1378.39 818.285L1389.49 806.775Z" fill="url(#paint27_linear)"/>
<path d="M1547.06 699.166C1543.64 697.111 1548.56 687.691 1544.87 686.495L1538.95 684.528C1542.72 685.821 1538.11 694.03 1541.62 696.006L1547.06 699.166Z" fill="url(#paint28_linear)"/>
<path d="M1532.33 692.433C1535.67 694.39 1539.65 684.603 1543.5 685.993L1537.5 683.929C1533.65 682.539 1530.31 691.328 1526.97 689.371L1532.33 692.433Z" fill="url(#paint29_linear)"/>
<path d="M1602.11 818.411C1592.22 817.882 1600.43 843.988 1590.53 844.434L1603.2 843.841C1613.11 843.395 1614.98 821.035 1624.44 820.629L1602.11 818.411Z" fill="url(#paint30_linear)"/>
<path d="M355.61 495.832C357.008 500.49 369.922 491.794 371.037 504.605L371.626 494.705C371.999 490.119 354.262 490.706 353.099 486.073L355.61 495.832Z" fill="url(#paint31_linear)"/>
<path d="M256.291 419.931C247.538 419.703 247.932 399.462 239.731 400.717L253.008 398.584C261.338 397.224 261.501 420.016 269.994 420.453L256.291 419.931Z" fill="url(#paint32_linear)"/>
<path d="M269.501 420.637C278.254 420.865 277.86 441.106 286.061 439.852L272.784 441.985C264.454 443.344 264.291 420.553 255.797 420.115L269.501 420.637Z" fill="url(#paint33_linear)"/>
<path d="M220.248 604.306C212.923 602.926 209.808 619.791 203.313 617.315L214.034 621.312C220.763 623.814 224.679 605.019 231.794 606.138L220.248 604.306Z" fill="url(#paint34_linear)"/>
<path d="M201.826 616.799C194.886 614.038 188.563 629.847 182.558 626.118L192.114 632.126C198.119 635.854 205.817 618.295 212.651 620.927L201.826 616.799Z" fill="url(#paint35_linear)"/>
<path d="M199.852 499.276C194.204 507.684 221.371 514.278 216.507 523.126L222.716 511.694C227.581 502.846 208.854 489.448 213.588 480.704L199.852 499.276Z" fill="url(#paint36_linear)"/>
<path d="M283.426 740.617C291.621 744.937 270.496 766.036 294.174 773.086L275.332 770.707C266.55 769.646 274.267 736.431 266.022 732.581L283.426 740.617Z" fill="url(#paint37_linear)"/>
<path d="M155.55 718.586C167.949 725.73 158.268 756.242 170.388 758.255L150.029 761.17C137.909 759.157 152.878 735.736 140.733 733.958L155.55 718.586Z" fill="url(#paint38_linear)"/>
<path d="M365.984 574.877C361.415 572.133 367.985 559.553 363.056 557.956L355.153 555.328C360.187 557.055 354.028 568.018 358.727 570.658L365.984 574.877Z" fill="url(#paint39_linear)"/>
<path d="M346.31 565.885C350.774 568.499 356.092 555.429 361.23 557.286L353.223 554.528C348.084 552.672 343.622 564.41 339.158 561.796L346.31 565.885Z" fill="url(#paint40_linear)"/>
<path d="M439.51 734.125C426.301 733.418 437.267 768.283 424.036 768.879L440.965 768.087C454.195 767.49 456.689 737.63 469.321 737.088L439.51 734.125Z" fill="url(#paint41_linear)"/>
<path d="M1611.5 443.7C1610.9 447.4 1602.4 445.9 1602.5 449.5L1602.4 443.8C1602.4 440.2 1611.9 441.5 1612.6 438L1611.5 443.7Z" fill="url(#paint42_linear)"/>
<path d="M1636.8 420.9C1635.2 422.6 1642.9 428.6 1641.3 430.3L1643.9 427.6C1645.5 425.9 1636.8 421 1638.4 419.3L1636.8 420.9Z" fill="url(#paint43_linear)"/>
<path d="M1632.1 315.3C1634.5 317.8 1623.3 326.6 1625.6 329L1621.8 325.1C1619.4 322.6 1632.1 315.4 1629.8 312.9L1632.1 315.3Z" fill="url(#paint44_linear)"/>
<path d="M1474.8 377.5C1476.3 383.7 1455.8 382.6 1463.2 398L1455.7 387.2C1452.2 382.2 1472.8 370.9 1470.9 364.8L1474.8 377.5Z" fill="url(#paint45_linear)"/>
<path d="M1420 398.7C1415.8 398.6 1413.9 389.3 1410.5 390.5L1415.4 386.9C1418.8 385.7 1418.3 393.9 1421.7 392.7L1420 398.7Z" fill="url(#paint46_linear)"/>
<path d="M1559.6 395.9C1559.6 402.1 1578.8 389.2 1583.3 401.8L1582.6 387.2C1582 378.4 1562.1 393.2 1560.2 384.8L1559.6 395.9Z" fill="url(#paint47_linear)"/>
<path d="M1587.5 313C1590.3 311 1581 307.1 1583 304.3L1580.4 307.8C1578.4 310.5 1584 315.8 1582.1 318.4L1587.5 313Z" fill="url(#paint48_linear)"/>
<path d="M1584.8 301.9C1586.7 299 1577.5 297 1579.1 294L1577.1 297.9C1575.5 300.9 1581.8 305.3 1580.3 308.2L1584.8 301.9Z" fill="url(#paint49_linear)"/>
<path d="M1377.9 418.6C1380.1 418 1378.1 427.6 1382.4 427.1L1378.9 428C1376.7 428.6 1375.2 419.3 1373 419.9L1377.9 418.6Z" fill="url(#paint50_linear)"/>
<path d="M1382.3 427C1384.6 426.4 1383.3 421.2 1385.5 421L1381.9 421.2C1379.7 421.3 1380.9 427.3 1378.7 427.9L1382.3 427Z" fill="url(#paint51_linear)"/>
<path d="M1388 420.9C1390.3 420.8 1388.2 426.7 1390.4 426.9L1387.5 426.7C1385.3 426.5 1385 421.5 1382.9 421.3L1388 420.9Z" fill="url(#paint52_linear)"/>
<path d="M1519.6 354C1522.6 353.2 1525.1 361.1 1527.8 359.8L1532.2 357.7C1529.5 359 1527.5 352 1524.4 352.8L1519.6 354Z" fill="url(#paint53_linear)"/>
<path d="M1531.4 349.5C1528.5 350.2 1531.6 357.9 1528.8 359.2L1533.3 357.1C1536.2 355.8 1533.2 349.1 1536.1 348.4L1531.4 349.5Z" fill="url(#paint54_linear)"/>
<path d="M1454.9 443.4C1452.2 446.8 1468.8 452.6 1464.6 459.8L1468.8 454.4C1471.5 451 1456.4 441.3 1459 438L1454.9 443.4Z" fill="url(#paint55_linear)"/>
<path d="M1453.8 428.6C1450.8 431.6 1457.6 440 1454.9 443.4L1459.9 437C1462.4 433.5 1456.3 427.5 1459.4 424.4L1453.8 428.6Z" fill="url(#paint56_linear)"/>
<path d="M1467.7 431.7C1464.8 434.9 1457.4 425.9 1453.9 428.5L1459.5 424.4C1463.1 421.7 1469.4 429.9 1472.2 426.7L1467.7 431.7Z" fill="url(#paint57_linear)"/>
<defs>
<filter id="filter0_d" x="0.000244141" y="85" width="482.829" height="486.841" filterUnits="userSpaceOnUse" color-interpolation-filters="sRGB">
<feFlood flood-opacity="0" result="BackgroundImageFix"/>
<feColorMatrix in="SourceAlpha" type="matrix" values="0 0 0 0 0 0 0 0 0 0 0 0 0 0 0 0 0 0 127 0"/>
<feOffset dx="-10" dy="-10"/>
<feGaussianBlur stdDeviation="25"/>
<feColorMatrix type="matrix" values="0 0 0 0 0.203922 0 0 0 0 0.290196 0 0 0 0 0.729412 0 0 0 0.46 0"/>
<feBlend mode="normal" in2="BackgroundImageFix" result="effect1_dropShadow"/>
<feBlend mode="normal" in="SourceGraphic" in2="effect1_dropShadow" result="shape"/>
</filter>
<filter id="filter1_d" x="1335" y="514" width="379" height="379" filterUnits="userSpaceOnUse" color-interpolation-filters="sRGB">
<feFlood flood-opacity="0" result="BackgroundImageFix"/>
<feColorMatrix in="SourceAlpha" type="matrix" values="0 0 0 0 0 0 0 0 0 0 0 0 0 0 0 0 0 0 127 0"/>
<feOffset dx="-10" dy="-10"/>
<feGaussianBlur stdDeviation="25"/>
<feColorMatrix type="matrix" values="0 0 0 0 0.698039 0 0 0 0 0.235294 0 0 0 0 0.788235 0 0 0 0.62 0"/>
<feBlend mode="normal" in2="BackgroundImageFix" result="effect1_dropShadow"/>
<feBlend mode="normal" in="SourceGraphic" in2="effect1_dropShadow" result="shape"/>
</filter>
<filter id="filter2_d" x="1308.24" y="166.037" width="477.985" height="447.178" filterUnits="userSpaceOnUse" color-interpolation-filters="sRGB">
<feFlood flood-opacity="0" result="BackgroundImageFix"/>
<feColorMatrix in="SourceAlpha" type="matrix" values="0 0 0 0 0 0 0 0 0 0 0 0 0 0 0 0 0 0 127 0"/>
<feOffset dx="-15" dy="-15"/>
<feGaussianBlur stdDeviation="25"/>
<feColorMatrix type="matrix" values="0 0 0 0 0.34902 0 0 0 0 0.964706 0 0 0 0 0.290196 0 0 0 0.54 0"/>
<feBlend mode="normal" in2="BackgroundImageFix" result="effect1_dropShadow"/>
<feBlend mode="normal" in="SourceGraphic" in2="effect1_dropShadow" result="shape"/>
</filter>
<filter id="filter3_d" x="208.596" y="550.418" width="296.389" height="304.21" filterUnits="userSpaceOnUse" color-interpolation-filters="sRGB">
<feFlood flood-opacity="0" result="BackgroundImageFix"/>
<feColorMatrix in="SourceAlpha" type="matrix" values="0 0 0 0 0 0 0 0 0 0 0 0 0 0 0 0 0 0 127 0"/>
<feOffset dx="-15" dy="-15"/>
<feGaussianBlur stdDeviation="25"/>
<feColorMatrix type="matrix" values="0 0 0 0 0.34902 0 0 0 0 0.964706 0 0 0 0 0.290196 0 0 0 0.54 0"/>
<feBlend mode="normal" in2="BackgroundImageFix" result="effect1_dropShadow"/>
<feBlend mode="normal" in="SourceGraphic" in2="effect1_dropShadow" result="shape"/>
</filter>
<filter id="filter4_d" x="887.372" y="0.430664" width="628.407" height="624.074" filterUnits="userSpaceOnUse" color-interpolation-filters="sRGB">
<feFlood flood-opacity="0" result="BackgroundImageFix"/>
<feColorMatrix in="SourceAlpha" type="matrix" values="0 0 0 0 0 0 0 0 0 0 0 0 0 0 0 0 0 0 127 0"/>
<feOffset dx="-15" dy="-15"/>
<feGaussianBlur stdDeviation="25"/>
<feColorMatrix type="matrix" values="0 0 0 0 1 0 0 0 0 0.301961 0 0 0 0 0.415686 0 0 0 0.3 0"/>
<feBlend mode="normal" in2="BackgroundImageFix" result="effect1_dropShadow"/>
<feBlend mode="normal" in="SourceGraphic" in2="effect1_dropShadow" result="shape"/>
</filter>
<filter id="filter5_d" x="1260" y="474" width="205" height="205" filterUnits="userSpaceOnUse" color-interpolation-filters="sRGB">
<feFlood flood-opacity="0" result="BackgroundImageFix"/>
<feColorMatrix in="SourceAlpha" type="matrix" values="0 0 0 0 0 0 0 0 0 0 0 0 0 0 0 0 0 0 127 0"/>
<feOffset dx="-15" dy="-15"/>
<feGaussianBlur stdDeviation="25"/>
<feColorMatrix type="matrix" values="0 0 0 0 1 0 0 0 0 0.807843 0 0 0 0 0 0 0 0 0.31 0"/>
<feBlend mode="normal" in2="BackgroundImageFix" result="effect1_dropShadow"/>
<feBlend mode="normal" in="SourceGraphic" in2="effect1_dropShadow" result="shape"/>
</filter>
<filter id="filter6_d" x="347" y="291" width="212" height="212" filterUnits="userSpaceOnUse" color-interpolation-filters="sRGB">
<feFlood flood-opacity="0" result="BackgroundImageFix"/>
<feColorMatrix in="SourceAlpha" type="matrix" values="0 0 0 0 0 0 0 0 0 0 0 0 0 0 0 0 0 0 127 0"/>
<feOffset dx="-15" dy="-15"/>
<feGaussianBlur stdDeviation="25"/>
<feColorMatrix type="matrix" values="0 0 0 0 1 0 0 0 0 0.807843 0 0 0 0 0 0 0 0 0.31 0"/>
<feBlend mode="normal" in2="BackgroundImageFix" result="effect1_dropShadow"/>
<feBlend mode="normal" in="SourceGraphic" in2="effect1_dropShadow" result="shape"/>
</filter>
<linearGradient id="paint0_linear" x1="363.831" y1="319.285" x2="129.087" y2="390.819" gradientUnits="userSpaceOnUse">
<stop stop-color="#6500F4"/>
<stop offset="1" stop-color="#4389F4"/>
</linearGradient>
<linearGradient id="paint1_linear" x1="1680.37" y1="552.285" x2="1543.61" y2="665.317" gradientUnits="userSpaceOnUse">
<stop stop-color="#FF4D6A"/>
<stop offset="1" stop-color="#FFCE00"/>
</linearGradient>
<linearGradient id="paint2_linear" x1="1533.45" y1="632.737" x2="1534.5" y2="853" gradientUnits="userSpaceOnUse">
<stop stop-color="#DD2CFF"/>
<stop offset="1" stop-color="#6134BA"/>
</linearGradient>
<linearGradient id="paint3_linear" x1="1523.43" y1="276.525" x2="1626.89" y2="618.128" gradientUnits="userSpaceOnUse">
<stop stop-color="#BDF62E"/>
<stop offset="1" stop-color="#56F752"/>
</linearGradient>
<linearGradient id="paint4_linear" x1="429.226" y1="682.76" x2="276.065" y2="775.461" gradientUnits="userSpaceOnUse">
<stop stop-color="#BDF62E"/>
<stop offset="1" stop-color="#56F752"/>
</linearGradient>
<linearGradient id="paint5_linear" x1="1115.05" y1="170.957" x2="1336.96" y2="513.057" gradientUnits="userSpaceOnUse">
<stop stop-color="#F77652"/>
<stop offset="1" stop-color="#F5398E"/>
</linearGradient>
<linearGradient id="paint6_linear" x1="1377.11" y1="561.105" x2="1377.5" y2="644" gradientUnits="userSpaceOnUse">
<stop stop-color="#EBBE01"/>
<stop offset="1" stop-color="#F18B01"/>
</linearGradient>
<linearGradient id="paint7_linear" x1="467.579" y1="379.579" x2="468" y2="468" gradientUnits="userSpaceOnUse">
<stop stop-color="#EBBE01"/>
<stop offset="1" stop-color="#F18B01"/>
</linearGradient>
<linearGradient id="paint8_linear" x1="921.999" y1="495.926" x2="915.13" y2="483.353" gradientUnits="userSpaceOnUse">
<stop stop-color="#3E29A6"/>
<stop offset="0.0921788" stop-color="#344ABA"/>
<stop offset="0.2933" stop-color="#56A3C9"/>
<stop offset="0.8101" stop-color="#00FFAA"/>
<stop offset="1" stop-color="#CCFFD5"/>
</linearGradient>
<linearGradient id="paint9_linear" x1="955.617" y1="619.77" x2="957.416" y2="589.841" gradientUnits="userSpaceOnUse">
<stop stop-color="#3E29A6"/>
<stop offset="0.0921788" stop-color="#344ABA"/>
<stop offset="0.2933" stop-color="#56A3C9"/>
<stop offset="0.8101" stop-color="#00FFAA"/>
<stop offset="1" stop-color="#CCFFD5"/>
</linearGradient>
<linearGradient id="paint10_linear" x1="1195.39" y1="451.214" x2="1210.03" y2="439.029" gradientUnits="userSpaceOnUse">
<stop offset="0.0921788" stop-color="#6134BA"/>
<stop offset="0.2933" stop-color="#B23CC9"/>
<stop offset="0.8101" stop-color="#FF4D6A"/>
<stop offset="1" stop-color="#FFA6B5"/>
</linearGradient>
<linearGradient id="paint11_linear" x1="1192.81" y1="445.024" x2="1202.21" y2="429.487" gradientUnits="userSpaceOnUse">
<stop offset="0.0921788" stop-color="#6134BA"/>
<stop offset="0.2933" stop-color="#B23CC9"/>
<stop offset="0.8101" stop-color="#FF4D6A"/>
<stop offset="1" stop-color="#FFA6B5"/>
</linearGradient>
<linearGradient id="paint12_linear" x1="1186.05" y1="435.718" x2="1195.95" y2="428.277" gradientUnits="userSpaceOnUse">
<stop offset="0.0921788" stop-color="#6134BA"/>
<stop offset="0.2933" stop-color="#B23CC9"/>
<stop offset="0.8101" stop-color="#FF4D6A"/>
<stop offset="1" stop-color="#FFA6B5"/>
</linearGradient>
<linearGradient id="paint13_linear" x1="1074.75" y1="459.146" x2="1072.79" y2="433.959" gradientUnits="userSpaceOnUse">
<stop offset="0.0921788" stop-color="#6134BA"/>
<stop offset="0.2933" stop-color="#B23CC9"/>
<stop offset="0.8101" stop-color="#FF4D6A"/>
<stop offset="1" stop-color="#FFA6B5"/>
</linearGradient>
<linearGradient id="paint14_linear" x1="1149.65" y1="485.148" x2="1146.53" y2="502.75" gradientUnits="userSpaceOnUse">
<stop stop-color="#3E29A6"/>
<stop offset="0.0921788" stop-color="#344ABA"/>
<stop offset="0.2933" stop-color="#56A3C9"/>
<stop offset="0.8101" stop-color="#00FFAA"/>
<stop offset="1" stop-color="#CCFFD5"/>
</linearGradient>
<linearGradient id="paint15_linear" x1="1088.44" y1="507.934" x2="1096.95" y2="483.565" gradientUnits="userSpaceOnUse">
<stop offset="0.0921788" stop-color="#6134BA"/>
<stop offset="0.2933" stop-color="#B23CC9"/>
<stop offset="0.8101" stop-color="#FF4D6A"/>
<stop offset="1" stop-color="#FFA6B5"/>
</linearGradient>
<linearGradient id="paint16_linear" x1="1091.57" y1="583.185" x2="1108.37" y2="558.039" gradientUnits="userSpaceOnUse">
<stop stop-color="#3E29A6"/>
<stop offset="0.0921788" stop-color="#344ABA"/>
<stop offset="0.2933" stop-color="#56A3C9"/>
<stop offset="0.8101" stop-color="#00FFAA"/>
<stop offset="1" stop-color="#CCFFD5"/>
</linearGradient>
<linearGradient id="paint17_linear" x1="1102.53" y1="566.194" x2="1095.29" y2="551.965" gradientUnits="userSpaceOnUse">
<stop stop-color="#3E29A6"/>
<stop offset="0.0921788" stop-color="#344ABA"/>
<stop offset="0.2933" stop-color="#56A3C9"/>
<stop offset="0.8101" stop-color="#00FFAA"/>
<stop offset="1" stop-color="#CCFFD5"/>
</linearGradient>
<linearGradient id="paint18_linear" x1="1089.99" y1="558.992" x2="1108.51" y2="546.051" gradientUnits="userSpaceOnUse">
<stop stop-color="#3E29A6"/>
<stop offset="0.0921788" stop-color="#344ABA"/>
<stop offset="0.2933" stop-color="#56A3C9"/>
<stop offset="0.8101" stop-color="#00FFAA"/>
<stop offset="1" stop-color="#CCFFD5"/>
</linearGradient>
<linearGradient id="paint19_linear" x1="1098.82" y1="638.958" x2="1095.44" y2="628.102" gradientUnits="userSpaceOnUse">
<stop stop-color="#3E29A6"/>
<stop offset="0.0921788" stop-color="#344ABA"/>
<stop offset="0.2933" stop-color="#56A3C9"/>
<stop offset="0.8101" stop-color="#00FFAA"/>
<stop offset="1" stop-color="#CCFFD5"/>
</linearGradient>
<linearGradient id="paint20_linear" x1="1540.94" y1="642.282" x2="1549.01" y2="635.775" gradientUnits="userSpaceOnUse">
<stop stop-color="#A629A6"/>
<stop offset="0.0921788" stop-color="#BA34A2"/>
<stop offset="0.2933" stop-color="#C9567E"/>
<stop offset="0.8101" stop-color="#FFCE00"/>
<stop offset="1" stop-color="#FFEA90"/>
</linearGradient>
<linearGradient id="paint21_linear" x1="1469.32" y1="590.521" x2="1460.39" y2="567.148" gradientUnits="userSpaceOnUse">
<stop stop-color="#3E29A6"/>
<stop offset="0.0921788" stop-color="#344ABA"/>
<stop offset="0.2933" stop-color="#56A3C9"/>
<stop offset="0.8101" stop-color="#00FFAA"/>
<stop offset="1" stop-color="#CCFFD5"/>
</linearGradient>
<linearGradient id="paint22_linear" x1="1467.88" y1="584.626" x2="1489.73" y2="603.821" gradientUnits="userSpaceOnUse">
<stop stop-color="#3E29A6"/>
<stop offset="0.0921788" stop-color="#344ABA"/>
<stop offset="0.2933" stop-color="#56A3C9"/>
<stop offset="0.8101" stop-color="#00FFAA"/>
<stop offset="1" stop-color="#CCFFD5"/>
</linearGradient>
<linearGradient id="paint23_linear" x1="1439.04" y1="734.908" x2="1434.13" y2="722.586" gradientUnits="userSpaceOnUse">
<stop stop-color="#A629A6"/>
<stop offset="0.0921788" stop-color="#BA34A2"/>
<stop offset="0.2933" stop-color="#C9567E"/>
<stop offset="0.8101" stop-color="#FFCE00"/>
<stop offset="1" stop-color="#FFEA90"/>
</linearGradient>
<linearGradient id="paint24_linear" x1="1430.6" y1="733.4" x2="1412.84" y2="738.586" gradientUnits="userSpaceOnUse">
<stop stop-color="#A629A6"/>
<stop offset="0.0921788" stop-color="#BA34A2"/>
<stop offset="0.2933" stop-color="#C9567E"/>
<stop offset="0.8101" stop-color="#FFCE00"/>
<stop offset="1" stop-color="#FFEA90"/>
</linearGradient>
<linearGradient id="paint25_linear" x1="1440.89" y1="656.143" x2="1426.49" y2="635.475" gradientUnits="userSpaceOnUse">
<stop stop-color="#A629A6"/>
<stop offset="0.0921788" stop-color="#BA34A2"/>
<stop offset="0.2933" stop-color="#C9567E"/>
<stop offset="0.8101" stop-color="#FFCE00"/>
<stop offset="1" stop-color="#FFEA90"/>
</linearGradient>
<linearGradient id="paint26_linear" x1="1491.18" y1="850.044" x2="1473.48" y2="820.714" gradientUnits="userSpaceOnUse">
<stop stop-color="#3E29A6"/>
<stop offset="0.0921788" stop-color="#344ABA"/>
<stop offset="0.2933" stop-color="#56A3C9"/>
<stop offset="0.8101" stop-color="#00FFAA"/>
<stop offset="1" stop-color="#CCFFD5"/>
</linearGradient>
<linearGradient id="paint27_linear" x1="1398.66" y1="835.613" x2="1381.37" y2="816.516" gradientUnits="userSpaceOnUse">
<stop offset="0.0921788" stop-color="#6134BA"/>
<stop offset="0.2933" stop-color="#B23CC9"/>
<stop offset="0.8101" stop-color="#FF4D6A"/>
<stop offset="1" stop-color="#FFA6B5"/>
</linearGradient>
<linearGradient id="paint28_linear" x1="1540.87" y1="685.154" x2="1548.5" y2="704.625" gradientUnits="userSpaceOnUse">
<stop stop-color="#3E29A6"/>
<stop offset="0.0921788" stop-color="#344ABA"/>
<stop offset="0.2933" stop-color="#56A3C9"/>
<stop offset="0.8101" stop-color="#00FFAA"/>
<stop offset="1" stop-color="#CCFFD5"/>
</linearGradient>
<linearGradient id="paint29_linear" x1="1532.16" y1="696.55" x2="1536.45" y2="683.962" gradientUnits="userSpaceOnUse">
<stop stop-color="#3E29A6"/>
<stop offset="0.0921788" stop-color="#344ABA"/>
<stop offset="0.2933" stop-color="#56A3C9"/>
<stop offset="0.8101" stop-color="#00FFAA"/>
<stop offset="1" stop-color="#CCFFD5"/>
</linearGradient>
<linearGradient id="paint30_linear" x1="1607.67" y1="843.095" x2="1607.46" y2="818.072" gradientUnits="userSpaceOnUse">
<stop stop-color="#3E29A6"/>
<stop offset="0.0921788" stop-color="#344ABA"/>
<stop offset="0.2933" stop-color="#56A3C9"/>
<stop offset="0.8101" stop-color="#00FFAA"/>
<stop offset="1" stop-color="#CCFFD5"/>
</linearGradient>
<linearGradient id="paint31_linear" x1="357.814" y1="498.911" x2="368.594" y2="490.221" gradientUnits="userSpaceOnUse">
<stop stop-color="#A629A6"/>
<stop offset="0.0921788" stop-color="#BA34A2"/>
<stop offset="0.2933" stop-color="#C9567E"/>
<stop offset="0.8101" stop-color="#FFCE00"/>
<stop offset="1" stop-color="#FFEA90"/>
</linearGradient>
<linearGradient id="paint32_linear" x1="262.169" y1="429.785" x2="250.239" y2="398.572" gradientUnits="userSpaceOnUse">
<stop stop-color="#3E29A6"/>
<stop offset="0.0921788" stop-color="#344ABA"/>
<stop offset="0.2933" stop-color="#56A3C9"/>
<stop offset="0.8101" stop-color="#00FFAA"/>
<stop offset="1" stop-color="#CCFFD5"/>
</linearGradient>
<linearGradient id="paint33_linear" x1="260.248" y1="421.913" x2="289.418" y2="447.547" gradientUnits="userSpaceOnUse">
<stop stop-color="#3E29A6"/>
<stop offset="0.0921788" stop-color="#344ABA"/>
<stop offset="0.2933" stop-color="#56A3C9"/>
<stop offset="0.8101" stop-color="#00FFAA"/>
<stop offset="1" stop-color="#CCFFD5"/>
</linearGradient>
<linearGradient id="paint34_linear" x1="221.732" y1="622.609" x2="215.178" y2="606.154" gradientUnits="userSpaceOnUse">
<stop stop-color="#A629A6"/>
<stop offset="0.0921788" stop-color="#BA34A2"/>
<stop offset="0.2933" stop-color="#C9567E"/>
<stop offset="0.8101" stop-color="#FFCE00"/>
<stop offset="1" stop-color="#FFEA90"/>
</linearGradient>
<linearGradient id="paint35_linear" x1="210.452" y1="620.596" x2="186.735" y2="627.522" gradientUnits="userSpaceOnUse">
<stop stop-color="#A629A6"/>
<stop offset="0.0921788" stop-color="#BA34A2"/>
<stop offset="0.2933" stop-color="#C9567E"/>
<stop offset="0.8101" stop-color="#FFCE00"/>
<stop offset="1" stop-color="#FFEA90"/>
</linearGradient>
<linearGradient id="paint36_linear" x1="224.199" y1="517.421" x2="204.974" y2="489.82" gradientUnits="userSpaceOnUse">
<stop stop-color="#A629A6"/>
<stop offset="0.0921788" stop-color="#BA34A2"/>
<stop offset="0.2933" stop-color="#C9567E"/>
<stop offset="0.8101" stop-color="#FFCE00"/>
<stop offset="1" stop-color="#FFEA90"/>
</linearGradient>
<linearGradient id="paint37_linear" x1="291.359" y1="776.37" x2="267.724" y2="737.201" gradientUnits="userSpaceOnUse">
<stop stop-color="#3E29A6"/>
<stop offset="0.0921788" stop-color="#344ABA"/>
<stop offset="0.2933" stop-color="#56A3C9"/>
<stop offset="0.8101" stop-color="#00FFAA"/>
<stop offset="1" stop-color="#CCFFD5"/>
</linearGradient>
<linearGradient id="paint38_linear" x1="167.796" y1="757.098" x2="144.717" y2="731.595" gradientUnits="userSpaceOnUse">
<stop offset="0.0921788" stop-color="#6134BA"/>
<stop offset="0.2933" stop-color="#B23CC9"/>
<stop offset="0.8101" stop-color="#FF4D6A"/>
<stop offset="1" stop-color="#FFA6B5"/>
</linearGradient>
<linearGradient id="paint39_linear" x1="357.725" y1="556.164" x2="367.912" y2="582.167" gradientUnits="userSpaceOnUse">
<stop stop-color="#3E29A6"/>
<stop offset="0.0921788" stop-color="#344ABA"/>
<stop offset="0.2933" stop-color="#56A3C9"/>
<stop offset="0.8101" stop-color="#00FFAA"/>
<stop offset="1" stop-color="#CCFFD5"/>
</linearGradient>
<linearGradient id="paint40_linear" x1="346.091" y1="571.383" x2="351.821" y2="554.572" gradientUnits="userSpaceOnUse">
<stop stop-color="#3E29A6"/>
<stop offset="0.0921788" stop-color="#344ABA"/>
<stop offset="0.2933" stop-color="#56A3C9"/>
<stop offset="0.8101" stop-color="#00FFAA"/>
<stop offset="1" stop-color="#CCFFD5"/>
</linearGradient>
<linearGradient id="paint41_linear" x1="446.933" y1="767.09" x2="446.648" y2="733.672" gradientUnits="userSpaceOnUse">
<stop stop-color="#3E29A6"/>
<stop offset="0.0921788" stop-color="#344ABA"/>
<stop offset="0.2933" stop-color="#56A3C9"/>
<stop offset="0.8101" stop-color="#00FFAA"/>
<stop offset="1" stop-color="#CCFFD5"/>
</linearGradient>
<linearGradient id="paint42_linear" x1="1602.24" y1="449.44" x2="1611.8" y2="437.587" gradientUnits="userSpaceOnUse">
<stop stop-color="#3E29A6"/>
<stop offset="0.0921788" stop-color="#344ABA"/>
<stop offset="0.2933" stop-color="#56A3C9"/>
<stop offset="0.8101" stop-color="#00FFAA"/>
<stop offset="1" stop-color="#CCFFD5"/>
</linearGradient>
<linearGradient id="paint43_linear" x1="1642.98" y1="428.355" x2="1636.63" y2="421.149" gradientUnits="userSpaceOnUse">
<stop stop-color="#A629A6"/>
<stop offset="0.0921788" stop-color="#BA34A2"/>
<stop offset="0.2933" stop-color="#C9567E"/>
<stop offset="0.8101" stop-color="#FFCE00"/>
<stop offset="1" stop-color="#FFEA90"/>
</linearGradient>
<linearGradient id="paint44_linear" x1="1623.66" y1="328.486" x2="1629.66" y2="313.78" gradientUnits="userSpaceOnUse">
<stop offset="0.0921788" stop-color="#6134BA"/>
<stop offset="0.2933" stop-color="#B23CC9"/>
<stop offset="0.8101" stop-color="#FF4D6A"/>
<stop offset="1" stop-color="#FFA6B5"/>
</linearGradient>
<linearGradient id="paint45_linear" x1="1460.87" y1="397.308" x2="1469.52" y2="365.984" gradientUnits="userSpaceOnUse">
<stop stop-color="#3E29A6"/>
<stop offset="0.0921788" stop-color="#344ABA"/>
<stop offset="0.2933" stop-color="#56A3C9"/>
<stop offset="0.8101" stop-color="#00FFAA"/>
<stop offset="1" stop-color="#CCFFD5"/>
</linearGradient>
<linearGradient id="paint46_linear" x1="1419.98" y1="398.733" x2="1414.33" y2="388.365" gradientUnits="userSpaceOnUse">
<stop offset="0.0921788" stop-color="#6134BA"/>
<stop offset="0.2933" stop-color="#B23CC9"/>
<stop offset="0.8101" stop-color="#FF4D6A"/>
<stop offset="1" stop-color="#FFA6B5"/>
</linearGradient>
<linearGradient id="paint47_linear" x1="1564.54" y1="399.968" x2="1580.13" y2="385.498" gradientUnits="userSpaceOnUse">
<stop stop-color="#A629A6"/>
<stop offset="0.0921788" stop-color="#BA34A2"/>
<stop offset="0.2933" stop-color="#C9567E"/>
<stop offset="0.8101" stop-color="#FFCE00"/>
<stop offset="1" stop-color="#FFEA90"/>
</linearGradient>
<linearGradient id="paint48_linear" x1="1584.9" y1="317.856" x2="1583.4" y2="306.15" gradientUnits="userSpaceOnUse">
<stop stop-color="#A629A6"/>
<stop offset="0.0921788" stop-color="#BA34A2"/>
<stop offset="0.2933" stop-color="#C9567E"/>
<stop offset="0.8101" stop-color="#FFCE00"/>
<stop offset="1" stop-color="#FFEA90"/>
</linearGradient>
<linearGradient id="paint49_linear" x1="1583.25" y1="304.09" x2="1576.55" y2="298.354" gradientUnits="userSpaceOnUse">
<stop stop-color="#A629A6"/>
<stop offset="0.0921788" stop-color="#BA34A2"/>
<stop offset="0.2933" stop-color="#C9567E"/>
<stop offset="0.8101" stop-color="#FFCE00"/>
<stop offset="1" stop-color="#FFEA90"/>
</linearGradient>
<linearGradient id="paint50_linear" x1="1380.31" y1="431.092" x2="1376.38" y2="419.313" gradientUnits="userSpaceOnUse">
<stop stop-color="#3E29A6"/>
<stop offset="0.0921788" stop-color="#344ABA"/>
<stop offset="0.2933" stop-color="#56A3C9"/>
<stop offset="0.8101" stop-color="#00FFAA"/>
<stop offset="1" stop-color="#CCFFD5"/>
</linearGradient>
<linearGradient id="paint51_linear" x1="1380.97" y1="427.912" x2="1384.5" y2="417.677" gradientUnits="userSpaceOnUse">
<stop stop-color="#3E29A6"/>
<stop offset="0.0921788" stop-color="#344ABA"/>
<stop offset="0.2933" stop-color="#56A3C9"/>
<stop offset="0.8101" stop-color="#00FFAA"/>
<stop offset="1" stop-color="#CCFFD5"/>
</linearGradient>
<linearGradient id="paint52_linear" x1="1387" y1="427.725" x2="1386.47" y2="420.886" gradientUnits="userSpaceOnUse">
<stop stop-color="#3E29A6"/>
<stop offset="0.0921788" stop-color="#344ABA"/>
<stop offset="0.2933" stop-color="#56A3C9"/>
<stop offset="0.8101" stop-color="#00FFAA"/>
<stop offset="1" stop-color="#CCFFD5"/>
</linearGradient>
<linearGradient id="paint53_linear" x1="1527.73" y1="361.731" x2="1525.08" y2="353.143" gradientUnits="userSpaceOnUse">
<stop offset="0.0921788" stop-color="#6134BA"/>
<stop offset="0.2933" stop-color="#B23CC9"/>
<stop offset="0.8101" stop-color="#FF4D6A"/>
<stop offset="1" stop-color="#FFA6B5"/>
</linearGradient>
<linearGradient id="paint54_linear" x1="1529.7" y1="356.892" x2="1536.58" y2="347.245" gradientUnits="userSpaceOnUse">
<stop offset="0.0921788" stop-color="#6134BA"/>
<stop offset="0.2933" stop-color="#B23CC9"/>
<stop offset="0.8101" stop-color="#FF4D6A"/>
<stop offset="1" stop-color="#FFA6B5"/>
</linearGradient>
<linearGradient id="paint55_linear" x1="1455.07" y1="442.904" x2="1468.66" y2="455.036" gradientUnits="userSpaceOnUse">
<stop offset="0.0921788" stop-color="#6134BA"/>
<stop offset="0.2933" stop-color="#B23CC9"/>
<stop offset="0.8101" stop-color="#FF4D6A"/>
<stop offset="1" stop-color="#FFA6B5"/>
</linearGradient>
<linearGradient id="paint56_linear" x1="1454.41" y1="423.365" x2="1459.75" y2="444.276" gradientUnits="userSpaceOnUse">
<stop offset="0.0921788" stop-color="#6134BA"/>
<stop offset="0.2933" stop-color="#B23CC9"/>
<stop offset="0.8101" stop-color="#FF4D6A"/>
<stop offset="1" stop-color="#FFA6B5"/>
</linearGradient>
<linearGradient id="paint57_linear" x1="1456.43" y1="432.575" x2="1470.77" y2="423.575" gradientUnits="userSpaceOnUse">
<stop offset="0.0921788" stop-color="#6134BA"/>
<stop offset="0.2933" stop-color="#B23CC9"/>
<stop offset="0.8101" stop-color="#FF4D6A"/>
<stop offset="1" stop-color="#FFA6B5"/>
</linearGradient>
</defs>
</svg>
