<svg width="561" height="573" viewBox="0 0 561 573" fill="none" xmlns="http://www.w3.org/2000/svg">
<g filter="url(#filter0_d)">
<path d="M216.731 157.557L315.97 155.916L415.073 161.355L447.301 255.23L472.752 351.164L393.431 410.823L310.058 464.674L228.807 407.67L151.828 345.019L180.933 250.13L216.731 157.557Z" fill="url(#paint0_linear)"/>
</g>
<path fill-rule="evenodd" clip-rule="evenodd" d="M281.836 423.619L290.362 433.935L291.904 432.661L283.378 422.345L281.836 423.619ZM253.372 408.08L301.543 466.363L303.085 465.089L254.913 406.806L253.372 408.08ZM301.335 486.068L234.194 404.833L235.735 403.558L302.877 484.794L301.335 486.068ZM220.524 406.148L298.11 500.02L299.651 498.746L222.065 404.874L220.524 406.148ZM290.867 511.214L207.1 409.864L208.642 408.59L292.409 509.94L290.867 511.214ZM283.715 521.466L195.472 414.7L197.013 413.426L285.257 520.192L283.715 521.466ZM275.373 529.229L186.917 422.205L188.458 420.931L276.915 527.955L275.373 529.229ZM179.513 430.06L265.625 534.247L267.166 532.973L181.055 428.786L179.513 430.06ZM254.726 538.915L173.303 440.401L174.845 439.127L256.267 537.641L254.726 538.915ZM167.519 451.259L242.547 542.036L244.088 540.762L169.06 449.985L167.519 451.259ZM228.664 543.094L164.719 465.727L166.261 464.453L230.205 541.82L228.664 543.094ZM164.903 483.806L210.517 538.994L212.058 537.72L166.445 482.531L164.903 483.806ZM182.991 523.546L174.465 513.23L176.007 511.956L184.533 522.272L182.991 523.546Z" fill="url(#paint1_linear)"/>
<path d="M203.908 195.053C204.728 197.785 212.303 192.684 212.957 200.2L213.302 194.392C213.521 191.702 203.117 192.046 202.435 189.329L203.908 195.053Z" fill="url(#paint2_linear)"/>
<path d="M145.648 150.53C140.513 150.396 140.744 138.522 135.934 139.258L143.722 138.007C148.608 137.21 148.704 150.579 153.686 150.836L145.648 150.53Z" fill="url(#paint3_linear)"/>
<path d="M153.395 150.944C158.53 151.078 158.299 162.951 163.109 162.215L155.321 163.466C150.435 164.264 150.339 150.894 145.357 150.638L153.395 150.944Z" fill="url(#paint4_linear)"/>
<path d="M124.503 258.683C120.206 257.874 118.379 267.767 114.568 266.314L120.857 268.66C124.805 270.127 127.102 259.102 131.276 259.758L124.503 258.683Z" fill="url(#paint5_linear)"/>
<path d="M113.697 266.012C109.626 264.392 105.917 273.666 102.395 271.479L108 275.003C111.523 277.19 116.038 266.89 120.047 268.433L113.697 266.012Z" fill="url(#paint6_linear)"/>
<path d="M112.539 197.073C109.226 202.006 125.163 205.873 122.309 211.064L125.951 204.358C128.805 199.167 117.82 191.308 120.597 186.179L112.539 197.073Z" fill="url(#paint7_linear)"/>
<path d="M161.563 338.643C166.37 341.177 153.978 353.554 167.868 357.689L156.815 356.294C151.663 355.671 156.19 336.188 151.354 333.929L161.563 338.643Z" fill="url(#paint8_linear)"/>
<path d="M86.5521 325.72C93.8256 329.911 88.1468 347.809 95.2563 348.99L83.3138 350.7C76.2042 349.519 84.985 335.78 77.8607 334.737L86.5521 325.72Z" fill="url(#paint9_linear)"/>
<path d="M209.991 241.421C207.311 239.811 211.164 232.432 208.273 231.495L203.638 229.954C206.59 230.967 202.978 237.398 205.734 238.946L209.991 241.421Z" fill="url(#paint10_linear)"/>
<path d="M198.451 236.146C201.07 237.68 204.189 230.013 207.203 231.102L202.506 229.484C199.492 228.395 196.874 235.281 194.255 233.748L198.451 236.146Z" fill="url(#paint11_linear)"/>
<path d="M253.123 334.835C245.374 334.421 251.807 354.872 244.046 355.222L253.976 354.757C261.737 354.407 263.2 336.891 270.61 336.573L253.123 334.835Z" fill="url(#paint12_linear)"/>
<defs>
<filter id="filter0_d" x="20.1082" y="0.725891" width="539.946" height="536.928" filterUnits="userSpaceOnUse" color-interpolation-filters="sRGB">
<feFlood flood-opacity="0" result="BackgroundImageFix"/>
<feColorMatrix in="SourceAlpha" type="matrix" values="0 0 0 0 0 0 0 0 0 0 0 0 0 0 0 0 0 0 127 0"/>
<feOffset dx="-15" dy="-15"/>
<feGaussianBlur stdDeviation="25"/>
<feColorMatrix type="matrix" values="0 0 0 0 1 0 0 0 0 0.301961 0 0 0 0 0.415686 0 0 0 0.3 0"/>
<feBlend mode="normal" in2="BackgroundImageFix" result="effect1_dropShadow"/>
<feBlend mode="normal" in="SourceGraphic" in2="effect1_dropShadow" result="shape"/>
</filter>
<linearGradient id="paint0_linear" x1="216.731" y1="157.557" x2="409.846" y2="434.35" gradientUnits="userSpaceOnUse">
<stop stop-color="#F77652"/>
<stop offset="1" stop-color="#F5398E"/>
</linearGradient>
<linearGradient id="paint1_linear" x1="288.281" y1="428.277" x2="178.942" y2="518.647" gradientUnits="userSpaceOnUse">
<stop stop-color="#FF4D6A"/>
<stop offset="1" stop-color="#FFCE00"/>
</linearGradient>
<linearGradient id="paint2_linear" x1="205.2" y1="196.859" x2="211.524" y2="191.762" gradientUnits="userSpaceOnUse">
<stop stop-color="#A629A6"/>
<stop offset="0.0921788" stop-color="#BA34A2"/>
<stop offset="0.2933" stop-color="#C9567E"/>
<stop offset="0.8101" stop-color="#FFCE00"/>
<stop offset="1" stop-color="#FFEA90"/>
</linearGradient>
<linearGradient id="paint3_linear" x1="149.096" y1="156.31" x2="142.098" y2="138" gradientUnits="userSpaceOnUse">
<stop stop-color="#3E29A6"/>
<stop offset="0.0921788" stop-color="#344ABA"/>
<stop offset="0.2933" stop-color="#56A3C9"/>
<stop offset="0.8101" stop-color="#00FFAA"/>
<stop offset="1" stop-color="#CCFFD5"/>
</linearGradient>
<linearGradient id="paint4_linear" x1="147.967" y1="151.692" x2="165.078" y2="166.729" gradientUnits="userSpaceOnUse">
<stop stop-color="#3E29A6"/>
<stop offset="0.0921788" stop-color="#344ABA"/>
<stop offset="0.2933" stop-color="#56A3C9"/>
<stop offset="0.8101" stop-color="#00FFAA"/>
<stop offset="1" stop-color="#CCFFD5"/>
</linearGradient>
<linearGradient id="paint5_linear" x1="125.373" y1="269.42" x2="121.528" y2="259.768" gradientUnits="userSpaceOnUse">
<stop stop-color="#A629A6"/>
<stop offset="0.0921788" stop-color="#BA34A2"/>
<stop offset="0.2933" stop-color="#C9567E"/>
<stop offset="0.8101" stop-color="#FFCE00"/>
<stop offset="1" stop-color="#FFEA90"/>
</linearGradient>
<linearGradient id="paint6_linear" x1="118.757" y1="268.24" x2="104.845" y2="272.302" gradientUnits="userSpaceOnUse">
<stop stop-color="#A629A6"/>
<stop offset="0.0921788" stop-color="#BA34A2"/>
<stop offset="0.2933" stop-color="#C9567E"/>
<stop offset="0.8101" stop-color="#FFCE00"/>
<stop offset="1" stop-color="#FFEA90"/>
</linearGradient>
<linearGradient id="paint7_linear" x1="126.821" y1="207.717" x2="115.544" y2="191.526" gradientUnits="userSpaceOnUse">
<stop stop-color="#A629A6"/>
<stop offset="0.0921788" stop-color="#BA34A2"/>
<stop offset="0.2933" stop-color="#C9567E"/>
<stop offset="0.8101" stop-color="#FFCE00"/>
<stop offset="1" stop-color="#FFEA90"/>
</linearGradient>
<linearGradient id="paint8_linear" x1="166.216" y1="359.616" x2="152.352" y2="336.64" gradientUnits="userSpaceOnUse">
<stop stop-color="#3E29A6"/>
<stop offset="0.0921788" stop-color="#344ABA"/>
<stop offset="0.2933" stop-color="#56A3C9"/>
<stop offset="0.8101" stop-color="#00FFAA"/>
<stop offset="1" stop-color="#CCFFD5"/>
</linearGradient>
<linearGradient id="paint9_linear" x1="93.7357" y1="348.312" x2="80.198" y2="333.352" gradientUnits="userSpaceOnUse">
<stop offset="0.0921788" stop-color="#6134BA"/>
<stop offset="0.2933" stop-color="#B23CC9"/>
<stop offset="0.8101" stop-color="#FF4D6A"/>
<stop offset="1" stop-color="#FFA6B5"/>
</linearGradient>
<linearGradient id="paint10_linear" x1="205.146" y1="230.444" x2="211.122" y2="245.698" gradientUnits="userSpaceOnUse">
<stop stop-color="#3E29A6"/>
<stop offset="0.0921788" stop-color="#344ABA"/>
<stop offset="0.2933" stop-color="#56A3C9"/>
<stop offset="0.8101" stop-color="#00FFAA"/>
<stop offset="1" stop-color="#CCFFD5"/>
</linearGradient>
<linearGradient id="paint11_linear" x1="198.323" y1="239.372" x2="201.684" y2="229.51" gradientUnits="userSpaceOnUse">
<stop stop-color="#3E29A6"/>
<stop offset="0.0921788" stop-color="#344ABA"/>
<stop offset="0.2933" stop-color="#56A3C9"/>
<stop offset="0.8101" stop-color="#00FFAA"/>
<stop offset="1" stop-color="#CCFFD5"/>
</linearGradient>
<linearGradient id="paint12_linear" x1="257.477" y1="354.172" x2="257.31" y2="334.57" gradientUnits="userSpaceOnUse">
<stop stop-color="#3E29A6"/>
<stop offset="0.0921788" stop-color="#344ABA"/>
<stop offset="0.2933" stop-color="#56A3C9"/>
<stop offset="0.8101" stop-color="#00FFAA"/>
<stop offset="1" stop-color="#CCFFD5"/>
</linearGradient>
</defs>
</svg>
