<svg width="36" height="36" viewBox="0 0 36 36" fill="none" xmlns="http://www.w3.org/2000/svg">
<path d="M33.3594 21.3281H30.0781V19.6875C30.0781 18.783 29.342 18.0469 28.4375 18.0469H22.9688C22.4973 18.0469 22.0746 18.2498 21.7749 18.5691L15.8594 17.5837V16.2132C17.4912 15.266 18.5938 13.5034 18.5938 11.4844H19.1406C20.0452 11.4844 20.7812 10.7483 20.7812 9.84375C20.7812 8.93922 20.0452 8.20312 19.1406 8.20312H18.8781L19.1778 7.50804C19.74 6.20594 19.6394 4.70203 18.9098 3.48578C18.4472 2.71468 17.7707 2.11039 16.9526 1.73851L15.4263 1.04343C13.6243 0.223122 11.4155 0.4632 9.83117 1.65047L8.96875 2.29687L8.96984 2.29851C8.11672 2.52109 7.36367 3.07015 6.90102 3.84125C6.29891 4.84531 6.25187 6.06976 6.77523 7.11703L7.31828 8.20312H7.10938C6.20484 8.20312 5.46875 8.93922 5.46875 9.84375C5.46875 10.7483 6.20484 11.4844 7.10938 11.4844H7.65625C7.65625 13.5034 8.75875 15.266 10.3906 16.2132V17.5837L3.74555 18.6911C1.89219 19.0001 0.546875 20.5877 0.546875 22.4673V33.9062C0.546875 34.2087 0.791875 34.4531 1.09375 34.4531H18.0469H18.5938H33.3594C33.9626 34.4531 34.4531 33.9626 34.4531 33.3594V22.4219C34.4531 21.8187 33.9626 21.3281 33.3594 21.3281ZM28.9844 19.6875V21.3281H25.5216C25.2284 20.3924 24.5886 19.6148 23.7502 19.1406H28.4375C28.7388 19.1406 28.9844 19.3856 28.9844 19.6875ZM22.4219 19.7941C23.2832 19.9708 23.9936 20.5494 24.3523 21.3281H22.4219V19.7941ZM19.6875 9.84375C19.6875 10.1451 19.442 10.3906 19.1406 10.3906H18.5938V9.29687H19.1406C19.442 9.29687 19.6875 9.54242 19.6875 9.84375ZM7.83891 4.40398C8.25453 3.71164 9.01469 3.28125 9.82187 3.28125C10.6794 3.28125 11.4751 3.70726 11.9514 4.42039L12.1231 4.67797L13.0331 4.07148L12.8614 3.8139C12.3681 3.07453 11.6326 2.555 10.7986 2.32422C12.0367 1.5564 13.6407 1.43172 14.9729 2.0382L16.4992 2.73328C17.1145 3.01328 17.6236 3.46773 17.972 4.04797C18.521 4.96289 18.5965 6.09437 18.1737 7.07437L18.1371 7.15969L17.4426 5.77062C17.3698 5.6257 17.237 5.52015 17.0789 5.48297C16.9214 5.44523 16.7552 5.48078 16.625 5.57758L15.75 6.23383C14.9975 6.79875 14.0651 7.10937 13.125 7.10937C12.1849 7.10937 11.2525 6.79875 10.5 6.23437L9.625 5.57812C9.49484 5.48023 9.32805 5.44523 9.17109 5.48351C9.01305 5.5207 8.88016 5.62625 8.80742 5.77117L8.06641 7.25375L7.75359 6.62812C7.39813 5.91719 7.42984 5.08539 7.83891 4.40398ZM7.10938 10.3906C6.80805 10.3906 6.5625 10.1451 6.5625 9.84375C6.5625 9.54242 6.80805 9.29687 7.10938 9.29687H7.65625V10.3906H7.10938ZM8.75 11.4844V8.33219L9.49266 6.84633L9.84375 7.10937C10.7844 7.81484 11.9498 8.20312 13.125 8.20312C14.3002 8.20312 15.4656 7.81484 16.4062 7.10937L16.7573 6.84633L17.5 8.33219V11.4844C17.5 13.8966 15.5373 15.8594 13.125 15.8594C10.7127 15.8594 8.75 13.8966 8.75 11.4844ZM13.125 16.9531C13.6965 16.9531 14.2472 16.8645 14.7656 16.701V17.8205L13.125 19.4611L11.4844 17.8205V16.701C12.0028 16.8645 12.5535 16.9531 13.125 16.9531ZM12.9484 22.9687H13.3016L14.1941 25.2L13.125 29.8337L12.0559 25.2L12.9484 22.9687ZM14.1619 20.7009L13.3793 21.875H12.8707L12.0876 20.7009L12.2702 20.1534L12.7384 20.6216C12.845 20.7277 12.985 20.7812 13.125 20.7812C13.265 20.7812 13.405 20.7277 13.5116 20.621L13.9798 20.1529L14.1619 20.7009ZM7.10938 33.3594V24.0625H6.01562V33.3594H1.64062V22.4673C1.64062 21.1252 2.60148 19.9905 3.92547 19.7695L10.7499 18.6326L11.4056 19.2883L10.9654 20.6084C10.9118 20.7687 10.9353 20.9442 11.0294 21.0848L11.9634 22.4859L10.9763 24.9534C10.9348 25.0567 10.9266 25.1705 10.9512 25.2793L12.5918 32.3887C12.6492 32.637 12.8702 32.8125 13.125 32.8125C13.3798 32.8125 13.6008 32.637 13.6582 32.3887L15.2988 25.2793C15.3234 25.171 15.3152 25.0573 15.2737 24.9534L14.2866 22.4859L15.2206 21.0848C15.3141 20.9442 15.3377 20.7687 15.2846 20.6084L14.8444 19.2883L15.5001 18.6326L21.3363 19.6049C21.3352 19.6328 21.3281 19.6591 21.3281 19.6875V21.3281H18.0469C17.4437 21.3281 16.9531 21.8187 16.9531 22.4219V33.3594H7.10938ZM18.5938 33.3594H18.0469V32.2656H33.3599V33.3594H18.5938ZM33.3599 31.1719H18.0469V26.7362C18.7425 27.4477 19.7105 27.8906 20.7812 27.8906H24.0625V28.4375C24.0625 29.342 24.7986 30.0781 25.7031 30.0781C26.6077 30.0781 27.3438 29.342 27.3438 28.4375V27.8906H30.625C31.6958 27.8906 32.6643 27.4471 33.3599 26.7362V31.1719ZM25.1562 28.4375V25.7031H26.25V28.4375C26.25 28.7394 26.0045 28.9844 25.7031 28.9844C25.4018 28.9844 25.1562 28.7394 25.1562 28.4375ZM33.3594 24.0625C33.3594 25.5702 32.1327 26.7969 30.625 26.7969H27.3438V25.1562C27.3438 24.8538 27.0987 24.6094 26.7969 24.6094H24.6094C24.3075 24.6094 24.0625 24.8538 24.0625 25.1562V26.7969H20.7812C19.2735 26.7969 18.0469 25.5702 18.0469 24.0625V22.4219H33.3594V24.0625Z" fill="#849BD9"/>
</svg>
