<svg width="427" height="442" viewBox="0 0 427 442" fill="none" xmlns="http://www.w3.org/2000/svg">
<path d="M366.848 290.272C349.49 291.58 332.113 292.698 314.724 293.629C311.141 293.816 307.557 294.004 303.978 294.175C300.3 294.355 296.616 294.524 292.934 294.685C284.297 295.069 275.655 295.408 267.011 295.685C259.313 295.944 251.615 296.167 243.912 296.346C219.362 296.915 194.797 297.111 170.242 296.914C162.866 296.855 155.491 296.761 148.117 296.632C141.179 296.515 134.239 296.372 127.303 296.185C126.673 296.173 126.045 296.154 125.407 296.141C111.846 295.781 98.2837 295.297 84.7272 294.692C74.1286 294.232 63.5334 293.694 52.9417 293.078C48.5959 292.832 44.2545 292.57 39.9071 292.297C47.3832 250.61 62.0091 205.344 90.8874 174.37C149.914 111.066 241.826 112.407 306.583 167.043C315.041 174.187 323.396 182.595 331.067 191.917C354.019 219.807 370.935 255.829 366.848 290.272Z" fill="#F8F9FD"/>
<path d="M366.848 290.272C349.49 291.58 332.113 292.698 314.725 293.629C311.141 293.816 307.558 294.004 303.979 294.175L305.828 211.188L306.283 190.903L331.067 191.917C354.019 219.807 370.935 255.829 366.848 290.272Z" fill="#CFD5EB"/>
<path d="M292.934 294.685C284.297 295.069 275.655 295.408 267.011 295.685L265.035 205.649L292.005 204.483L292.934 294.685Z" fill="#CFD5EB"/>
<path d="M314.725 293.629C311.141 293.816 307.557 294.004 303.978 294.175C300.3 294.355 296.616 294.524 292.934 294.685L292.005 204.483L305.828 211.188L311.845 214.107L314.725 293.629Z" fill="#BCC3DA"/>
<path d="M127.303 296.185C126.673 296.173 126.045 296.154 125.407 296.141C111.846 295.781 98.2837 295.297 84.7272 294.692C85.8961 285.901 87.065 277.11 88.2421 268.322C91.6643 242.656 95.0843 216.999 98.5042 191.341C111.553 190.729 124.477 190.092 137.524 189.487C136.393 209.019 134.892 228.979 132.916 248.908C131.35 264.763 129.498 280.604 127.303 296.185Z" fill="#CFD5EB"/>
<path d="M243.912 296.346C219.362 296.915 194.797 297.111 170.242 296.914C162.866 296.855 155.491 296.761 148.117 296.632C141.179 296.515 134.239 296.372 127.303 296.185C126.673 296.173 126.045 296.154 125.407 296.141L130.78 248.878L137.524 189.487L171.144 198.529L166.769 240.514L246.284 245.763L243.912 296.346Z" fill="#BCC3DA"/>
<path d="M148.117 296.632C141.179 296.515 134.24 296.372 127.303 296.185C126.673 296.173 126.045 296.154 125.407 296.141C111.847 295.781 98.2838 295.297 84.7273 294.692C74.1287 294.232 63.5335 293.694 52.9418 293.078L54.1913 267.681L88.2422 268.322L102.408 268.59L104.478 248.475L130.78 248.878L132.916 248.908L149.695 249.167L148.117 296.632Z" fill="#A8AFC6"/>
<path d="M170.242 296.914C162.866 296.855 155.491 296.761 148.117 296.632L149.695 249.167L169.948 252.812L170.242 296.914Z" fill="#929AB4"/>
<path d="M269.942 166.294C267.754 164.265 267.572 160.366 269.958 158.389C272.299 156.452 276.344 157.259 277.761 159.933C277.895 158.159 278.21 155.809 278.849 154.153C279.48 152.495 280.691 150.966 282.371 150.372C284.049 149.786 286.181 150.386 286.975 151.979C287.589 149.631 289.292 145.976 291.092 144.35C292.885 142.715 295.513 141.866 297.824 142.619C301.361 143.781 302.824 147.98 303.244 151.679C303.637 155.186 303.541 158.746 302.95 162.217C303.818 159.84 306.36 159.864 308.679 160.884C311.124 161.954 311.618 164.724 311.344 167.085C320.295 168.279 329.327 165.936 338.307 166.435C339.432 166.5 340.786 166.724 341.209 167.769C341.593 168.725 340.882 169.834 339.935 170.248C331.99 173.78 321.437 171.908 312.943 172.217C302.48 172.593 292.018 172.899 281.551 173.125C273.746 173.294 265.943 173.419 258.143 173.5C257.006 173.511 243.255 174.48 243.767 172.315C244.857 167.739 252.036 167.938 255.737 167.281C260.417 166.448 265.369 167.218 269.942 166.294Z" fill="#F3F3F3"/>
<path d="M64.722 183.1C63.2424 182.948 61.7596 182.743 60.2654 182.481C59.7545 182.388 59.1845 182.252 58.9083 181.809C58.6103 181.316 58.826 180.644 59.2549 180.258C59.6838 179.873 60.2571 179.702 60.8156 179.553C62.4063 179.129 82.4061 175.481 82.4759 175.843C82.0924 173.903 81.1328 171.36 83.0299 169.796C84.3942 168.677 86.77 169.255 87.4598 170.873C87.2827 168.786 88.7615 165.967 90.0143 164.283C91.2671 162.598 93.5272 161.58 95.534 162.19C97.5407 162.8 98.8864 165.28 97.9596 167.158C96.8417 164.256 100.405 160.222 103.228 158.907C106.049 157.6 109.607 158.425 111.847 160.584C114.088 162.742 115.051 166.024 114.763 169.119C114.5 171.896 113.171 174.386 111.918 176.791C115.637 177.44 119.417 176.98 123.165 177.127C125.685 177.233 128.431 177.708 130.166 179.396C126.221 181.614 120.913 180.924 116.456 181.193C106.31 181.796 96.1818 182.297 86.091 182.923C78.7969 183.378 71.8468 183.829 64.722 183.1Z" fill="#F3F3F3"/>
<path d="M369.682 367.382C368.639 367.664 367.275 368 365.609 368.378C337.599 374.784 226.042 394.034 214.889 395.473C212.64 395.764 209.623 396.297 206.411 396.735C200.34 397.545 193.607 397.975 190.281 395.701C179.476 388.295 151.161 330.479 150.621 319.251C150.392 314.417 158.608 312.786 163.672 311.67C164.28 311.534 164.848 311.415 165.349 311.286C180.454 307.535 296.105 294.791 305.588 295.118C308.969 295.227 312.571 294.904 316.077 294.942C321.581 294.998 326.843 295.956 330.598 300.947C337.534 310.187 361.175 340.45 365.524 346.928C368.675 351.616 379.831 364.609 369.682 367.382Z" fill="#DEE1EB"/>
<path d="M159.613 285.258C158.159 288.901 152.891 304.209 155.315 309.475C156.691 312.464 179.869 356.77 183.971 362.628C186.487 366.214 189.631 370.927 193.896 372.618C207.65 378.075 362.025 345.46 366.323 344.805C369.457 344.33 370.378 333.354 371.093 328.44L159.613 285.258Z" fill="#564953"/>
<path d="M361.778 340.955C332.655 345.91 302.241 352.171 272.563 357.689C268.956 358.353 265.358 359.02 261.777 359.657C244.172 362.832 226.917 365.653 210.445 367.683C210.764 365.747 211.951 361.496 212.042 359.754C229.062 356.826 246.156 353.918 263.283 351.018C296.69 345.361 330.085 339.225 363.287 333.513C363.041 335.802 362.433 338.521 361.778 340.955Z" fill="#BFAFA7"/>
<path d="M261.777 359.657C244.172 362.832 226.916 365.653 210.445 367.683C210.764 365.747 211.951 361.496 212.042 359.754C229.062 356.826 246.156 353.918 263.283 351.018L261.777 359.657Z" fill="#7A9C02"/>
<path d="M367.154 332.566C366.167 332.837 364.869 333.156 363.287 333.513C336.71 339.592 230.868 357.856 220.288 359.221C218.157 359.5 215.288 360.003 212.242 360.414C206.48 361.185 200.095 361.595 196.94 359.437C186.693 352.409 159.821 297.556 159.313 286.899C159.095 282.315 166.895 280.765 171.696 279.71C172.275 279.584 172.816 279.466 173.288 279.347C187.62 275.792 297.349 263.697 306.344 264.007C309.55 264.113 312.973 263.803 316.295 263.836C321.519 263.887 326.512 264.799 330.072 269.536C336.653 278.301 359.084 307.018 363.206 313.162C366.195 317.605 376.782 329.935 367.154 332.566Z" fill="#77758A"/>
<path d="M363.287 333.513C348.313 336.938 308.155 344.234 274.069 350.193C270.333 350.849 266.674 351.482 263.134 352.094C263.07 352.103 263.004 352.121 262.94 352.13C241.49 355.844 224.238 358.719 220.288 359.221C218.157 359.5 215.288 360.003 212.242 360.414C210.142 355.675 207.988 350.939 205.784 346.224C204.525 343.521 203.241 340.812 201.936 338.114C192.437 318.307 182.16 298.774 171.696 279.71C172.275 279.584 172.816 279.466 173.288 279.347C178.956 277.944 199.557 275.197 222.947 272.409C226.541 271.987 230.207 271.558 233.889 271.133C254.878 268.71 276.563 266.412 290.789 265.114C294.755 264.748 298.147 264.456 300.773 264.266C303.514 264.072 305.439 263.974 306.344 264.007C309.55 264.113 312.973 263.803 316.295 263.836C318.65 267.369 321.012 270.905 323.397 274.455C325.336 277.341 327.282 280.237 329.238 283.127C336.752 294.271 344.357 305.439 351.89 316.579L358.883 326.949C360.359 329.139 361.827 331.327 363.287 333.513Z" fill="#E2CEC5"/>
<path d="M301.977 294.331L252.286 307.334L233.889 271.133C254.878 268.71 276.563 266.412 290.789 265.114L301.977 294.331Z" fill="#BDF62E"/>
<path d="M173.414 312.928C174.132 315.977 181.299 329.787 182.505 331.412C184.041 333.477 192.913 329.509 193.772 328.342C194.647 327.145 185.466 311.221 184.113 309.521C182.844 307.931 172.79 310.281 173.414 312.928Z" fill="#403A44"/>
<path d="M175.182 314.167C175.182 314.167 182.855 328.869 183.714 329.76C184.573 330.65 190.977 328.083 191.713 327.402C192.45 326.721 184.027 312.257 183.451 311.557C182.874 310.857 174.525 312.787 175.182 314.167Z" fill="#5C606C"/>
<path d="M347.871 301.427C344.9 296.787 341.929 292.148 338.958 287.508C338.073 286.127 335.868 287.398 336.753 288.778C339.724 293.418 342.695 298.058 345.666 302.697C346.543 304.076 348.756 302.808 347.871 301.427Z" fill="#BDCBD8"/>
<path d="M358.883 326.949C358.883 326.949 305.642 346.977 287.147 309.08L257.5 317.586L274.069 350.193C270.333 350.849 266.674 351.482 263.134 352.094L256.118 338.184L205.784 346.224C204.525 343.521 203.241 340.812 201.936 338.114L251.747 329.503L222.947 272.409C226.541 271.987 230.207 271.558 233.889 271.133L252.286 307.334C266.083 303.679 301.977 294.331 301.977 294.331L290.789 265.114C294.755 264.748 298.146 264.456 300.773 264.266L305.45 276.712L323.397 274.455C325.336 277.341 327.282 280.237 329.238 283.127L308.896 285.892L314.65 301.194L297.947 305.982C303.577 314.853 319.799 330.773 353.549 319.038L358.883 326.949Z" fill="#FFFFFD"/>
<path d="M272.563 357.689C268.956 358.353 265.358 359.02 261.777 359.657L263.125 351.934L274.075 350.106L272.563 357.689Z" fill="#D9D9D7"/>
<path d="M263.122 351.942L262.94 352.13C241.49 355.844 224.238 358.719 220.288 359.221C218.157 359.5 215.288 360.003 212.242 360.414C210.142 355.675 207.988 350.939 205.784 346.224L256.118 338.184L263.122 351.942Z" fill="#BDF62E"/>
<path d="M201.261 280.234L219.608 277.013L232.803 304.941L215.071 307.871L201.261 280.234Z" fill="#B99D88"/>
<path d="M218.018 318.446L223.038 331.186L241.218 327.05L235.854 316.537L218.018 318.446Z" fill="#B99D88"/>
<path d="M198.984 322.819L212.983 319.456L216.893 332.012L203.256 334.874L198.984 322.819Z" fill="#B99D88"/>
<path d="M263.64 320.934L272.827 318.571L275.285 327.142L266.979 329.302L263.64 320.934Z" fill="#B99D88"/>
<path d="M268.481 332.017L284.528 327.87L294.28 343.895L275.503 346.755L268.481 332.017Z" fill="#B99D88"/>
<path d="M315.361 290.021L326.935 287.834L329.452 296.447L317.046 298.463L315.361 290.021Z" fill="#B99D88"/>
<path d="M164.228 312.347C162.946 310.121 161.662 307.903 160.379 305.678C159.558 304.253 157.351 305.531 158.175 306.948C159.457 309.174 160.741 311.391 162.023 313.617C162.838 315.031 165.043 313.761 164.228 312.347Z" fill="#362F34"/>
<path d="M165.485 315.189C163.903 314.764 163.242 317.223 164.824 317.648C166.406 318.074 167.067 315.615 165.485 315.189Z" fill="#362F34"/>
<path d="M183.806 347.423C183.053 349.014 181.934 351.411 180.774 353.929C184.39 359.568 188.453 364.915 192.824 369.773C194.059 367.6 195.022 365.064 195.621 362.641C191.304 357.877 187.357 352.781 183.806 347.423Z" fill="#61525E"/>
<path d="M199.686 371.513C200.168 368.935 200.591 366.219 201.084 363.636C200.048 363.762 198.68 363.49 197.72 363.074C197.14 365.555 196.561 368.036 195.982 370.516C196.728 371.139 198.712 371.444 199.686 371.513Z" fill="#61525E"/>
<path d="M364.91 323.525C364.846 323.5 364.783 323.474 364.711 323.446C364.092 323.2 363.292 323.723 363.151 324.345C362.988 325.083 363.382 325.646 364.05 325.905C364.114 325.93 364.177 325.956 364.249 325.984C364.868 326.23 365.668 325.707 365.809 325.086C365.972 324.347 365.57 323.782 364.91 323.525Z" fill="#BDCBD8"/>
<path d="M233.205 208.611C231.504 210.491 229.932 212.45 228.467 214.499C228.564 208.646 227.553 202.503 226.643 196.932C225.382 189.237 223.34 181.665 220.318 174.472C214.77 161.247 205.93 149.641 194.032 141.529C192.323 140.366 190.728 143.127 192.412 144.283C204.015 152.282 212.56 163.975 217.757 177C220.336 183.459 222.118 190.231 223.281 197.083C224.442 203.942 224.19 210.923 225.086 217.756C222.339 215.716 219.546 213.55 216.502 212.125C215.379 211.595 214.139 212.94 215.105 213.92C218.104 216.985 222.09 219.288 225.571 221.771C226.227 222.237 227.218 221.888 227.602 221.245C229.828 217.476 232.381 213.996 235.325 210.763C236.619 209.318 234.507 207.168 233.205 208.611Z" fill="#19E9C4"/>
<path d="M236 278.38C232.252 282.514 224.897 290.484 218.637 288.01C215.333 286.7 213.266 283.243 211.795 279.429C210.473 276.015 209.638 272.319 208.815 269.663C206.097 260.846 206.542 248.213 212.514 240.811C215.933 236.563 220.635 234.013 225.521 233.262C231.297 232.372 237.348 233.991 241.89 238.279C242.866 239.192 243.764 240.233 244.583 241.403C252.646 252.923 244.15 269.384 236 278.38Z" fill="#FF4D6A"/>
<path d="M244.583 241.403C243.764 240.233 242.866 239.192 241.89 238.279C239.268 235.808 236.15 234.231 232.867 233.497C235.549 234.342 238.08 235.778 240.267 237.843C241.243 238.756 242.141 239.797 242.96 240.966C251.024 252.486 242.527 268.948 234.378 277.944C230.93 281.745 224.431 288.786 218.543 287.967C218.574 287.984 218.606 287.993 218.637 288.01C224.897 290.484 232.252 282.514 236.001 278.38C244.15 269.384 252.647 252.923 244.583 241.403Z" fill="#BF2F47"/>
<path d="M236.636 265.887C234.639 267.397 232.251 268.302 229.775 268.62C228.745 268.757 227.701 268.783 226.667 268.707C223.946 268.529 221.28 267.628 219.074 266.024C214.001 262.339 211.739 255.227 213.716 249.282C216.818 239.938 227.306 237.345 234.754 241.282C235.662 241.763 236.519 242.336 237.322 243.01C238.097 243.657 238.819 244.405 239.452 245.252C240.299 246.35 241.02 247.625 241.551 249.051C243.75 254.924 241.64 262.117 236.636 265.887Z" fill="#FED772"/>
<path d="M219.074 266.024C214.001 262.339 211.739 255.227 213.716 249.282C216.818 239.938 227.306 237.345 234.754 241.282C234.654 249.824 225.695 259.868 219.074 266.024Z" fill="#F3C452"/>
<path d="M229.775 268.62C228.745 268.757 227.701 268.783 226.667 268.707C231.922 260.866 235.501 252.231 237.322 243.01C238.097 243.657 238.819 244.405 239.452 245.252C237.621 253.566 234.364 261.426 229.775 268.62Z" fill="#F3C452"/>
<path d="M211.087 54.7702C211.226 59.2564 210.924 63.6203 210.263 67.7021C210.189 68.2064 210.114 68.7106 209.984 69.2066C209.893 69.8229 209.746 70.431 209.59 71.095C207.334 63.8912 199.738 57.959 190.045 56.5263C189.652 56.4683 189.204 56.402 188.812 56.3441C188.893 56.1843 188.91 56.0722 189.055 55.8646C189.071 55.7526 189.152 55.5928 189.225 55.489C189.225 55.489 189.225 55.489 189.233 55.433C189.241 55.3769 189.25 55.3209 189.314 55.2732C189.411 55.0013 189.509 54.7294 189.614 54.4016C189.915 53.5299 190.16 52.65 190.404 51.7701C190.429 51.6021 190.51 51.4423 190.535 51.2742C190.551 51.1621 190.632 51.0023 190.649 50.8902C190.755 50.5623 190.804 50.2262 190.91 49.8983C191.246 48.4021 191.581 46.9058 191.813 45.337C191.871 44.9448 191.921 44.6087 191.97 44.2725C191.987 44.1604 192.004 44.0484 192.02 43.9363C192.053 43.7122 192.086 43.4881 192.111 43.32C192.144 43.0959 192.169 42.9278 192.202 42.7037C192.219 42.5916 192.236 42.4796 192.244 42.4235C192.252 42.3675 192.269 42.2554 192.277 42.1994C192.302 42.0313 192.318 41.9193 192.343 41.7512C192.351 41.6952 192.36 41.6391 192.368 41.5831C192.418 41.2469 192.403 40.9585 192.445 40.6784C192.446 40.2779 192.513 39.8296 192.515 39.4291C192.531 39.3171 192.5 39.1407 192.517 39.0287C192.51 38.6842 192.56 38.348 192.554 38.0036C192.554 38.0036 192.554 38.0036 192.562 37.9476C192.564 37.5471 192.558 37.2026 192.559 36.8021C192.545 36.5137 192.53 36.2253 192.516 35.9368C192.532 35.8248 192.493 35.7044 192.509 35.5924C192.526 35.4803 192.478 35.416 192.495 35.304C192.48 35.0155 192.457 34.7831 192.443 34.4947C192.451 34.4387 192.459 34.3827 192.411 34.3183C192.38 34.142 192.405 33.9739 192.374 33.7975C192.343 33.6211 192.367 33.4531 192.336 33.2767L192.345 33.2207C192.338 32.8762 192.276 32.5235 192.261 32.235C192.207 31.8263 192.153 31.4175 192.107 30.9527C192.093 30.6643 192.022 30.3676 191.951 30.0709C191.96 30.0148 191.96 30.0148 191.912 29.9505C191.872 29.8302 191.889 29.7181 191.85 29.5978C191.827 29.3654 191.748 29.1247 191.725 28.8923C191.694 28.7159 191.662 28.5396 191.631 28.3632C191.592 28.2429 191.608 28.1308 191.561 28.0665C191.569 28.0105 191.521 27.9462 191.538 27.8341C191.475 27.4814 191.357 27.1203 191.295 26.7676C191.263 26.5912 191.232 26.4149 191.145 26.2302C191.114 26.0538 191.083 25.8775 190.987 25.7489C190.939 25.6845 190.956 25.5725 190.908 25.5082C190.829 25.2675 190.75 25.0268 190.68 24.7301C190.649 24.5537 190.561 24.3691 190.522 24.2488C190.491 24.0724 190.403 23.8877 190.372 23.7114C190.372 23.7114 190.381 23.6553 190.325 23.6471C190.285 23.5267 190.237 23.4624 190.198 23.3421C190.158 23.2217 190.119 23.1014 190.079 22.981C190.088 22.925 190.04 22.8607 190.048 22.8047C190.057 22.7486 190 22.7404 190.009 22.6843C189.882 22.3793 189.803 22.1387 189.668 21.8897C189.542 21.5847 189.415 21.2797 189.288 20.9747C189.193 20.8461 189.162 20.6697 189.066 20.5411C189.018 20.4768 189.027 20.4208 188.979 20.3565C188.892 20.1718 188.804 19.9872 188.709 19.8585C188.574 19.6096 188.487 19.4249 188.352 19.176C188.312 19.0556 188.217 18.927 188.169 18.8627C188.082 18.678 187.986 18.5494 187.891 18.4208C187.843 18.3565 187.851 18.3005 187.804 18.2361C187.716 18.0515 187.621 17.9229 187.478 17.7299C187.43 17.6656 187.39 17.5453 187.287 17.4727C187.104 17.1594 186.913 16.9022 186.674 16.5806C186.579 16.452 186.483 16.3234 186.34 16.1305C186.245 16.0018 186.149 15.8732 186.045 15.8006C186.054 15.7446 185.998 15.7363 185.95 15.672C185.902 15.6077 185.798 15.5351 185.759 15.4147C185.472 15.0289 185.178 14.699 184.827 14.3609C184.675 14.224 184.58 14.0954 184.428 13.9585C184.372 13.9502 184.38 13.8942 184.324 13.8859C184.277 13.8216 184.173 13.749 184.125 13.6847C184.077 13.6204 184.03 13.5561 183.918 13.5395L183.862 13.5312C183.359 13.0562 182.849 12.6372 182.274 12.266C182.618 12.2596 182.915 12.189 183.259 12.1826C188.835 12.0335 194.109 14.7024 198.571 19.3698C198.619 19.4341 198.675 19.4424 198.723 19.5067C198.771 19.571 198.827 19.5793 198.874 19.6436C199.121 19.9091 199.369 20.1746 199.607 20.4962C199.807 20.6974 199.998 20.9546 200.197 21.1559C200.388 21.4131 200.635 21.6786 200.826 21.9359C201.017 22.1931 201.208 22.4504 201.399 22.7076C201.59 22.9649 201.772 23.2781 202.019 23.5436C202.202 23.8569 202.393 24.1142 202.576 24.4274C202.806 24.805 203.045 25.1266 203.219 25.4959C203.354 25.7448 203.545 26.0021 203.68 26.251C204.046 26.8776 204.363 27.4398 204.673 28.0581C204.665 28.1141 204.721 28.1224 204.712 28.1784C204.895 28.4917 205.069 28.861 205.196 29.166C205.379 29.4793 205.497 29.8403 205.672 30.2096C205.854 30.5229 205.973 30.8839 206.099 31.1889C206.147 31.2532 206.187 31.3735 206.178 31.4295C206.305 31.7345 206.432 32.0395 206.558 32.3445C206.733 32.7138 206.851 33.0748 206.97 33.4359C207.088 33.7969 207.262 34.1662 207.381 34.5272C207.665 35.3136 207.902 36.0356 208.131 36.8137C208.359 37.5917 208.588 38.3698 208.808 39.2039C208.918 39.6209 209.036 39.982 209.146 40.399C209.265 40.76 209.319 41.1688 209.437 41.5298C209.429 41.5858 209.477 41.6502 209.469 41.7062C209.531 42.0589 209.641 42.476 209.703 42.8287C209.813 43.2458 209.868 43.6545 209.922 44.0633C209.984 44.416 210.038 44.8248 210.1 45.1775C210.14 45.2979 210.123 45.4099 210.163 45.5303C210.225 45.883 210.279 46.2918 210.342 46.6445C210.396 47.0533 210.45 47.462 210.504 47.8708C210.496 47.9268 210.543 47.9912 210.527 48.1032C210.541 48.3916 210.612 48.6884 210.635 48.9207C210.658 49.1531 210.689 49.3295 210.712 49.5619C210.812 50.4355 210.856 51.3008 210.956 52.1743C210.97 52.4627 210.977 52.8072 210.991 53.0956C211.012 53.7285 211.05 54.2493 211.087 54.7702Z" fill="url(#paint0_linear)"/>
<path d="M198.468 19.2972C209.379 22.1696 219.638 35.652 223.261 53.3635C225.358 63.5782 224.83 73.3477 222.365 81.1134C221.86 76.4011 217.218 72.1654 210.999 71.2461C210.495 71.1715 209.991 71.097 209.534 71.0868C209.681 70.4787 209.828 69.8707 209.928 69.1983C210.002 68.6941 210.133 68.1981 210.207 67.6938C210.868 63.612 211.17 59.2481 211.031 54.7619C210.994 54.241 211.02 53.6725 210.983 53.1517C210.977 52.8072 210.962 52.5188 210.947 52.2303C210.903 51.3651 210.804 50.4915 210.704 49.6179C210.681 49.3855 210.65 49.2092 210.627 48.9768C210.612 48.6883 210.597 48.3999 210.519 48.1592C210.527 48.1032 210.479 48.0389 210.496 47.9268C210.442 47.5181 210.387 47.1093 210.333 46.7005C210.271 46.3478 210.217 45.939 210.155 45.5863C210.115 45.466 210.132 45.3539 210.092 45.2336C210.03 44.8808 209.976 44.4721 209.913 44.1193C209.859 43.7106 209.749 43.2935 209.695 42.8847C209.633 42.532 209.523 42.115 209.46 41.7622C209.469 41.7062 209.421 41.6419 209.429 41.5859C209.319 41.1688 209.257 40.8161 209.138 40.455C209.028 40.038 208.918 39.6209 208.8 39.2599C208.571 38.4819 208.351 37.6478 208.122 36.8697C207.894 36.0916 207.609 35.3053 207.373 34.5832C207.254 34.2222 207.08 33.8529 206.961 33.4919C206.843 33.1309 206.668 32.7616 206.55 32.4006C206.423 32.0956 206.297 31.7906 206.17 31.4856C206.122 31.4213 206.131 31.3652 206.091 31.2449C205.964 30.9399 205.79 30.5706 205.663 30.2656C205.489 29.8963 205.362 29.5913 205.188 29.222C205.013 28.8527 204.831 28.5394 204.704 28.2345C204.712 28.1784 204.656 28.1701 204.665 28.1141C204.355 27.4959 203.99 26.8693 203.672 26.3071C203.537 26.0581 203.346 25.8009 203.211 25.5519C202.981 25.1743 202.742 24.8528 202.568 24.4835C202.385 24.1702 202.194 23.913 202.011 23.5997C201.828 23.2864 201.637 23.0292 201.39 22.7636C201.199 22.5064 201.008 22.2491 200.817 21.9919C200.627 21.7347 200.379 21.4691 200.189 21.2119C199.998 20.9546 199.798 20.7534 199.599 20.5522C199.352 20.2867 199.105 20.0212 198.866 19.6996C198.818 19.6353 198.771 19.571 198.715 19.5627C198.563 19.4258 198.515 19.3615 198.468 19.2972Z" fill="url(#paint1_linear)"/>
<path d="M151.142 49.7453C151.091 48.5355 151.041 47.3258 151.103 46.1326C151.128 45.9645 151.097 45.7882 151.122 45.6201C151.138 45.508 151.107 45.3317 151.123 45.2196C151.117 44.8751 151.167 44.539 151.16 44.1945C151.272 42.6652 151.384 41.1358 151.615 39.567C151.673 39.1748 151.723 38.8386 151.773 38.5025C151.789 38.3904 151.806 38.2783 151.823 38.1663C151.856 37.9422 151.889 37.7181 151.914 37.55C151.963 37.2138 152.005 36.9337 152.11 36.6058C152.144 36.3816 152.177 36.1575 152.258 35.9977C152.266 35.9417 152.274 35.8857 152.282 35.8296C152.332 35.4935 152.43 35.2216 152.471 34.9415C152.585 34.5575 152.651 34.1093 152.765 33.7254C152.782 33.6133 152.863 33.4535 152.879 33.3415C152.985 33.0136 153.035 32.6774 153.14 32.3495C153.14 32.3495 153.14 32.3495 153.149 32.2935C153.263 31.9096 153.368 31.5817 153.482 31.1977C153.58 30.9259 153.677 30.654 153.775 30.3822C153.791 30.2701 153.864 30.1663 153.88 30.0543C153.897 29.9422 153.961 29.8945 153.978 29.7824C154.075 29.5105 154.164 29.2947 154.262 29.0228C154.27 28.9668 154.278 28.9108 154.343 28.863C154.448 28.5351 154.61 28.2155 154.716 27.8876L154.724 27.8316C154.83 27.5037 154.992 27.1841 155.089 26.9122C155.259 26.5366 155.429 26.161 155.608 25.7293C155.769 25.4097 155.931 25.0901 156.093 24.7705C156.255 24.4509 156.416 24.1313 156.578 23.8116C156.74 23.492 156.902 23.1724 157.119 22.8611C157.281 22.5415 157.499 22.2302 157.661 21.9106C157.741 21.7507 157.822 21.5909 157.959 21.4394C158.04 21.2796 158.121 21.1198 158.25 21.0243C158.33 20.8645 158.467 20.713 158.54 20.6092C158.621 20.4494 158.758 20.2979 158.83 20.1941C158.911 20.0343 159.048 19.8828 159.121 19.779C159.202 19.6192 159.339 19.4677 159.419 19.3079C159.492 19.2041 159.629 19.0526 159.701 18.9488C159.782 18.789 159.911 18.6935 159.992 18.5337C160.073 18.3739 160.201 18.2784 160.282 18.1186C160.363 17.9588 160.492 17.8633 160.573 17.7035C160.782 17.4482 160.992 17.1929 161.201 16.9376C161.33 16.8421 161.411 16.6823 161.539 16.5868C162.288 15.7814 163.093 14.9844 163.881 14.2993C163.945 14.2516 164.018 14.1478 164.138 14.1083C164.404 13.8613 164.661 13.6703 164.983 13.4316C165.111 13.3361 165.24 13.2406 165.433 13.0974C165.883 12.7631 166.389 12.4372 166.896 12.1113C167.024 12.0158 167.209 11.9285 167.393 11.8413C167.578 11.7541 167.707 11.6586 167.891 11.5714C168.14 11.4365 168.325 11.3492 168.574 11.2143C169.192 10.9049 169.794 10.7076 170.396 10.5102C172.441 9.83934 174.477 9.62495 176.55 9.93139C178.623 10.2378 180.566 11.0402 182.274 12.266C182.849 12.6373 183.359 13.0563 183.862 13.5313C183.862 13.5313 183.862 13.5313 183.918 13.5396C184.069 13.6765 184.165 13.8051 184.324 13.886C184.38 13.8943 184.372 13.9503 184.428 13.9586C184.58 14.0955 184.675 14.2241 184.827 14.361C184.922 14.4896 185.074 14.6265 185.169 14.7551C185.368 14.9564 185.559 15.2136 185.759 15.4148C185.854 15.5434 185.958 15.616 186.054 15.7447C186.149 15.8733 186.245 16.0019 186.348 16.0745C186.444 16.2031 186.539 16.3317 186.683 16.5247C186.865 16.8379 187.112 17.1035 187.295 17.4167C187.343 17.481 187.382 17.6014 187.486 17.674C187.629 17.8669 187.764 18.1159 187.899 18.3648C187.995 18.4935 188.082 18.6781 188.177 18.8067C188.217 18.9271 188.321 18.9997 188.36 19.12C188.495 19.369 188.582 19.5536 188.717 19.8026C188.852 20.0515 188.931 20.2922 189.066 20.5412C189.161 20.6698 189.193 20.8462 189.288 20.9748C189.415 21.2798 189.542 21.5848 189.668 21.8898C189.708 22.0101 189.795 22.1948 189.826 22.3711C189.866 22.4915 189.905 22.6118 189.944 22.7321C189.936 22.7882 189.992 22.7965 189.984 22.8525C189.976 22.9085 190.023 22.9728 190.015 23.0289C190.055 23.1492 190.102 23.2135 190.142 23.3338C190.181 23.4542 190.221 23.5745 190.26 23.6949C190.26 23.6949 190.252 23.7509 190.308 23.7592C190.339 23.9355 190.426 24.1202 190.457 24.2966C190.489 24.4729 190.584 24.6016 190.615 24.7779C190.647 24.9543 190.734 25.1389 190.773 25.2593C190.821 25.3236 190.804 25.4357 190.852 25.5C190.9 25.5643 190.883 25.6763 190.931 25.7406C190.962 25.917 190.993 26.0934 191.089 26.222C191.12 26.3984 191.151 26.5747 191.239 26.7594C191.301 27.1121 191.419 27.4732 191.482 27.8259C191.513 28.0023 191.544 28.1786 191.575 28.355C191.606 28.5314 191.638 28.7077 191.669 28.8841C191.692 29.1165 191.771 29.3572 191.793 29.5896C191.825 29.7659 191.856 29.9423 191.895 30.0626C191.966 30.3594 191.981 30.6478 192.051 30.9445C192.105 31.3533 192.159 31.762 192.205 32.2268C192.268 32.5796 192.282 32.868 192.288 33.2124L192.28 33.2685C192.311 33.4448 192.287 33.6129 192.318 33.7893C192.349 33.9657 192.324 34.1338 192.355 34.3101C192.347 34.3662 192.339 34.4222 192.386 34.4865C192.409 34.7189 192.424 35.0073 192.439 35.2957C192.422 35.4078 192.47 35.4721 192.453 35.5842C192.437 35.6962 192.476 35.8166 192.46 35.9286C192.474 36.2171 192.489 36.5055 192.503 36.7939C192.501 37.1944 192.508 37.5388 192.506 37.9393C192.506 37.9393 192.506 37.9393 192.498 37.9954C192.504 38.3398 192.51 38.6843 192.461 39.0204C192.444 39.1325 192.475 39.3089 192.459 39.4209C192.457 39.8214 192.455 40.2219 192.388 40.6701C192.347 40.9503 192.353 41.2947 192.312 41.5749C192.304 41.6309 192.295 41.6869 192.287 41.743C192.262 41.9111 192.246 42.0231 192.221 42.1912C192.213 42.2472 192.196 42.3593 192.188 42.4153C192.171 42.5274 192.155 42.6394 192.146 42.6955C192.113 42.9196 192.088 43.0877 192.055 43.3118C192.022 43.5359 191.989 43.76 191.964 43.9281C191.948 44.0401 191.931 44.1522 191.914 44.2643C191.865 44.6004 191.807 44.9926 191.757 45.3288C191.525 46.8976 191.246 48.4021 190.854 49.8901C190.804 50.2262 190.698 50.5541 190.593 50.882C190.576 50.9941 190.551 51.1622 190.479 51.2659C190.454 51.434 190.373 51.5938 190.348 51.7619C190.104 52.6418 189.859 53.5217 189.558 54.3933C189.461 54.6652 189.364 54.9371 189.258 55.265C189.25 55.321 189.241 55.377 189.177 55.4248C189.177 55.4248 189.177 55.4248 189.169 55.4808C189.063 55.8087 188.934 55.9042 188.812 56.3441C184.266 52.237 177.895 49.6349 170.779 48.5831C163.608 47.523 156.615 47.5771 151.019 50.1852C150.98 50.0649 151.117 49.9134 151.142 49.7453Z" fill="url(#paint2_linear)"/>
<path d="M151.011 50.2412C141.318 48.8085 131.351 52.7169 127.107 58.9601C127.142 58.3355 127.233 57.7192 127.277 57.0385C127.351 56.5343 127.37 56.0217 127.444 55.5175C127.993 51.4191 128.967 47.1545 130.397 42.9002C130.584 42.4125 130.723 41.8605 130.909 41.3728C131.015 41.0449 131.112 40.7731 131.21 40.5012C131.502 39.6856 131.85 38.8783 132.199 38.071C132.288 37.8552 132.369 37.6953 132.458 37.4795C132.555 37.2077 132.709 36.9441 132.798 36.7282C132.806 36.6722 132.871 36.6245 132.887 36.5124C133.057 36.1368 133.227 35.7611 133.397 35.3855C133.559 35.0659 133.729 34.6902 133.891 34.3706C133.963 34.2668 133.98 34.1548 134.053 34.051C134.214 33.7314 134.384 33.3558 134.546 33.0362C134.716 32.6605 134.942 32.2932 135.112 31.9175C135.274 31.5979 135.5 31.2306 135.662 30.9109C135.67 30.8549 135.734 30.8072 135.743 30.7511C135.969 30.3838 136.131 30.0642 136.348 29.7528C136.574 29.3855 136.8 29.0181 137.018 28.7068C137.462 28.0281 137.914 27.2934 138.358 26.6147C138.802 25.936 139.302 25.2656 139.737 24.643C139.955 24.3316 140.229 24.0286 140.447 23.7173C140.664 23.4059 140.938 23.1029 141.156 22.7916C141.365 22.5363 141.575 22.281 141.784 22.0257C141.849 21.9779 141.857 21.9219 141.93 21.8181C142.139 21.5628 142.413 21.2598 142.622 21.0045C142.896 20.7014 143.106 20.4461 143.38 20.1431C143.653 19.84 143.919 19.593 144.128 19.3377C144.137 19.2817 144.193 19.29 144.201 19.2339C144.676 18.7316 145.207 18.2376 145.674 17.7913C145.875 17.592 146.132 17.4011 146.333 17.2018C146.663 16.907 146.985 16.6683 147.259 16.3652C147.524 16.1182 147.781 15.9272 148.047 15.6802C148.313 15.4332 148.57 15.2422 148.883 15.0595C149.14 14.8685 149.398 14.6775 149.655 14.4865C149.912 14.2956 150.225 14.1128 150.483 13.9219C150.74 13.7309 150.989 13.5959 151.238 13.461C151.551 13.2782 151.864 13.0955 152.186 12.8568C152.25 12.8091 152.314 12.7613 152.37 12.7696C152.435 12.7218 152.491 12.7301 152.555 12.6824C158.121 9.49745 163.942 8.46841 169.292 10.2325C169.62 10.3383 169.891 10.4357 170.211 10.5974C169.609 10.7948 168.999 11.0481 168.381 11.3575C168.14 11.4364 167.947 11.5797 167.698 11.7146C167.514 11.8018 167.385 11.8973 167.201 11.9846C167.016 12.0718 166.887 12.1673 166.703 12.2545C166.205 12.5244 165.755 12.8586 165.24 13.2406C165.111 13.3361 164.983 13.4316 164.79 13.5748C164.524 13.8218 164.211 14.0045 163.946 14.2516C163.881 14.2993 163.809 14.4031 163.688 14.4425C162.9 15.1276 162.095 15.9247 161.346 16.73C161.218 16.8255 161.137 16.9853 161.008 17.0808C160.799 17.3361 160.589 17.5914 160.38 17.8467C160.307 17.9505 160.17 18.102 160.089 18.2618C160.008 18.4216 159.88 18.5171 159.799 18.6769C159.718 18.8367 159.589 18.9322 159.509 19.092C159.436 19.1958 159.299 19.3473 159.226 19.4511C159.146 19.6109 159.009 19.7624 158.928 19.9222C158.847 20.082 158.718 20.1775 158.637 20.3373C158.557 20.4971 158.42 20.6487 158.347 20.7524C158.266 20.9122 158.129 21.0638 158.057 21.1675C157.976 21.3273 157.895 21.4871 157.766 21.5826C157.685 21.7424 157.605 21.9023 157.468 22.0538C157.306 22.3734 157.088 22.6847 156.926 23.0043C156.765 23.3239 156.547 23.6353 156.385 23.9549C156.223 24.2745 156.062 24.5941 155.9 24.9137C155.738 25.2333 155.576 25.5529 155.415 25.8725C155.245 26.2482 155.075 26.6238 154.896 27.0555C154.735 27.3751 154.637 27.6469 154.531 27.9748L154.523 28.0309C154.417 28.3588 154.256 28.6784 154.15 29.0063C154.142 29.0623 154.133 29.1183 154.069 29.1661C153.98 29.3819 153.882 29.6538 153.785 29.9256C153.768 30.0377 153.704 30.0854 153.688 30.1975C153.671 30.3096 153.598 30.4133 153.582 30.5254C153.484 30.7972 153.387 31.0691 153.289 31.341C153.175 31.7249 153.07 32.0528 152.956 32.4367C152.956 32.4367 152.956 32.4367 152.947 32.4927C152.842 32.8206 152.736 33.1485 152.686 33.4847C152.67 33.5968 152.589 33.7566 152.572 33.8686C152.458 34.2525 152.344 34.6365 152.278 35.0847C152.237 35.3648 152.131 35.6927 152.09 35.9729C152.081 36.0289 152.073 36.0849 152.065 36.141C152.032 36.3651 151.942 36.5809 151.918 36.749C151.868 37.0852 151.77 37.357 151.721 37.6932C151.688 37.9173 151.654 38.1414 151.63 38.3095C151.613 38.4216 151.597 38.5336 151.58 38.6457C151.53 38.9819 151.472 39.3741 151.423 39.7102C151.191 41.2791 151.023 42.8001 150.968 44.3377C150.918 44.6739 150.924 45.0184 150.931 45.3628C150.914 45.4749 150.889 45.643 150.929 45.7633C150.904 45.9314 150.935 46.1078 150.91 46.2759C150.896 47.5333 150.89 48.7348 150.949 49.8885C151.117 49.9133 150.98 50.0649 151.011 50.2412C151.019 50.1852 151.019 50.1852 151.011 50.2412Z" fill="url(#paint3_linear)"/>
<path d="M127.277 57.0385C127.186 57.6548 127.142 58.3354 127.107 58.96C126.611 58.8295 126.163 58.7632 125.659 58.6887C119.496 57.7777 113.78 60.4252 111.924 64.8457C111.811 56.6991 114.132 47.1946 119.095 38.0233C127.687 22.1174 141.408 12.1797 152.684 12.5869C152.619 12.6346 152.563 12.6263 152.499 12.6741C152.435 12.7218 152.379 12.7135 152.314 12.7613C152.001 12.944 151.688 13.1267 151.366 13.3654C151.117 13.5004 150.86 13.6914 150.611 13.8264C150.354 14.0173 150.041 14.2 149.783 14.391C149.526 14.582 149.269 14.773 149.012 14.964C148.754 15.155 148.489 15.402 148.176 15.5847C147.91 15.8317 147.653 16.0227 147.387 16.2697C147.057 16.5645 146.736 16.8032 146.462 17.1063C146.261 17.3055 146.004 17.4965 145.802 17.6958C145.271 18.1898 144.805 18.6361 144.33 19.1384C144.321 19.1945 144.265 19.1862 144.257 19.2422C143.992 19.4892 143.718 19.7923 143.508 20.0476C143.243 20.2946 143.025 20.6059 142.751 20.909C142.486 21.156 142.268 21.4673 142.058 21.7226C141.994 21.7704 141.921 21.8741 141.913 21.9302C141.704 22.1855 141.494 22.4408 141.285 22.6961C141.011 22.9991 140.793 23.3104 140.575 23.6218C140.357 23.9331 140.084 24.2361 139.866 24.5475C139.366 25.2179 138.93 25.8405 138.487 26.5192C138.043 27.1979 137.599 27.8766 137.147 28.6113C136.921 28.9787 136.703 29.29 136.477 29.6573C136.259 29.9687 136.089 30.3443 135.871 30.6556C135.863 30.7117 135.799 30.7594 135.79 30.8154C135.629 31.135 135.403 31.5024 135.241 31.822C135.015 32.1894 134.845 32.565 134.675 32.9406C134.513 33.2603 134.343 33.6359 134.181 33.9555C134.109 34.0593 134.092 34.1713 134.019 34.2751C133.858 34.5947 133.688 34.9704 133.526 35.29C133.356 35.6656 133.186 36.0413 133.016 36.4169C133.008 36.4729 132.943 36.5207 132.927 36.6327C132.829 36.9046 132.676 37.1682 132.587 37.384C132.497 37.5998 132.417 37.7596 132.327 37.9755C131.979 38.7828 131.687 39.5984 131.338 40.4057C131.241 40.6775 131.135 41.0054 131.038 41.2773C130.851 41.765 130.721 42.261 130.526 42.8047C129.095 47.059 128.122 51.3235 127.573 55.4219C127.37 56.0217 127.351 56.5342 127.277 57.0385Z" fill="url(#paint4_linear)"/>
<path d="M130.955 55.0059C129.411 56.1518 128.067 57.4989 127.107 58.9601C126.611 58.8295 126.163 58.7632 125.659 58.6887C119.495 57.7777 113.779 60.4252 111.924 64.8457C112.43 69.558 117.071 73.7937 123.29 74.713C123.738 74.7792 124.242 74.8538 124.699 74.864C124.885 72.8304 125.974 64.6896 130.955 55.0059Z" fill="url(#paint5_linear)"/>
<path d="M211.047 71.3104C210.543 71.2359 210.038 71.1614 209.582 71.1511C209.038 69.4104 208.141 67.7319 207.003 66.1324C208.961 76.8992 207.696 85.0712 207.294 87.0156C207.734 87.1379 208.182 87.2042 208.687 87.2787C214.85 88.1897 220.566 85.5422 222.421 81.1217C221.916 76.4095 217.21 72.2215 211.047 71.3104Z" fill="url(#paint6_linear)"/>
<path d="M186.498 54.5707C182.195 51.5301 176.766 49.5253 170.771 48.6391C165 47.7861 159.29 47.6863 154.397 49.0242C144.636 66.6466 144.707 83.2034 145.33 90.223C149.892 94.2181 156.514 96.2848 163.574 97.3283C170.746 98.3884 177.541 97.7325 183.081 95.1162C183.137 95.1245 183.249 95.141 183.361 95.1576C185.973 88.3298 190.268 73.22 186.498 54.5707Z" fill="url(#paint7_linear)"/>
<path d="M207.003 66.1324C203.478 61.3174 197.384 57.6112 190.045 56.5263C189.652 56.4683 189.204 56.4021 188.812 56.3441C188.11 55.6678 187.28 55.0871 186.506 54.5146C190.276 73.1639 185.982 88.2738 183.369 95.1015C183.706 95.1512 184.042 95.2009 184.322 95.2423C194.015 96.6751 203.011 93.1384 207.246 86.9513L207.302 86.9595C207.696 85.0711 208.961 76.8992 207.003 66.1324Z" fill="url(#paint8_linear)"/>
<path d="M154.397 49.0241C153.202 49.3628 152.055 49.7657 151.011 50.2412C151.123 50.2578 151.179 50.2661 151.011 50.2412C143.559 49.1397 135.988 51.1695 130.955 55.0058C125.974 64.6896 124.885 72.8304 124.651 74.7997L124.707 74.808C126.963 82.0118 135.373 88.6368 145.066 90.0695L145.075 90.0135C145.075 90.0135 145.075 90.0135 145.066 90.0695C145.066 90.0695 145.066 90.0695 145.058 90.1256C145.226 90.1504 145.17 90.1421 145.058 90.1256C145.106 90.1899 145.162 90.1982 145.266 90.2708C144.716 83.1473 144.644 66.5905 154.397 49.0241Z" fill="url(#paint9_linear)"/>
<path d="M209.449 72.0476C208.945 71.973 208.611 71.5229 208.685 71.0186C208.76 70.5143 209.21 70.1801 209.714 70.2546C210.219 70.3292 210.553 70.7794 210.478 71.2836C210.404 71.7879 209.954 72.1221 209.449 72.0476ZM209.648 70.7029C209.368 70.6615 209.167 70.8607 209.134 71.0848C209.092 71.365 209.292 71.5662 209.516 71.5993C209.796 71.6407 209.997 71.4415 210.03 71.2174C210.072 70.9372 209.872 70.736 209.648 70.7029Z" fill="#6A6A6A"/>
<path d="M188.671 57.2966C188.167 57.2221 187.833 56.7719 187.907 56.2676C187.982 55.7634 188.432 55.4291 188.936 55.5037C189.441 55.5782 189.775 56.0284 189.7 56.5326C189.682 57.0452 189.176 57.3711 188.671 57.2966ZM188.87 55.9519C188.59 55.9105 188.389 56.1098 188.356 56.3339C188.314 56.614 188.513 56.8152 188.738 56.8484C189.018 56.8898 189.219 56.6905 189.252 56.4664C189.293 56.1862 189.15 55.9933 188.87 55.9519Z" fill="#6A6A6A"/>
<path d="M150.879 51.1378C150.374 51.0632 150.04 50.613 150.115 50.1088C150.189 49.6045 150.639 49.2703 151.144 49.3448C151.648 49.4194 151.982 49.8695 151.908 50.3738C151.833 50.8781 151.383 51.2123 150.879 51.1378ZM151.077 49.7931C150.797 49.7516 150.596 49.9509 150.563 50.175C150.522 50.4552 150.721 50.6564 150.945 50.6895C151.225 50.7309 151.426 50.5317 151.459 50.3075C151.501 50.0274 151.358 49.8345 151.077 49.7931Z" fill="#6A6A6A"/>
<path d="M126.975 59.8566C126.471 59.7821 126.136 59.3319 126.211 58.8276C126.285 58.3233 126.736 57.9891 127.24 58.0637C127.744 58.1382 128.078 58.5884 128.004 59.0926C127.929 59.5969 127.479 59.9311 126.975 59.8566ZM127.174 58.5119C126.893 58.4705 126.692 58.6698 126.659 58.8939C126.618 59.174 126.817 59.3752 127.041 59.4084C127.321 59.4498 127.522 59.2505 127.556 59.0264C127.597 58.7462 127.454 58.5533 127.174 58.5119Z" fill="#6A6A6A"/>
<path d="M124.575 75.7044C124.071 75.6298 123.736 75.1796 123.811 74.6754C123.885 74.1711 124.336 73.8369 124.84 73.9114C125.344 73.986 125.678 74.4362 125.604 74.9404C125.529 75.4447 125.079 75.7789 124.575 75.7044ZM124.774 74.3597C124.493 74.3183 124.292 74.5175 124.259 74.7416C124.218 75.0218 124.417 75.223 124.641 75.2561C124.921 75.2975 125.122 75.0983 125.156 74.8742C125.197 74.594 124.998 74.3928 124.774 74.3597Z" fill="#6A6A6A"/>
<path d="M144.99 90.9743C144.486 90.8998 144.152 90.4496 144.226 89.9454C144.301 89.4411 144.751 89.1069 145.255 89.1814C145.759 89.2559 146.094 89.7061 146.019 90.2104C145.953 90.6586 145.494 91.0489 144.99 90.9743ZM145.197 89.5736C144.917 89.5322 144.716 89.7315 144.683 89.9556C144.641 90.2357 144.841 90.4369 145.065 90.4701C145.345 90.5115 145.546 90.3122 145.579 90.0881C145.612 89.864 145.477 89.615 145.197 89.5736Z" fill="#6A6A6A"/>
<path d="M183.228 96.054C182.724 95.9795 182.39 95.5293 182.464 95.0251C182.539 94.5208 182.989 94.1866 183.493 94.2611C183.998 94.3357 184.332 94.7858 184.257 95.2901C184.183 95.7944 183.733 96.1286 183.228 96.054ZM183.427 94.7093C183.147 94.6679 182.946 94.8672 182.913 95.0913C182.871 95.3715 183.071 95.5727 183.295 95.6058C183.575 95.6472 183.776 95.448 183.809 95.2238C183.851 94.9437 183.651 94.7425 183.427 94.7093Z" fill="#6A6A6A"/>
<path d="M207.162 87.9121C206.658 87.8375 206.323 87.3874 206.398 86.8831C206.472 86.3788 206.923 86.0446 207.427 86.1191C207.931 86.1937 208.265 86.6439 208.191 87.1481C208.172 87.6607 207.666 87.9866 207.162 87.9121ZM207.361 86.5674C207.08 86.526 206.879 86.7252 206.846 86.9493C206.805 87.2295 207.004 87.4307 207.228 87.4638C207.508 87.5052 207.709 87.306 207.743 87.0819C207.784 86.8017 207.641 86.6088 207.361 86.5674Z" fill="#6A6A6A"/>
<path d="M157.519 140.232C157.463 140.224 157.463 140.224 157.415 140.159C157.311 140.087 157.28 139.91 157.352 139.806L209.383 70.9499C209.455 70.8461 209.632 70.8149 209.735 70.8875C209.839 70.9601 209.87 71.1365 209.798 71.2403L157.767 140.097C157.695 140.201 157.631 140.248 157.519 140.232Z" fill="url(#paint10_linear)"/>
<path d="M157.519 140.232C157.462 140.224 157.359 140.151 157.311 140.087L126.866 59.039C126.827 58.9187 126.9 58.8149 127.028 58.7194C127.149 58.6799 127.252 58.7525 127.348 58.8812L157.792 139.929C157.832 140.049 157.759 140.153 157.631 140.248C157.575 140.24 157.575 140.24 157.519 140.232Z" fill="url(#paint11_linear)"/>
<path d="M157.519 140.232C157.359 140.151 157.263 140.022 157.336 139.919L188.571 56.423C188.588 56.311 188.773 56.2237 188.876 56.2963C188.988 56.3129 189.076 56.4976 189.003 56.6013L157.768 140.097C157.751 140.209 157.631 140.248 157.519 140.232Z" fill="url(#paint12_linear)"/>
<path d="M157.519 140.232C157.407 140.215 157.303 140.143 157.319 140.031L150.779 50.2642C150.795 50.1521 150.868 50.0484 150.988 50.0089C151.109 49.9694 151.204 50.098 151.244 50.2184L157.784 139.985C157.824 140.105 157.687 140.257 157.519 140.232C157.575 140.24 157.519 140.232 157.519 140.232Z" fill="url(#paint13_linear)"/>
<path d="M157.519 140.232C157.463 140.224 157.406 140.215 157.415 140.159C157.311 140.087 157.336 139.919 157.408 139.815L207.143 86.8787C207.215 86.7749 207.383 86.7998 207.487 86.8723C207.591 86.9449 207.566 87.113 207.493 87.2168L157.751 140.209C157.687 140.257 157.575 140.24 157.519 140.232Z" fill="url(#paint14_linear)"/>
<path d="M157.519 140.232C157.463 140.224 157.463 140.224 157.407 140.215C157.303 140.143 157.263 140.022 157.336 139.919L183.145 95.0684C183.218 94.9646 183.338 94.9251 183.442 94.9977C183.546 95.0703 183.585 95.1906 183.513 95.2944L157.703 140.145C157.695 140.201 157.631 140.248 157.519 140.232Z" fill="url(#paint15_linear)"/>
<path d="M157.519 140.232C157.406 140.215 157.359 140.151 157.319 140.031L144.898 90.0447C144.859 89.9244 144.94 89.7645 145.052 89.7811C145.172 89.7416 145.332 89.8225 145.315 89.9346L157.736 139.92C157.776 140.041 157.695 140.201 157.583 140.184C157.575 140.24 157.575 140.24 157.519 140.232Z" fill="url(#paint16_linear)"/>
<path d="M157.519 140.232C157.462 140.224 157.359 140.151 157.367 140.095L124.467 74.8869C124.427 74.7665 124.444 74.6545 124.572 74.559C124.693 74.5195 124.805 74.5361 124.9 74.6647L157.801 139.873C157.84 139.993 157.824 140.105 157.695 140.201C157.631 140.248 157.575 140.24 157.519 140.232Z" fill="url(#paint17_linear)"/>
<path d="M168.74 132.1L179.421 142.725L174.57 173.612L163.221 165.178L168.74 132.1Z" fill="url(#paint18_linear)"/>
<path d="M174.57 173.612L161.551 172.603L161.495 172.595L156.058 172.192L145.473 171.372L132.358 163.651L149.295 164.494L151.121 164.535L163.221 165.178L174.57 173.612Z" fill="#BFAB8C"/>
<path d="M132.358 163.651L138.519 132.042L168.74 132.1L163.221 165.178L132.358 163.651Z" fill="#FFE4BB"/>
<path d="M163.221 165.178C163.221 165.178 163.947 165.686 165.033 166.477C166.118 167.267 167.507 168.331 168.959 169.347C170.348 170.411 171.793 171.484 172.822 172.266C173.852 173.048 174.57 173.612 174.57 173.612C174.57 173.612 173.843 173.104 172.758 172.313C171.672 171.523 170.284 170.459 168.831 169.443C167.442 168.379 165.998 167.306 164.968 166.524C163.947 165.686 163.221 165.178 163.221 165.178Z" fill="#B6B6B6"/>
<path d="M163.221 165.178C163.221 165.178 163.527 163.105 164.047 159.976C164.567 156.846 165.236 152.709 165.904 148.571C166.629 144.441 167.298 140.303 167.81 137.23C168.33 134.101 168.684 132.092 168.684 132.092C168.684 132.092 168.377 134.165 167.858 137.294C167.338 140.424 166.669 144.562 166 148.699C165.275 152.829 164.606 156.967 164.086 160.096C163.583 163.113 163.221 165.178 163.221 165.178Z" fill="#F2F2F2"/>
<path d="M163.221 165.178C163.221 165.178 161.282 165.121 158.384 164.979C155.485 164.836 151.617 164.665 147.749 164.494C143.889 164.267 140.021 164.096 137.122 163.954C134.223 163.812 132.294 163.698 132.294 163.698C132.294 163.698 134.232 163.756 137.131 163.898C140.029 164.04 143.897 164.211 147.765 164.382C151.625 164.609 155.493 164.78 158.392 164.923C161.291 165.065 163.221 165.178 163.221 165.178Z" fill="#F2F2F2"/>
<path d="M144.578 164.255L149.564 132.071L156.028 132.111L151.121 164.535L144.578 164.255Z" fill="#C9AA7B"/>
<path d="M161.551 172.603L161.495 172.595L156.058 172.192L144.578 164.255L149.295 164.494L151.121 164.535L161.551 172.603Z" fill="#97805C"/>
<path d="M91.9475 51.9188C92.3173 53.1508 95.7332 50.8506 96.0282 54.2395L96.1839 51.6206C96.2827 50.4076 91.5911 50.5628 91.2834 49.3375L91.9475 51.9188Z" fill="url(#paint19_linear)"/>
<path d="M65.6765 31.8419C63.3612 31.7816 63.4653 26.4275 61.2962 26.7594L64.8081 26.1952C67.0116 25.8356 67.0546 31.8644 69.3013 31.98L65.6765 31.8419Z" fill="url(#paint20_linear)"/>
<path d="M69.1705 32.0287C71.4858 32.089 71.3817 37.4431 73.5508 37.1112L70.0389 37.6755C67.8354 38.035 67.7924 32.0063 65.5457 31.8906L69.1705 32.0287Z" fill="url(#paint21_linear)"/>
<path d="M56.1423 80.6116C54.2048 80.2468 53.3808 84.7078 51.6627 84.0527L54.4985 85.1101C56.2786 85.7719 57.3143 80.8002 59.1964 81.0964L56.1423 80.6116Z" fill="url(#paint22_linear)"/>
<path d="M51.2694 83.9163C49.4339 83.1859 47.7613 87.3676 46.1729 86.3813L48.7006 87.9704C50.289 88.9567 52.3251 84.3121 54.1329 85.0081L51.2694 83.9163Z" fill="url(#paint23_linear)"/>
<path d="M50.7476 52.8297C49.2538 55.0539 56.4399 56.798 55.1532 59.1385L56.7956 56.1145C58.0823 53.774 53.1288 50.2301 54.3812 47.9173L50.7476 52.8297Z" fill="url(#paint24_linear)"/>
<path d="M72.854 116.668C75.0218 117.811 69.4339 123.392 75.6971 125.256L70.7131 124.627C68.3901 124.346 70.4314 115.561 68.2503 114.542L72.854 116.668Z" fill="url(#paint25_linear)"/>
<path d="M39.029 110.84C42.3089 112.73 39.7481 120.801 42.9541 121.333L37.5688 122.104C34.3629 121.572 38.3224 115.377 35.1098 114.906L39.029 110.84Z" fill="url(#paint26_linear)"/>
<path d="M94.6917 72.8273C93.4832 72.1014 95.221 68.7739 93.9172 68.3516L91.8269 67.6565C93.1584 68.1132 91.5293 71.0132 92.7721 71.7113L94.6917 72.8273Z" fill="url(#paint27_linear)"/>
<path d="M89.4876 70.4488C90.6684 71.1404 92.0749 67.6832 93.4341 68.1742L91.3161 67.4448C89.9569 66.9538 88.7765 70.0587 87.5957 69.3672L89.4876 70.4488Z" fill="url(#paint28_linear)"/>
<path d="M114.14 114.951C110.646 114.764 113.547 123.986 110.047 124.144L114.525 123.934C118.025 123.776 118.684 115.878 122.026 115.734L114.14 114.951Z" fill="url(#paint29_linear)"/>
<defs>
<linearGradient id="paint0_linear" x1="178.293" y1="38.8324" x2="213.738" y2="44.0717" gradientUnits="userSpaceOnUse">
<stop stop-color="#D7D7D7"/>
<stop offset="0.0725913" stop-color="#DBDBDB"/>
<stop offset="0.6449" stop-color="#F2F2F2"/>
<stop offset="1" stop-color="#FBFBFB"/>
</linearGradient>
<linearGradient id="paint1_linear" x1="194.272" y1="47.8312" x2="227.184" y2="52.6962" gradientUnits="userSpaceOnUse">
<stop stop-color="#3491E3"/>
<stop offset="1" stop-color="#00FFAA"/>
</linearGradient>
<linearGradient id="paint2_linear" x1="153.214" y1="28.779" x2="193.309" y2="34.7057" gradientUnits="userSpaceOnUse">
<stop stop-color="#00FFAA"/>
<stop offset="1" stop-color="#54B6FF"/>
</linearGradient>
<linearGradient id="paint3_linear" x1="130.949" y1="31.8343" x2="166.399" y2="37.0744" gradientUnits="userSpaceOnUse">
<stop stop-color="#D7D7D7"/>
<stop offset="0.0725913" stop-color="#DBDBDB"/>
<stop offset="0.6449" stop-color="#F2F2F2"/>
<stop offset="1" stop-color="#FBFBFB"/>
</linearGradient>
<linearGradient id="paint4_linear" x1="115.584" y1="36.1999" x2="148.495" y2="41.0647" gradientUnits="userSpaceOnUse">
<stop stop-color="#3491E3"/>
<stop offset="1" stop-color="#00FFAA"/>
</linearGradient>
<linearGradient id="paint5_linear" x1="112.258" y1="62.6257" x2="129.46" y2="65.1683" gradientUnits="userSpaceOnUse">
<stop stop-color="#2978C9"/>
<stop offset="1" stop-color="#2266A9"/>
</linearGradient>
<linearGradient id="paint6_linear" x1="205.497" y1="76.3639" x2="222.728" y2="78.9109" gradientUnits="userSpaceOnUse">
<stop stop-color="#2978C9"/>
<stop offset="1" stop-color="#2266A9"/>
</linearGradient>
<linearGradient id="paint7_linear" x1="146.523" y1="69.9182" x2="187.812" y2="76.0214" gradientUnits="userSpaceOnUse">
<stop stop-color="#2978C9"/>
<stop offset="1" stop-color="#2266A9"/>
</linearGradient>
<linearGradient id="paint8_linear" x1="201.746" y1="90.7912" x2="179.497" y2="56.3988" gradientUnits="userSpaceOnUse">
<stop offset="0.1989" stop-color="#B4B4B4"/>
<stop offset="0.3404" stop-color="#AFAFAF"/>
<stop offset="0.5111" stop-color="#A0A0A0"/>
<stop offset="0.6968" stop-color="#888888"/>
<stop offset="0.892" stop-color="#666666"/>
<stop offset="1" stop-color="#505050"/>
</linearGradient>
<linearGradient id="paint9_linear" x1="114.714" y1="93.9543" x2="172.99" y2="40.8335" gradientUnits="userSpaceOnUse">
<stop offset="0.1989" stop-color="#B4B4B4"/>
<stop offset="0.3404" stop-color="#AFAFAF"/>
<stop offset="0.5111" stop-color="#A0A0A0"/>
<stop offset="0.6968" stop-color="#888888"/>
<stop offset="0.892" stop-color="#666666"/>
<stop offset="1" stop-color="#505050"/>
</linearGradient>
<linearGradient id="paint10_linear" x1="177.991" y1="143.268" x2="189.135" y2="67.8779" gradientUnits="userSpaceOnUse">
<stop stop-color="#808080"/>
<stop offset="1" stop-color="#CCCCCC"/>
</linearGradient>
<linearGradient id="paint11_linear" x1="136.761" y1="137.174" x2="147.905" y2="61.7835" gradientUnits="userSpaceOnUse">
<stop stop-color="#808080"/>
<stop offset="1" stop-color="#CCCCCC"/>
</linearGradient>
<linearGradient id="paint12_linear" x1="166.766" y1="141.609" x2="179.583" y2="54.8957" gradientUnits="userSpaceOnUse">
<stop stop-color="#808080"/>
<stop offset="1" stop-color="#CCCCCC"/>
</linearGradient>
<linearGradient id="paint13_linear" x1="147.83" y1="138.81" x2="160.744" y2="51.4428" gradientUnits="userSpaceOnUse">
<stop stop-color="#808080"/>
<stop offset="1" stop-color="#CCCCCC"/>
</linearGradient>
<linearGradient id="paint14_linear" x1="178.032" y1="143.274" x2="186.831" y2="83.7494" gradientUnits="userSpaceOnUse">
<stop stop-color="#808080"/>
<stop offset="1" stop-color="#CCCCCC"/>
</linearGradient>
<linearGradient id="paint15_linear" x1="166.897" y1="141.628" x2="174.008" y2="93.52" gradientUnits="userSpaceOnUse">
<stop stop-color="#808080"/>
<stop offset="1" stop-color="#CCCCCC"/>
</linearGradient>
<linearGradient id="paint16_linear" x1="147.829" y1="138.81" x2="154.865" y2="91.2155" gradientUnits="userSpaceOnUse">
<stop stop-color="#808080"/>
<stop offset="1" stop-color="#CCCCCC"/>
</linearGradient>
<linearGradient id="paint17_linear" x1="136.72" y1="137.168" x2="145.519" y2="77.6436" gradientUnits="userSpaceOnUse">
<stop stop-color="#808080"/>
<stop offset="1" stop-color="#CCCCCC"/>
</linearGradient>
<linearGradient id="paint18_linear" x1="161.028" y1="160.35" x2="179.69" y2="147.192" gradientUnits="userSpaceOnUse">
<stop stop-color="#E6CDA8"/>
<stop offset="1" stop-color="#C9AA7B"/>
</linearGradient>
<linearGradient id="paint19_linear" x1="92.5305" y1="52.7332" x2="95.382" y2="50.4346" gradientUnits="userSpaceOnUse">
<stop stop-color="#A629A6"/>
<stop offset="0.0921788" stop-color="#BA34A2"/>
<stop offset="0.2933" stop-color="#C9567E"/>
<stop offset="0.8101" stop-color="#FFCE00"/>
<stop offset="1" stop-color="#FFEA90"/>
</linearGradient>
<linearGradient id="paint20_linear" x1="67.2313" y1="34.4485" x2="64.0757" y2="26.192" gradientUnits="userSpaceOnUse">
<stop stop-color="#3E29A6"/>
<stop offset="0.0921788" stop-color="#344ABA"/>
<stop offset="0.2933" stop-color="#56A3C9"/>
<stop offset="0.8101" stop-color="#00FFAA"/>
<stop offset="1" stop-color="#CCFFD5"/>
</linearGradient>
<linearGradient id="paint21_linear" x1="66.7229" y1="32.3661" x2="74.4388" y2="39.1466" gradientUnits="userSpaceOnUse">
<stop stop-color="#3E29A6"/>
<stop offset="0.0921788" stop-color="#344ABA"/>
<stop offset="0.2933" stop-color="#56A3C9"/>
<stop offset="0.8101" stop-color="#00FFAA"/>
<stop offset="1" stop-color="#CCFFD5"/>
</linearGradient>
<linearGradient id="paint22_linear" x1="56.5347" y1="85.4532" x2="54.801" y2="81.1006" gradientUnits="userSpaceOnUse">
<stop stop-color="#A629A6"/>
<stop offset="0.0921788" stop-color="#BA34A2"/>
<stop offset="0.2933" stop-color="#C9567E"/>
<stop offset="0.8101" stop-color="#FFCE00"/>
<stop offset="1" stop-color="#FFEA90"/>
</linearGradient>
<linearGradient id="paint23_linear" x1="53.5512" y1="84.9207" x2="47.2778" y2="86.7527" gradientUnits="userSpaceOnUse">
<stop stop-color="#A629A6"/>
<stop offset="0.0921788" stop-color="#BA34A2"/>
<stop offset="0.2933" stop-color="#C9567E"/>
<stop offset="0.8101" stop-color="#FFCE00"/>
<stop offset="1" stop-color="#FFEA90"/>
</linearGradient>
<linearGradient id="paint24_linear" x1="57.1878" y1="57.6294" x2="52.1025" y2="50.3285" gradientUnits="userSpaceOnUse">
<stop stop-color="#A629A6"/>
<stop offset="0.0921788" stop-color="#BA34A2"/>
<stop offset="0.2933" stop-color="#C9567E"/>
<stop offset="0.8101" stop-color="#FFCE00"/>
<stop offset="1" stop-color="#FFEA90"/>
</linearGradient>
<linearGradient id="paint25_linear" x1="74.9524" y1="126.125" x2="68.7006" y2="115.764" gradientUnits="userSpaceOnUse">
<stop stop-color="#3E29A6"/>
<stop offset="0.0921788" stop-color="#344ABA"/>
<stop offset="0.2933" stop-color="#56A3C9"/>
<stop offset="0.8101" stop-color="#00FFAA"/>
<stop offset="1" stop-color="#CCFFD5"/>
</linearGradient>
<linearGradient id="paint26_linear" x1="42.2684" y1="121.027" x2="36.1638" y2="114.282" gradientUnits="userSpaceOnUse">
<stop offset="0.0921788" stop-color="#6134BA"/>
<stop offset="0.2933" stop-color="#B23CC9"/>
<stop offset="0.8101" stop-color="#FF4D6A"/>
<stop offset="1" stop-color="#FFA6B5"/>
</linearGradient>
<linearGradient id="paint27_linear" x1="92.5073" y1="67.8776" x2="95.2018" y2="74.7558" gradientUnits="userSpaceOnUse">
<stop stop-color="#3E29A6"/>
<stop offset="0.0921788" stop-color="#344ABA"/>
<stop offset="0.2933" stop-color="#56A3C9"/>
<stop offset="0.8101" stop-color="#00FFAA"/>
<stop offset="1" stop-color="#CCFFD5"/>
</linearGradient>
<linearGradient id="paint28_linear" x1="89.4297" y1="71.9033" x2="90.9452" y2="67.4565" gradientUnits="userSpaceOnUse">
<stop stop-color="#3E29A6"/>
<stop offset="0.0921788" stop-color="#344ABA"/>
<stop offset="0.2933" stop-color="#56A3C9"/>
<stop offset="0.8101" stop-color="#00FFAA"/>
<stop offset="1" stop-color="#CCFFD5"/>
</linearGradient>
<linearGradient id="paint29_linear" x1="116.104" y1="123.67" x2="116.028" y2="114.831" gradientUnits="userSpaceOnUse">
<stop stop-color="#3E29A6"/>
<stop offset="0.0921788" stop-color="#344ABA"/>
<stop offset="0.2933" stop-color="#56A3C9"/>
<stop offset="0.8101" stop-color="#00FFAA"/>
<stop offset="1" stop-color="#CCFFD5"/>
</linearGradient>
</defs>
</svg>
