<svg width="36" height="36" viewBox="0 0 36 36" fill="none" xmlns="http://www.w3.org/2000/svg">
<g clip-path="url(#clip0)">
<path d="M18.0118 23.9058C18.0118 23.6226 17.7824 23.3931 17.4991 23.3931C17.2159 23.3931 16.9865 23.6226 16.9865 23.9058V24.2134C16.9865 24.4965 17.2159 24.7261 17.4991 24.7261C17.7824 24.7261 18.0118 24.4965 18.0118 24.2134V23.9058Z" fill="url(#paint0_linear)"/>
<path d="M18.0118 26.7769C18.0118 26.4937 17.7824 26.2642 17.4991 26.2642C17.2159 26.2642 16.9865 26.4937 16.9865 26.7769V27.0845C16.9865 27.3676 17.2159 27.5972 17.4991 27.5972C17.7824 27.5972 18.0118 27.3676 18.0118 27.0845V26.7769Z" fill="url(#paint1_linear)"/>
<path d="M18.0118 29.648C18.0118 29.3649 17.7824 29.1353 17.4991 29.1353C17.2159 29.1353 16.9865 29.3649 16.9865 29.648V29.9557C16.9865 30.2388 17.2159 30.4684 17.4991 30.4684C17.7824 30.4684 18.0118 30.2388 18.0118 29.9557V29.648Z" fill="url(#paint2_linear)"/>
<path d="M17.4991 32.0064C17.2159 32.0064 16.9865 32.2359 16.9865 32.5191V32.8267C16.9865 33.1098 17.2159 33.3394 17.4991 33.3394C17.7824 33.3394 18.0118 33.1098 18.0118 32.8267V32.5191C18.0118 32.2359 17.7824 32.0064 17.4991 32.0064Z" fill="url(#paint3_linear)"/>
<path d="M20.7832 26.6864C21.0664 26.6864 21.2959 26.4569 21.2959 26.1737C21.2959 25.8906 21.0664 25.661 20.7832 25.661H20.2216C19.7774 25.661 19.416 26.0225 19.416 26.4667V27.7143C19.416 28.1586 19.7774 28.52 20.2216 28.52H23.7373C24.1816 28.52 24.543 28.1586 24.543 27.7143V26.4667C24.543 26.0225 24.1816 25.661 23.7373 25.661H23.1758C22.8926 25.661 22.6631 25.8906 22.6631 26.1737C22.6631 26.4569 22.8926 26.6864 23.1758 26.6864H23.5176V27.4945H20.4414V26.6864H20.7832Z" fill="url(#paint4_linear)"/>
<path d="M30.1076 29.2721C30.3908 29.2721 30.6203 29.0425 30.6203 28.7594V26.1903C30.6203 24.1977 29.3923 22.3006 27.634 21.5769C27.6307 21.5756 27.6273 21.5742 27.6241 21.5729L20.7412 18.9073L20.7401 17.5682C21.9144 16.7086 22.7278 15.3853 22.9095 13.87C24.2432 13.7531 25.2362 12.6898 25.2362 11.45C25.2362 10.8406 25.0044 10.245 24.6129 9.78921V7.52117C24.6129 3.68713 21.4936 0.567871 17.6596 0.567871H17.3403C13.5062 0.567871 10.387 3.68713 10.387 7.52124V9.8521C9.99349 10.3033 9.76373 10.876 9.76373 11.4566C9.76373 12.677 10.7385 13.7554 12.0901 13.8706C12.2669 15.3587 13.051 16.6899 14.2558 17.5621V18.8859C13.4516 19.2 8.03566 21.3152 7.37455 21.5734C7.37168 21.5746 7.36881 21.5758 7.36594 21.5769C5.92765 22.1688 4.37964 23.8651 4.37964 26.1903V34.1659C4.37964 34.939 5.00855 35.5679 5.7817 35.5679H29.2183C29.9914 35.5679 30.6203 34.939 30.6203 34.1659V31.152C30.6203 30.8688 30.3908 30.6393 30.1076 30.6393C29.8244 30.6393 29.5949 30.8688 29.5949 31.152V34.1659C29.5949 34.3736 29.4259 34.5425 29.2183 34.5425H26.5045V25.6667C26.5045 25.3835 26.275 25.154 25.9918 25.154C25.7085 25.154 25.4791 25.3835 25.4791 25.6667V34.5425H9.52085V25.6667C9.52085 25.3835 9.29137 25.154 9.00815 25.154C8.72494 25.154 8.49545 25.3835 8.49545 25.6667V34.5425H5.7817C5.57402 34.5425 5.40504 34.3736 5.40504 34.1659V26.1903C5.40504 24.2139 6.80717 22.9177 7.75224 22.5268L12.0332 20.8548L14.6186 22.9987C15.0734 23.3762 15.7534 23.2764 16.0823 22.7891L16.6459 21.9545H18.354L18.9177 22.7891C19.2461 23.2757 19.9261 23.3766 20.3813 22.9988L22.9553 20.8644L27.2486 22.5271C28.4154 23.01 29.5949 24.4219 29.5949 26.1903V28.7594C29.5949 29.0425 29.8244 29.2721 30.1076 29.2721ZM24.2108 11.4501C24.2108 12.151 23.6536 12.7157 22.9494 12.8324V10.2415C23.0811 10.2281 23.2349 10.1886 23.3566 10.1375C23.5158 10.0711 24.2108 10.634 24.2108 11.4501ZM12.0505 12.8336C11.345 12.7194 10.7891 12.1549 10.7891 11.4566C10.7891 10.9682 11.0782 10.5077 11.4861 10.2394C11.4862 10.2394 11.4863 10.2393 11.4863 10.2393C11.5157 10.2199 11.5643 10.2095 11.6132 10.2183C11.8034 10.2525 11.936 10.2489 12.0504 10.2489V12.8336H12.0505ZM11.7539 9.22347C11.5653 9.22347 11.4124 9.07055 11.4124 8.88194V7.52124C11.4124 4.24734 14.0664 1.59327 17.3403 1.59327H17.6596C20.9335 1.59327 23.5875 4.24728 23.5875 7.52117V9.12236C23.3823 9.08791 23.1583 9.10876 22.9598 9.19202C22.7733 9.27029 22.4556 9.19188 22.264 9.10035C21.8325 8.89425 21.5411 8.45305 21.5414 7.96079C21.5416 7.68366 21.3524 7.44228 21.0836 7.37501H21.0835H21.0835L21.0691 7.37262C20.7918 7.32641 20.5208 7.46566 20.3848 7.71176C19.869 8.64535 18.8919 9.22353 17.8248 9.22353H11.7539V9.22347ZM13.0759 13.2261V10.2489H17.8248C18.9748 10.2489 20.0277 9.74827 20.7466 8.95679C20.9954 9.46628 21.4249 9.86256 21.9239 10.0721V13.2261C21.9239 15.6215 19.9737 17.577 17.5749 17.5796C17.5734 17.5796 17.5719 17.5796 17.5704 17.5796C17.5689 17.5796 17.5676 17.5796 17.5661 17.5796C14.7736 17.577 13.0759 15.3817 13.0759 13.2261ZM15.2496 22.19L13.1253 20.4283L14.5974 19.8534L16.0269 21.0387C15.9913 21.0916 15.2811 22.1435 15.2496 22.19ZM18.2991 20.2655C18.0944 20.4352 17.969 20.6772 17.9426 20.9291H17.0574C17.0315 20.6839 16.9093 20.4384 16.7008 20.2655L15.2694 19.0785C15.2742 19.0475 15.2813 18.9718 15.2813 18.9188V18.1446C16.6492 18.7327 18.258 18.7855 19.7152 18.1578L19.7158 18.9233C19.7158 18.9239 19.7159 18.9246 19.7159 18.9252C19.7162 18.9778 19.7204 19.0296 19.7284 19.0803L18.2991 20.2655ZM19.7503 22.19C19.7189 22.1435 19.0087 21.0916 18.973 21.0387L20.3841 19.8687C21.5737 20.3294 21.2901 20.2196 21.8602 20.4403L19.7503 22.19Z" fill="url(#paint5_linear)"/>
</g>
<defs>
<linearGradient id="paint0_linear" x1="17.4991" y1="23.3931" x2="17.4991" y2="24.7261" gradientUnits="userSpaceOnUse">
<stop stop-color="#FF4D6A"/>
<stop offset="1" stop-color="#FFCE00"/>
</linearGradient>
<linearGradient id="paint1_linear" x1="17.4991" y1="26.2642" x2="17.4991" y2="27.5972" gradientUnits="userSpaceOnUse">
<stop stop-color="#FF4D6A"/>
<stop offset="1" stop-color="#FFCE00"/>
</linearGradient>
<linearGradient id="paint2_linear" x1="17.4991" y1="29.1353" x2="17.4991" y2="30.4684" gradientUnits="userSpaceOnUse">
<stop stop-color="#FF4D6A"/>
<stop offset="1" stop-color="#FFCE00"/>
</linearGradient>
<linearGradient id="paint3_linear" x1="17.4991" y1="32.0064" x2="17.4991" y2="33.3394" gradientUnits="userSpaceOnUse">
<stop stop-color="#FF4D6A"/>
<stop offset="1" stop-color="#FFCE00"/>
</linearGradient>
<linearGradient id="paint4_linear" x1="21.9795" y1="25.661" x2="21.9795" y2="28.52" gradientUnits="userSpaceOnUse">
<stop stop-color="#FF4D6A"/>
<stop offset="1" stop-color="#FFCE00"/>
</linearGradient>
<linearGradient id="paint5_linear" x1="17.5" y1="0.567871" x2="17.5" y2="35.5679" gradientUnits="userSpaceOnUse">
<stop stop-color="#FF4D6A"/>
<stop offset="1" stop-color="#FFCE00"/>
</linearGradient>
<clipPath id="clip0">
<rect width="35" height="35" fill="white" transform="translate(0 0.567871)"/>
</clipPath>
</defs>
</svg>