<svg width="394" height="520" viewBox="0 0 394 520" fill="none" xmlns="http://www.w3.org/2000/svg">
<g filter="url(#filter0_d)">
<path fill-rule="evenodd" clip-rule="evenodd" d="M167.567 309.309C152.965 294.412 129.32 291.8 111.65 304.14C91.9612 317.89 87.1469 344.997 100.897 364.686C109.405 376.869 123.028 383.357 136.843 383.275C138.692 393.248 142.651 402.995 148.836 411.852C172.031 445.064 217.758 453.185 250.97 429.991C284.183 406.796 292.304 361.069 269.109 327.857C246.052 294.841 200.729 286.621 167.567 309.309Z" fill="url(#paint0_linear)"/>
</g>
<path d="M260.29 91.9766C261.336 95.4642 271.006 88.9526 271.842 98.546L272.282 91.1324C272.562 87.6985 259.281 88.1379 258.41 84.6692L260.29 91.9766Z" fill="url(#paint1_linear)"/>
<path d="M185.92 35.1417C179.366 34.971 179.661 19.8144 173.52 20.754L183.462 19.1567C189.7 18.1387 189.822 35.2053 196.182 35.5328L185.92 35.1417Z" fill="url(#paint2_linear)"/>
<path d="M195.811 35.6707C202.365 35.8414 202.071 50.998 208.211 50.0584L198.27 51.6558C192.032 52.6737 191.91 35.6072 185.55 35.2797L195.811 35.6707Z" fill="url(#paint3_linear)"/>
<path d="M158.93 173.202C153.445 172.169 151.113 184.797 146.249 182.943L154.277 185.936C159.316 187.81 162.248 173.736 167.576 174.574L158.93 173.202Z" fill="url(#paint4_linear)"/>
<path d="M145.136 182.557C139.94 180.489 135.205 192.327 130.708 189.535L137.864 194.033C142.361 196.825 148.124 183.677 153.242 185.648L145.136 182.557Z" fill="url(#paint5_linear)"/>
<path d="M143.659 94.5551C139.43 100.851 159.773 105.789 156.13 112.415L160.78 103.854C164.422 97.2283 150.4 87.1962 153.945 80.6489L143.659 94.5551Z" fill="url(#paint6_linear)"/>
<path d="M206.239 275.272C212.375 278.506 196.557 294.306 214.287 299.584L200.178 297.803C193.602 297.008 199.381 272.137 193.206 269.254L206.239 275.272Z" fill="url(#paint7_linear)"/>
<path d="M110.485 258.775C119.77 264.124 112.521 286.972 121.597 288.479L106.352 290.662C97.2763 289.154 108.485 271.617 99.3907 270.285L110.485 258.775Z" fill="url(#paint8_linear)"/>
<path d="M268.058 151.166C264.637 149.111 269.556 139.691 265.865 138.495L259.948 136.528C263.717 137.821 259.106 146.03 262.624 148.006L268.058 151.166Z" fill="url(#paint9_linear)"/>
<path d="M253.326 144.432C256.669 146.39 260.65 136.603 264.498 137.993L258.502 135.928C254.655 134.538 251.313 143.328 247.97 141.37L253.326 144.432Z" fill="url(#paint10_linear)"/>
<path d="M323.114 270.41C313.223 269.881 321.434 295.988 311.527 296.434L324.204 295.841C334.11 295.395 335.978 273.035 345.436 272.629L323.114 270.41Z" fill="url(#paint11_linear)"/>
<path d="M105 426.538L201.072 426.538" stroke="#FFCE00" stroke-width="2" stroke-linejoin="round"/>
<path d="M107.553 418.184L198.751 418.184" stroke="#FFCE00" stroke-width="2" stroke-linejoin="round"/>
<path d="M111.498 409.366L195.967 409.366" stroke="#FFCE00" stroke-width="2" stroke-linejoin="round"/>
<path d="M116.835 401.476L189.933 401.476" stroke="#FFCE00" stroke-width="2" stroke-linejoin="round"/>
<path d="M127.045 392.658L179.49 392.658" stroke="#FFCE00" stroke-width="2" stroke-linejoin="round"/>
<path d="M105.232 434.428L201.536 434.428" stroke="#FFCE00" stroke-width="2" stroke-linejoin="round"/>
<line x1="106.16" y1="441.55" x2="199.911" y2="441.55" stroke="#FFCE00" stroke-width="2" stroke-linejoin="round"/>
<line x1="108.945" y1="449.44" x2="197.591" y2="449.44" stroke="#FFCE00" stroke-width="2" stroke-linejoin="round"/>
<line x1="112.194" y1="457.33" x2="193.878" y2="457.33" stroke="#FFCE00" stroke-width="2" stroke-linejoin="round"/>
<line x1="118.691" y1="465.22" x2="188.309" y2="465.22" stroke="#FFCE00" stroke-width="2" stroke-linejoin="round"/>
<line x1="128.438" y1="473.11" x2="178.098" y2="473.11" stroke="#FFCE00" stroke-width="2" stroke-linejoin="round"/>
<line x1="148.395" y1="481" x2="157.677" y2="481" stroke="#FFCE00" stroke-width="2" stroke-linejoin="round"/>
<line x1="147.931" y1="384" x2="157.213" y2="384" stroke="#FFCE00" stroke-width="2" stroke-linejoin="round"/>
<defs>
<filter id="filter0_d" x="16.0005" y="178" width="335.106" height="341.03" filterUnits="userSpaceOnUse" color-interpolation-filters="sRGB">
<feFlood flood-opacity="0" result="BackgroundImageFix"/>
<feColorMatrix in="SourceAlpha" type="matrix" values="0 0 0 0 0 0 0 0 0 0 0 0 0 0 0 0 0 0 127 0"/>
<feOffset dx="-10" dy="-10"/>
<feGaussianBlur stdDeviation="25"/>
<feColorMatrix type="matrix" values="0 0 0 0 0.203922 0 0 0 0 0.290196 0 0 0 0 0.729412 0 0 0 0.46 0"/>
<feBlend mode="normal" in2="BackgroundImageFix" result="effect1_dropShadow"/>
<feBlend mode="normal" in="SourceGraphic" in2="effect1_dropShadow" result="shape"/>
</filter>
<linearGradient id="paint0_linear" x1="122.265" y1="363.306" x2="273.133" y2="333.619" gradientUnits="userSpaceOnUse">
<stop stop-color="#6500F4"/>
<stop offset="1" stop-color="#4389F4"/>
</linearGradient>
<linearGradient id="paint1_linear" x1="261.94" y1="94.2819" x2="270.012" y2="87.775" gradientUnits="userSpaceOnUse">
<stop stop-color="#A629A6"/>
<stop offset="0.0921788" stop-color="#BA34A2"/>
<stop offset="0.2933" stop-color="#C9567E"/>
<stop offset="0.8101" stop-color="#FFCE00"/>
<stop offset="1" stop-color="#FFEA90"/>
</linearGradient>
<linearGradient id="paint2_linear" x1="190.322" y1="42.5206" x2="181.389" y2="19.1477" gradientUnits="userSpaceOnUse">
<stop stop-color="#3E29A6"/>
<stop offset="0.0921788" stop-color="#344ABA"/>
<stop offset="0.2933" stop-color="#56A3C9"/>
<stop offset="0.8101" stop-color="#00FFAA"/>
<stop offset="1" stop-color="#CCFFD5"/>
</linearGradient>
<linearGradient id="paint3_linear" x1="188.882" y1="36.6256" x2="210.725" y2="55.8203" gradientUnits="userSpaceOnUse">
<stop stop-color="#3E29A6"/>
<stop offset="0.0921788" stop-color="#344ABA"/>
<stop offset="0.2933" stop-color="#56A3C9"/>
<stop offset="0.8101" stop-color="#00FFAA"/>
<stop offset="1" stop-color="#CCFFD5"/>
</linearGradient>
<linearGradient id="paint4_linear" x1="160.041" y1="186.907" x2="155.133" y2="174.586" gradientUnits="userSpaceOnUse">
<stop stop-color="#A629A6"/>
<stop offset="0.0921788" stop-color="#BA34A2"/>
<stop offset="0.2933" stop-color="#C9567E"/>
<stop offset="0.8101" stop-color="#FFCE00"/>
<stop offset="1" stop-color="#FFEA90"/>
</linearGradient>
<linearGradient id="paint5_linear" x1="151.595" y1="185.4" x2="133.836" y2="190.586" gradientUnits="userSpaceOnUse">
<stop stop-color="#A629A6"/>
<stop offset="0.0921788" stop-color="#BA34A2"/>
<stop offset="0.2933" stop-color="#C9567E"/>
<stop offset="0.8101" stop-color="#FFCE00"/>
<stop offset="1" stop-color="#FFEA90"/>
</linearGradient>
<linearGradient id="paint6_linear" x1="161.89" y1="108.142" x2="147.494" y2="87.4746" gradientUnits="userSpaceOnUse">
<stop stop-color="#A629A6"/>
<stop offset="0.0921788" stop-color="#BA34A2"/>
<stop offset="0.2933" stop-color="#C9567E"/>
<stop offset="0.8101" stop-color="#FFCE00"/>
<stop offset="1" stop-color="#FFEA90"/>
</linearGradient>
<linearGradient id="paint7_linear" x1="212.179" y1="302.043" x2="194.481" y2="272.714" gradientUnits="userSpaceOnUse">
<stop stop-color="#3E29A6"/>
<stop offset="0.0921788" stop-color="#344ABA"/>
<stop offset="0.2933" stop-color="#56A3C9"/>
<stop offset="0.8101" stop-color="#00FFAA"/>
<stop offset="1" stop-color="#CCFFD5"/>
</linearGradient>
<linearGradient id="paint8_linear" x1="119.656" y1="287.613" x2="102.374" y2="268.516" gradientUnits="userSpaceOnUse">
<stop offset="0.0921788" stop-color="#6134BA"/>
<stop offset="0.2933" stop-color="#B23CC9"/>
<stop offset="0.8101" stop-color="#FF4D6A"/>
<stop offset="1" stop-color="#FFA6B5"/>
</linearGradient>
<linearGradient id="paint9_linear" x1="261.874" y1="137.154" x2="269.502" y2="156.625" gradientUnits="userSpaceOnUse">
<stop stop-color="#3E29A6"/>
<stop offset="0.0921788" stop-color="#344ABA"/>
<stop offset="0.2933" stop-color="#56A3C9"/>
<stop offset="0.8101" stop-color="#00FFAA"/>
<stop offset="1" stop-color="#CCFFD5"/>
</linearGradient>
<linearGradient id="paint10_linear" x1="253.162" y1="148.55" x2="257.452" y2="135.962" gradientUnits="userSpaceOnUse">
<stop stop-color="#3E29A6"/>
<stop offset="0.0921788" stop-color="#344ABA"/>
<stop offset="0.2933" stop-color="#56A3C9"/>
<stop offset="0.8101" stop-color="#00FFAA"/>
<stop offset="1" stop-color="#CCFFD5"/>
</linearGradient>
<linearGradient id="paint11_linear" x1="328.673" y1="295.095" x2="328.459" y2="270.071" gradientUnits="userSpaceOnUse">
<stop stop-color="#3E29A6"/>
<stop offset="0.0921788" stop-color="#344ABA"/>
<stop offset="0.2933" stop-color="#56A3C9"/>
<stop offset="0.8101" stop-color="#00FFAA"/>
<stop offset="1" stop-color="#CCFFD5"/>
</linearGradient>
</defs>
</svg>
