<svg width="55" height="55" viewBox="0 0 55 55" fill="none" xmlns="http://www.w3.org/2000/svg">
<path d="M51.7083 0H3.04167C2.23497 0 1.46131 0.32046 0.890883 0.890883C0.32046 1.46131 0 2.23497 0 3.04167V51.7083C0 52.515 0.32046 53.2887 0.890883 53.8591C1.46131 54.4295 2.23497 54.75 3.04167 54.75H29.2456V33.58H22.1342V25.2915H29.2456V19.2081C29.2456 12.1362 33.5648 8.28246 39.8915 8.28246C42.0176 8.27638 44.1467 8.38587 46.2637 8.60792V15.9688H41.899C38.468 15.9688 37.7988 17.6052 37.7988 19.999V25.2763H46.0022L44.9376 33.5648H37.7957V54.75H51.7083C52.515 54.75 53.2887 54.4295 53.8591 53.8591C54.4295 53.2887 54.75 52.515 54.75 51.7083V3.04167C54.75 2.23497 54.4295 1.46131 53.8591 0.890883C53.2887 0.32046 52.515 0 51.7083 0Z" fill="#0059A5"/>
</svg>
