<svg width="55" height="55" viewBox="0 0 55 55" fill="none" xmlns="http://www.w3.org/2000/svg">
<rect x="0.5" y="0.5" width="54" height="54" rx="4.5" stroke="#C4C4C4"/>
<g clip-path="url(#clip0)">
<path d="M17.6798 24.2406C18.3622 22.1763 19.679 20.3801 21.4425 19.1085C23.206 17.8368 25.3261 17.1545 27.5003 17.159C29.9648 17.159 32.1932 18.034 33.9432 19.466L39.0357 14.375C35.9323 11.6698 31.9555 10 27.5003 10C20.6023 10 14.664 13.9346 11.8086 19.6979L17.6798 24.2406Z" fill="#B1B0B0"/>
<path d="M33.3914 36.269C31.8018 37.2942 29.7835 37.841 27.4998 37.841C25.3342 37.8455 23.2222 37.1686 21.4626 35.9063C19.703 34.6441 18.3851 32.8603 17.6954 30.8075L11.8037 35.2802C13.2493 38.206 15.4864 40.6679 18.261 42.386C21.0355 44.1042 24.2363 45.0098 27.4998 45C31.777 45 35.8633 43.479 38.9243 40.625L33.3929 36.269H33.3914Z" fill="#C4C4C4"/>
<path d="M38.9246 40.625C42.1256 37.6383 44.2038 33.1933 44.2038 27.5C44.2038 26.4646 44.0448 25.3519 43.8071 24.3179H27.5V31.0802H36.8858C36.4235 33.3538 35.1796 35.114 33.3931 36.269L38.9246 40.625Z" fill="#D4D4D4"/>
<path d="M17.6958 30.8075C17.339 29.7413 17.1578 28.6243 17.1591 27.5C17.1591 26.3596 17.3414 25.2644 17.6798 24.2406L11.8085 19.6979C10.6074 22.1227 9.98822 24.7941 10.0002 27.5C10.0002 30.3 10.6491 32.9396 11.8041 35.2802L17.6958 30.8075Z" fill="#E3E3E3"/>
</g>
<defs>
<clipPath id="clip0">
<rect width="35" height="35" fill="white" transform="translate(10 10)"/>
</clipPath>
</defs>
</svg>
