<svg width="55" height="55" viewBox="0 0 55 55" fill="none" xmlns="http://www.w3.org/2000/svg">
<path d="M0 0v53h53V0H0zm23.53 14.17c1.5-.01 2.97.15 3.68.17 2.66.08 3.12 1.42 3.1 2.53-.06 1.61-1.1 8.45.83 9.12 2.8-1.5 4.7-6.17 6.06-9.12.7-1.5.59-1.57 2.19-1.58h6.35c1.53 0 1.47-.06 1.96.56 1.14 1.46-3.6 7.5-5.13 9.17-2.82 3.09-1.17 4.28-.72 4.7 2.11 1.97 4.15 4.01 5.41 5.89 1 1.5.6 2.88-.69 2.94l-6.81.28c-2.26.1-5.78-3.96-6.34-4.84-.45-.73-2.64-1.65-2.84.22l-.3 2.6c-.2 1.85-1.57 1.8-2.65 1.85-7.5.33-10.05-2.53-13.82-6.74-2.77-3.91-5.4-7.84-7.6-12.56a10.2 10.2 0 01-1.09-3.54c1.1-.86 4.97-.49 7.56-.55.71-.01 1.19.4 1.56 1.2a46.87 46.87 0 005.17 9c.91.85 1.73 1.16 2.13-.56.24-.02.22-2.86.23-5.01.01-1.48-.16-3.25-2.66-4.06.5-1.33 2.49-1.65 4.42-1.67z" fill="#ddd"/>
</svg>
