<svg width="55" height="55" viewBox="0 0 55 55" fill="none" xmlns="http://www.w3.org/2000/svg">
<path d="M0 0V53H53V0H0ZM23.5271 14.1719C25.0278 14.1564 26.4956 14.3228 27.2117 14.3434C29.8661 14.4198 30.3349 15.7623 30.3009 16.8666C30.2512 18.4838 29.2107 25.3249 31.1388 25.9921C33.9482 24.4898 35.8321 19.8239 37.2041 16.8666C37.8981 15.3708 37.7884 15.2964 39.3876 15.2944L45.7409 15.2847C47.2709 15.2828 47.2112 15.2292 47.7013 15.8541C48.8412 17.3075 44.104 23.3533 42.574 25.0249C39.7504 28.1098 41.3978 29.3045 41.8526 29.7284C43.9598 31.6931 45.9959 33.7304 47.2613 35.6094C48.2674 37.1032 47.8518 38.494 46.5722 38.5466L39.7596 38.8281C37.4989 38.921 33.9837 34.8684 33.4226 33.9855C32.9688 33.2571 30.7819 32.3444 30.5759 34.2054L30.288 36.8029C30.0789 38.6597 28.7079 38.6164 27.6257 38.6629C20.132 38.9854 17.58 36.1323 13.8063 31.9215C11.0406 28.0101 8.40121 24.0762 6.21412 19.3637C5.55948 17.9531 5.21273 16.9184 5.12395 15.8216C6.22441 14.9615 10.0871 15.3319 12.6806 15.2749C13.39 15.2592 13.8686 15.6657 14.243 16.475C15.7041 19.6335 17.2976 22.7351 19.4059 25.4776C20.3241 26.3233 21.1358 26.6343 21.5409 24.9148C21.7762 24.8932 21.7572 22.0456 21.7706 19.8975C21.7797 18.4226 21.6065 16.6538 19.1083 15.8377C19.6136 14.5132 21.5978 14.1919 23.5271 14.1719Z" fill="#4477BB"/>
</svg>
