<svg width="690" height="528" viewBox="0 0 690 528" fill="none" xmlns="http://www.w3.org/2000/svg">
<g filter="url(#filter0_d)">
<path fill-rule="evenodd" clip-rule="evenodd" d="M407.405 397.328C427.036 438.565 469.09 467.067 517.802 467.067C585.29 467.067 640 412.357 640 344.869C640 277.381 585.29 222.671 517.802 222.671C514.385 222.671 511 222.812 507.653 223.087C503.004 221.64 487.642 216.471 476.096 208.074C467.256 201.645 458.415 181.793 453.222 168.415C432.316 94.3107 364.208 40 283.415 40C185.984 40 107 118.984 107 216.415C107 313.847 185.984 392.831 283.415 392.831C306.154 392.831 327.888 388.529 347.848 380.695L347.643 381.153C347.643 381.153 348.966 380.405 351.186 379.344C353.071 378.56 354.939 377.743 356.79 376.895C365.462 373.45 378.494 369.863 387.68 374.48C395.647 378.485 400.318 382.98 403.052 386.975C404.162 389.999 405.388 392.967 406.725 395.874C406.947 397.366 406.865 398.253 406.865 398.253L407.405 397.328Z" fill="url(#paint0_linear)"/>
</g>
<path fill-rule="evenodd" clip-rule="evenodd" d="M150.467 78.0327L159.181 88.5751L160.722 87.3009L152.009 76.7586L150.467 78.0327ZM121.394 62.1381L170.624 121.702L172.166 120.428L122.936 60.864L121.394 62.1381ZM170.412 141.84L101.794 58.8193L103.335 57.5451L171.953 140.566L170.412 141.84ZM87.8228 60.1638L167.114 156.099L168.656 154.825L89.3644 58.8896L87.8228 60.1638ZM159.713 167.539L74.1045 63.961L75.6461 62.6869L161.255 166.265L159.713 167.539ZM152.403 178.017L62.22 68.9035L63.7616 67.6294L153.945 176.743L152.403 178.017ZM143.878 185.95L53.4768 76.5735L55.0184 75.2993L145.419 184.676L143.878 185.95ZM45.8943 84.6149L133.899 191.093L135.441 189.818L47.4359 83.3408L45.8943 84.6149ZM122.76 195.863L39.5475 95.1838L41.0891 93.9097L124.302 194.589L122.76 195.863ZM33.6364 106.28L110.314 199.053L111.855 197.779L35.178 105.006L33.6364 106.28ZM96.1245 200.134L30.7744 121.066L32.316 119.792L97.6661 198.86L96.1245 200.134ZM30.9629 139.542L77.5793 195.944L79.1209 194.67L32.5045 138.268L30.9629 139.542ZM49.4483 180.157L40.735 169.614L42.2766 168.34L50.9899 178.882L49.4483 180.157Z" fill="url(#paint1_linear)"/>
<defs>
<filter id="filter0_d" x="57" y="0" width="633" height="527.067" filterUnits="userSpaceOnUse" color-interpolation-filters="sRGB">
<feFlood flood-opacity="0" result="BackgroundImageFix"/>
<feColorMatrix in="SourceAlpha" type="matrix" values="0 0 0 0 0 0 0 0 0 0 0 0 0 0 0 0 0 0 127 0"/>
<feOffset dy="10"/>
<feGaussianBlur stdDeviation="25"/>
<feColorMatrix type="matrix" values="0 0 0 0 0.717647 0 0 0 0 0.4 0 0 0 0 0.960784 0 0 0 1 0"/>
<feBlend mode="normal" in2="BackgroundImageFix" result="effect1_dropShadow"/>
<feBlend mode="normal" in="SourceGraphic" in2="effect1_dropShadow" result="shape"/>
</filter>
<linearGradient id="paint0_linear" x1="373.5" y1="40" x2="420" y2="331" gradientUnits="userSpaceOnUse">
<stop stop-color="#6616F1"/>
<stop offset="1" stop-color="#D42EF3" stop-opacity="0.81"/>
</linearGradient>
<linearGradient id="paint1_linear" x1="157.019" y1="82.8202" x2="45.3096" y2="175.149" gradientUnits="userSpaceOnUse">
<stop stop-color="#FF4D6A"/>
<stop offset="1" stop-color="#FFCE00"/>
</linearGradient>
</defs>
</svg>
