<svg width="1337" height="619" viewBox="-86 0 1337 619" fill="none" xmlns="http://www.w3.org/2000/svg">
<g filter="url(#filter0_d)">
<path fill-rule="evenodd" clip-rule="evenodd" d="M1130.41 405.328C1150.04 446.565 1192.09 475.067 1240.8 475.067C1308.29 475.067 1363 420.357 1363 352.869C1363 285.381 1308.29 230.671 1240.8 230.671C1237.38 230.671 1234 230.812 1230.65 231.087C1226 229.64 1210.64 224.471 1199.1 216.074C1190.26 209.645 1181.42 189.793 1176.22 176.415C1155.32 102.311 1087.21 48 1006.42 48C908.984 48 830 126.984 830 224.415C830 321.847 908.984 400.831 1006.42 400.831C1029.15 400.831 1050.89 396.529 1070.85 388.695L1070.64 389.153C1070.64 389.153 1071.97 388.405 1074.19 387.344C1076.07 386.56 1077.94 385.743 1079.79 384.895C1088.46 381.45 1101.49 377.863 1110.68 382.48C1118.65 386.485 1123.32 390.98 1126.05 394.975C1127.16 397.999 1128.39 400.967 1129.73 403.874C1129.95 405.366 1129.86 406.253 1129.86 406.253L1130.41 405.328Z" fill="url(#paint0_linear)"/>
</g>
<path d="M1192.99 41.388C1193.61 50.0145 1158.8 35.6884 1157.72 52.4792L1156.64 38.6153C1156.02 29.9888 1192.07 30.605 1191.45 21.9786L1192.99 41.388Z" fill="url(#paint1_linear)"/>
<path d="M1003.07 108.463C995.987 112.468 982.277 81.5056 975.191 85.5107L986.437 79.195C993.523 75.1898 1002.61 108.771 1009.7 104.766L1003.07 108.463Z" fill="url(#paint2_linear)"/>
<path d="M1199.88 345.608C1196.96 347.764 1201.88 354.542 1198.8 356.083L1203.73 353.618C1206.81 352.077 1201.42 344.375 1204.2 342.219L1199.88 345.608Z" fill="url(#paint3_linear)"/>
<path d="M1204.04 342.373C1206.97 340.216 1202.04 333.438 1205.12 331.898L1200.19 334.363C1197.11 335.903 1202.5 343.605 1199.73 345.762L1204.04 342.373Z" fill="url(#paint4_linear)"/>
<path d="M895.096 101.487C901.566 105.338 881.695 113.502 892.94 127.058L884.776 119.202C878.614 112.886 891.091 99.1759 883.389 94.5546L895.096 101.487Z" fill="url(#paint5_linear)"/>
<path d="M1129.22 266.273C1126.29 268.121 1126.76 255.182 1119.36 256.722L1126.45 252.717C1130.76 250.406 1129.68 264.27 1134.15 262.576L1129.22 266.273Z" fill="url(#paint6_linear)"/>
<path d="M1089.05 110.647C1093.21 103.869 1103.69 124.511 1109.69 119.427L1101.99 125.897C1095.98 130.981 1082.89 119.119 1077.19 123.895L1089.05 110.647Z" fill="url(#paint7_linear)"/>
<path d="M1115.08 114.96C1121.4 110.031 1127.56 130.827 1134.19 126.667L1125.71 131.905C1119.09 136.064 1107.84 122.354 1101.53 126.359L1115.08 114.96Z" fill="url(#paint8_linear)"/>
<path d="M1164.73 199.922C1173.51 201.154 1163.19 177.277 1171.82 175.737L1160.73 177.739C1152.1 179.28 1153.18 199.151 1144.86 200.692L1164.73 199.922Z" fill="url(#paint9_linear)"/>
<path d="M1181.37 174.042C1190.31 172.81 1184.61 196.533 1193.39 196.225L1182.14 196.533C1173.36 196.841 1170.28 177.123 1161.81 177.431L1181.37 174.042Z" fill="url(#paint10_linear)"/>
<path d="M1032.28 196.887C1038.29 200.276 1040.44 224.153 1046.91 226.001L1036.75 223.074C1030.43 221.226 1028.28 194.73 1022.27 191.65L1032.28 196.887Z" fill="url(#paint11_linear)"/>
<path d="M1242.21 9.98348C1245.29 12.6022 1235.28 27.5444 1238.82 29.547L1230.81 25.2338C1227.27 23.2312 1240.21 8.13496 1236.66 6.28644L1242.21 9.98348Z" fill="url(#paint12_linear)"/>
<path d="M1274.9 199.332C1269.35 197.792 1268.27 171.758 1262.11 171.604L1274.74 172.066C1287.07 173.145 1272.59 198.87 1285.06 202.259L1274.9 199.332Z" fill="url(#paint13_linear)"/>
<path d="M1242.81 263.799C1245.28 270.577 1225.41 264.723 1225.71 281.668L1224.33 270.731C1223.56 262.259 1241.27 259.486 1238.35 251.476L1242.81 263.799Z" fill="url(#paint14_linear)"/>
<path d="M1237.16 61.4633C1230.23 62.6956 1219.75 84.7238 1212.97 84.2617L1223.76 85.0319C1230.53 85.494 1241.93 60.8471 1248.71 59.9228L1237.16 61.4633Z" fill="url(#paint15_linear)"/>
<path d="M1306.63 325.647C1306.32 331.193 1296 331.963 1294.92 337.047L1293.23 332.117C1294.31 326.88 1306.48 319.332 1307.56 314.094L1306.63 325.647Z" fill="url(#paint16_linear)"/>
<path d="M1295.54 309.627C1294.46 314.865 1307.86 319.178 1306.79 324.261L1307.56 314.248C1307.86 308.857 1297.39 306.7 1298.47 301.463L1295.54 309.627Z" fill="url(#paint17_linear)"/>
<path d="M1312.02 303.465C1311.25 308.703 1297.39 304.39 1295.54 309.473L1298.62 301.309C1300.47 296.071 1312.64 300.23 1313.41 294.993L1312.02 303.465Z" fill="url(#paint18_linear)"/>
<path d="M1307.71 408.831C1304.01 410.526 1300.16 401.745 1296.93 404.056L1302.16 400.513C1305.4 398.356 1310.02 407.907 1313.56 406.366L1307.71 408.831Z" fill="url(#paint19_linear)"/>
<path d="M1359.91 475.589C1355.6 478.824 1335.88 464.806 1332.19 469.273L1339.58 460.184C1347.44 451.712 1358.07 476.821 1367.77 469.581L1359.91 475.589Z" fill="url(#paint20_linear)"/>
<path fill-rule="evenodd" clip-rule="evenodd" d="M873.467 86.0327L882.18 96.5751L883.722 95.3009L875.008 84.7586L873.467 86.0327ZM844.394 70.1381L893.624 129.702L895.166 128.428L845.935 68.864L844.394 70.1381ZM893.411 149.84L824.793 66.8193L826.335 65.5451L894.953 148.566L893.411 149.84ZM810.822 68.1638L890.114 164.099L891.655 162.825L812.364 66.8896L810.822 68.1638ZM882.713 175.539L797.104 71.961L798.646 70.6869L884.254 174.265L882.713 175.539ZM875.403 186.017L785.219 76.9035L786.761 75.6294L876.944 184.743L875.403 186.017ZM866.877 193.95L776.476 84.5735L778.018 83.2993L868.419 192.676L866.877 193.95ZM768.894 92.6149L856.899 199.093L858.44 197.818L770.435 91.3408L768.894 92.6149ZM845.759 203.863L762.547 103.184L764.089 101.91L847.301 202.589L845.759 203.863ZM756.636 114.28L833.313 207.053L834.855 205.779L758.178 113.006L756.636 114.28ZM819.124 208.134L753.774 129.066L755.315 127.792L820.666 206.86L819.124 208.134ZM753.962 147.542L800.579 203.944L802.12 202.67L755.504 146.268L753.962 147.542ZM772.448 188.157L763.735 177.614L765.276 176.34L773.989 186.882L772.448 188.157Z" fill="url(#paint21_linear)"/>
<defs>
<filter id="filter0_d" x="780" y="8" width="633" height="527.067" filterUnits="userSpaceOnUse" color-interpolation-filters="sRGB">
<feFlood flood-opacity="0" result="BackgroundImageFix"/>
<feColorMatrix in="SourceAlpha" type="matrix" values="0 0 0 0 0 0 0 0 0 0 0 0 0 0 0 0 0 0 127 0"/>
<feOffset dy="10"/>
<feGaussianBlur stdDeviation="25"/>
<feColorMatrix type="matrix" values="0 0 0 0 0.717647 0 0 0 0 0.4 0 0 0 0 0.960784 0 0 0 1 0"/>
<feBlend mode="normal" in2="BackgroundImageFix" result="effect1_dropShadow"/>
<feBlend mode="normal" in="SourceGraphic" in2="effect1_dropShadow" result="shape"/>
</filter>
<linearGradient id="paint0_linear" x1="1096.5" y1="48" x2="1143" y2="339" gradientUnits="userSpaceOnUse">
<stop stop-color="#6616F1"/>
<stop offset="1" stop-color="#D42EF3" stop-opacity="0.81"/>
</linearGradient>
<linearGradient id="paint1_linear" x1="1160.19" y1="52.7122" x2="1191.18" y2="25.528" gradientUnits="userSpaceOnUse">
<stop offset="0.0921788" stop-color="#6134BA"/>
<stop offset="0.2933" stop-color="#B23CC9"/>
<stop offset="0.8101" stop-color="#FF4D6A"/>
<stop offset="1" stop-color="#FFA6B5"/>
</linearGradient>
<linearGradient id="paint2_linear" x1="1005.14" y1="113.233" x2="984.207" y2="83.0585" gradientUnits="userSpaceOnUse">
<stop stop-color="#3E29A6"/>
<stop offset="0.0921788" stop-color="#344ABA"/>
<stop offset="0.2933" stop-color="#56A3C9"/>
<stop offset="0.8101" stop-color="#00FFAA"/>
<stop offset="1" stop-color="#CCFFD5"/>
</linearGradient>
<linearGradient id="paint3_linear" x1="1203.62" y1="353.785" x2="1199.88" y2="345.222" gradientUnits="userSpaceOnUse">
<stop stop-color="#A629A6"/>
<stop offset="0.0921788" stop-color="#BA34A2"/>
<stop offset="0.2933" stop-color="#C9567E"/>
<stop offset="0.8101" stop-color="#FFCE00"/>
<stop offset="1" stop-color="#FFEA90"/>
</linearGradient>
<linearGradient id="paint4_linear" x1="1204.83" y1="341.048" x2="1196.74" y2="333.844" gradientUnits="userSpaceOnUse">
<stop stop-color="#A629A6"/>
<stop offset="0.0921788" stop-color="#BA34A2"/>
<stop offset="0.2933" stop-color="#C9567E"/>
<stop offset="0.8101" stop-color="#FFCE00"/>
<stop offset="1" stop-color="#FFEA90"/>
</linearGradient>
<linearGradient id="paint5_linear" x1="885.751" y1="119.858" x2="891.867" y2="97.4312" gradientUnits="userSpaceOnUse">
<stop offset="0.0921788" stop-color="#6134BA"/>
<stop offset="0.2933" stop-color="#B23CC9"/>
<stop offset="0.8101" stop-color="#FF4D6A"/>
<stop offset="1" stop-color="#FFA6B5"/>
</linearGradient>
<linearGradient id="paint6_linear" x1="1131.55" y1="268.229" x2="1123.94" y2="254.297" gradientUnits="userSpaceOnUse">
<stop stop-color="#3E29A6"/>
<stop offset="0.0921788" stop-color="#344ABA"/>
<stop offset="0.2933" stop-color="#56A3C9"/>
<stop offset="0.8101" stop-color="#00FFAA"/>
<stop offset="1" stop-color="#CCFFD5"/>
</linearGradient>
<linearGradient id="paint7_linear" x1="1100.01" y1="128.235" x2="1086.83" y2="114.915" gradientUnits="userSpaceOnUse">
<stop offset="0.0921788" stop-color="#6134BA"/>
<stop offset="0.2933" stop-color="#B23CC9"/>
<stop offset="0.8101" stop-color="#FF4D6A"/>
<stop offset="1" stop-color="#FFA6B5"/>
</linearGradient>
<linearGradient id="paint8_linear" x1="1127.79" y1="138.936" x2="1111.82" y2="118.956" gradientUnits="userSpaceOnUse">
<stop offset="0.0921788" stop-color="#6134BA"/>
<stop offset="0.2933" stop-color="#B23CC9"/>
<stop offset="0.8101" stop-color="#FF4D6A"/>
<stop offset="1" stop-color="#FFA6B5"/>
</linearGradient>
<linearGradient id="paint9_linear" x1="1158.68" y1="178.002" x2="1157.59" y2="204.914" gradientUnits="userSpaceOnUse">
<stop stop-color="#A629A6"/>
<stop offset="0.0921788" stop-color="#BA34A2"/>
<stop offset="0.2933" stop-color="#C9567E"/>
<stop offset="0.8101" stop-color="#FFCE00"/>
<stop offset="1" stop-color="#FFEA90"/>
</linearGradient>
<linearGradient id="paint10_linear" x1="1179.74" y1="198.401" x2="1175.57" y2="176.11" gradientUnits="userSpaceOnUse">
<stop stop-color="#A629A6"/>
<stop offset="0.0921788" stop-color="#BA34A2"/>
<stop offset="0.2933" stop-color="#C9567E"/>
<stop offset="0.8101" stop-color="#FFCE00"/>
<stop offset="1" stop-color="#FFEA90"/>
</linearGradient>
<linearGradient id="paint11_linear" x1="1040.48" y1="229.731" x2="1029.06" y2="188.954" gradientUnits="userSpaceOnUse">
<stop stop-color="#3E29A6"/>
<stop offset="0.0921788" stop-color="#344ABA"/>
<stop offset="0.2933" stop-color="#56A3C9"/>
<stop offset="0.8101" stop-color="#00FFAA"/>
<stop offset="1" stop-color="#CCFFD5"/>
</linearGradient>
<linearGradient id="paint12_linear" x1="1231.57" y1="30.1735" x2="1241.77" y2="9.37779" gradientUnits="userSpaceOnUse">
<stop offset="0.0921788" stop-color="#6134BA"/>
<stop offset="0.2933" stop-color="#B23CC9"/>
<stop offset="0.8101" stop-color="#FF4D6A"/>
<stop offset="1" stop-color="#FFA6B5"/>
</linearGradient>
<linearGradient id="paint13_linear" x1="1274.73" y1="201.354" x2="1272.56" y2="173.445" gradientUnits="userSpaceOnUse">
<stop offset="0.0921788" stop-color="#6134BA"/>
<stop offset="0.2933" stop-color="#B23CC9"/>
<stop offset="0.8101" stop-color="#FF4D6A"/>
<stop offset="1" stop-color="#FFA6B5"/>
</linearGradient>
<linearGradient id="paint14_linear" x1="1228.24" y1="282.912" x2="1237.67" y2="255.909" gradientUnits="userSpaceOnUse">
<stop offset="0.0921788" stop-color="#6134BA"/>
<stop offset="0.2933" stop-color="#B23CC9"/>
<stop offset="0.8101" stop-color="#FF4D6A"/>
<stop offset="1" stop-color="#FFA6B5"/>
</linearGradient>
<linearGradient id="paint15_linear" x1="1230.91" y1="89.4884" x2="1230.73" y2="61.2171" gradientUnits="userSpaceOnUse">
<stop stop-color="#3E29A6"/>
<stop offset="0.0921788" stop-color="#344ABA"/>
<stop offset="0.2933" stop-color="#56A3C9"/>
<stop offset="0.8101" stop-color="#00FFAA"/>
<stop offset="1" stop-color="#CCFFD5"/>
</linearGradient>
<linearGradient id="paint16_linear" x1="1293.36" y1="338.8" x2="1311.98" y2="310.936" gradientUnits="userSpaceOnUse">
<stop stop-color="#3E29A6"/>
<stop offset="0.0921788" stop-color="#344ABA"/>
<stop offset="0.2933" stop-color="#56A3C9"/>
<stop offset="0.8101" stop-color="#00FFAA"/>
<stop offset="1" stop-color="#CCFFD5"/>
</linearGradient>
<linearGradient id="paint17_linear" x1="1305.51" y1="319.972" x2="1297.49" y2="304.205" gradientUnits="userSpaceOnUse">
<stop stop-color="#3E29A6"/>
<stop offset="0.0921788" stop-color="#344ABA"/>
<stop offset="0.2933" stop-color="#56A3C9"/>
<stop offset="0.8101" stop-color="#00FFAA"/>
<stop offset="1" stop-color="#CCFFD5"/>
</linearGradient>
<linearGradient id="paint18_linear" x1="1291.62" y1="311.992" x2="1312.14" y2="297.652" gradientUnits="userSpaceOnUse">
<stop stop-color="#3E29A6"/>
<stop offset="0.0921788" stop-color="#344ABA"/>
<stop offset="0.2933" stop-color="#56A3C9"/>
<stop offset="0.8101" stop-color="#00FFAA"/>
<stop offset="1" stop-color="#CCFFD5"/>
</linearGradient>
<linearGradient id="paint19_linear" x1="1307.1" y1="411.219" x2="1303.36" y2="399.19" gradientUnits="userSpaceOnUse">
<stop stop-color="#3E29A6"/>
<stop offset="0.0921788" stop-color="#344ABA"/>
<stop offset="0.2933" stop-color="#56A3C9"/>
<stop offset="0.8101" stop-color="#00FFAA"/>
<stop offset="1" stop-color="#CCFFD5"/>
</linearGradient>
<linearGradient id="paint20_linear" x1="1357.87" y1="479.713" x2="1339.65" y2="455.927" gradientUnits="userSpaceOnUse">
<stop stop-color="#3E29A6"/>
<stop offset="0.0921788" stop-color="#344ABA"/>
<stop offset="0.2933" stop-color="#56A3C9"/>
<stop offset="0.8101" stop-color="#00FFAA"/>
<stop offset="1" stop-color="#CCFFD5"/>
</linearGradient>
<linearGradient id="paint21_linear" x1="880.018" y1="90.8202" x2="768.309" y2="183.149" gradientUnits="userSpaceOnUse">
<stop stop-color="#FF4D6A"/>
<stop offset="1" stop-color="#FFCE00"/>
</linearGradient>
</defs>
</svg>
