<svg width="694" height="436" viewBox="0 0 694 436" fill="none" xmlns="http://www.w3.org/2000/svg">
<path d="M317.336 183.368C309.195 187.97 293.443 152.396 285.302 156.997L298.222 149.741C306.363 145.139 316.806 183.722 324.947 179.12L317.336 183.368Z" fill="url(#paint0_linear)"/>
<path d="M107.962 180.89C112.386 183.899 119.289 173.634 123.005 177.173L117.165 171.51C113.448 167.97 105.307 179.297 100.882 176.465L107.962 180.89Z" fill="url(#paint1_linear)"/>
<path d="M649.716 153.635C653.255 156.643 641.751 173.811 645.822 176.112L636.619 171.156C632.548 168.855 647.415 151.511 643.344 149.387L649.716 153.635Z" fill="url(#paint2_linear)"/>
<path d="M446.182 40.1582C446.89 50.0694 406.891 33.6097 405.652 52.9012L404.414 36.9724C403.706 27.0612 445.12 27.7691 444.412 17.8579L446.182 40.1582Z" fill="url(#paint3_linear)"/>
<path d="M225.481 21.7516C222.118 24.2294 227.782 32.0168 224.242 33.7867L229.906 30.9549C233.445 29.185 227.251 20.3357 230.436 17.8579L225.481 21.7516Z" fill="url(#paint4_linear)"/>
<path d="M230.26 18.0351C233.623 15.5573 227.959 7.76986 231.499 6L225.835 8.83178C222.295 10.6016 228.49 19.4509 225.304 21.9288L230.26 18.0351Z" fill="url(#paint5_linear)"/>
<path d="M523.441 27.0789C530.697 19.6455 504.326 8.14136 510.875 0L502.557 10.4422C496.008 18.5835 512.645 35.3972 506.273 43.3616L523.441 27.0789Z" fill="url(#paint6_linear)"/>
<path d="M28.3176 248.294C28.4946 253.603 6.01739 261.568 7.61026 266.877L4.6015 255.727C2.30068 244.577 28.4946 250.241 28.1407 238.56L28.3176 248.294Z" fill="url(#paint7_linear)"/>
<path d="M254.152 238.737C249.55 245.639 222.649 239.445 218.578 257.321L220.348 236.613C221.233 230.065 246.542 235.197 258.4 223.87L254.152 238.737Z" fill="url(#paint8_linear)"/>
<path d="M98.9354 233.427C106.369 237.852 83.5376 247.232 96.4576 262.807L87.0773 253.781C79.9979 246.524 94.3337 230.772 85.4844 225.463L98.9354 233.427Z" fill="url(#paint9_linear)"/>
<path d="M491.491 83.1663C496.269 75.3789 508.304 99.0951 515.207 93.2545L506.357 100.688C499.455 106.528 484.411 92.9006 477.863 98.3871L491.491 83.1663Z" fill="url(#paint10_linear)"/>
<path d="M521.4 88.1221C528.657 82.4585 535.736 106.352 543.347 101.573L533.612 107.591C526.002 112.369 513.082 96.6174 505.826 101.219L521.4 88.1221Z" fill="url(#paint11_linear)"/>
<path d="M51.6797 382.803C61.7679 384.219 49.9099 356.786 59.8211 355.016L47.0781 357.317C37.1669 359.087 38.4058 381.918 28.8485 383.688L51.6797 382.803Z" fill="url(#paint12_linear)"/>
<path d="M70.7943 353.07C81.0595 351.654 74.511 378.91 84.5992 378.556L71.6792 378.91C61.591 379.264 58.0513 356.609 48.317 356.963L70.7943 353.07Z" fill="url(#paint13_linear)"/>
<path d="M11.5041 100.864C18.4066 104.758 20.8844 132.191 28.3178 134.315L16.6367 130.952C9.38026 128.828 6.90246 98.3866 0 94.8469L11.5041 100.864Z" fill="url(#paint14_linear)"/>
<path d="M106.723 435.545C101.059 438.2 94.6878 428.289 88.8473 430.058L92.741 425.634C98.5815 423.864 112.74 432.005 118.581 430.235L106.723 435.545Z" fill="url(#paint15_linear)"/>
<path d="M116.634 415.723C110.793 417.492 113.802 433.244 107.961 435.014L118.58 430.412C124.067 427.758 120.527 416.077 126.368 414.307L116.634 415.723Z" fill="url(#paint16_linear)"/>
<path d="M131.855 428.996C126.191 430.943 123.005 414.838 116.811 415.723L126.722 414.307C133.093 413.245 135.394 427.758 141.058 425.811L131.855 428.996Z" fill="url(#paint17_linear)"/>
<path d="M669.716 59.8036C661.752 61.2194 649.717 86.5285 641.929 85.9975L654.318 86.8824C662.106 87.4134 675.203 59.0956 682.99 58.0337L669.716 59.8036Z" fill="url(#paint18_linear)"/>
<g filter="url(#filter0_b)">
<rect x="578" y="150.693" width="99.7759" height="67.1976" transform="rotate(-17.916 578 150.693)" fill="white" fill-opacity="0.1"/>
</g>
<g filter="url(#filter1_b)">
<rect x="451" y="75.6934" width="99.7759" height="67.1976" transform="rotate(-17.916 451 75.6934)" fill="white" fill-opacity="0.1"/>
</g>
<defs>
<filter id="filter0_b" x="563" y="105" width="145.609" height="124.632" filterUnits="userSpaceOnUse" color-interpolation-filters="sRGB">
<feFlood flood-opacity="0" result="BackgroundImageFix"/>
<feGaussianBlur in="BackgroundImage" stdDeviation="7.5"/>
<feComposite in2="SourceAlpha" operator="in" result="effect1_backgroundBlur"/>
<feBlend mode="normal" in="SourceGraphic" in2="effect1_backgroundBlur" result="shape"/>
</filter>
<filter id="filter1_b" x="436" y="30" width="145.609" height="124.632" filterUnits="userSpaceOnUse" color-interpolation-filters="sRGB">
<feFlood flood-opacity="0" result="BackgroundImageFix"/>
<feGaussianBlur in="BackgroundImage" stdDeviation="7.5"/>
<feComposite in2="SourceAlpha" operator="in" result="effect1_backgroundBlur"/>
<feBlend mode="normal" in="SourceGraphic" in2="effect1_backgroundBlur" result="shape"/>
</filter>
<linearGradient id="paint0_linear" x1="319.71" y1="188.848" x2="295.66" y2="154.18" gradientUnits="userSpaceOnUse">
<stop stop-color="#3E29A6"/>
<stop offset="0.0921788" stop-color="#344ABA"/>
<stop offset="0.2933" stop-color="#56A3C9"/>
<stop offset="0.8101" stop-color="#00FFAA"/>
<stop offset="1" stop-color="#CCFFD5"/>
</linearGradient>
<linearGradient id="paint1_linear" x1="109.894" y1="181.029" x2="114.735" y2="171.268" gradientUnits="userSpaceOnUse">
<stop stop-color="#A629A6"/>
<stop offset="0.0921788" stop-color="#BA34A2"/>
<stop offset="0.2933" stop-color="#C9567E"/>
<stop offset="0.8101" stop-color="#FFCE00"/>
<stop offset="1" stop-color="#FFEA90"/>
</linearGradient>
<linearGradient id="paint2_linear" x1="637.495" y1="176.832" x2="649.208" y2="152.939" gradientUnits="userSpaceOnUse">
<stop offset="0.0921788" stop-color="#6134BA"/>
<stop offset="0.2933" stop-color="#B23CC9"/>
<stop offset="0.8101" stop-color="#FF4D6A"/>
<stop offset="1" stop-color="#FFA6B5"/>
</linearGradient>
<linearGradient id="paint3_linear" x1="408.497" y1="53.1689" x2="444.103" y2="21.936" gradientUnits="userSpaceOnUse">
<stop offset="0.0921788" stop-color="#6134BA"/>
<stop offset="0.2933" stop-color="#B23CC9"/>
<stop offset="0.8101" stop-color="#FF4D6A"/>
<stop offset="1" stop-color="#FFA6B5"/>
</linearGradient>
<linearGradient id="paint4_linear" x1="229.773" y1="31.1464" x2="225.478" y2="21.3081" gradientUnits="userSpaceOnUse">
<stop stop-color="#A629A6"/>
<stop offset="0.0921788" stop-color="#BA34A2"/>
<stop offset="0.2933" stop-color="#C9567E"/>
<stop offset="0.8101" stop-color="#FFCE00"/>
<stop offset="1" stop-color="#FFEA90"/>
</linearGradient>
<linearGradient id="paint5_linear" x1="231.166" y1="16.5124" x2="221.875" y2="8.23586" gradientUnits="userSpaceOnUse">
<stop stop-color="#A629A6"/>
<stop offset="0.0921788" stop-color="#BA34A2"/>
<stop offset="0.2933" stop-color="#C9567E"/>
<stop offset="0.8101" stop-color="#FFCE00"/>
<stop offset="1" stop-color="#FFEA90"/>
</linearGradient>
<linearGradient id="paint6_linear" x1="513.791" y1="43.2736" x2="512.229" y2="3.60804" gradientUnits="userSpaceOnUse">
<stop stop-color="#3E29A6"/>
<stop offset="0.0921788" stop-color="#344ABA"/>
<stop offset="0.2933" stop-color="#56A3C9"/>
<stop offset="0.8101" stop-color="#00FFAA"/>
<stop offset="1" stop-color="#CCFFD5"/>
</linearGradient>
<linearGradient id="paint7_linear" x1="2.8081" y1="262.785" x2="26.5449" y2="242.171" gradientUnits="userSpaceOnUse">
<stop stop-color="#3E29A6"/>
<stop offset="0.0921788" stop-color="#344ABA"/>
<stop offset="0.2933" stop-color="#56A3C9"/>
<stop offset="0.8101" stop-color="#00FFAA"/>
<stop offset="1" stop-color="#CCFFD5"/>
</linearGradient>
<linearGradient id="paint8_linear" x1="216.009" y1="260.416" x2="256.768" y2="216.378" gradientUnits="userSpaceOnUse">
<stop stop-color="#3E29A6"/>
<stop offset="0.0921788" stop-color="#344ABA"/>
<stop offset="0.2933" stop-color="#56A3C9"/>
<stop offset="0.8101" stop-color="#00FFAA"/>
<stop offset="1" stop-color="#CCFFD5"/>
</linearGradient>
<linearGradient id="paint9_linear" x1="88.1975" y1="254.535" x2="95.2249" y2="228.768" gradientUnits="userSpaceOnUse">
<stop offset="0.0921788" stop-color="#6134BA"/>
<stop offset="0.2933" stop-color="#B23CC9"/>
<stop offset="0.8101" stop-color="#FF4D6A"/>
<stop offset="1" stop-color="#FFA6B5"/>
</linearGradient>
<linearGradient id="paint10_linear" x1="504.084" y1="103.374" x2="488.936" y2="88.0701" gradientUnits="userSpaceOnUse">
<stop offset="0.0921788" stop-color="#6134BA"/>
<stop offset="0.2933" stop-color="#B23CC9"/>
<stop offset="0.8101" stop-color="#FF4D6A"/>
<stop offset="1" stop-color="#FFA6B5"/>
</linearGradient>
<linearGradient id="paint11_linear" x1="536.002" y1="115.669" x2="517.653" y2="92.7126" gradientUnits="userSpaceOnUse">
<stop offset="0.0921788" stop-color="#6134BA"/>
<stop offset="0.2933" stop-color="#B23CC9"/>
<stop offset="0.8101" stop-color="#FF4D6A"/>
<stop offset="1" stop-color="#FFA6B5"/>
</linearGradient>
<linearGradient id="paint12_linear" x1="44.7203" y1="357.619" x2="43.4709" y2="388.539" gradientUnits="userSpaceOnUse">
<stop stop-color="#A629A6"/>
<stop offset="0.0921788" stop-color="#BA34A2"/>
<stop offset="0.2933" stop-color="#C9567E"/>
<stop offset="0.8101" stop-color="#FFCE00"/>
<stop offset="1" stop-color="#FFEA90"/>
</linearGradient>
<linearGradient id="paint13_linear" x1="68.9203" y1="381.056" x2="64.1313" y2="355.445" gradientUnits="userSpaceOnUse">
<stop stop-color="#A629A6"/>
<stop offset="0.0921788" stop-color="#BA34A2"/>
<stop offset="0.2933" stop-color="#C9567E"/>
<stop offset="0.8101" stop-color="#FFCE00"/>
<stop offset="1" stop-color="#FFEA90"/>
</linearGradient>
<linearGradient id="paint14_linear" x1="20.9258" y1="138.6" x2="7.80792" y2="91.7502" gradientUnits="userSpaceOnUse">
<stop stop-color="#3E29A6"/>
<stop offset="0.0921788" stop-color="#344ABA"/>
<stop offset="0.2933" stop-color="#56A3C9"/>
<stop offset="0.8101" stop-color="#00FFAA"/>
<stop offset="1" stop-color="#CCFFD5"/>
</linearGradient>
<linearGradient id="paint15_linear" x1="88.7507" y1="430.783" x2="118.613" y2="430.783" gradientUnits="userSpaceOnUse">
<stop stop-color="#3E29A6"/>
<stop offset="0.0921788" stop-color="#344ABA"/>
<stop offset="0.2933" stop-color="#56A3C9"/>
<stop offset="0.8101" stop-color="#00FFAA"/>
<stop offset="1" stop-color="#CCFFD5"/>
</linearGradient>
<linearGradient id="paint16_linear" x1="108.043" y1="424.667" x2="126.45" y2="424.667" gradientUnits="userSpaceOnUse">
<stop stop-color="#3E29A6"/>
<stop offset="0.0921788" stop-color="#344ABA"/>
<stop offset="0.2933" stop-color="#56A3C9"/>
<stop offset="0.8101" stop-color="#00FFAA"/>
<stop offset="1" stop-color="#CCFFD5"/>
</linearGradient>
<linearGradient id="paint17_linear" x1="116.886" y1="421.733" x2="141.114" y2="421.733" gradientUnits="userSpaceOnUse">
<stop stop-color="#3E29A6"/>
<stop offset="0.0921788" stop-color="#344ABA"/>
<stop offset="0.2933" stop-color="#56A3C9"/>
<stop offset="0.8101" stop-color="#00FFAA"/>
<stop offset="1" stop-color="#CCFFD5"/>
</linearGradient>
<linearGradient id="paint18_linear" x1="662.534" y1="92.0026" x2="662.326" y2="59.5207" gradientUnits="userSpaceOnUse">
<stop stop-color="#3E29A6"/>
<stop offset="0.0921788" stop-color="#344ABA"/>
<stop offset="0.2933" stop-color="#56A3C9"/>
<stop offset="0.8101" stop-color="#00FFAA"/>
<stop offset="1" stop-color="#CCFFD5"/>
</linearGradient>
</defs>
</svg>
