<svg width="1731" height="1167" viewBox="0 0 1731 1167" fill="none" xmlns="http://www.w3.org/2000/svg">
<g filter="url(#filter0_d)">
<path d="M447.464 585.81L498.693 532.881L553.566 483.741L619.735 516.107L683.427 553.108L673.093 626.04L657.584 698.049L585.028 710.758L511.751 718.26L477.243 653.182L447.464 585.81Z" fill="url(#paint0_linear)"/>
</g>
<g filter="url(#filter1_b)">
<path d="M393.077 596.747L466.231 521.166L544.589 450.993L639.077 497.211L730.029 550.05L715.271 654.195L693.125 757.024L589.516 775.171L484.877 785.884L435.601 692.954L393.077 596.747Z" fill="white" fill-opacity="0.1"/>
</g>
<path d="M108.143 573.451C112.389 571.738 103.121 560.38 115.038 558.228L105.704 558.531C101.371 558.576 103.452 575.157 99.2089 576.647L108.143 573.451Z" fill="url(#paint1_linear)"/>
<path d="M45.5431 673.127C46.0846 681.354 27.0713 682.731 28.9554 690.313L25.8096 678.048C23.8162 670.354 45.1732 668.235 44.8504 660.233L45.5431 673.127Z" fill="url(#paint2_linear)"/>
<path d="M45.0657 660.681C44.5242 652.453 63.5375 651.076 61.6534 643.495L64.7992 655.76C66.7926 663.454 45.4357 665.573 45.7585 673.575L45.0657 660.681Z" fill="url(#paint3_linear)"/>
<path d="M221.534 691.016C220.873 698.003 236.955 699.469 235.193 705.773L238.017 695.375C239.782 688.849 221.82 686.8 222.256 680.031L221.534 691.016Z" fill="url(#paint4_linear)"/>
<path d="M234.838 707.211C232.848 713.956 248.217 718.521 245.239 724.473L250.048 714.995C253.026 709.042 235.897 703.34 237.775 696.704L234.838 707.211Z" fill="url(#paint5_linear)"/>
<path d="M124.811 719.201C133.183 723.771 137.022 697.728 145.738 701.526L134.483 696.69C125.766 692.893 114.82 711.608 106.212 707.923L124.811 719.201Z" fill="url(#paint6_linear)"/>
<path d="M343.896 620.013C347.24 611.956 368.847 629.944 373.413 607.133L372.809 625.006C372.571 633.332 340.762 628.962 337.863 637.026L343.896 620.013Z" fill="url(#paint7_linear)"/>
<path d="M334.273 741.818C339.901 729.575 369.347 736.02 370.189 724.482L374.679 743.32C373.837 754.858 350.584 742.843 349.965 754.385L334.273 741.818Z" fill="url(#paint8_linear)"/>
<path d="M181.365 556.903C179.186 561.424 166.824 556.349 165.752 561.109L163.97 568.746C165.155 563.877 175.966 568.706 178.035 564.072L181.365 556.903Z" fill="url(#paint9_linear)"/>
<path d="M174.631 576.127C176.698 571.715 163.983 567.857 165.281 562.879L163.386 570.625C162.089 575.603 173.48 578.775 171.414 583.186L174.631 576.127Z" fill="url(#paint10_linear)"/>
<path d="M324.341 474.22C324.819 486.666 356.563 473.376 358.264 485.73L356.06 469.925C354.36 457.571 326.145 457.809 324.547 446.012L324.341 474.22Z" fill="url(#paint11_linear)"/>
<path fill-rule="evenodd" clip-rule="evenodd" d="M262.821 928.061L246.177 943.438L247.534 944.907L264.179 929.53L262.821 928.061ZM286.906 878.994L192.864 965.879L194.221 967.348L288.263 880.463L286.906 878.994ZM159.529 967.365L290.605 846.265L291.962 847.734L160.886 968.834L159.529 967.365ZM287.105 823.275L135.638 963.213L136.995 964.682L288.462 824.744L287.105 823.275ZM116.039 952.014L279.573 800.928L280.93 802.397L117.397 953.484L116.039 952.014ZM98.0382 940.878L270.31 781.718L271.667 783.187L99.3954 942.347L98.0382 940.878ZM84.1329 927.499L256.821 767.955L258.178 769.424L85.4901 928.968L84.1329 927.499ZM242.379 755.663L74.2685 910.978L75.6257 912.447L243.736 757.132L242.379 755.663ZM65.3591 892.987L224.315 746.129L225.672 747.598L66.7163 894.456L65.3591 892.987ZM205.417 737.363L58.9443 872.687L60.3015 874.156L206.774 738.832L205.417 737.363ZM55.8628 849.312L180.697 733.979L182.055 735.448L57.22 850.781L55.8628 849.312ZM150.149 735.979L61.1003 818.25L62.4575 819.719L151.506 737.448L150.149 735.979ZM84.6464 770.27L101.291 754.892L102.648 756.361L86.0036 771.739L84.6464 770.27Z" fill="url(#paint12_linear)"/>
<g filter="url(#filter2_d)">
<path d="M1429.91 143.775L1623.23 165.113L1508.09 321.869L1429.91 143.775Z" fill="url(#paint13_linear)"/>
</g>
<g filter="url(#filter3_b)">
<path d="M1399.11 169.31L1658.24 197.911L1503.9 408.027L1399.11 169.31Z" fill="#F2F3FF" fill-opacity="0.2"/>
</g>
<g filter="url(#filter4_d)">
<path d="M1481.13 731.672L1548.62 730.556L1616.03 734.255L1637.95 798.102L1655.26 863.35L1601.31 903.926L1544.6 940.552L1489.34 901.782L1436.99 859.17L1456.78 794.633L1481.13 731.672Z" fill="url(#paint14_linear)"/>
</g>
<path d="M1493.32 776.661C1494.63 781.047 1506.79 772.858 1507.84 784.922L1508.4 775.599C1508.75 771.281 1492.05 771.834 1490.95 767.472L1493.32 776.661Z" fill="url(#paint15_linear)"/>
<path d="M1399.8 705.191C1391.55 704.976 1391.93 685.917 1384.2 687.098L1396.7 685.09C1404.55 683.809 1404.7 705.271 1412.7 705.683L1399.8 705.191Z" fill="url(#paint16_linear)"/>
<path d="M1412.23 705.856C1420.48 706.071 1420.11 725.13 1427.83 723.949L1415.33 725.957C1407.48 727.237 1407.33 705.776 1399.33 705.364L1412.23 705.856Z" fill="url(#paint17_linear)"/>
<path d="M1365.86 878.802C1358.96 877.503 1356.03 893.384 1349.91 891.052L1360 894.816C1366.34 897.172 1370.03 879.473 1376.73 880.528L1365.86 878.802Z" fill="url(#paint18_linear)"/>
<path d="M1348.51 890.566C1341.98 887.966 1336.02 902.852 1330.37 899.341L1339.37 904.998C1345.02 908.509 1352.27 891.975 1358.7 894.453L1348.51 890.566Z" fill="url(#paint19_linear)"/>
<path d="M1346.65 779.904C1341.33 787.821 1366.92 794.03 1362.34 802.362L1368.18 791.597C1372.76 783.265 1355.13 770.65 1359.59 762.416L1346.65 779.904Z" fill="url(#paint20_linear)"/>
<path d="M1425.35 1007.16C1433.06 1011.22 1413.17 1031.09 1435.47 1037.73L1417.73 1035.49C1409.46 1034.49 1416.72 1003.21 1408.96 999.589L1425.35 1007.16Z" fill="url(#paint21_linear)"/>
<path d="M1304.94 986.412C1316.61 993.138 1307.5 1021.87 1318.91 1023.76L1299.74 1026.51C1288.33 1024.61 1302.42 1002.56 1290.98 1000.89L1304.94 986.412Z" fill="url(#paint22_linear)"/>
<path d="M1503.09 851.092C1498.78 848.508 1504.97 836.662 1500.33 835.159L1492.89 832.685C1497.63 834.31 1491.83 844.633 1496.25 847.119L1503.09 851.092Z" fill="url(#paint23_linear)"/>
<path d="M1484.56 842.625C1488.76 845.086 1493.77 832.779 1498.61 834.527L1491.07 831.931C1486.23 830.183 1482.03 841.236 1477.82 838.774L1484.56 842.625Z" fill="url(#paint24_linear)"/>
<path d="M1572.32 1001.04C1559.88 1000.38 1570.21 1033.21 1557.75 1033.77L1573.69 1033.02C1586.15 1032.46 1588.5 1004.34 1600.39 1003.83L1572.32 1001.04Z" fill="url(#paint25_linear)"/>
<g filter="url(#filter5_b)">
<path d="M1399.11 169.31L1658.24 197.911L1503.9 408.027L1399.11 169.31Z" fill="#F2F3FF" fill-opacity="0.2"/>
</g>
<defs>
<filter id="filter0_d" x="361.556" y="403.55" width="367.444" height="374.75" filterUnits="userSpaceOnUse" color-interpolation-filters="sRGB">
<feFlood flood-opacity="0" result="BackgroundImageFix"/>
<feColorMatrix in="SourceAlpha" type="matrix" values="0 0 0 0 0 0 0 0 0 0 0 0 0 0 0 0 0 0 127 0"/>
<feOffset dx="-15" dy="-15"/>
<feGaussianBlur stdDeviation="25"/>
<feColorMatrix type="matrix" values="0 0 0 0 1 0 0 0 0 0.301961 0 0 0 0 0.415686 0 0 0 0.3 0"/>
<feBlend mode="normal" in2="BackgroundImageFix" result="effect1_dropShadow"/>
<feBlend mode="normal" in="SourceGraphic" in2="effect1_dropShadow" result="shape"/>
</filter>
<filter id="filter1_b" x="348.22" y="414.301" width="411.907" height="422.339" filterUnits="userSpaceOnUse" color-interpolation-filters="sRGB">
<feFlood flood-opacity="0" result="BackgroundImageFix"/>
<feGaussianBlur in="BackgroundImage" stdDeviation="7.5"/>
<feComposite in2="SourceAlpha" operator="in" result="effect1_backgroundBlur"/>
<feBlend mode="normal" in="SourceGraphic" in2="effect1_backgroundBlur" result="shape"/>
</filter>
<filter id="filter2_d" x="1307.33" y="0.396973" width="350.896" height="356.472" filterUnits="userSpaceOnUse" color-interpolation-filters="sRGB">
<feFlood flood-opacity="0" result="BackgroundImageFix"/>
<feColorMatrix in="SourceAlpha" type="matrix" values="0 0 0 0 0 0 0 0 0 0 0 0 0 0 0 0 0 0 127 0"/>
<feOffset dx="-15" dy="-15"/>
<feGaussianBlur stdDeviation="25"/>
<feColorMatrix type="matrix" values="0 0 0 0 1 0 0 0 0 0.807843 0 0 0 0 0 0 0 0 0.34 0"/>
<feBlend mode="normal" in2="BackgroundImageFix" result="effect1_dropShadow"/>
<feBlend mode="normal" in="SourceGraphic" in2="effect1_dropShadow" result="shape"/>
</filter>
<filter id="filter3_b" x="1306.94" y="49.2525" width="366.302" height="373.775" filterUnits="userSpaceOnUse" color-interpolation-filters="sRGB">
<feFlood flood-opacity="0" result="BackgroundImageFix"/>
<feGaussianBlur in="BackgroundImage" stdDeviation="7.5"/>
<feComposite in2="SourceAlpha" operator="in" result="effect1_backgroundBlur"/>
<feBlend mode="normal" in="SourceGraphic" in2="effect1_backgroundBlur" result="shape"/>
</filter>
<filter id="filter4_d" x="1326.61" y="604.214" width="399.221" height="397.169" filterUnits="userSpaceOnUse" color-interpolation-filters="sRGB">
<feFlood flood-opacity="0" result="BackgroundImageFix"/>
<feColorMatrix in="SourceAlpha" type="matrix" values="0 0 0 0 0 0 0 0 0 0 0 0 0 0 0 0 0 0 127 0"/>
<feOffset dx="-15" dy="-15"/>
<feGaussianBlur stdDeviation="25"/>
<feColorMatrix type="matrix" values="0 0 0 0 0.262745 0 0 0 0 0.313725 0 0 0 0 0.964706 0 0 0 0.16 0"/>
<feBlend mode="normal" in2="BackgroundImageFix" result="effect1_dropShadow"/>
<feBlend mode="normal" in="SourceGraphic" in2="effect1_dropShadow" result="shape"/>
</filter>
<filter id="filter5_b" x="1306.94" y="49.2525" width="366.302" height="373.775" filterUnits="userSpaceOnUse" color-interpolation-filters="sRGB">
<feFlood flood-opacity="0" result="BackgroundImageFix"/>
<feGaussianBlur in="BackgroundImage" stdDeviation="7.5"/>
<feComposite in2="SourceAlpha" operator="in" result="effect1_backgroundBlur"/>
<feBlend mode="normal" in="SourceGraphic" in2="effect1_backgroundBlur" result="shape"/>
</filter>
<linearGradient id="paint0_linear" x1="447.464" y1="585.81" x2="694.053" y2="629.777" gradientUnits="userSpaceOnUse">
<stop stop-color="#F77652"/>
<stop offset="1" stop-color="#F5398E"/>
</linearGradient>
<linearGradient id="paint1_linear" x1="110.839" y1="571.118" x2="101.761" y2="561.76" gradientUnits="userSpaceOnUse">
<stop stop-color="#A629A6"/>
<stop offset="0.0921788" stop-color="#BA34A2"/>
<stop offset="0.2933" stop-color="#C9567E"/>
<stop offset="0.8101" stop-color="#FFCE00"/>
<stop offset="1" stop-color="#FFEA90"/>
</linearGradient>
<linearGradient id="paint2_linear" x1="54.2759" y1="666.765" x2="26.0373" y2="680.645" gradientUnits="userSpaceOnUse">
<stop stop-color="#3E29A6"/>
<stop offset="0.0921788" stop-color="#344ABA"/>
<stop offset="0.2933" stop-color="#56A3C9"/>
<stop offset="0.8101" stop-color="#00FFAA"/>
<stop offset="1" stop-color="#CCFFD5"/>
</linearGradient>
<linearGradient id="paint3_linear" x1="47.0599" y1="669.247" x2="68.5788" y2="639.683" gradientUnits="userSpaceOnUse">
<stop stop-color="#3E29A6"/>
<stop offset="0.0921788" stop-color="#344ABA"/>
<stop offset="0.2933" stop-color="#56A3C9"/>
<stop offset="0.8101" stop-color="#00FFAA"/>
<stop offset="1" stop-color="#CCFFD5"/>
</linearGradient>
<linearGradient id="paint4_linear" x1="238.569" y1="688.045" x2="223.705" y2="695.611" gradientUnits="userSpaceOnUse">
<stop stop-color="#A629A6"/>
<stop offset="0.0921788" stop-color="#BA34A2"/>
<stop offset="0.2933" stop-color="#C9567E"/>
<stop offset="0.8101" stop-color="#FFCE00"/>
<stop offset="1" stop-color="#FFEA90"/>
</linearGradient>
<linearGradient id="paint5_linear" x1="237.654" y1="698.795" x2="246.195" y2="720.435" gradientUnits="userSpaceOnUse">
<stop stop-color="#A629A6"/>
<stop offset="0.0921788" stop-color="#BA34A2"/>
<stop offset="0.2933" stop-color="#C9567E"/>
<stop offset="0.8101" stop-color="#FFCE00"/>
<stop offset="1" stop-color="#FFEA90"/>
</linearGradient>
<linearGradient id="paint6_linear" x1="139.725" y1="694.806" x2="115.503" y2="715.214" gradientUnits="userSpaceOnUse">
<stop stop-color="#A629A6"/>
<stop offset="0.0921788" stop-color="#BA34A2"/>
<stop offset="0.2933" stop-color="#C9567E"/>
<stop offset="0.8101" stop-color="#FFCE00"/>
<stop offset="1" stop-color="#FFEA90"/>
</linearGradient>
<linearGradient id="paint7_linear" x1="376.736" y1="609.49" x2="342.048" y2="635.031" gradientUnits="userSpaceOnUse">
<stop stop-color="#3E29A6"/>
<stop offset="0.0921788" stop-color="#344ABA"/>
<stop offset="0.2933" stop-color="#56A3C9"/>
<stop offset="0.8101" stop-color="#00FFAA"/>
<stop offset="1" stop-color="#CCFFD5"/>
</linearGradient>
<linearGradient id="paint8_linear" x1="369.328" y1="727.012" x2="347.406" y2="750.853" gradientUnits="userSpaceOnUse">
<stop offset="0.0921788" stop-color="#6134BA"/>
<stop offset="0.2933" stop-color="#B23CC9"/>
<stop offset="0.8101" stop-color="#FF4D6A"/>
<stop offset="1" stop-color="#FFA6B5"/>
</linearGradient>
<linearGradient id="paint9_linear" x1="164.532" y1="566.261" x2="188.035" y2="554.466" gradientUnits="userSpaceOnUse">
<stop stop-color="#3E29A6"/>
<stop offset="0.0921788" stop-color="#344ABA"/>
<stop offset="0.2933" stop-color="#56A3C9"/>
<stop offset="0.8101" stop-color="#00FFAA"/>
<stop offset="1" stop-color="#CCFFD5"/>
</linearGradient>
<linearGradient id="paint10_linear" x1="179.806" y1="575.857" x2="163.548" y2="571.936" gradientUnits="userSpaceOnUse">
<stop stop-color="#3E29A6"/>
<stop offset="0.0921788" stop-color="#344ABA"/>
<stop offset="0.2933" stop-color="#56A3C9"/>
<stop offset="0.8101" stop-color="#00FFAA"/>
<stop offset="1" stop-color="#CCFFD5"/>
</linearGradient>
<linearGradient id="paint11_linear" x1="354.611" y1="464.415" x2="323.301" y2="467.566" gradientUnits="userSpaceOnUse">
<stop stop-color="#3E29A6"/>
<stop offset="0.0921788" stop-color="#344ABA"/>
<stop offset="0.2933" stop-color="#56A3C9"/>
<stop offset="0.8101" stop-color="#00FFAA"/>
<stop offset="1" stop-color="#CCFFD5"/>
</linearGradient>
<linearGradient id="paint12_linear" x1="254.609" y1="938.371" x2="92.553" y2="762.965" gradientUnits="userSpaceOnUse">
<stop stop-color="#00FFAA"/>
<stop offset="1" stop-color="#4350F6"/>
</linearGradient>
<linearGradient id="paint13_linear" x1="1429.91" y1="143.775" x2="1610.91" y2="276.729" gradientUnits="userSpaceOnUse">
<stop stop-color="#FFE67C"/>
<stop offset="1" stop-color="#FFCE00"/>
</linearGradient>
<linearGradient id="paint14_linear" x1="1481.13" y1="731.672" x2="1612.47" y2="919.928" gradientUnits="userSpaceOnUse">
<stop stop-color="#4350F6"/>
<stop offset="1" stop-color="#00FFAA"/>
</linearGradient>
<linearGradient id="paint15_linear" x1="1495.39" y1="779.56" x2="1505.54" y2="771.377" gradientUnits="userSpaceOnUse">
<stop stop-color="#A629A6"/>
<stop offset="0.0921788" stop-color="#BA34A2"/>
<stop offset="0.2933" stop-color="#C9567E"/>
<stop offset="0.8101" stop-color="#FFCE00"/>
<stop offset="1" stop-color="#FFEA90"/>
</linearGradient>
<linearGradient id="paint16_linear" x1="1405.33" y1="714.47" x2="1394.1" y2="685.078" gradientUnits="userSpaceOnUse">
<stop stop-color="#3E29A6"/>
<stop offset="0.0921788" stop-color="#344ABA"/>
<stop offset="0.2933" stop-color="#56A3C9"/>
<stop offset="0.8101" stop-color="#00FFAA"/>
<stop offset="1" stop-color="#CCFFD5"/>
</linearGradient>
<linearGradient id="paint17_linear" x1="1403.52" y1="707.057" x2="1430.99" y2="731.194" gradientUnits="userSpaceOnUse">
<stop stop-color="#3E29A6"/>
<stop offset="0.0921788" stop-color="#344ABA"/>
<stop offset="0.2933" stop-color="#56A3C9"/>
<stop offset="0.8101" stop-color="#00FFAA"/>
<stop offset="1" stop-color="#CCFFD5"/>
</linearGradient>
<linearGradient id="paint18_linear" x1="1367.25" y1="896.037" x2="1361.08" y2="880.543" gradientUnits="userSpaceOnUse">
<stop stop-color="#A629A6"/>
<stop offset="0.0921788" stop-color="#BA34A2"/>
<stop offset="0.2933" stop-color="#C9567E"/>
<stop offset="0.8101" stop-color="#FFCE00"/>
<stop offset="1" stop-color="#FFEA90"/>
</linearGradient>
<linearGradient id="paint19_linear" x1="1356.63" y1="894.142" x2="1334.3" y2="900.663" gradientUnits="userSpaceOnUse">
<stop stop-color="#A629A6"/>
<stop offset="0.0921788" stop-color="#BA34A2"/>
<stop offset="0.2933" stop-color="#C9567E"/>
<stop offset="0.8101" stop-color="#FFCE00"/>
<stop offset="1" stop-color="#FFEA90"/>
</linearGradient>
<linearGradient id="paint20_linear" x1="1369.58" y1="796.99" x2="1351.48" y2="771" gradientUnits="userSpaceOnUse">
<stop stop-color="#A629A6"/>
<stop offset="0.0921788" stop-color="#BA34A2"/>
<stop offset="0.2933" stop-color="#C9567E"/>
<stop offset="0.8101" stop-color="#FFCE00"/>
<stop offset="1" stop-color="#FFEA90"/>
</linearGradient>
<linearGradient id="paint21_linear" x1="1432.82" y1="1040.82" x2="1410.56" y2="1003.94" gradientUnits="userSpaceOnUse">
<stop stop-color="#3E29A6"/>
<stop offset="0.0921788" stop-color="#344ABA"/>
<stop offset="0.2933" stop-color="#56A3C9"/>
<stop offset="0.8101" stop-color="#00FFAA"/>
<stop offset="1" stop-color="#CCFFD5"/>
</linearGradient>
<linearGradient id="paint22_linear" x1="1316.47" y1="1022.68" x2="1294.74" y2="998.661" gradientUnits="userSpaceOnUse">
<stop offset="0.0921788" stop-color="#6134BA"/>
<stop offset="0.2933" stop-color="#B23CC9"/>
<stop offset="0.8101" stop-color="#FF4D6A"/>
<stop offset="1" stop-color="#FFA6B5"/>
</linearGradient>
<linearGradient id="paint23_linear" x1="1495.31" y1="833.472" x2="1504.9" y2="857.957" gradientUnits="userSpaceOnUse">
<stop stop-color="#3E29A6"/>
<stop offset="0.0921788" stop-color="#344ABA"/>
<stop offset="0.2933" stop-color="#56A3C9"/>
<stop offset="0.8101" stop-color="#00FFAA"/>
<stop offset="1" stop-color="#CCFFD5"/>
</linearGradient>
<linearGradient id="paint24_linear" x1="1484.35" y1="847.802" x2="1489.75" y2="831.972" gradientUnits="userSpaceOnUse">
<stop stop-color="#3E29A6"/>
<stop offset="0.0921788" stop-color="#344ABA"/>
<stop offset="0.2933" stop-color="#56A3C9"/>
<stop offset="0.8101" stop-color="#00FFAA"/>
<stop offset="1" stop-color="#CCFFD5"/>
</linearGradient>
<linearGradient id="paint25_linear" x1="1579.31" y1="1032.08" x2="1579.04" y2="1000.62" gradientUnits="userSpaceOnUse">
<stop stop-color="#3E29A6"/>
<stop offset="0.0921788" stop-color="#344ABA"/>
<stop offset="0.2933" stop-color="#56A3C9"/>
<stop offset="0.8101" stop-color="#00FFAA"/>
<stop offset="1" stop-color="#CCFFD5"/>
</linearGradient>
</defs>
</svg>
