<svg width="22" height="21" viewBox="0 0 22 21" fill="none" xmlns="http://www.w3.org/2000/svg">
<path d="M22 6.20144C22 6.11676 21.9893 6.02856 21.9678 5.93682C21.9463 5.84509 21.9212 5.76041 21.8926 5.68279C21.8639 5.60517 21.8245 5.53108 21.7744 5.46051C21.7243 5.38995 21.667 5.32291 21.6025 5.2594C21.5381 5.1959 21.4701 5.13944 21.3984 5.09005C21.3268 5.04065 21.248 4.99831 21.1621 4.96303C21.0762 4.92775 20.9902 4.89952 20.9043 4.87836C20.8184 4.85719 20.7253 4.8466 20.625 4.8466H18.2832C18.9421 4.21152 19.2715 3.44237 19.2715 2.53914C19.2715 2.11575 19.1927 1.72765 19.0352 1.37483C18.8776 1.022 18.5947 0.718577 18.1865 0.464544C17.7783 0.210512 17.2734 0.0834961 16.6719 0.0834961C16.4284 0.0834961 16.1813 0.108194 15.9307 0.157589C15.68 0.206984 15.4401 0.281077 15.2109 0.379867C14.9818 0.478657 14.7562 0.588032 14.5342 0.707992C14.3122 0.827952 14.0973 0.965553 13.8896 1.12079C13.682 1.27604 13.4814 1.43481 13.2881 1.59711C13.0947 1.7594 12.9085 1.93581 12.7295 2.12634C12.5505 2.31686 12.3822 2.50033 12.2246 2.67674C12.0671 2.85315 11.9131 3.03662 11.7627 3.22715C11.6123 3.41767 11.4798 3.59055 11.3652 3.74579C11.2507 3.90104 11.1432 4.06333 11.043 4.23269C10.7422 3.78108 10.4163 3.34711 10.0654 2.93077C9.71452 2.51444 9.28841 2.07694 8.78711 1.61827C8.28581 1.15961 7.73438 0.789141 7.13281 0.506883C6.53125 0.224625 5.93685 0.0834961 5.34961 0.0834961C4.74805 0.0834961 4.24316 0.210512 3.83496 0.464544C3.42676 0.718577 3.14388 1.022 2.98633 1.37483C2.82878 1.72765 2.75 2.11575 2.75 2.53914C2.75 3.44237 3.08659 4.21858 3.75977 4.86777H1.375C0.988281 4.86777 0.662435 4.99831 0.397461 5.2594C0.132487 5.52049 0 5.84156 0 6.22261V10.266H1.39648V19.0936C1.39648 19.4605 1.52897 19.7781 1.79395 20.0462C2.05892 20.3143 2.38477 20.4484 2.77148 20.4484H19.25C19.6367 20.4484 19.9626 20.3143 20.2275 20.0462C20.4925 19.7781 20.625 19.4605 20.625 19.0936V10.266H22V6.20144ZM16.6719 1.43833C17.4883 1.43833 17.8965 1.80527 17.8965 2.53914C17.8965 3.01898 17.7318 3.43884 17.4023 3.79872C17.0729 4.1586 16.6611 4.42321 16.167 4.59257C15.6729 4.76192 15.1465 4.8466 14.5879 4.8466H12.2676C12.5397 4.45144 12.8298 4.07392 13.1377 3.71404C13.4456 3.35416 13.793 2.99428 14.1797 2.6344C14.5664 2.27452 14.9782 1.98521 15.415 1.76646C15.8519 1.54771 16.2708 1.43833 16.6719 1.43833ZM5.34961 1.43833C6.12305 1.43833 6.90723 1.7841 7.70215 2.47563C8.49707 3.16717 9.20247 3.95749 9.81836 4.8466H7.49805C6.62435 4.8466 5.84375 4.63491 5.15625 4.21152C4.46875 3.78813 4.125 3.22362 4.125 2.51797C4.125 1.84055 4.49023 1.48773 5.2207 1.4595C5.26367 1.44539 5.30664 1.43833 5.34961 1.43833ZM20.625 8.91112H11.6875V6.20144H20.625V8.91112ZM1.375 6.20144H10.3125V8.91112H1.375V6.20144ZM2.77148 10.266H10.3125V19.0936H2.77148V10.266ZM19.25 19.0936H11.6875V10.266H19.25V19.0936Z" fill="#C4C4C4"/>
</svg>
