<svg width="1703" height="910" viewBox="0 0 1703 910" fill="none" xmlns="http://www.w3.org/2000/svg">
<path fill-rule="evenodd" clip-rule="evenodd" d="M1589.68 505.119L1600.37 518.059L1601.92 516.785L1591.22 503.845L1589.68 505.119ZM1554.17 485.466L1614.59 558.574L1616.14 557.299L1555.71 484.192L1554.17 485.466ZM1614.33 583.29L1530.11 481.392L1531.66 480.118L1615.87 582.016L1614.33 583.29ZM1512.97 483.043L1610.29 600.791L1611.83 599.517L1514.51 481.769L1512.97 483.043ZM1601.2 614.832L1496.13 487.703L1497.67 486.429L1602.74 613.558L1601.2 614.832ZM1592.23 627.692L1481.54 493.77L1483.08 492.496L1593.77 626.418L1592.23 627.692ZM1581.77 637.43L1470.81 503.184L1472.35 501.91L1583.31 636.156L1581.77 637.43ZM1461.33 513.198L1569.34 643.886L1570.89 642.612L1462.87 511.924L1461.33 513.198ZM1555.67 649.741L1453.54 526.17L1455.08 524.896L1557.21 648.467L1555.67 649.741ZM1446.28 539.79L1540.4 653.656L1541.94 652.382L1447.83 538.516L1446.28 539.79ZM1522.98 654.983L1442.77 557.938L1444.31 556.664L1524.52 653.709L1522.98 654.983ZM1443 580.614L1500.22 649.84L1501.76 648.566L1444.54 579.34L1443 580.614ZM1465.69 630.463L1455 617.524L1456.54 616.25L1467.23 629.189L1465.69 630.463Z" fill="url(#paint0_linear)"/>
<path fill-rule="evenodd" clip-rule="evenodd" d="M102.093 623.186L116.093 620.724L115.746 618.755L101.747 621.216L102.093 623.186ZM72.799 641.259L151.895 627.351L151.549 625.381L72.4527 639.289L72.799 641.259ZM169.983 637.881L59.7382 657.266L59.3918 655.297L169.636 635.911L169.983 637.881ZM53.7814 670.581L181.175 648.18L180.829 646.21L53.4351 668.612L53.7814 670.581ZM187.713 660.741L50.17 684.927L49.8237 682.957L187.367 658.771L187.713 660.741ZM193.428 672.725L48.5357 698.203L48.1893 696.234L193.082 670.755L193.428 672.725ZM196.221 684.501L50.9782 710.041L50.6318 708.071L195.874 682.531L196.221 684.501ZM54.3586 721.06L195.751 696.196L195.405 694.227L54.0122 719.09L54.3586 721.06ZM194.344 708.711L60.6508 732.22L60.3044 730.25L193.998 706.741L194.344 708.711ZM67.6436 743.258L190.837 721.595L190.491 719.625L67.2972 741.288L67.6436 743.258ZM184.53 734.972L79.5354 753.435L79.189 751.465L184.184 733.002L184.53 734.972ZM96.3273 762.749L171.224 749.579L170.877 747.609L95.9809 760.779L96.3273 762.749ZM142.517 766.894L128.517 769.356L128.171 767.386L142.17 764.924L142.517 766.894Z" fill="url(#paint1_linear)"/>
<g filter="url(#filter0_d)">
<circle cx="1518.5" cy="651.5" r="103.5" fill="url(#paint2_linear)"/>
</g>
<g filter="url(#filter1_d)">
<circle cx="180.092" cy="736.814" r="87.6372" transform="rotate(-60.3991 180.092 736.814)" fill="url(#paint3_linear)"/>
</g>
<g filter="url(#filter2_d)">
<path d="M1425.43 220.525L1653.22 431.24L1352.83 522.216L1425.43 220.525Z" fill="url(#paint4_linear)"/>
</g>
<g filter="url(#filter3_d)">
<path d="M1035.46 207.779L1124.4 161.467L1216.42 121.615L1287.95 191.894L1354.29 267.095L1309.55 356.842L1258.53 443.171L1159.35 428.358L1061.48 406.511L1044.92 307.61L1035.46 207.779Z" fill="url(#paint5_linear)"/>
</g>
<g filter="url(#filter4_d)">
<circle cx="1294.5" cy="550.501" r="52.5" fill="url(#paint6_linear)"/>
</g>
<path d="M836.896 453.161C834.255 454.829 834.672 443.152 827.999 444.542L834.394 440.928C838.286 438.842 837.313 451.354 841.345 449.825L836.896 453.161Z" fill="url(#paint7_linear)"/>
<path d="M882.216 561.873C886.108 568.268 865.673 572.161 868.87 578.972L864.699 570.214C861.502 563.402 875.821 554.227 872.763 547.693L882.216 561.873Z" fill="url(#paint8_linear)"/>
<path d="M1127.58 397.276C1125.78 393.244 1113.68 408.119 1109.09 400.89L1112.01 407.285C1113.82 411.317 1129.81 402.28 1131.61 406.173L1127.58 397.276Z" fill="url(#paint9_linear)"/>
<path d="M1109.23 401.168C1107.29 396.998 1116.88 392.41 1114.24 388.935L1118.27 394.634C1120.77 398.249 1110.21 403.671 1112.01 407.702L1109.23 401.168Z" fill="url(#paint10_linear)"/>
<path d="M1111.46 384.764C1108.68 381.15 1102.42 391.715 1099.36 388.518L1103.25 392.549C1106.31 395.747 1114.24 389.769 1117.16 392.827L1111.46 384.764Z" fill="url(#paint11_linear)"/>
<path d="M991.902 416.321C986.897 414.931 985.924 391.437 980.363 391.298L991.762 391.715C1002.88 392.688 989.816 415.904 1001.08 418.963L991.902 416.321Z" fill="url(#paint12_linear)"/>
<path d="M1065.16 448.712C1067.53 450.937 1063.36 460.529 1069.75 463.309L1062.11 461.224C1059.74 460.39 1063.36 451.354 1059.88 446.21L1065.16 448.712Z" fill="url(#paint13_linear)"/>
<path d="M1018.59 449.686C1020.82 455.802 1002.88 450.52 1003.16 465.812L1001.91 455.941C1001.22 448.295 1017.2 445.793 1014.56 438.564L1018.59 449.686Z" fill="url(#paint14_linear)"/>
<path d="M1020.54 530.316C1020.26 535.321 1010.95 536.016 1009.97 540.603L1008.44 536.155C1009.42 531.428 1020.4 524.616 1021.37 519.89L1020.54 530.316Z" fill="url(#paint15_linear)"/>
<path d="M1010.53 515.858C1009.56 520.585 1021.65 524.477 1020.68 529.065L1021.37 520.029C1021.65 515.163 1012.2 513.217 1013.17 508.49L1010.53 515.858Z" fill="url(#paint16_linear)"/>
<path d="M1025.4 510.297C1024.71 515.024 1012.2 511.131 1010.53 515.719L1013.31 508.351C1014.98 503.624 1025.96 507.378 1026.66 502.651L1025.4 510.297Z" fill="url(#paint17_linear)"/>
<path d="M1016.37 595.803C1013.03 597.332 1009.56 589.408 1006.64 591.494L1011.36 588.296C1014.28 586.35 1018.45 594.969 1021.65 593.579L1016.37 595.803Z" fill="url(#paint18_linear)"/>
<path d="M1456.29 598.977C1457.34 602.464 1467.01 595.953 1467.84 605.546L1468.28 598.132C1468.56 594.698 1455.28 595.138 1454.41 591.669L1456.29 598.977Z" fill="url(#paint19_linear)"/>
<path d="M1381.92 542.142C1375.37 541.971 1375.66 526.814 1369.52 527.754L1379.46 526.157C1385.7 525.139 1385.82 542.205 1392.18 542.533L1381.92 542.142Z" fill="url(#paint20_linear)"/>
<path d="M1391.81 542.671C1398.37 542.841 1398.07 557.998 1404.21 557.058L1394.27 558.656C1388.03 559.674 1387.91 542.607 1381.55 542.28L1391.81 542.671Z" fill="url(#paint21_linear)"/>
<path d="M1354.93 680.202C1349.45 679.169 1347.11 691.797 1342.25 689.943L1350.28 692.936C1355.32 694.81 1358.25 680.736 1363.58 681.574L1354.93 680.202Z" fill="url(#paint22_linear)"/>
<path d="M1341.14 689.557C1335.94 687.489 1331.21 699.327 1326.71 696.535L1333.86 701.033C1338.36 703.825 1344.12 690.677 1349.24 692.648L1341.14 689.557Z" fill="url(#paint23_linear)"/>
<path d="M1339.66 601.555C1335.43 607.851 1355.77 612.789 1352.13 619.415L1356.78 610.854C1360.42 604.228 1346.4 594.196 1349.94 587.649L1339.66 601.555Z" fill="url(#paint24_linear)"/>
<path d="M1402.24 782.272C1408.38 785.506 1392.56 801.306 1410.29 806.584L1396.18 804.803C1389.6 804.008 1395.38 779.137 1389.21 776.254L1402.24 782.272Z" fill="url(#paint25_linear)"/>
<path d="M1306.49 765.775C1315.77 771.124 1308.52 793.972 1317.6 795.479L1302.35 797.662C1293.28 796.154 1304.48 778.617 1295.39 777.285L1306.49 765.775Z" fill="url(#paint26_linear)"/>
<path d="M1464.06 658.166C1460.64 656.111 1465.56 646.691 1461.87 645.495L1455.95 643.528C1459.72 644.821 1455.11 653.03 1458.62 655.006L1464.06 658.166Z" fill="url(#paint27_linear)"/>
<path d="M1449.33 651.432C1452.67 653.39 1456.65 643.603 1460.5 644.993L1454.5 642.928C1450.65 641.538 1447.31 650.328 1443.97 648.37L1449.33 651.432Z" fill="url(#paint28_linear)"/>
<path d="M1519.11 777.41C1509.22 776.881 1517.43 802.988 1507.53 803.434L1520.2 802.841C1530.11 802.395 1531.98 780.035 1541.44 779.629L1519.11 777.41Z" fill="url(#paint29_linear)"/>
<path d="M1528.5 402.701C1527.9 406.401 1519.4 404.9 1519.5 408.5L1519.4 402.8C1519.4 399.2 1528.9 400.5 1529.6 397L1528.5 402.701Z" fill="url(#paint30_linear)"/>
<path d="M1553.8 379.901C1552.2 381.601 1559.9 387.601 1558.3 389.301L1560.9 386.601C1562.5 384.901 1553.8 380.001 1555.4 378.301L1553.8 379.901Z" fill="url(#paint31_linear)"/>
<path d="M1549.1 274.301C1551.5 276.801 1540.3 285.601 1542.6 288.001L1538.8 284.101C1536.4 281.601 1549.1 274.401 1546.8 271.901L1549.1 274.301Z" fill="url(#paint32_linear)"/>
<path d="M1391.8 336.501C1393.3 342.701 1372.8 341.601 1380.2 357.001L1372.7 346.201C1369.2 341.201 1389.8 329.901 1387.9 323.801L1391.8 336.501Z" fill="url(#paint33_linear)"/>
<path d="M1337 357.7C1332.8 357.6 1330.9 348.3 1327.5 349.5L1332.4 345.9C1335.8 344.7 1335.3 352.9 1338.7 351.7L1337 357.7Z" fill="url(#paint34_linear)"/>
<path d="M1476.6 354.901C1476.6 361.101 1495.8 348.201 1500.3 360.801L1499.6 346.201C1499 337.401 1479.1 352.201 1477.2 343.801L1476.6 354.901Z" fill="url(#paint35_linear)"/>
<path d="M1504.5 272.001C1507.3 270.001 1498 266.101 1500 263.301L1497.4 266.801C1495.4 269.501 1501 274.801 1499.1 277.401L1504.5 272.001Z" fill="url(#paint36_linear)"/>
<path d="M1501.8 260.9C1503.7 258 1494.5 256 1496.1 253L1494.1 256.9C1492.5 259.9 1498.8 264.301 1497.3 267.201L1501.8 260.9Z" fill="url(#paint37_linear)"/>
<path d="M1294.9 377.6C1297.1 377 1295.1 386.6 1299.4 386.1L1295.9 387C1293.7 387.6 1292.2 378.3 1290 378.9L1294.9 377.6Z" fill="url(#paint38_linear)"/>
<path d="M1299.3 386C1301.6 385.4 1300.3 380.2 1302.5 380L1298.9 380.201C1296.7 380.301 1297.9 386.3 1295.7 386.9L1299.3 386Z" fill="url(#paint39_linear)"/>
<path d="M1305 379.9C1307.3 379.8 1305.2 385.7 1307.4 385.9L1304.5 385.7C1302.3 385.5 1302 380.5 1299.9 380.3L1305 379.9Z" fill="url(#paint40_linear)"/>
<path d="M1436.6 313C1439.6 312.2 1442.1 320.1 1444.8 318.8L1449.2 316.7C1446.5 318 1444.5 311 1441.4 311.8L1436.6 313Z" fill="url(#paint41_linear)"/>
<path d="M1448.4 308.501C1445.5 309.201 1448.6 316.901 1445.8 318.201L1450.3 316.101C1453.2 314.801 1450.2 308.101 1453.1 307.401L1448.4 308.501Z" fill="url(#paint42_linear)"/>
<path d="M1371.9 402.4C1369.2 405.8 1385.8 411.6 1381.6 418.8L1385.8 413.4C1388.5 410 1373.4 400.3 1376 397L1371.9 402.4Z" fill="url(#paint43_linear)"/>
<path d="M1370.8 387.6C1367.8 390.6 1374.6 399 1371.9 402.4L1376.9 396C1379.4 392.5 1373.3 386.5 1376.4 383.4L1370.8 387.6Z" fill="url(#paint44_linear)"/>
<path d="M1384.7 390.7C1381.8 393.9 1374.4 384.9 1370.9 387.5L1376.5 383.4C1380.1 380.7 1386.4 388.9 1389.2 385.7L1384.7 390.7Z" fill="url(#paint45_linear)"/>
<defs>
<filter id="filter0_d" x="1355" y="488" width="307" height="307" filterUnits="userSpaceOnUse" color-interpolation-filters="sRGB">
<feFlood flood-opacity="0" result="BackgroundImageFix"/>
<feColorMatrix in="SourceAlpha" type="matrix" values="0 0 0 0 0 0 0 0 0 0 0 0 0 0 0 0 0 0 127 0"/>
<feOffset dx="-10" dy="-10"/>
<feGaussianBlur stdDeviation="25"/>
<feColorMatrix type="matrix" values="0 0 0 0 0.698039 0 0 0 0 0.235294 0 0 0 0 0.788235 0 0 0 0.62 0"/>
<feBlend mode="normal" in2="BackgroundImageFix" result="effect1_dropShadow"/>
<feBlend mode="normal" in="SourceGraphic" in2="effect1_dropShadow" result="shape"/>
</filter>
<filter id="filter1_d" x="0.603943" y="557.326" width="338.977" height="338.977" filterUnits="userSpaceOnUse" color-interpolation-filters="sRGB">
<feFlood flood-opacity="0" result="BackgroundImageFix"/>
<feColorMatrix in="SourceAlpha" type="matrix" values="0 0 0 0 0 0 0 0 0 0 0 0 0 0 0 0 0 0 127 0"/>
<feOffset dx="-10" dy="-10"/>
<feGaussianBlur stdDeviation="25"/>
<feColorMatrix type="matrix" values="0 0 0 0 0.698039 0 0 0 0 0.235294 0 0 0 0 0.788235 0 0 0 0.62 0"/>
<feBlend mode="normal" in2="BackgroundImageFix" result="effect1_dropShadow"/>
<feBlend mode="normal" in="SourceGraphic" in2="effect1_dropShadow" result="shape"/>
</filter>
<filter id="filter2_d" x="1210.24" y="110.037" width="477.985" height="447.178" filterUnits="userSpaceOnUse" color-interpolation-filters="sRGB">
<feFlood flood-opacity="0" result="BackgroundImageFix"/>
<feColorMatrix in="SourceAlpha" type="matrix" values="0 0 0 0 0 0 0 0 0 0 0 0 0 0 0 0 0 0 127 0"/>
<feOffset dx="-15" dy="-15"/>
<feGaussianBlur stdDeviation="25"/>
<feColorMatrix type="matrix" values="0 0 0 0 0.34902 0 0 0 0 0.964706 0 0 0 0 0.290196 0 0 0 0.54 0"/>
<feBlend mode="normal" in2="BackgroundImageFix" result="effect1_dropShadow"/>
<feBlend mode="normal" in="SourceGraphic" in2="effect1_dropShadow" result="shape"/>
</filter>
<filter id="filter3_d" x="892.987" y="0.330566" width="529.032" height="533.959" filterUnits="userSpaceOnUse" color-interpolation-filters="sRGB">
<feFlood flood-opacity="0" result="BackgroundImageFix"/>
<feColorMatrix in="SourceAlpha" type="matrix" values="0 0 0 0 0 0 0 0 0 0 0 0 0 0 0 0 0 0 127 0"/>
<feOffset dx="-15" dy="-15"/>
<feGaussianBlur stdDeviation="25"/>
<feColorMatrix type="matrix" values="0 0 0 0 1 0 0 0 0 0.301961 0 0 0 0 0.415686 0 0 0 0.3 0"/>
<feBlend mode="normal" in2="BackgroundImageFix" result="effect1_dropShadow"/>
<feBlend mode="normal" in="SourceGraphic" in2="effect1_dropShadow" result="shape"/>
</filter>
<filter id="filter4_d" x="1177" y="433.001" width="205" height="205" filterUnits="userSpaceOnUse" color-interpolation-filters="sRGB">
<feFlood flood-opacity="0" result="BackgroundImageFix"/>
<feColorMatrix in="SourceAlpha" type="matrix" values="0 0 0 0 0 0 0 0 0 0 0 0 0 0 0 0 0 0 127 0"/>
<feOffset dx="-15" dy="-15"/>
<feGaussianBlur stdDeviation="25"/>
<feColorMatrix type="matrix" values="0 0 0 0 1 0 0 0 0 0.807843 0 0 0 0 0 0 0 0 0.31 0"/>
<feBlend mode="normal" in2="BackgroundImageFix" result="effect1_dropShadow"/>
<feBlend mode="normal" in="SourceGraphic" in2="effect1_dropShadow" result="shape"/>
</filter>
<linearGradient id="paint0_linear" x1="1597.37" y1="511.285" x2="1460.61" y2="624.317" gradientUnits="userSpaceOnUse">
<stop stop-color="#FF4D6A"/>
<stop offset="1" stop-color="#FFCE00"/>
</linearGradient>
<linearGradient id="paint1_linear" x1="109.796" y1="619.801" x2="135.867" y2="768.063" gradientUnits="userSpaceOnUse">
<stop stop-color="#FF4D6A"/>
<stop offset="1" stop-color="#FFCE00"/>
</linearGradient>
<linearGradient id="paint2_linear" x1="1517.72" y1="591.579" x2="1518.5" y2="755" gradientUnits="userSpaceOnUse">
<stop stop-color="#DD2CFF"/>
<stop offset="1" stop-color="#6134BA"/>
</linearGradient>
<linearGradient id="paint3_linear" x1="179.433" y1="686.076" x2="180.092" y2="824.451" gradientUnits="userSpaceOnUse">
<stop stop-color="#DD2CFF"/>
<stop offset="1" stop-color="#6134BA"/>
</linearGradient>
<linearGradient id="paint4_linear" x1="1425.43" y1="220.525" x2="1528.89" y2="562.129" gradientUnits="userSpaceOnUse">
<stop stop-color="#BDF62E"/>
<stop offset="1" stop-color="#56F752"/>
</linearGradient>
<linearGradient id="paint5_linear" x1="1035.46" y1="207.779" x2="1335.01" y2="370.689" gradientUnits="userSpaceOnUse">
<stop stop-color="#F77652"/>
<stop offset="1" stop-color="#F5398E"/>
</linearGradient>
<linearGradient id="paint6_linear" x1="1294.11" y1="520.106" x2="1294.5" y2="603.001" gradientUnits="userSpaceOnUse">
<stop stop-color="#EBBE01"/>
<stop offset="1" stop-color="#F18B01"/>
</linearGradient>
<linearGradient id="paint7_linear" x1="838.998" y1="454.926" x2="832.129" y2="442.353" gradientUnits="userSpaceOnUse">
<stop stop-color="#3E29A6"/>
<stop offset="0.0921788" stop-color="#344ABA"/>
<stop offset="0.2933" stop-color="#56A3C9"/>
<stop offset="0.8101" stop-color="#00FFAA"/>
<stop offset="1" stop-color="#CCFFD5"/>
</linearGradient>
<linearGradient id="paint8_linear" x1="872.616" y1="578.771" x2="874.415" y2="548.841" gradientUnits="userSpaceOnUse">
<stop stop-color="#3E29A6"/>
<stop offset="0.0921788" stop-color="#344ABA"/>
<stop offset="0.2933" stop-color="#56A3C9"/>
<stop offset="0.8101" stop-color="#00FFAA"/>
<stop offset="1" stop-color="#CCFFD5"/>
</linearGradient>
<linearGradient id="paint9_linear" x1="1112.39" y1="410.214" x2="1127.03" y2="398.029" gradientUnits="userSpaceOnUse">
<stop offset="0.0921788" stop-color="#6134BA"/>
<stop offset="0.2933" stop-color="#B23CC9"/>
<stop offset="0.8101" stop-color="#FF4D6A"/>
<stop offset="1" stop-color="#FFA6B5"/>
</linearGradient>
<linearGradient id="paint10_linear" x1="1109.81" y1="404.024" x2="1119.21" y2="388.487" gradientUnits="userSpaceOnUse">
<stop offset="0.0921788" stop-color="#6134BA"/>
<stop offset="0.2933" stop-color="#B23CC9"/>
<stop offset="0.8101" stop-color="#FF4D6A"/>
<stop offset="1" stop-color="#FFA6B5"/>
</linearGradient>
<linearGradient id="paint11_linear" x1="1103.05" y1="394.719" x2="1112.95" y2="387.277" gradientUnits="userSpaceOnUse">
<stop offset="0.0921788" stop-color="#6134BA"/>
<stop offset="0.2933" stop-color="#B23CC9"/>
<stop offset="0.8101" stop-color="#FF4D6A"/>
<stop offset="1" stop-color="#FFA6B5"/>
</linearGradient>
<linearGradient id="paint12_linear" x1="991.751" y1="418.146" x2="989.788" y2="392.96" gradientUnits="userSpaceOnUse">
<stop offset="0.0921788" stop-color="#6134BA"/>
<stop offset="0.2933" stop-color="#B23CC9"/>
<stop offset="0.8101" stop-color="#FF4D6A"/>
<stop offset="1" stop-color="#FFA6B5"/>
</linearGradient>
<linearGradient id="paint13_linear" x1="1066.65" y1="444.149" x2="1063.53" y2="461.751" gradientUnits="userSpaceOnUse">
<stop stop-color="#3E29A6"/>
<stop offset="0.0921788" stop-color="#344ABA"/>
<stop offset="0.2933" stop-color="#56A3C9"/>
<stop offset="0.8101" stop-color="#00FFAA"/>
<stop offset="1" stop-color="#CCFFD5"/>
</linearGradient>
<linearGradient id="paint14_linear" x1="1005.44" y1="466.934" x2="1013.95" y2="442.565" gradientUnits="userSpaceOnUse">
<stop offset="0.0921788" stop-color="#6134BA"/>
<stop offset="0.2933" stop-color="#B23CC9"/>
<stop offset="0.8101" stop-color="#FF4D6A"/>
<stop offset="1" stop-color="#FFA6B5"/>
</linearGradient>
<linearGradient id="paint15_linear" x1="1008.57" y1="542.186" x2="1025.37" y2="517.04" gradientUnits="userSpaceOnUse">
<stop stop-color="#3E29A6"/>
<stop offset="0.0921788" stop-color="#344ABA"/>
<stop offset="0.2933" stop-color="#56A3C9"/>
<stop offset="0.8101" stop-color="#00FFAA"/>
<stop offset="1" stop-color="#CCFFD5"/>
</linearGradient>
<linearGradient id="paint16_linear" x1="1019.53" y1="525.194" x2="1012.29" y2="510.965" gradientUnits="userSpaceOnUse">
<stop stop-color="#3E29A6"/>
<stop offset="0.0921788" stop-color="#344ABA"/>
<stop offset="0.2933" stop-color="#56A3C9"/>
<stop offset="0.8101" stop-color="#00FFAA"/>
<stop offset="1" stop-color="#CCFFD5"/>
</linearGradient>
<linearGradient id="paint17_linear" x1="1006.99" y1="517.992" x2="1025.51" y2="505.051" gradientUnits="userSpaceOnUse">
<stop stop-color="#3E29A6"/>
<stop offset="0.0921788" stop-color="#344ABA"/>
<stop offset="0.2933" stop-color="#56A3C9"/>
<stop offset="0.8101" stop-color="#00FFAA"/>
<stop offset="1" stop-color="#CCFFD5"/>
</linearGradient>
<linearGradient id="paint18_linear" x1="1015.82" y1="597.958" x2="1012.44" y2="587.102" gradientUnits="userSpaceOnUse">
<stop stop-color="#3E29A6"/>
<stop offset="0.0921788" stop-color="#344ABA"/>
<stop offset="0.2933" stop-color="#56A3C9"/>
<stop offset="0.8101" stop-color="#00FFAA"/>
<stop offset="1" stop-color="#CCFFD5"/>
</linearGradient>
<linearGradient id="paint19_linear" x1="1457.94" y1="601.282" x2="1466.01" y2="594.775" gradientUnits="userSpaceOnUse">
<stop stop-color="#A629A6"/>
<stop offset="0.0921788" stop-color="#BA34A2"/>
<stop offset="0.2933" stop-color="#C9567E"/>
<stop offset="0.8101" stop-color="#FFCE00"/>
<stop offset="1" stop-color="#FFEA90"/>
</linearGradient>
<linearGradient id="paint20_linear" x1="1386.32" y1="549.521" x2="1377.39" y2="526.148" gradientUnits="userSpaceOnUse">
<stop stop-color="#3E29A6"/>
<stop offset="0.0921788" stop-color="#344ABA"/>
<stop offset="0.2933" stop-color="#56A3C9"/>
<stop offset="0.8101" stop-color="#00FFAA"/>
<stop offset="1" stop-color="#CCFFD5"/>
</linearGradient>
<linearGradient id="paint21_linear" x1="1384.88" y1="543.626" x2="1406.73" y2="562.82" gradientUnits="userSpaceOnUse">
<stop stop-color="#3E29A6"/>
<stop offset="0.0921788" stop-color="#344ABA"/>
<stop offset="0.2933" stop-color="#56A3C9"/>
<stop offset="0.8101" stop-color="#00FFAA"/>
<stop offset="1" stop-color="#CCFFD5"/>
</linearGradient>
<linearGradient id="paint22_linear" x1="1356.04" y1="693.907" x2="1351.13" y2="681.586" gradientUnits="userSpaceOnUse">
<stop stop-color="#A629A6"/>
<stop offset="0.0921788" stop-color="#BA34A2"/>
<stop offset="0.2933" stop-color="#C9567E"/>
<stop offset="0.8101" stop-color="#FFCE00"/>
<stop offset="1" stop-color="#FFEA90"/>
</linearGradient>
<linearGradient id="paint23_linear" x1="1347.6" y1="692.4" x2="1329.84" y2="697.586" gradientUnits="userSpaceOnUse">
<stop stop-color="#A629A6"/>
<stop offset="0.0921788" stop-color="#BA34A2"/>
<stop offset="0.2933" stop-color="#C9567E"/>
<stop offset="0.8101" stop-color="#FFCE00"/>
<stop offset="1" stop-color="#FFEA90"/>
</linearGradient>
<linearGradient id="paint24_linear" x1="1357.89" y1="615.142" x2="1343.49" y2="594.475" gradientUnits="userSpaceOnUse">
<stop stop-color="#A629A6"/>
<stop offset="0.0921788" stop-color="#BA34A2"/>
<stop offset="0.2933" stop-color="#C9567E"/>
<stop offset="0.8101" stop-color="#FFCE00"/>
<stop offset="1" stop-color="#FFEA90"/>
</linearGradient>
<linearGradient id="paint25_linear" x1="1408.18" y1="809.043" x2="1390.48" y2="779.714" gradientUnits="userSpaceOnUse">
<stop stop-color="#3E29A6"/>
<stop offset="0.0921788" stop-color="#344ABA"/>
<stop offset="0.2933" stop-color="#56A3C9"/>
<stop offset="0.8101" stop-color="#00FFAA"/>
<stop offset="1" stop-color="#CCFFD5"/>
</linearGradient>
<linearGradient id="paint26_linear" x1="1315.66" y1="794.613" x2="1298.37" y2="775.516" gradientUnits="userSpaceOnUse">
<stop offset="0.0921788" stop-color="#6134BA"/>
<stop offset="0.2933" stop-color="#B23CC9"/>
<stop offset="0.8101" stop-color="#FF4D6A"/>
<stop offset="1" stop-color="#FFA6B5"/>
</linearGradient>
<linearGradient id="paint27_linear" x1="1457.87" y1="644.154" x2="1465.5" y2="663.625" gradientUnits="userSpaceOnUse">
<stop stop-color="#3E29A6"/>
<stop offset="0.0921788" stop-color="#344ABA"/>
<stop offset="0.2933" stop-color="#56A3C9"/>
<stop offset="0.8101" stop-color="#00FFAA"/>
<stop offset="1" stop-color="#CCFFD5"/>
</linearGradient>
<linearGradient id="paint28_linear" x1="1449.16" y1="655.55" x2="1453.45" y2="642.962" gradientUnits="userSpaceOnUse">
<stop stop-color="#3E29A6"/>
<stop offset="0.0921788" stop-color="#344ABA"/>
<stop offset="0.2933" stop-color="#56A3C9"/>
<stop offset="0.8101" stop-color="#00FFAA"/>
<stop offset="1" stop-color="#CCFFD5"/>
</linearGradient>
<linearGradient id="paint29_linear" x1="1524.67" y1="802.095" x2="1524.46" y2="777.071" gradientUnits="userSpaceOnUse">
<stop stop-color="#3E29A6"/>
<stop offset="0.0921788" stop-color="#344ABA"/>
<stop offset="0.2933" stop-color="#56A3C9"/>
<stop offset="0.8101" stop-color="#00FFAA"/>
<stop offset="1" stop-color="#CCFFD5"/>
</linearGradient>
<linearGradient id="paint30_linear" x1="1519.24" y1="408.44" x2="1528.8" y2="396.588" gradientUnits="userSpaceOnUse">
<stop stop-color="#3E29A6"/>
<stop offset="0.0921788" stop-color="#344ABA"/>
<stop offset="0.2933" stop-color="#56A3C9"/>
<stop offset="0.8101" stop-color="#00FFAA"/>
<stop offset="1" stop-color="#CCFFD5"/>
</linearGradient>
<linearGradient id="paint31_linear" x1="1559.98" y1="387.356" x2="1553.63" y2="380.15" gradientUnits="userSpaceOnUse">
<stop stop-color="#A629A6"/>
<stop offset="0.0921788" stop-color="#BA34A2"/>
<stop offset="0.2933" stop-color="#C9567E"/>
<stop offset="0.8101" stop-color="#FFCE00"/>
<stop offset="1" stop-color="#FFEA90"/>
</linearGradient>
<linearGradient id="paint32_linear" x1="1540.66" y1="287.487" x2="1546.66" y2="272.781" gradientUnits="userSpaceOnUse">
<stop offset="0.0921788" stop-color="#6134BA"/>
<stop offset="0.2933" stop-color="#B23CC9"/>
<stop offset="0.8101" stop-color="#FF4D6A"/>
<stop offset="1" stop-color="#FFA6B5"/>
</linearGradient>
<linearGradient id="paint33_linear" x1="1377.87" y1="356.308" x2="1386.52" y2="324.985" gradientUnits="userSpaceOnUse">
<stop stop-color="#3E29A6"/>
<stop offset="0.0921788" stop-color="#344ABA"/>
<stop offset="0.2933" stop-color="#56A3C9"/>
<stop offset="0.8101" stop-color="#00FFAA"/>
<stop offset="1" stop-color="#CCFFD5"/>
</linearGradient>
<linearGradient id="paint34_linear" x1="1336.98" y1="357.733" x2="1331.33" y2="347.366" gradientUnits="userSpaceOnUse">
<stop offset="0.0921788" stop-color="#6134BA"/>
<stop offset="0.2933" stop-color="#B23CC9"/>
<stop offset="0.8101" stop-color="#FF4D6A"/>
<stop offset="1" stop-color="#FFA6B5"/>
</linearGradient>
<linearGradient id="paint35_linear" x1="1481.54" y1="358.969" x2="1497.13" y2="344.498" gradientUnits="userSpaceOnUse">
<stop stop-color="#A629A6"/>
<stop offset="0.0921788" stop-color="#BA34A2"/>
<stop offset="0.2933" stop-color="#C9567E"/>
<stop offset="0.8101" stop-color="#FFCE00"/>
<stop offset="1" stop-color="#FFEA90"/>
</linearGradient>
<linearGradient id="paint36_linear" x1="1501.9" y1="276.857" x2="1500.4" y2="265.151" gradientUnits="userSpaceOnUse">
<stop stop-color="#A629A6"/>
<stop offset="0.0921788" stop-color="#BA34A2"/>
<stop offset="0.2933" stop-color="#C9567E"/>
<stop offset="0.8101" stop-color="#FFCE00"/>
<stop offset="1" stop-color="#FFEA90"/>
</linearGradient>
<linearGradient id="paint37_linear" x1="1500.25" y1="263.09" x2="1493.55" y2="257.355" gradientUnits="userSpaceOnUse">
<stop stop-color="#A629A6"/>
<stop offset="0.0921788" stop-color="#BA34A2"/>
<stop offset="0.2933" stop-color="#C9567E"/>
<stop offset="0.8101" stop-color="#FFCE00"/>
<stop offset="1" stop-color="#FFEA90"/>
</linearGradient>
<linearGradient id="paint38_linear" x1="1297.31" y1="390.092" x2="1293.38" y2="378.313" gradientUnits="userSpaceOnUse">
<stop stop-color="#3E29A6"/>
<stop offset="0.0921788" stop-color="#344ABA"/>
<stop offset="0.2933" stop-color="#56A3C9"/>
<stop offset="0.8101" stop-color="#00FFAA"/>
<stop offset="1" stop-color="#CCFFD5"/>
</linearGradient>
<linearGradient id="paint39_linear" x1="1297.97" y1="386.913" x2="1301.5" y2="376.677" gradientUnits="userSpaceOnUse">
<stop stop-color="#3E29A6"/>
<stop offset="0.0921788" stop-color="#344ABA"/>
<stop offset="0.2933" stop-color="#56A3C9"/>
<stop offset="0.8101" stop-color="#00FFAA"/>
<stop offset="1" stop-color="#CCFFD5"/>
</linearGradient>
<linearGradient id="paint40_linear" x1="1304" y1="386.725" x2="1303.47" y2="379.887" gradientUnits="userSpaceOnUse">
<stop stop-color="#3E29A6"/>
<stop offset="0.0921788" stop-color="#344ABA"/>
<stop offset="0.2933" stop-color="#56A3C9"/>
<stop offset="0.8101" stop-color="#00FFAA"/>
<stop offset="1" stop-color="#CCFFD5"/>
</linearGradient>
<linearGradient id="paint41_linear" x1="1444.73" y1="320.732" x2="1442.08" y2="312.143" gradientUnits="userSpaceOnUse">
<stop offset="0.0921788" stop-color="#6134BA"/>
<stop offset="0.2933" stop-color="#B23CC9"/>
<stop offset="0.8101" stop-color="#FF4D6A"/>
<stop offset="1" stop-color="#FFA6B5"/>
</linearGradient>
<linearGradient id="paint42_linear" x1="1446.7" y1="315.892" x2="1453.58" y2="306.245" gradientUnits="userSpaceOnUse">
<stop offset="0.0921788" stop-color="#6134BA"/>
<stop offset="0.2933" stop-color="#B23CC9"/>
<stop offset="0.8101" stop-color="#FF4D6A"/>
<stop offset="1" stop-color="#FFA6B5"/>
</linearGradient>
<linearGradient id="paint43_linear" x1="1372.07" y1="401.904" x2="1385.66" y2="414.036" gradientUnits="userSpaceOnUse">
<stop offset="0.0921788" stop-color="#6134BA"/>
<stop offset="0.2933" stop-color="#B23CC9"/>
<stop offset="0.8101" stop-color="#FF4D6A"/>
<stop offset="1" stop-color="#FFA6B5"/>
</linearGradient>
<linearGradient id="paint44_linear" x1="1371.41" y1="382.365" x2="1376.75" y2="403.277" gradientUnits="userSpaceOnUse">
<stop offset="0.0921788" stop-color="#6134BA"/>
<stop offset="0.2933" stop-color="#B23CC9"/>
<stop offset="0.8101" stop-color="#FF4D6A"/>
<stop offset="1" stop-color="#FFA6B5"/>
</linearGradient>
<linearGradient id="paint45_linear" x1="1373.43" y1="391.575" x2="1387.77" y2="382.575" gradientUnits="userSpaceOnUse">
<stop offset="0.0921788" stop-color="#6134BA"/>
<stop offset="0.2933" stop-color="#B23CC9"/>
<stop offset="0.8101" stop-color="#FF4D6A"/>
<stop offset="1" stop-color="#FFA6B5"/>
</linearGradient>
</defs>
</svg>