<svg width="83" height="85" viewBox="0 0 83 85" fill="none" xmlns="http://www.w3.org/2000/svg">
<path fill-rule="evenodd" clip-rule="evenodd" d="M81.5661 70.4728L78.8307 67.7368C78.3444 67.2505 77.5558 67.2505 77.0694 67.7368C76.583 68.2232 76.583 69.0111 77.0694 69.4975L79.8054 72.2335L79.8065 72.2346C79.8276 72.2564 79.8872 72.3177 79.8521 72.4261C79.8165 72.5357 79.7302 72.5493 79.7023 72.5532L73.1609 73.5733C72.004 73.7536 71.1058 74.6524 70.9256 75.8087L69.9068 82.3475C69.9022 82.376 69.8886 82.4636 69.7784 82.4992C69.6694 82.5349 69.6091 82.4752 69.5871 82.4525L57.6651 70.5306C61.8051 67.9502 65.2836 64.4049 67.7842 60.211L73.4125 65.8406C73.6551 66.0838 73.9741 66.2051 74.2925 66.2051C74.6116 66.2051 74.93 66.0838 75.1732 65.8406C75.6596 65.3543 75.6596 64.5657 75.1732 64.08L69.0196 57.9244C70.9703 53.9089 72.0656 49.4045 72.0656 44.6484V13.9135C72.0656 10.2703 69.1033 7.30662 65.4626 7.30662C64.8024 7.30662 64.1481 7.40519 63.5171 7.60039C62.0308 8.05888 60.4789 8.29104 58.905 8.29104C54.1574 8.29104 49.7223 6.16721 46.7373 2.46429C45.4753 0.898172 43.5985 3.54102e-06 41.5895 3.54102e-06C39.5798 3.54102e-06 37.7037 0.898172 36.4424 2.46364C33.4567 6.16721 29.0216 8.29104 24.274 8.29104C22.7001 8.29104 21.1476 8.05888 19.6618 7.59974C19.0309 7.40519 18.3765 7.30662 17.7164 7.30662C14.075 7.30662 11.1134 10.2703 11.1134 13.9135V27.3945C11.1134 28.0819 11.6704 28.6396 12.3585 28.6396C13.0459 28.6396 13.6036 28.0819 13.6036 27.3945V13.9135C13.6036 11.6438 15.4486 9.79685 17.7164 9.79685C18.1269 9.79685 18.5341 9.85846 18.9277 9.97973C20.6521 10.5115 22.4504 10.7813 24.274 10.7813C29.7784 10.7813 34.9203 8.31957 38.3814 4.02652C39.1673 3.04989 40.3366 2.49023 41.5895 2.49023C42.8417 2.49023 44.011 3.04989 44.7982 4.02652C48.2586 8.31893 53.3999 10.7813 58.905 10.7813C60.7279 10.7813 62.5269 10.5115 64.2512 9.97973C64.6442 9.85846 65.0515 9.79685 65.4626 9.79685C67.7304 9.79685 69.5754 11.6438 69.5754 13.9135V44.6477C69.5754 49.2916 68.4386 53.6748 66.4282 57.534C66.4068 57.5697 66.388 57.6067 66.3705 57.6436C61.6099 66.6856 52.1846 72.6343 41.5895 72.6343C36.7206 72.6343 32.1383 71.384 28.1461 69.1888C28.1389 69.1848 28.1319 69.1808 28.1246 69.1767C28.1202 69.1743 28.1158 69.1718 28.1111 69.1694C19.25 64.2797 13.6036 54.9563 13.6036 44.6477V32.3749C13.6036 31.6869 13.0459 31.1298 12.3585 31.1298C11.6704 31.1298 11.1134 31.6869 11.1134 32.3749V44.6477C11.1134 49.4038 12.2087 53.9089 14.1593 57.9238L7.94933 64.1357C7.46296 64.6228 7.46296 65.4107 7.94933 65.897C8.19252 66.1402 8.51093 66.2615 8.82999 66.2615C9.14841 66.2615 9.46747 66.1402 9.71065 65.897L15.3947 60.211C17.8953 64.4042 21.3745 67.9502 25.5139 70.5306L13.5919 82.4525C13.5699 82.4752 13.5096 82.5349 13.4006 82.4992C13.2904 82.4629 13.2767 82.376 13.2728 82.3475L12.2534 75.808C12.0731 74.6524 11.175 73.7536 10.018 73.5727L3.4773 72.5532C3.44876 72.5493 3.36316 72.5357 3.3275 72.4261C3.29179 72.3177 3.35137 72.2564 3.37249 72.2346L3.37354 72.2335L6.19256 69.4145C6.67893 68.9281 6.67893 68.1402 6.19256 67.6538C5.70553 67.1675 4.91761 67.1681 4.43189 67.6538L1.61287 70.4728C0.89563 71.1901 0.64531 72.2342 0.959832 73.1978C1.2737 74.1621 2.09146 74.8573 3.09339 75.0143L9.63413 76.0331C9.71649 76.046 9.78004 76.1096 9.79301 76.1919L10.8125 82.7314C10.9687 83.734 11.6646 84.5524 12.6282 84.8662C12.9032 84.9564 13.1847 84.9998 13.4635 84.9998C14.1613 84.9998 14.8409 84.7262 15.3532 84.2132L27.7629 71.8036C31.9152 73.9261 36.6149 75.1245 41.5895 75.1245C46.5641 75.1245 51.2644 73.9261 55.4161 71.8036L67.8257 84.2132C68.3387 84.7262 69.0183 84.9998 69.7155 84.9998C69.9943 84.9998 70.2758 84.9564 70.5514 84.8662C71.515 84.5524 72.2109 83.734 72.3672 82.7314L73.3866 76.1919C73.3989 76.1096 73.4631 76.046 73.5448 76.0331L80.0862 75.0136C81.0875 74.8573 81.9053 74.1615 82.2198 73.1978C82.5337 72.2342 82.2833 71.1901 81.5661 70.4728ZM15.9998 44.6478C15.9998 58.7585 27.4788 70.2375 41.5895 70.2375C55.7151 70.2375 67.1793 58.7442 67.1793 44.6478V32.3749C67.1793 31.6869 66.6216 31.1298 65.9341 31.1298C65.2461 31.1298 64.689 31.6869 64.689 32.3749V44.6478C64.689 48.8429 63.5645 52.7806 61.6015 56.1748L52.5615 47.1335C52.0751 46.6477 51.2865 46.6471 50.8008 47.1335C50.3144 47.6198 50.3144 48.4084 50.8001 48.8948L60.2092 58.3039C56.0011 64.0269 49.2217 67.7473 41.5895 67.7473C28.8524 67.7473 18.49 57.3849 18.49 44.6484V16.5821L37.6025 35.6959C37.8457 35.9391 38.1641 36.0604 38.4832 36.0604C38.8016 36.0604 39.12 35.9391 39.3632 35.6959C39.8496 35.2095 39.8496 34.421 39.3639 33.9346L20.8427 15.4135C21.9737 15.5827 23.1203 15.6683 24.274 15.6683C30.9541 15.6683 37.2134 12.813 41.5895 7.80333C45.9649 12.813 52.2242 15.6683 58.9051 15.6683C60.8661 15.6683 62.8071 15.4212 64.689 14.9336V27.3945C64.689 28.0819 65.2461 28.6396 65.9341 28.6396C66.6216 28.6396 67.1793 28.0819 67.1793 27.3945V13.9141C67.1793 13.37 66.9179 12.8519 66.4795 12.5289C66.0437 12.2073 65.4744 12.11 64.9575 12.2695C63.0042 12.872 60.9679 13.1781 58.9051 13.1781C52.6717 13.1781 46.8495 10.3902 42.9319 5.53035C42.6025 5.12114 42.1129 4.88704 41.5895 4.88704C41.0655 4.88704 40.5759 5.12114 40.2465 5.53035C36.3289 10.3902 30.5073 13.1781 24.274 13.1781C22.2111 13.1781 20.1748 12.872 18.2209 12.2695C17.704 12.11 17.1353 12.2073 16.6988 12.5289C16.5464 12.6411 16.4161 12.7773 16.3097 12.9291C16.302 12.9401 16.2948 12.9505 16.2877 12.9615C16.1133 13.2222 16.0147 13.5237 16.0011 13.8376C16.0011 13.8447 16.0011 13.8519 16.0004 13.859V13.8707C16.0004 13.8729 16.0003 13.8752 16.0001 13.8776C15.9999 13.8802 15.9998 13.8829 15.9998 13.8856V13.9109V13.9128V44.6478ZM38.2251 40.6717L49.0997 28.8541C51.1717 26.6019 54.6898 26.456 56.942 28.5279C59.1936 30.6005 59.3395 34.1186 57.2676 36.3702L42.998 51.8778C41.8015 53.1787 40.1012 53.9329 38.3327 53.9478H38.2808C36.5318 53.9478 34.8379 53.2208 33.633 51.9536L25.9717 43.8948C23.8634 41.6762 23.9529 38.1562 26.1708 36.0479C28.3886 33.939 31.9087 34.0285 34.0176 36.2464L38.2251 40.6717ZM55.4356 34.6841C56.5776 33.4429 56.4971 31.5033 55.2559 30.3606C54.014 29.2179 52.0744 29.299 50.9324 30.5402L39.1556 43.3383C38.9228 43.5919 38.594 43.7372 38.2497 43.7404H38.2393C37.8982 43.7404 37.572 43.6003 37.3373 43.3526L32.2128 37.9623C31.6123 37.3307 30.8036 37.0122 29.9943 37.0122C29.2369 37.0122 28.4781 37.2905 27.8867 37.8527C26.6636 39.0155 26.6143 40.9558 27.7771 42.1788L35.4385 50.2377C36.1751 51.0127 37.2108 51.4575 38.2808 51.4575H38.323C39.3943 51.4485 40.4338 50.9874 41.1653 50.1917L55.4356 34.6841Z" fill="url(#paint0_linear)"/>
<defs>
<linearGradient id="paint0_linear" x1="41.5896" y1="0" x2="41.5896" y2="84.9999" gradientUnits="userSpaceOnUse">
<stop stop-color="#FF4D6A"/>
<stop offset="1" stop-color="#FFCE00"/>
</linearGradient>
</defs>
</svg>
