<svg width="85" height="85" viewBox="0 0 85 85" fill="none" xmlns="http://www.w3.org/2000/svg">
<g clip-path="url(#clip0)">
<path fill-rule="evenodd" clip-rule="evenodd" d="M74.1414 26.2071H77.7204C81.7345 26.2071 85.0002 29.4727 85 33.4867V41.7403C85 42.4462 84.4281 43.0182 83.7222 43.0182H64.0602C63.3543 43.0182 62.7824 42.4462 62.7824 41.7403C62.7824 41.0344 63.3543 40.4625 64.0602 40.4625H82.4444V33.4867C82.4444 30.8817 80.325 28.7625 77.7202 28.7625H72.8634C72.1575 28.7625 71.5856 28.1906 71.5856 27.4847V23.3542C71.5856 22.91 71.8124 22.5185 72.1567 22.2896L74.4824 19.7281C75.2137 18.9229 75.6164 17.8802 75.6164 16.7923V10.96C75.6164 8.29094 73.445 6.11961 70.7759 6.11961H67.3739C64.7049 6.11961 62.5336 8.29094 62.5336 10.96V16.7923C62.5336 17.8802 62.9362 18.9229 63.6675 19.7281L65.993 22.2892C66.3375 22.5182 66.5644 22.9096 66.5644 23.3542V27.4847C66.5644 28.1906 65.9925 28.7625 65.2866 28.7625H60.4298C58.0988 28.7625 56.158 30.46 55.7754 32.6833C58.4197 34.0008 60.2414 36.7315 60.2414 39.881V49.177C60.2414 49.8829 59.6695 50.4548 58.9636 50.4548H25.9702C25.2645 50.4548 24.6924 49.8829 24.6924 49.177V39.881C24.6924 36.7071 26.5415 33.9578 29.2188 32.6523C28.8235 30.4441 26.8901 28.7625 24.57 28.7625H19.7132C19.0075 28.7625 18.4354 28.1906 18.4354 27.4847V23.3542C18.4354 22.91 18.6622 22.5185 19.0063 22.2896L21.3322 19.7281C22.0635 18.9229 22.4663 17.8802 22.4663 16.7923V10.96C22.4663 8.29094 20.2948 6.11961 17.6257 6.11961H14.2237C11.5547 6.11961 9.38339 8.29094 9.38339 10.96V16.7924C9.38339 17.8804 9.78614 18.9229 10.5174 19.7283L12.8432 22.2896C13.1875 22.5185 13.4144 22.91 13.4144 23.3544V27.4849C13.4144 28.1908 12.8423 28.7627 12.1366 28.7627H7.2798C4.67484 28.7627 2.55565 30.8821 2.55565 33.4868V40.4627H21.1596C21.8653 40.4627 22.4374 41.0346 22.4374 41.7405C22.4374 42.4464 21.8653 43.0183 21.1596 43.0183H1.27782C0.572091 43.0183 0 42.4464 0 41.7405V33.4868C0 29.4727 3.2657 26.2071 7.2798 26.2071H10.8588V23.9057L8.62553 21.4462C7.46624 20.1697 6.8279 18.5169 6.8279 16.7923V10.96C6.8279 6.88196 10.1457 3.56396 14.2239 3.56396H17.6256C21.7038 3.56396 25.0218 6.88179 25.0218 10.96V16.7923C25.0218 18.5169 24.3834 20.1695 23.2241 21.4462L20.9911 23.9056V26.2071H24.57C28.0442 26.2071 30.956 28.654 31.6768 31.9147C32.0217 31.8692 32.3726 31.8435 32.7297 31.8435H36.9219V29.028L34.365 26.212C33.0865 24.8037 32.3822 22.9807 32.3822 21.0788V14.5099C32.3822 10.0057 36.0465 6.34141 40.5509 6.34141C41.2566 6.34141 41.8287 6.91334 41.8287 7.61924C41.8287 8.32514 41.2566 8.89706 40.5509 8.89706C37.4557 8.89706 34.9379 11.415 34.9379 14.5099V21.0786C34.9379 22.344 35.4066 23.5569 36.2572 24.4938L38.8906 27.3939C39.2438 27.6212 39.4779 28.018 39.4779 28.4693V33.1214C39.4779 33.8273 38.9058 34.3993 38.2001 34.3993H32.73C32.1682 34.3993 31.6257 34.4848 31.1149 34.6425C31.0264 34.6843 30.9328 34.717 30.8345 34.7376C28.7433 35.5109 27.2482 37.5247 27.2482 39.8815V47.8997H57.6861V39.8815C57.6861 36.8586 55.2267 34.3994 52.204 34.3994H46.734C46.0281 34.3994 45.4562 33.8275 45.4562 33.1216V28.4695C45.4562 28.018 45.6902 27.6213 46.0435 27.3941L48.6769 24.4939C49.5274 23.5571 49.9959 22.3444 49.9959 21.0788V14.5099C49.9959 11.4149 47.4779 8.89706 44.3829 8.89706C43.677 8.89706 43.105 8.32514 43.105 7.61924C43.105 6.91334 43.677 6.34141 44.3829 6.34141C48.8871 6.34141 52.5515 10.0056 52.5515 14.5099V21.079C52.5515 22.981 51.8473 24.8041 50.5688 26.2122L48.0115 29.0283V31.8436H52.2037C52.5829 31.8436 52.9554 31.8718 53.3208 31.923C54.0387 28.6581 56.9528 26.2071 60.4298 26.2071H64.0088V23.9059L61.7754 21.4462C60.6164 20.1697 59.9779 18.5169 59.9779 16.7923V10.96C59.9779 6.88196 63.2957 3.56396 67.3739 3.56396H70.7759C74.8541 3.56396 78.1721 6.88179 78.1721 10.96V16.7923C78.1721 18.5169 77.5338 20.1695 76.3745 21.4462L74.1414 23.9056V26.2071ZM54.3425 65.7834C54.8143 65.8609 55.2033 66.1951 55.3507 66.6497C55.4984 67.1042 55.3802 67.6031 55.0434 67.9431L50.0699 72.9729L51.1374 79.9655C51.2094 80.438 51.012 80.9113 50.6252 81.192C50.2389 81.4732 49.7277 81.5147 49.3006 81.3001L42.9798 78.1242L36.6591 81.3001C36.4778 81.3912 36.2812 81.4362 36.0857 81.4362C35.8206 81.4362 35.5569 81.3537 35.3345 81.192C34.9476 80.9113 34.7503 80.438 34.8223 79.9655L35.8896 72.9729L30.9161 67.9431C30.5801 67.6031 30.4617 67.1042 30.6095 66.6497C30.7572 66.1949 31.1462 65.8609 31.6179 65.7834L38.5982 64.6375L41.8449 58.3528C42.0643 57.928 42.5022 57.6614 42.9802 57.6614C43.4581 57.6614 43.8961 57.9283 44.1154 58.3528L47.3621 64.6375L54.3425 65.7834ZM47.4473 72.7235C47.3866 72.3244 47.5179 71.9197 47.8019 71.6323L51.4873 67.9046L46.3143 67.0556C45.9157 66.99 45.5715 66.7398 45.3861 66.381L42.98 61.7235L40.5738 66.381C40.3885 66.7398 40.0442 66.99 39.6456 67.0556L34.4725 67.9046L38.1587 71.6323C38.4428 71.9193 38.5743 72.3241 38.5133 72.7235L37.7224 77.9055L42.4067 75.5521C42.7677 75.3708 43.193 75.3708 43.5541 75.5521L48.2384 77.9055L47.4473 72.7235ZM83.3224 57.2539C83.1746 56.7993 82.786 56.4652 82.3145 56.3876L75.3342 55.2418L72.0872 48.9571C71.8679 48.5326 71.43 48.2656 70.952 48.2656C70.4739 48.2656 70.0361 48.5322 69.8168 48.9571L66.57 55.2418L59.5896 56.3876C59.1179 56.4652 58.7289 56.7992 58.5812 57.2539C58.4334 57.7084 58.5516 58.2075 58.8878 58.5473L63.8615 63.5771L62.794 70.5699C62.722 71.0424 62.9193 71.5157 63.3062 71.7964C63.693 72.0773 64.204 72.1193 64.6308 71.9045L70.9515 68.7286L77.2723 71.9045C77.4535 71.9956 77.6501 72.0406 77.8457 72.0406C78.111 72.0406 78.3746 71.9583 78.5969 71.7964C78.9837 71.5157 79.1811 71.0424 79.1091 70.5699L78.0416 63.5771L83.0152 58.5473C83.3519 58.2075 83.4701 57.7084 83.3224 57.2539ZM75.7736 62.2367C75.4896 62.5239 75.3583 62.9288 75.419 63.3279L76.2101 68.5101L71.5258 66.1567C71.3452 66.066 71.1488 66.0205 70.952 66.0205C70.7553 66.0205 70.5587 66.066 70.3783 66.1567L65.694 68.5101L66.485 63.3279C66.5458 62.9285 66.4145 62.5237 66.1304 62.2367L62.4444 58.5091L67.6174 57.6601C68.0162 57.5946 68.3604 57.3444 68.5456 56.9856L70.9517 52.328L73.3579 56.9856C73.5434 57.3444 73.8875 57.5946 74.2861 57.6601L79.459 58.5091L75.7736 62.2367ZM26.3708 56.3876C26.8424 56.4652 27.2316 56.7993 27.3792 57.2541C27.5269 57.7086 27.4084 58.2075 27.0719 58.5475L22.0984 63.5773L23.1657 70.57C23.2377 71.0425 23.0403 71.5158 22.6535 71.7966C22.4312 71.9584 22.1674 72.0408 21.9023 72.0408C21.7067 72.0408 21.5102 71.9958 21.3289 71.9046L15.0083 68.7288L8.68759 71.9046C8.26059 72.1195 7.7496 72.0775 7.36295 71.7966C6.97613 71.5158 6.77874 71.0425 6.85079 70.57L7.9181 63.5773L2.94443 58.5475C2.60841 58.2077 2.49005 57.7086 2.6378 57.2541C2.78555 56.7993 3.17453 56.4653 3.64618 56.3878L10.6265 55.2419L13.8729 48.9571C14.0924 48.5322 14.5302 48.2656 15.0083 48.2656C15.4864 48.2656 15.9242 48.5326 16.1437 48.9571L19.3905 55.2418L26.3708 56.3876ZM19.4755 63.3279C19.4145 62.9288 19.546 62.5239 19.8301 62.2367L23.5163 58.5091L18.3432 57.6601C17.9446 57.5946 17.6003 57.3444 17.4149 56.9856L15.0088 52.328L12.6027 56.9856C12.4173 57.3444 12.073 57.5946 11.6744 57.6601L6.50132 58.5091L10.1869 62.2367C10.4709 62.5237 10.6024 62.9285 10.5415 63.3279L9.75042 68.5101L14.4347 66.1567C14.6152 66.066 14.8117 66.0205 15.0085 66.0205C15.2052 66.0205 15.4018 66.0659 15.5822 66.1567L20.2664 68.5101L19.4755 63.3279Z" fill="url(#paint0_linear)"/>
</g>
<defs>
<linearGradient id="paint0_linear" x1="42.5" y1="3.56396" x2="42.5" y2="81.4362" gradientUnits="userSpaceOnUse">
<stop stop-color="#FF4D6A"/>
<stop offset="1" stop-color="#FFCE00"/>
</linearGradient>
<clipPath id="clip0">
<rect width="85" height="85" fill="white"/>
</clipPath>
</defs>
</svg>
