<svg width="79" height="79" viewBox="0 0 79 79" fill="none" xmlns="http://www.w3.org/2000/svg">
<path fill-rule="evenodd" clip-rule="evenodd" d="M50.8906 45.5625C49.2618 45.5625 47.6899 45.8093 46.2028 46.2523C43.0096 42.7756 38.6065 40.7303 33.8895 40.5405C37.351 38.2662 39.8202 34.6174 40.5365 30.3763H40.7656C43.5576 30.3763 45.8281 28.1057 45.8281 25.3138C45.8281 22.8749 44.0942 20.8335 41.7946 20.3563L43.0058 18.5401C44.8523 15.7684 45.8281 12.5436 45.8281 9.21502C45.8281 4.1348 41.6933 0 36.6131 0C34.8729 0 33.2377 0.677109 32.0037 1.90856L31.9062 2.00602L31.8075 1.9073C30.5761 0.677109 28.9396 0 27.1994 0H16.3087C10.2539 0 5.32812 4.92581 5.32812 10.9806C5.32812 13.1562 5.966 15.2622 7.17214 17.0707L9.36167 20.355C7.06203 20.8322 5.32812 22.8736 5.32812 25.3125C5.32812 28.1045 7.59866 30.375 10.3906 30.375H10.6197C11.336 34.6148 13.8027 38.2624 17.2617 40.5367C7.82773 40.9202 0.265625 48.6924 0.265625 58.2188V77.2031C0.265625 77.903 0.832625 78.4688 1.53125 78.4688H50.8906C59.9626 78.4688 67.3438 71.0876 67.3438 62.0156C67.3438 52.9436 59.9626 45.5625 50.8906 45.5625ZM18.8058 43.0312L23.6835 46.9332L20.8624 49.753L17.5136 43.054C17.5831 43.0523 17.6521 43.0477 17.7212 43.043C17.8082 43.0371 17.8955 43.0312 17.9844 43.0312H18.8058ZM28.298 43.0312L25.5781 45.2081L22.8583 43.0312H28.298ZM23.9176 53.2866L24.6821 54.051C25.1769 54.5459 25.9768 54.5459 26.4717 54.051L27.2361 53.2866L29.2902 66.6377L25.5781 70.351L21.8635 66.6364L23.9176 53.2866ZM25.5781 51.3667L24.2037 49.9922L25.5781 48.6177L26.9526 49.9922L25.5781 51.3667ZM27.4728 46.9332L32.3505 43.0312H33.1719C33.2585 43.0312 33.344 43.0377 33.4297 43.0442L33.4298 43.0442C33.5004 43.0495 33.5712 43.0548 33.6427 43.0566L30.2938 49.753L27.4728 46.9332ZM28.1094 20.25C27.4107 20.25 26.8438 20.8157 26.8438 21.5156V22.7812H24.3125V21.5156C24.3125 20.8157 23.7455 20.25 23.0469 20.25H12.9219V17.7188H17.9844C21.2029 17.7188 24.0265 15.9937 25.5781 13.4194C27.1298 15.9937 29.9534 17.7188 33.1719 17.7188H38.2344V20.25H28.1094ZM34.4375 22.7812V25.3125H29.375V22.7812H34.4375ZM21.7812 22.7812V25.3125H16.7188V22.7812H21.7812ZM43.2969 25.3125C43.2969 26.7085 42.1616 27.8438 40.7656 27.8438V22.7812C42.1616 22.7812 43.2969 23.9165 43.2969 25.3125ZM9.27814 15.6672C8.35044 14.2737 7.85938 12.6537 7.85938 10.9806C7.85938 6.3218 11.6499 2.53125 16.3087 2.53125H27.1994C28.2638 2.53125 29.2649 2.94511 30.0179 3.69816L31.0115 4.69167C31.4873 5.16628 32.3264 5.16628 32.8023 4.69167L33.7946 3.69942C34.5476 2.94511 35.5487 2.53125 36.6131 2.53125C40.2986 2.53125 43.2969 5.52952 43.2969 9.21502C43.2969 12.0424 42.4679 14.7812 40.8985 17.1353L40.7656 17.3353V16.4531C40.7656 15.7532 40.1986 15.1875 39.5 15.1875H33.1719C29.6825 15.1875 26.8438 12.3487 26.8438 8.85938C26.8438 8.15948 26.2768 7.59375 25.5781 7.59375C24.8795 7.59375 24.3125 8.15948 24.3125 8.85938C24.3125 12.3487 21.4737 15.1875 17.9844 15.1875H11.6562C10.9576 15.1875 10.3906 15.7532 10.3906 16.4531V17.3353L9.27814 15.6672ZM7.85938 25.3125C7.85938 23.9165 8.99464 22.7812 10.3906 22.7812V27.8438C8.99464 27.8438 7.85938 26.7085 7.85938 25.3125ZM12.9219 27.8438V22.7812H14.1875V26.5781C14.1875 27.278 14.7545 27.8438 15.4531 27.8438H23.0469C23.7455 27.8438 24.3125 27.278 24.3125 26.5781V25.3125H26.8438V26.5781C26.8438 27.278 27.4107 27.8438 28.1094 27.8438H35.7031C36.4017 27.8438 36.9688 27.278 36.9688 26.5781V22.7812H38.2344V27.8438C38.2344 34.8224 32.5568 40.5 25.5781 40.5C18.5995 40.5 12.9219 34.8224 12.9219 27.8438ZM10.3906 75.9375V56.9531H7.85938V75.9375H2.79688V58.2188C2.79688 50.9237 7.96822 44.817 14.8368 43.3641L19.3829 52.4576C19.5651 52.8209 19.9107 53.0752 20.3119 53.1411C20.3802 53.1512 20.4485 53.1562 20.5156 53.1562C20.8485 53.1562 21.1712 53.0246 21.4104 52.7854L21.4383 52.7576L19.2652 66.8857C19.2044 67.2844 19.3361 67.6882 19.6208 67.9729L24.6833 73.0354C24.9301 73.2822 25.2541 73.4062 25.5781 73.4062C25.9021 73.4062 26.2261 73.2822 26.4729 73.0354L31.5354 67.9729C31.8202 67.6869 31.9531 67.2844 31.8911 66.8857L29.718 52.7576L29.7458 52.7854C29.985 53.0246 30.3078 53.1562 30.6406 53.1562C30.7077 53.1562 30.776 53.1512 30.8431 53.1398C31.2443 53.074 31.5898 52.8196 31.7721 52.4564L36.317 43.3666C39.076 43.9488 41.6237 45.2828 43.6753 47.2508C38.2154 49.9314 34.4375 55.5331 34.4375 62.0156C34.4375 67.8793 37.5307 73.0228 42.1629 75.9375H10.3906ZM50.8906 75.9375C43.2146 75.9375 36.9688 69.6916 36.9688 62.0156C36.9688 54.3396 43.2146 48.0938 50.8906 48.0938C58.5666 48.0938 64.8125 54.3396 64.8125 62.0156C64.8125 69.6916 58.5666 75.9375 50.8906 75.9375ZM63.5469 12.6562C55.1722 12.6562 48.3594 19.4691 48.3594 27.8438C48.3594 36.2184 55.1722 43.0312 63.5469 43.0312C71.9215 43.0312 78.7344 36.2184 78.7344 27.8438C78.7344 19.4691 71.9215 12.6562 63.5469 12.6562ZM63.5469 40.5C56.5682 40.5 50.8906 34.8224 50.8906 27.8438C50.8906 20.8651 56.5682 15.1875 63.5469 15.1875C70.5255 15.1875 76.2031 20.8651 76.2031 27.8438C76.2031 34.8224 70.5255 40.5 63.5469 40.5ZM30.6406 32.9062V31.6406H28.1094V32.9062C28.1094 34.3022 26.9741 35.4375 25.5781 35.4375C24.1821 35.4375 23.0469 34.3022 23.0469 32.9062V31.6406H20.5156V32.9062C20.5156 35.6982 22.7862 37.9688 25.5781 37.9688C28.3701 37.9688 30.6406 35.6982 30.6406 32.9062ZM53.4219 58.2188C53.4219 56.8228 52.2866 55.6875 50.8906 55.6875C49.4946 55.6875 48.3594 56.8228 48.3594 58.2188C48.3594 59.6147 49.4946 60.75 50.8906 60.75C53.6826 60.75 55.9531 63.0205 55.9531 65.8125C55.9531 68.1653 54.3331 70.1295 52.1562 70.6953V73.4062H49.625V70.6953C47.4481 70.1295 45.8281 68.1653 45.8281 65.8125H48.3594C48.3594 67.2085 49.4946 68.3438 50.8906 68.3438C52.2866 68.3438 53.4219 67.2085 53.4219 65.8125C53.4219 64.4165 52.2866 63.2812 50.8906 63.2812C48.0987 63.2812 45.8281 61.0107 45.8281 58.2188C45.8281 55.866 47.4481 53.9017 49.625 53.336V50.625H52.1562V53.336C54.3331 53.9017 55.9531 55.866 55.9531 58.2188H53.4219ZM59.3792 28.2146L61.0156 29.851L67.7146 23.1521L69.5042 24.9417L61.9104 32.5354C61.6636 32.7822 61.3396 32.9062 61.0156 32.9062C60.6916 32.9062 60.3676 32.7822 60.1208 32.5354L57.5896 30.0042L59.3792 28.2146Z" fill="url(#paint0_linear)"/>
<defs>
<linearGradient id="paint0_linear" x1="39.5" y1="0" x2="39.5" y2="78.4688" gradientUnits="userSpaceOnUse">
<stop stop-color="#FF4D6A"/>
<stop offset="1" stop-color="#FFCE00"/>
</linearGradient>
</defs>
</svg>
