<svg width="306" height="446" viewBox="0 0 306 446" fill="none" xmlns="http://www.w3.org/2000/svg">
<path d="M263.753 106.955C265.903 118.932 266.824 130.755 266.671 141.964C266.671 143.346 266.671 144.728 266.517 146.11C266.517 147.799 266.364 149.488 266.21 151.331C257.304 132.905 234.579 120.007 208.015 120.007C206.941 120.007 205.712 120.007 204.637 120.007C204.791 119.546 204.791 119.239 205.098 118.625C205.098 118.318 205.252 117.857 205.405 117.55C205.405 117.55 205.405 117.55 205.405 117.397C205.405 117.243 205.405 117.09 205.559 116.936C205.712 116.168 205.866 115.401 206.019 114.479C206.48 112.023 206.787 109.566 207.094 107.109C207.094 106.648 207.248 106.188 207.248 105.727C207.248 105.42 207.401 104.959 207.401 104.652C207.555 103.731 207.555 102.81 207.708 101.888C208.015 97.7426 208.322 93.5968 208.322 89.2975C208.322 88.2226 208.322 87.3014 208.322 86.3801C208.322 86.073 208.322 85.7659 208.322 85.4588C208.322 84.8446 208.322 84.2304 208.322 83.7698C208.322 83.1556 208.322 82.6949 208.322 82.0807C208.322 81.7736 208.322 81.4665 208.322 81.313C208.322 81.1594 208.322 80.8523 208.322 80.6988C208.322 80.2382 208.322 79.9311 208.322 79.4704C208.322 79.3169 208.322 79.1633 208.322 79.0098C208.322 78.0885 208.169 77.3207 208.169 76.553C208.015 75.4782 208.015 74.2498 207.862 73.1749C207.862 72.8678 207.708 72.4072 207.708 72.1001C207.555 71.1788 207.555 70.2575 207.401 69.3362C207.401 69.3362 207.401 69.3363 207.401 69.1827C207.248 68.1079 207.094 67.1866 206.941 66.1117C206.787 65.344 206.633 64.5763 206.48 63.8085C206.48 63.5014 206.326 63.1943 206.326 62.8872C206.326 62.5801 206.173 62.4266 206.173 62.1195C206.019 61.3517 205.866 60.7376 205.712 59.9698C205.712 59.8163 205.712 59.6627 205.559 59.5092C205.405 59.0485 205.405 58.5879 205.252 58.1272C205.098 57.6666 205.098 57.2059 204.944 56.7453V56.5918C204.791 55.6705 204.484 54.7492 204.33 53.9814C204.023 52.9066 203.716 51.8318 203.409 50.6034C203.255 49.8356 202.948 49.0679 202.641 48.3002C202.641 48.1466 202.641 48.1466 202.488 47.9931C202.334 47.686 202.334 47.3789 202.181 47.0718C202.027 46.4576 201.72 45.8434 201.566 45.2292C201.413 44.7686 201.259 44.3079 201.106 43.8473C200.952 43.5402 200.952 43.2331 200.799 43.0795C200.799 42.926 200.645 42.7724 200.645 42.4653C200.338 41.5441 199.877 40.6228 199.57 39.7015C199.417 39.2408 199.263 38.7802 198.956 38.3195C198.803 37.8589 198.649 37.3983 198.342 37.0912C198.188 36.9376 198.188 36.6305 198.035 36.477C197.728 35.8628 197.421 35.2486 197.114 34.4808C196.96 34.0202 196.653 33.5596 196.499 33.2525C196.346 32.7918 196.039 32.3312 195.885 31.8705C195.885 31.8705 195.885 31.717 195.732 31.717C195.578 31.4099 195.424 31.2563 195.271 30.9492C195.117 30.6421 194.964 30.3351 194.81 30.028C194.81 29.8744 194.657 29.7209 194.657 29.5673C194.657 29.4138 194.503 29.4138 194.503 29.2602C194.043 28.4925 193.735 27.8783 193.275 27.2641C192.814 26.4963 192.354 25.7286 191.893 24.9609C191.586 24.6538 191.432 24.1931 191.125 23.886C190.972 23.7325 190.972 23.5789 190.818 23.4254C190.511 22.9647 190.204 22.5041 189.897 22.197C189.436 21.5828 189.129 21.1222 188.668 20.508C188.515 20.2009 188.208 19.8938 188.054 19.7402C187.747 19.2796 187.44 18.9725 187.133 18.6654C186.979 18.5119 186.979 18.3583 186.826 18.2048C186.519 17.7441 186.212 17.437 185.751 16.9764C185.597 16.8228 185.444 16.5157 185.137 16.3622C184.523 15.5944 183.908 14.9802 183.141 14.2125C182.834 13.9054 182.526 13.5983 182.066 13.1377C181.759 12.8306 181.452 12.5235 181.145 12.3699C181.145 12.2164 180.991 12.2164 180.837 12.0628C180.684 11.9093 180.377 11.7557 180.223 11.4486C179.302 10.5273 178.381 9.75961 177.306 8.99187C176.845 8.68477 176.538 8.37768 176.077 8.07059C175.924 8.07059 175.924 7.91704 175.77 7.91704C175.617 7.76349 175.31 7.60994 175.156 7.45639C175.003 7.30284 174.849 7.1493 174.542 7.1493H174.388C172.853 6.07446 171.317 5.15317 169.628 4.38543C170.55 4.23188 171.317 3.92478 172.239 3.77124C187.133 1.16092 202.334 6.22801 216.153 16.9764C216.307 17.1299 216.461 17.1299 216.614 17.2835C216.768 17.437 216.921 17.437 217.075 17.5906C217.842 18.2048 218.61 18.8189 219.378 19.5867C219.992 20.0473 220.606 20.6615 221.221 21.1222C221.835 21.7364 222.602 22.3505 223.217 22.9647C223.831 23.5789 224.445 24.1931 225.059 24.8073C225.673 25.4215 226.288 26.1892 227.055 26.8034C227.67 27.5712 228.284 28.1854 228.898 28.9531C229.666 29.8744 230.433 30.6421 231.048 31.5634C231.508 32.1776 232.122 32.7918 232.583 33.406C233.811 34.9415 234.886 36.3234 235.961 37.8589C235.961 38.0124 236.115 38.0124 236.115 38.166C236.729 38.9337 237.343 39.855 237.804 40.6228C238.418 41.3905 238.879 42.3118 239.493 43.2331C240.107 44.0008 240.568 44.9221 241.028 45.6898C241.182 45.8434 241.335 46.1505 241.335 46.304C241.796 47.0718 242.257 47.8395 242.717 48.6073C243.331 49.5285 243.792 50.4498 244.253 51.3711C244.713 52.2924 245.328 53.2137 245.788 54.135C246.863 56.1311 247.784 57.9737 248.706 59.9698C249.627 61.9659 250.548 63.9621 251.469 66.1117C251.93 67.1866 252.391 68.1079 252.851 69.1827C253.312 70.104 253.619 71.1788 254.08 72.1001C254.08 72.2537 254.233 72.4072 254.233 72.5608C254.54 73.482 255.001 74.5569 255.308 75.4782C255.769 76.553 256.076 77.6278 256.383 78.7027C256.69 79.624 256.997 80.6988 257.304 81.6201C257.458 81.9272 257.458 82.2343 257.611 82.5414C257.919 83.4627 258.226 84.5375 258.533 85.4588C258.84 86.5336 259.147 87.6085 259.454 88.6833C259.454 88.8368 259.608 88.9904 259.608 89.2975C259.761 90.0652 260.068 90.833 260.222 91.4472C260.375 92.0614 260.529 92.522 260.682 93.1362C261.297 95.4394 261.757 97.7426 262.371 100.046C262.525 100.814 262.678 101.735 262.832 102.503C263.139 104.192 263.446 105.574 263.753 106.955Z" fill="url(#paint0_linear)"/>
<path d="M215.846 16.823C246.249 20.2011 279.108 52.2926 295.845 98.357C305.518 124.921 307.975 151.331 304.443 173.135C301.219 160.697 287.092 151.178 270.049 151.178C268.667 151.178 267.285 151.178 266.056 151.331C266.21 149.642 266.363 147.953 266.363 146.11C266.363 144.728 266.517 143.347 266.517 141.965C266.671 130.756 265.749 118.932 263.6 106.956C263.292 105.574 263.139 104.038 262.832 102.656C262.678 101.735 262.525 100.967 262.371 100.2C261.911 97.8964 261.296 95.5931 260.682 93.2899C260.529 92.6757 260.375 92.2151 260.222 91.6009C260.068 90.8331 259.914 90.0654 259.607 89.4512C259.607 89.2977 259.454 89.1441 259.454 88.837C259.147 87.7622 258.84 86.6873 258.533 85.6125C258.225 84.6912 257.918 83.6164 257.611 82.6951C257.458 82.388 257.458 82.0809 257.304 81.7738C256.997 80.8525 256.69 79.7777 256.383 78.8564C256.076 77.7816 255.615 76.7067 255.308 75.6319C255.001 74.7106 254.54 73.6358 254.233 72.7145C254.233 72.5609 254.08 72.4074 254.08 72.2538C253.619 71.179 253.312 70.2577 252.851 69.3364C252.391 68.2616 251.93 67.1867 251.469 66.2655C250.548 64.2693 249.627 62.1197 248.705 60.1235C247.784 58.1274 246.709 56.1313 245.788 54.2887C245.327 53.3674 244.713 52.4461 244.253 51.5249C243.792 50.6036 243.178 49.6823 242.717 48.761C242.256 47.9933 241.796 47.2255 241.335 46.4578C241.182 46.3042 241.182 46.1507 241.028 45.8436C240.567 45.0758 239.953 44.1545 239.493 43.3868C238.878 42.4655 238.418 41.6978 237.804 40.7765C237.189 39.8552 236.575 39.0875 236.115 38.3197C236.115 38.1662 235.961 38.1662 235.961 38.0126C234.886 36.4771 233.658 34.9417 232.583 33.5597C232.122 32.9455 231.508 32.3314 231.047 31.7172C230.28 30.7959 229.512 30.0281 228.898 29.1068C228.284 28.3391 227.669 27.7249 227.055 26.9572C226.441 26.1894 225.827 25.5752 225.059 24.961C224.445 24.3469 223.831 23.7327 223.216 23.1185C222.602 22.5043 221.835 21.8901 221.22 21.2759C220.606 20.6617 219.992 20.2011 219.378 19.7404C218.61 19.1262 217.842 18.512 217.075 17.7443C216.921 17.5907 216.767 17.4372 216.614 17.4372C216.153 17.1301 216 16.9765 215.846 16.823Z" fill="url(#paint1_linear)"/>
<path d="M100.992 117.243C100.378 114.019 99.764 110.794 99.4569 107.57C99.4569 107.109 99.3033 106.649 99.3033 106.188C99.3033 105.881 99.1498 105.42 99.1498 105.113C98.9962 104.192 98.9962 103.27 98.8427 102.349C98.5356 98.2034 98.2285 94.0576 98.2285 89.7582C98.2285 88.6834 98.2285 87.7621 98.2285 86.8408C98.2285 86.5337 98.2285 86.2266 98.2285 85.9195C98.2285 85.3054 98.2285 84.6912 98.2285 84.2305C98.2285 83.3092 98.2285 82.5415 98.382 81.6202C98.382 81.006 98.3821 80.3918 98.5356 79.9312C98.5356 79.7776 98.5356 79.6241 98.5356 79.4705C98.5356 78.5492 98.6891 77.7815 98.6891 77.0138C98.8427 75.9389 98.8427 74.7105 98.9963 73.6357C98.9963 73.3286 99.1498 72.868 99.1498 72.5609C99.3033 71.6396 99.3033 70.7183 99.4569 69.797C99.4569 69.797 99.4569 69.797 99.4569 69.6435C99.6104 68.5686 99.764 67.6473 99.9175 66.5725C100.071 65.8048 100.225 65.037 100.378 64.2693C100.378 63.9622 100.532 63.6551 100.532 63.348C100.532 63.0409 100.685 62.8874 100.685 62.5803C100.839 61.8125 100.992 61.1983 101.146 60.4306C101.146 60.277 101.146 60.1235 101.299 59.9699C101.453 59.0487 101.76 58.1274 101.914 57.2061V57.0525C102.067 56.1312 102.374 55.2099 102.528 54.4422C102.835 53.3674 103.142 52.2925 103.449 51.0642C103.756 50.1429 104.063 49.2216 104.37 48.3003C104.678 47.379 104.985 46.4577 105.292 45.5364C105.599 44.6151 105.906 43.6938 106.367 42.7726C106.674 41.8513 107.134 40.93 107.441 40.0087C107.595 39.5481 107.748 39.0874 108.056 38.6268C108.209 38.1661 108.363 37.7055 108.67 37.3984C108.823 36.9377 109.13 36.4771 109.284 36.17C109.438 35.7094 109.745 35.2487 109.898 34.9416C110.052 34.481 110.359 34.0203 110.512 33.7132C110.666 33.2526 110.973 32.7919 111.127 32.3313C111.28 32.0242 111.587 31.5636 111.741 31.2565C111.894 30.7958 112.201 30.4887 112.355 30.0281C112.508 29.5674 112.816 29.2603 112.969 28.7997C113.123 28.3391 113.43 28.0319 113.583 27.5713C114.044 26.8036 114.505 26.0358 114.965 25.2681C115.272 24.961 115.426 24.5003 115.733 24.1933C117.422 21.7365 119.265 19.2797 121.107 17.13C121.261 16.9765 121.414 16.6694 121.721 16.5159C122.336 15.7481 122.95 15.1339 123.717 14.3662C124.025 14.0591 124.332 13.752 124.792 13.2913C125.867 12.2165 127.096 11.1417 128.324 10.0668C128.631 9.75974 129.092 9.45264 129.552 9.14554C130.013 8.83845 130.32 8.53135 130.781 8.22426C131.395 7.76361 131.856 7.45652 132.47 6.99588C134.005 5.92104 135.541 5.1533 137.076 4.38556C142.297 1.77524 147.671 0.393311 153.352 0.393311C159.034 0.393311 164.561 1.77524 169.628 4.38556C171.317 5.1533 172.853 6.07459 174.388 7.14943C174.388 7.14943 174.388 7.14943 174.542 7.14943C175.002 7.45652 175.31 7.76362 175.77 7.91717C175.924 7.91717 175.924 8.07071 176.077 8.07071C176.538 8.37781 176.845 8.6849 177.306 8.992C177.613 9.29909 178.073 9.60619 178.381 9.91328C178.995 10.3739 179.609 10.9881 180.223 11.4488C180.53 11.7559 180.837 11.9094 181.144 12.2165C181.452 12.5236 181.759 12.8307 182.066 12.9842C182.373 13.2913 182.68 13.5984 183.141 14.0591C183.755 14.8268 184.523 15.441 185.137 16.2088C185.29 16.3623 185.444 16.6694 185.751 16.8229C186.212 17.2836 186.672 17.8978 187.133 18.512C187.44 18.8191 187.747 19.2797 188.054 19.5868C188.208 19.8939 188.515 20.0475 188.668 20.3546C189.129 20.9687 189.436 21.4294 189.897 22.0436C190.357 22.6578 190.664 23.272 191.125 23.8862C191.432 24.1933 191.586 24.6539 191.893 24.961C192.353 25.7287 192.814 26.4965 193.275 27.2642C193.428 27.5713 193.735 28.032 193.889 28.4926C194.042 28.7997 194.196 29.1068 194.35 29.4139C194.35 29.5674 194.503 29.5674 194.503 29.721C194.503 29.8745 194.657 30.0281 194.657 30.1816C194.81 30.4887 194.964 30.6423 195.117 30.9494C195.271 31.2565 195.424 31.5636 195.578 31.8707C195.578 31.8707 195.578 32.0242 195.732 32.0242C195.885 32.4848 196.192 32.9455 196.346 33.4061C196.499 33.8668 196.806 34.1739 196.96 34.6345C197.113 35.0952 197.421 35.5558 197.574 35.8629C197.728 36.0164 197.728 36.3235 197.881 36.4771C198.035 36.6306 198.035 36.9377 198.188 37.0913C198.342 37.5519 198.495 38.0126 198.802 38.3197C198.956 38.7803 199.11 39.241 199.417 39.7016C199.724 40.6229 200.184 41.5442 200.492 42.4655C200.645 42.9261 200.799 43.3868 200.952 43.8474C201.106 44.308 201.259 44.7687 201.413 45.2293C201.566 45.8435 201.873 46.4577 202.027 47.0719C202.181 47.5326 202.334 47.9932 202.488 48.3003C202.795 49.068 202.948 49.8358 203.255 50.6035C203.562 51.6783 203.87 52.7532 204.177 53.9816C204.484 54.9029 204.637 55.6706 204.791 56.5919V56.7454C204.944 57.2061 204.944 57.6667 205.098 58.1274C205.251 58.588 205.251 59.0487 205.405 59.5093C205.405 59.6628 205.405 59.8164 205.559 59.9699C205.712 60.5841 205.866 61.3519 206.019 62.1196C206.019 62.4267 206.173 62.5802 206.173 62.8873C206.173 63.1944 206.326 63.5015 206.326 63.8086C206.48 64.5764 206.633 65.3441 206.787 66.1119C206.94 67.1867 207.094 68.108 207.248 69.1828C207.248 69.1828 207.248 69.1828 207.248 69.3364C207.401 70.2576 207.555 71.1789 207.555 72.1002C207.555 72.4073 207.708 72.868 207.708 73.1751C207.862 74.2499 208.015 75.3248 208.015 76.5531C208.015 77.3209 208.169 78.2421 208.169 79.0099C208.169 79.1634 208.169 79.317 208.169 79.4705C208.169 79.9312 208.169 80.2383 208.169 80.6989C208.169 80.8525 208.169 81.1596 208.169 81.3131C208.169 81.6202 208.169 81.9273 208.169 82.0808C208.169 82.695 208.169 83.1557 208.169 83.7699C208.169 84.3841 208.169 84.9983 208.169 85.4589C208.169 85.766 208.169 86.0731 208.169 86.3802C208.169 87.3015 208.169 88.3763 208.169 89.2976C208.169 93.5969 208.015 97.7428 207.555 101.889C207.555 102.81 207.401 103.731 207.248 104.652C207.248 104.96 207.248 105.42 207.094 105.727C207.094 106.188 206.94 106.649 206.94 107.109C206.633 109.566 206.326 112.023 205.866 114.479C205.712 115.247 205.559 116.015 205.405 116.936C205.405 117.09 205.405 117.243 205.251 117.397C205.251 117.397 205.251 117.397 205.251 117.55C205.098 118.472 204.791 118.779 204.637 120.007C190.818 110.794 172.699 106.341 153.199 106.341C133.545 106.341 114.812 109.259 100.839 118.472C100.685 118.165 100.992 117.704 100.992 117.243Z" fill="url(#paint2_linear)"/>
<path d="M100.839 118.625C74.2752 118.625 49.0933 133.059 40.1875 151.484C40.0339 149.795 40.034 148.106 39.8804 146.264C39.8804 144.882 39.7268 143.5 39.7268 142.118C39.5733 130.909 40.4946 119.086 42.6442 107.109C42.9513 105.727 43.1049 104.192 43.412 102.81C43.5655 101.888 43.7191 101.121 43.8726 100.353C44.3333 98.0498 44.9475 95.7466 45.5617 93.4433C45.7152 92.8291 45.8688 92.3685 46.0223 91.7543C46.1759 90.9866 46.483 90.2188 46.6365 89.6046C46.6365 89.4511 46.7901 89.2975 46.7901 88.9904C47.0972 87.9156 47.4042 86.8408 47.7113 85.7659C48.0184 84.8446 48.3255 83.7698 48.6326 82.8485C48.7862 82.5414 48.7862 82.2343 48.9397 81.9272C49.2468 81.0059 49.5539 79.9311 49.861 79.0098C50.1681 77.935 50.6288 76.8601 50.9359 75.7853C51.243 74.864 51.7036 73.7892 52.0107 72.8679C52.0107 72.7143 52.1642 72.5608 52.1642 72.4072C52.6249 71.3324 52.932 70.4111 53.3926 69.4898C53.8533 68.415 54.3139 67.3402 54.7746 66.4189C55.6958 64.4227 56.6171 62.2731 57.5384 60.2769C58.4597 58.2808 59.5345 56.2847 60.4558 54.4421C60.9165 53.5208 61.5307 52.5995 61.9913 51.6783C62.452 50.757 63.0661 49.8357 63.5268 48.9144C63.9874 48.1466 64.4481 47.3789 64.9087 46.6112C65.0623 46.4576 65.0623 46.3041 65.2158 45.997C65.6765 45.2292 66.2907 44.3079 66.7513 43.5402C67.3655 42.6189 67.8261 41.8512 68.4403 40.9299C69.0545 40.0086 69.6687 39.2409 70.1294 38.4731C70.1294 38.3196 70.2829 38.3196 70.2829 38.166C71.3577 36.6305 72.5861 35.0951 73.661 33.7131C74.1216 33.0989 74.7358 32.4848 75.1964 31.8706C75.9642 30.9493 76.7319 30.1815 77.3461 29.2602C77.9603 28.4925 78.5745 27.8783 79.1887 27.1106C79.8029 26.3428 80.4171 25.7286 81.1848 25.1144C81.799 24.5002 82.4132 23.8861 83.0274 23.2719C83.6416 22.6577 84.4093 22.0435 85.0235 21.4293C85.6377 20.8151 86.2519 20.3545 86.8661 19.8938C87.6338 19.2796 88.4016 18.6654 89.1693 17.8977C89.3228 17.7441 89.4764 17.5906 89.6299 17.5906C89.7835 17.437 89.937 17.437 90.0906 17.2835C103.756 6.53513 118.958 1.46805 134.005 4.07837C134.927 4.23191 135.694 4.38546 136.616 4.69256C135.08 5.4603 133.545 6.38158 132.009 7.45642C131.395 7.76351 130.934 8.22416 130.32 8.68481C129.86 8.9919 129.552 9.299 129.092 9.60609C128.631 9.91319 128.324 10.2203 127.863 10.5274C126.635 11.4487 125.56 12.5235 124.332 13.7519C124.025 14.059 123.718 14.3661 123.257 14.8267C122.643 15.5945 121.875 16.2087 121.261 16.9764C121.107 17.13 120.954 17.437 120.647 17.5906C118.804 19.7403 116.961 22.197 115.272 24.6538C114.965 24.9609 114.812 25.4215 114.505 25.7286C114.044 26.4964 113.583 27.2641 113.123 28.0319C112.969 28.339 112.662 28.7996 112.509 29.2602C112.355 29.7209 112.048 30.028 111.894 30.4886C111.741 30.9493 111.434 31.2564 111.28 31.717C111.127 32.0241 110.82 32.4847 110.666 32.7918C110.512 33.2525 110.205 33.7131 110.052 34.1738C109.898 34.6344 109.591 34.9415 109.438 35.4022C109.284 35.8628 108.977 36.3235 108.823 36.6305C108.67 37.0912 108.363 37.5518 108.209 37.8589C108.056 38.3196 107.902 38.7802 107.595 39.0873C107.442 39.548 107.288 40.0086 106.981 40.4692C106.674 41.3905 106.213 42.3118 105.906 43.2331C105.599 44.1544 105.138 45.0757 104.831 45.997C104.524 46.9183 104.217 47.8396 103.91 48.7608C103.603 49.6821 103.296 50.6034 102.989 51.5247C102.682 52.5995 102.374 53.6744 102.067 54.9028C101.76 55.8241 101.607 56.5918 101.453 57.5131V57.6666C101.3 58.5879 100.993 59.5092 100.839 60.4305C100.839 60.584 100.839 60.7376 100.685 60.8911C100.532 61.5053 100.378 62.2731 100.225 63.0408C100.225 63.3479 100.071 63.5015 100.071 63.8086C100.071 64.1157 99.9177 64.4227 99.9177 64.7298C99.7641 65.4976 99.6106 66.2653 99.457 67.0331C99.3035 68.1079 99.1499 69.0292 98.9964 70.104C98.9964 70.104 98.9964 70.104 98.9964 70.2576C98.8428 71.1789 98.6893 72.1002 98.6893 73.0214C98.6893 73.3285 98.5357 73.7892 98.5357 74.0963C98.3822 75.1711 98.2286 76.2459 98.2286 77.4743C98.2286 78.2421 98.0751 79.1634 98.0751 79.9311C98.0751 80.0846 98.0751 80.2382 98.0751 80.3917C98.0751 81.0059 97.9215 81.6201 97.9215 82.0808C97.9215 83.0021 97.768 83.7698 97.768 84.6911C97.768 85.3053 97.768 85.9195 97.768 86.3801C97.768 86.6872 97.768 86.9943 97.768 87.3014C97.768 88.2227 97.768 89.2975 97.768 90.2188C97.768 94.5182 97.9215 98.6639 98.3822 102.81C98.3822 103.731 98.5357 104.652 98.6893 105.574C98.6893 105.881 98.6893 106.341 98.8428 106.648C98.8428 107.109 98.9964 107.57 98.9964 108.03C99.457 111.408 99.9177 114.633 100.532 117.704C100.993 117.704 100.685 118.165 100.839 118.625C100.839 118.625 100.839 118.472 100.839 118.625C100.839 118.472 100.839 118.472 100.839 118.625C100.839 118.472 100.839 118.472 100.839 118.472C100.839 118.472 100.839 118.472 100.839 118.625C100.685 118.625 100.685 118.625 100.685 118.625C100.685 118.625 100.685 118.625 100.839 118.625Z" fill="url(#paint3_linear)"/>
<path d="M39.8804 146.264C39.8804 147.953 40.0339 149.796 40.1875 151.485C38.8055 151.331 37.5771 151.331 36.1952 151.331C19.3049 151.331 5.02497 160.698 1.80047 173.288C-1.73114 151.485 0.725617 125.074 10.3991 98.5105C27.1359 52.4461 59.9952 20.3546 90.3977 16.9766C90.2441 17.1301 90.0906 17.1301 89.937 17.2837C89.7835 17.4372 89.6299 17.4372 89.4764 17.5907C88.7086 18.2049 87.9409 18.8191 87.1731 19.5869C86.559 20.0475 85.9448 20.6617 85.3306 21.1224C84.7164 21.7365 83.9486 22.3507 83.3344 22.9649C82.7203 23.5791 82.1061 24.1933 81.4919 24.8075C80.8777 25.4217 80.2635 26.1894 79.4957 26.8036C78.8816 27.5714 78.2674 28.1856 77.6532 28.9533C76.8854 29.8746 76.1177 30.6423 75.5035 31.5636C75.0429 32.1778 74.4287 32.792 73.968 33.4062C72.7397 34.9417 71.6648 36.3236 70.59 37.8591C70.59 38.0126 70.4364 38.0126 70.4364 38.1662C69.8222 38.9339 69.208 39.8552 68.7474 40.6229C68.1332 41.3907 67.6726 42.312 67.0584 43.2333C66.4442 44.001 65.9835 44.9223 65.5229 45.69C65.3693 45.8436 65.2158 46.1507 65.2158 46.3042C64.7552 47.072 64.2945 47.8397 63.8339 48.6075C63.2197 49.5287 62.759 50.45 62.2984 51.3713C61.8377 52.2926 61.2235 53.2139 60.7629 54.1352C59.6881 56.1313 58.7668 57.9739 57.8455 59.97C56.9242 61.9661 56.0029 63.9623 55.0816 66.1119C54.621 67.1868 54.1603 68.1081 53.6997 69.1829C53.2391 70.1042 52.932 71.179 52.4713 72.1003C52.4713 72.2538 52.3178 72.4074 52.3178 72.5609C52.0107 73.4822 51.55 74.5571 51.2429 75.4783C50.7823 76.5532 50.4752 77.628 50.1681 78.7029C49.861 79.6241 49.5539 80.699 49.2468 81.6203C49.0932 81.9274 49.0933 82.2345 48.9397 82.5416C48.6326 83.4629 48.3255 84.5377 48.0184 85.459C47.7113 86.5338 47.4042 87.6087 47.0971 88.6835C47.0971 88.837 46.9436 88.9906 46.9436 89.2977C46.79 90.0654 46.4829 90.8332 46.3294 91.4473C46.1758 92.0615 46.0223 92.5222 45.8687 93.1364C45.2546 95.4396 44.7939 97.7428 44.1797 100.046C44.0262 100.814 43.8726 101.735 43.7191 102.503C43.412 103.885 43.2584 105.267 42.9513 106.802C40.8017 118.779 39.8804 130.602 40.0339 141.811C39.7268 143.5 39.8804 144.882 39.8804 146.264Z" fill="url(#paint4_linear)"/>
<path d="M48.9395 139.354C45.2544 143.039 42.1834 147.185 40.1873 151.485C38.8054 151.331 37.577 151.331 36.195 151.331C19.3048 151.331 5.0248 160.697 1.80029 173.288C5.0248 185.726 19.1512 195.246 36.195 195.246C37.4234 195.246 38.8054 195.246 40.0337 195.092C39.7266 189.564 39.4196 167.3 48.9395 139.354Z" fill="url(#paint5_linear)"/>
<path d="M270.202 151.331C268.82 151.331 267.438 151.331 266.21 151.484C264.06 147.032 260.989 142.886 257.304 139.047C266.824 167.146 266.671 189.564 266.364 194.939C267.592 195.092 268.82 195.092 270.202 195.092C287.093 195.092 301.372 185.726 304.597 173.135C301.372 160.697 287.093 151.331 270.202 151.331Z" fill="url(#paint6_linear)"/>
<path d="M197.728 116.169C184.983 109.72 169.628 106.495 153.199 106.495C137.383 106.495 122.028 108.491 109.437 114.019C90.244 165.15 97.0001 209.526 101.453 228.105C115.272 237.011 133.852 239.928 153.199 239.928C172.853 239.928 190.818 235.475 204.637 226.263C204.791 226.263 205.098 226.263 205.405 226.263C209.704 206.916 215.232 164.69 197.728 116.169Z" fill="url(#paint7_linear)"/>
<path d="M257.304 139.047C245.942 127.531 228.13 120.007 208.015 120.007C206.94 120.007 205.712 120.007 204.637 120.007C202.488 118.472 200.031 117.243 197.728 116.015C215.232 164.536 209.704 206.762 205.405 226.109C206.326 226.109 207.248 226.109 208.015 226.109C234.579 226.109 257.304 213.057 266.21 194.785H266.364C266.671 189.564 266.824 167.146 257.304 139.047Z" fill="url(#paint8_linear)"/>
<path d="M109.437 114.019C106.366 115.401 103.449 116.936 100.839 118.625C101.146 118.625 101.299 118.625 100.839 118.625C80.4168 118.625 60.9162 127.07 48.9394 139.354C39.4195 167.3 39.7266 189.564 39.8801 194.939H40.0337C48.9394 213.364 74.1213 227.798 100.685 227.798V227.644C100.685 227.644 100.685 227.644 100.685 227.798C100.685 227.798 100.685 227.798 100.685 227.951C101.146 227.951 100.992 227.951 100.685 227.951C100.839 228.105 100.992 228.105 101.299 228.259C97 209.372 90.2439 164.997 109.437 114.019Z" fill="url(#paint9_linear)"/>
<path d="M266.21 153.941C264.828 153.941 263.753 152.867 263.753 151.485C263.753 150.103 264.828 149.028 266.21 149.028C267.592 149.028 268.667 150.103 268.667 151.485C268.667 152.867 267.592 153.941 266.21 153.941ZM266.21 150.256C265.442 150.256 264.982 150.87 264.982 151.485C264.982 152.252 265.596 152.713 266.21 152.713C266.978 152.713 267.439 152.099 267.439 151.485C267.439 150.717 266.824 150.256 266.21 150.256Z" fill="#6A6A6A"/>
<path d="M204.637 122.618C203.256 122.618 202.181 121.543 202.181 120.161C202.181 118.779 203.256 117.704 204.637 117.704C206.019 117.704 207.094 118.779 207.094 120.161C207.248 121.543 206.019 122.618 204.637 122.618ZM204.637 118.932C203.87 118.932 203.409 119.547 203.409 120.161C203.409 120.929 204.023 121.389 204.637 121.389C205.405 121.389 205.866 120.775 205.866 120.161C205.866 119.393 205.405 118.932 204.637 118.932Z" fill="#6A6A6A"/>
<path d="M100.839 121.082C99.4572 121.082 98.3823 120.007 98.3823 118.625C98.3823 117.243 99.4572 116.168 100.839 116.168C102.221 116.168 103.296 117.243 103.296 118.625C103.296 120.007 102.221 121.082 100.839 121.082ZM100.839 117.397C100.071 117.397 99.6107 118.011 99.6107 118.625C99.6107 119.393 100.225 119.854 100.839 119.854C101.607 119.854 102.067 119.239 102.067 118.625C102.067 117.857 101.607 117.397 100.839 117.397Z" fill="#6A6A6A"/>
<path d="M40.1877 153.941C38.8058 153.941 37.731 152.867 37.731 151.485C37.731 150.103 38.8058 149.028 40.1877 149.028C41.5697 149.028 42.6445 150.103 42.6445 151.485C42.6445 152.867 41.5697 153.941 40.1877 153.941ZM40.1877 150.256C39.42 150.256 38.9593 150.87 38.9593 151.485C38.9593 152.252 39.5735 152.713 40.1877 152.713C40.9555 152.713 41.4161 152.099 41.4161 151.485C41.4161 150.717 40.9555 150.256 40.1877 150.256Z" fill="#6A6A6A"/>
<path d="M40.0334 197.395C38.6515 197.395 37.5767 196.321 37.5767 194.939C37.5767 193.557 38.6515 192.482 40.0334 192.482C41.4153 192.482 42.4902 193.557 42.4902 194.939C42.4902 196.321 41.4153 197.395 40.0334 197.395ZM40.0334 193.71C39.2657 193.71 38.805 194.324 38.805 194.939C38.805 195.706 39.4192 196.167 40.0334 196.167C40.8012 196.167 41.2618 195.553 41.2618 194.939C41.2618 194.171 40.6476 193.71 40.0334 193.71Z" fill="#6A6A6A"/>
<path d="M100.839 230.255C99.4572 230.255 98.3823 229.18 98.3823 227.798C98.3823 226.416 99.4572 225.341 100.839 225.341C102.221 225.341 103.296 226.416 103.296 227.798C103.296 229.026 102.221 230.255 100.839 230.255ZM100.839 226.416C100.071 226.416 99.6107 227.03 99.6107 227.644C99.6107 228.412 100.225 228.873 100.839 228.873C101.607 228.873 102.067 228.258 102.067 227.644C102.067 227.03 101.607 226.416 100.839 226.416Z" fill="#6A6A6A"/>
<path d="M205.405 228.719C204.023 228.719 202.948 227.644 202.948 226.262C202.948 224.881 204.023 223.806 205.405 223.806C206.786 223.806 207.861 224.881 207.861 226.262C207.861 227.644 206.786 228.719 205.405 228.719ZM205.405 225.034C204.637 225.034 204.176 225.648 204.176 226.262C204.176 227.03 204.79 227.491 205.405 227.491C206.172 227.491 206.633 226.877 206.633 226.262C206.633 225.495 206.019 225.034 205.405 225.034Z" fill="#6A6A6A"/>
<path d="M266.364 197.395C264.982 197.395 263.907 196.321 263.907 194.939C263.907 193.557 264.982 192.482 266.364 192.482C267.746 192.482 268.821 193.557 268.821 194.939C268.974 196.321 267.746 197.395 266.364 197.395ZM266.364 193.71C265.596 193.71 265.136 194.324 265.136 194.939C265.136 195.706 265.75 196.167 266.364 196.167C267.132 196.167 267.592 195.553 267.592 194.939C267.592 194.171 267.132 193.71 266.364 193.71Z" fill="#6A6A6A"/>
<path d="M153.966 357.392C153.813 357.392 153.813 357.392 153.659 357.239C153.352 357.085 153.199 356.625 153.352 356.318L265.596 151.024C265.749 150.717 266.21 150.563 266.517 150.717C266.824 150.87 266.978 151.331 266.824 151.638L154.581 356.932C154.427 357.239 154.274 357.392 153.966 357.392Z" fill="url(#paint10_linear)"/>
<path d="M153.966 357.392C153.813 357.392 153.506 357.239 153.352 357.085L39.5729 151.792C39.4194 151.484 39.5729 151.177 39.88 150.87C40.1871 150.717 40.4942 150.87 40.8013 151.177L154.58 356.471C154.734 356.778 154.58 357.085 154.273 357.392C154.12 357.392 154.12 357.392 153.966 357.392Z" fill="url(#paint11_linear)"/>
<path d="M153.967 357.392C153.506 357.239 153.199 356.932 153.352 356.625L204.023 120.314C204.023 120.007 204.484 119.7 204.791 119.854C205.098 119.854 205.405 120.314 205.252 120.621L154.581 356.932C154.581 357.239 154.274 357.392 153.967 357.392Z" fill="url(#paint12_linear)"/>
<path d="M153.966 357.392C153.659 357.392 153.352 357.239 153.352 356.932L100.225 118.779C100.225 118.472 100.378 118.165 100.685 118.011C100.992 117.858 101.299 118.165 101.453 118.472L154.581 356.625C154.734 356.932 154.427 357.392 153.966 357.392C154.12 357.392 153.966 357.392 153.966 357.392Z" fill="url(#paint13_linear)"/>
<path d="M153.966 357.393C153.813 357.393 153.659 357.393 153.659 357.239C153.352 357.085 153.352 356.625 153.506 356.318L265.903 194.632C266.056 194.325 266.517 194.325 266.824 194.478C267.131 194.632 267.131 195.092 266.978 195.399L154.58 357.239C154.427 357.393 154.12 357.393 153.966 357.393Z" fill="url(#paint14_linear)"/>
<path d="M153.966 357.392C153.813 357.392 153.813 357.392 153.659 357.392C153.352 357.239 153.199 356.932 153.352 356.625L204.791 226.109C204.944 225.802 205.251 225.648 205.559 225.802C205.866 225.955 206.019 226.262 205.866 226.569L154.427 357.085C154.427 357.239 154.274 357.392 153.966 357.392Z" fill="url(#paint15_linear)"/>
<path d="M153.966 357.392C153.659 357.392 153.505 357.239 153.352 356.932L100.224 227.798C100.071 227.491 100.224 227.03 100.531 227.03C100.839 226.877 101.299 227.03 101.299 227.337L154.427 356.471C154.58 356.778 154.427 357.239 154.12 357.239C154.12 357.392 154.12 357.392 153.966 357.392Z" fill="url(#paint16_linear)"/>
<path d="M153.966 357.392C153.812 357.392 153.505 357.239 153.505 357.085L39.4192 195.246C39.2657 194.939 39.2657 194.632 39.5728 194.324C39.8799 194.171 40.187 194.171 40.4941 194.478L154.58 356.318C154.734 356.625 154.734 356.932 154.427 357.239C154.273 357.392 154.12 357.392 153.966 357.392Z" fill="url(#paint17_linear)"/>
<path d="M180.837 331.136L213.696 355.396L212.929 440.155L179.148 422.036L180.837 331.136Z" fill="url(#paint18_linear)"/>
<path d="M212.929 440.155L177.613 442.612H177.46L162.719 443.686L134.005 445.683L95.772 430.174L141.529 425.721L146.443 425.107L179.149 422.036L212.929 440.155Z" fill="#BFAB8C"/>
<path d="M95.772 430.174L99.7642 342.959L180.838 331.136L179.149 422.036L95.772 430.174Z" fill="#FFE4BB"/>
<path d="M179.148 422.036C179.148 422.036 181.298 423.111 184.523 424.8C187.747 426.489 191.893 428.792 196.192 430.942C200.338 433.245 204.637 435.548 207.708 437.237C210.779 438.926 212.929 440.155 212.929 440.155C212.929 440.155 210.779 439.08 207.555 437.391C204.33 435.702 200.185 433.399 195.885 431.249C191.739 428.946 187.44 426.643 184.369 424.954C181.298 423.111 179.148 422.036 179.148 422.036Z" fill="#B6B6B6"/>
<path d="M179.148 422.036C179.148 422.036 179.148 416.355 179.302 407.756C179.455 399.158 179.609 387.795 179.762 376.432C180.069 365.07 180.223 353.707 180.376 345.262C180.53 336.663 180.683 331.136 180.683 331.136C180.683 331.136 180.683 336.817 180.53 345.416C180.376 354.014 180.223 365.377 180.069 376.74C179.762 388.102 179.609 399.465 179.455 408.063C179.302 416.355 179.148 422.036 179.148 422.036Z" fill="#F2F2F2"/>
<path d="M179.148 422.036C179.148 422.036 173.928 422.65 166.097 423.418C158.266 424.186 147.825 425.261 137.383 426.335C126.942 427.257 116.501 428.332 108.67 429.099C100.839 429.867 95.6182 430.328 95.6182 430.328C95.6182 430.328 100.839 429.714 108.67 428.946C116.501 428.178 126.942 427.103 137.383 426.028C147.825 425.107 158.266 424.032 166.097 423.264C173.928 422.497 179.148 422.036 179.148 422.036Z" fill="#F2F2F2"/>
<path d="M128.785 426.95L129.399 338.66L146.75 336.203L146.443 425.107L128.785 426.95Z" fill="#C9AA7B"/>
<path d="M177.613 442.612H177.459L162.719 443.686L128.785 426.95L141.529 425.721L146.443 425.107L177.613 442.612Z" fill="#97805C"/>
<defs>
<linearGradient id="paint0_linear" x1="169.484" y1="77.2125" x2="266.621" y2="77.2125" gradientUnits="userSpaceOnUse">
<stop stop-color="#D7D7D7"/>
<stop offset="0.0725913" stop-color="#DBDBDB"/>
<stop offset="0.6449" stop-color="#F2F2F2"/>
<stop offset="1" stop-color="#FBFBFB"/>
</linearGradient>
<linearGradient id="paint1_linear" x1="215.905" y1="95.0121" x2="306.102" y2="95.0121" gradientUnits="userSpaceOnUse">
<stop stop-color="#3491E3"/>
<stop offset="1" stop-color="#00FFAA"/>
</linearGradient>
<linearGradient id="paint2_linear" x1="98.2388" y1="60.192" x2="208.12" y2="60.192" gradientUnits="userSpaceOnUse">
<stop stop-color="#00FFAA"/>
<stop offset="1" stop-color="#54B6FF"/>
</linearGradient>
<linearGradient id="paint3_linear" x1="39.7374" y1="77.2125" x2="136.889" y2="77.2125" gradientUnits="userSpaceOnUse">
<stop stop-color="#D7D7D7"/>
<stop offset="0.0725913" stop-color="#DBDBDB"/>
<stop offset="0.6449" stop-color="#F2F2F2"/>
<stop offset="1" stop-color="#FBFBFB"/>
</linearGradient>
<linearGradient id="paint4_linear" x1="0.25961" y1="95.0121" x2="90.4531" y2="95.0121" gradientUnits="userSpaceOnUse">
<stop stop-color="#3491E3"/>
<stop offset="1" stop-color="#00FFAA"/>
</linearGradient>
<linearGradient id="paint5_linear" x1="1.81734" y1="167.202" x2="48.9586" y2="167.202" gradientUnits="userSpaceOnUse">
<stop stop-color="#2978C9"/>
<stop offset="1" stop-color="#2266A9"/>
</linearGradient>
<linearGradient id="paint6_linear" x1="257.321" y1="167.084" x2="304.544" y2="167.084" gradientUnits="userSpaceOnUse">
<stop stop-color="#2978C9"/>
<stop offset="1" stop-color="#2266A9"/>
</linearGradient>
<linearGradient id="paint7_linear" x1="96.6035" y1="173.176" x2="209.756" y2="173.176" gradientUnits="userSpaceOnUse">
<stop stop-color="#2978C9"/>
<stop offset="1" stop-color="#2266A9"/>
</linearGradient>
<linearGradient id="paint8_linear" x1="252.981" y1="207.264" x2="179.676" y2="123.847" gradientUnits="userSpaceOnUse">
<stop offset="0.1989" stop-color="#B4B4B4"/>
<stop offset="0.3404" stop-color="#AFAFAF"/>
<stop offset="0.5111" stop-color="#A0A0A0"/>
<stop offset="0.6968" stop-color="#888888"/>
<stop offset="0.892" stop-color="#666666"/>
<stop offset="1" stop-color="#505050"/>
</linearGradient>
<linearGradient id="paint9_linear" x1="20.8217" y1="250.249" x2="156.056" y2="84.6813" gradientUnits="userSpaceOnUse">
<stop offset="0.1989" stop-color="#B4B4B4"/>
<stop offset="0.3404" stop-color="#AFAFAF"/>
<stop offset="0.5111" stop-color="#A0A0A0"/>
<stop offset="0.6968" stop-color="#888888"/>
<stop offset="0.892" stop-color="#666666"/>
<stop offset="1" stop-color="#505050"/>
</linearGradient>
<linearGradient id="paint10_linear" x1="210.075" y1="357.419" x2="210.075" y2="150.812" gradientUnits="userSpaceOnUse">
<stop stop-color="#808080"/>
<stop offset="1" stop-color="#CCCCCC"/>
</linearGradient>
<linearGradient id="paint11_linear" x1="97.0839" y1="357.419" x2="97.0839" y2="150.812" gradientUnits="userSpaceOnUse">
<stop stop-color="#808080"/>
<stop offset="1" stop-color="#CCCCCC"/>
</linearGradient>
<linearGradient id="paint12_linear" x1="179.312" y1="357.419" x2="179.312" y2="119.781" gradientUnits="userSpaceOnUse">
<stop stop-color="#808080"/>
<stop offset="1" stop-color="#CCCCCC"/>
</linearGradient>
<linearGradient id="paint13_linear" x1="127.417" y1="357.419" x2="127.417" y2="117.989" gradientUnits="userSpaceOnUse">
<stop stop-color="#808080"/>
<stop offset="1" stop-color="#CCCCCC"/>
</linearGradient>
<linearGradient id="paint14_linear" x1="210.188" y1="357.42" x2="210.188" y2="194.291" gradientUnits="userSpaceOnUse">
<stop stop-color="#808080"/>
<stop offset="1" stop-color="#CCCCCC"/>
</linearGradient>
<linearGradient id="paint15_linear" x1="179.671" y1="357.419" x2="179.671" y2="225.579" gradientUnits="userSpaceOnUse">
<stop stop-color="#808080"/>
<stop offset="1" stop-color="#CCCCCC"/>
</linearGradient>
<linearGradient id="paint16_linear" x1="127.417" y1="357.419" x2="127.417" y2="226.987" gradientUnits="userSpaceOnUse">
<stop stop-color="#808080"/>
<stop offset="1" stop-color="#CCCCCC"/>
</linearGradient>
<linearGradient id="paint17_linear" x1="96.9721" y1="357.42" x2="96.9721" y2="194.293" gradientUnits="userSpaceOnUse">
<stop stop-color="#808080"/>
<stop offset="1" stop-color="#CCCCCC"/>
</linearGradient>
<linearGradient id="paint18_linear" x1="171.355" y1="409.957" x2="216.186" y2="367.27" gradientUnits="userSpaceOnUse">
<stop stop-color="#E6CDA8"/>
<stop offset="1" stop-color="#C9AA7B"/>
</linearGradient>
</defs>
</svg>
