<svg width="272" height="166" viewBox="0 0 272 166" fill="none" xmlns="http://www.w3.org/2000/svg">


<path d="M263.8 126.9C262.2 128.6 269.9 134.6 268.3 136.3L270.9 133.6C272.5 131.9 263.8 127 265.4 125.3L263.8 126.9Z" fill="url(#paint1_linear)"/>

<path d="M101.8 83.5001C103.3 89.7001 82.8001 88.6001 90.2001 104L82.7001 93.2001C79.2001 88.2001 99.8001 76.9 97.9001 70.8L101.8 83.5001Z" fill="url(#paint3_linear)"/>
<path d="M47 104.7C42.8 104.6 40.9 95.3001 37.5 96.5001L42.4 92.9001C45.8 91.7001 45.3 99.9001 48.7 98.7001L47 104.7Z" fill="url(#paint4_linear)"/>

<path d="M4.89999 124.6C7.09999 124 5.09999 133.6 9.39999 133.1L5.89999 134C3.69999 134.6 2.2 125.3 0 125.9L4.89999 124.6Z" fill="url(#paint8_linear)"/>
<path d="M9.30017 133C11.6002 132.4 10.3002 127.2 12.5002 127L8.90018 127.2C6.70018 127.3 7.9002 133.3 5.7002 133.9L9.30017 133Z" fill="url(#paint9_linear)"/>
<path d="M14.9999 126.9C17.2999 126.8 15.1999 132.7 17.3999 132.9L14.4999 132.7C12.2999 132.5 11.9999 127.5 9.8999 127.3L14.9999 126.9Z" fill="url(#paint10_linear)"/>
<path d="M146.6 60C149.6 59.2 152.1 67.1 154.8 65.8L159.2 63.7C156.5 65 154.5 58 151.4 58.8L146.6 60Z" fill="url(#paint11_linear)"/>
<path d="M158.4 55.4999C155.5 56.1999 158.6 63.8999 155.8 65.1999L160.3 63.0999C163.2 61.7999 160.2 55.0999 163.1 54.3999L158.4 55.4999Z" fill="url(#paint12_linear)"/>
<path d="M81.8998 149.4C79.1998 152.8 95.7998 158.6 91.5998 165.8L95.7998 160.4C98.4998 157 83.3998 147.3 85.9998 144L81.8998 149.4Z" fill="url(#paint13_linear)"/>
<path d="M80.7997 134.6C77.7997 137.6 84.5997 146 81.8997 149.4L86.8997 143C89.3997 139.5 83.2997 133.5 86.3997 130.4L80.7997 134.6Z" fill="url(#paint14_linear)"/>
<path d="M94.6999 137.7C91.7999 140.9 84.3999 131.9 80.8999 134.5L86.4999 130.4C90.0999 127.7 96.3999 135.9 99.1999 132.7L94.6999 137.7Z" fill="url(#paint15_linear)"/>
<defs>
<linearGradient id="paint0_linear" x1="229.238" y1="155.44" x2="238.797" y2="143.587" gradientUnits="userSpaceOnUse">
<stop stop-color="#3E29A6"/>
<stop offset="0.0921788" stop-color="#344ABA"/>
<stop offset="0.2933" stop-color="#56A3C9"/>
<stop offset="0.8101" stop-color="#00FFAA"/>
<stop offset="1" stop-color="#CCFFD5"/>
</linearGradient>
<linearGradient id="paint1_linear" x1="269.979" y1="134.355" x2="263.627" y2="127.149" gradientUnits="userSpaceOnUse">
<stop stop-color="#A629A6"/>
<stop offset="0.0921788" stop-color="#BA34A2"/>
<stop offset="0.2933" stop-color="#C9567E"/>
<stop offset="0.8101" stop-color="#FFCE00"/>
<stop offset="1" stop-color="#FFEA90"/>
</linearGradient>
<linearGradient id="paint2_linear" x1="250.657" y1="34.4862" x2="256.657" y2="19.7803" gradientUnits="userSpaceOnUse">
<stop offset="0.0921788" stop-color="#6134BA"/>
<stop offset="0.2933" stop-color="#B23CC9"/>
<stop offset="0.8101" stop-color="#FF4D6A"/>
<stop offset="1" stop-color="#FFA6B5"/>
</linearGradient>
<linearGradient id="paint3_linear" x1="87.8749" y1="103.308" x2="96.522" y2="71.9844" gradientUnits="userSpaceOnUse">
<stop stop-color="#3E29A6"/>
<stop offset="0.0921788" stop-color="#344ABA"/>
<stop offset="0.2933" stop-color="#56A3C9"/>
<stop offset="0.8101" stop-color="#00FFAA"/>
<stop offset="1" stop-color="#CCFFD5"/>
</linearGradient>
<linearGradient id="paint4_linear" x1="46.9799" y1="104.733" x2="41.3328" y2="94.3652" gradientUnits="userSpaceOnUse">
<stop offset="0.0921788" stop-color="#6134BA"/>
<stop offset="0.2933" stop-color="#B23CC9"/>
<stop offset="0.8101" stop-color="#FF4D6A"/>
<stop offset="1" stop-color="#FFA6B5"/>
</linearGradient>
<linearGradient id="paint5_linear" x1="191.538" y1="105.968" x2="207.126" y2="91.4978" gradientUnits="userSpaceOnUse">
<stop stop-color="#A629A6"/>
<stop offset="0.0921788" stop-color="#BA34A2"/>
<stop offset="0.2933" stop-color="#C9567E"/>
<stop offset="0.8101" stop-color="#FFCE00"/>
<stop offset="1" stop-color="#FFEA90"/>
</linearGradient>
<linearGradient id="paint6_linear" x1="211.903" y1="23.8563" x2="210.403" y2="12.1504" gradientUnits="userSpaceOnUse">
<stop stop-color="#A629A6"/>
<stop offset="0.0921788" stop-color="#BA34A2"/>
<stop offset="0.2933" stop-color="#C9567E"/>
<stop offset="0.8101" stop-color="#FFCE00"/>
<stop offset="1" stop-color="#FFEA90"/>
</linearGradient>
<linearGradient id="paint7_linear" x1="210.251" y1="10.0897" x2="203.545" y2="4.3543" gradientUnits="userSpaceOnUse">
<stop stop-color="#A629A6"/>
<stop offset="0.0921788" stop-color="#BA34A2"/>
<stop offset="0.2933" stop-color="#C9567E"/>
<stop offset="0.8101" stop-color="#FFCE00"/>
<stop offset="1" stop-color="#FFEA90"/>
</linearGradient>
<linearGradient id="paint8_linear" x1="7.3115" y1="137.092" x2="3.385" y2="125.313" gradientUnits="userSpaceOnUse">
<stop stop-color="#3E29A6"/>
<stop offset="0.0921788" stop-color="#344ABA"/>
<stop offset="0.2933" stop-color="#56A3C9"/>
<stop offset="0.8101" stop-color="#00FFAA"/>
<stop offset="1" stop-color="#CCFFD5"/>
</linearGradient>
<linearGradient id="paint9_linear" x1="7.97019" y1="133.912" x2="11.4996" y2="123.677" gradientUnits="userSpaceOnUse">
<stop stop-color="#3E29A6"/>
<stop offset="0.0921788" stop-color="#344ABA"/>
<stop offset="0.2933" stop-color="#56A3C9"/>
<stop offset="0.8101" stop-color="#00FFAA"/>
<stop offset="1" stop-color="#CCFFD5"/>
</linearGradient>
<linearGradient id="paint10_linear" x1="14.0014" y1="133.725" x2="13.472" y2="126.886" gradientUnits="userSpaceOnUse">
<stop stop-color="#3E29A6"/>
<stop offset="0.0921788" stop-color="#344ABA"/>
<stop offset="0.2933" stop-color="#56A3C9"/>
<stop offset="0.8101" stop-color="#00FFAA"/>
<stop offset="1" stop-color="#CCFFD5"/>
</linearGradient>
<linearGradient id="paint11_linear" x1="154.731" y1="67.7312" x2="152.084" y2="59.1429" gradientUnits="userSpaceOnUse">
<stop offset="0.0921788" stop-color="#6134BA"/>
<stop offset="0.2933" stop-color="#B23CC9"/>
<stop offset="0.8101" stop-color="#FF4D6A"/>
<stop offset="1" stop-color="#FFA6B5"/>
</linearGradient>
<linearGradient id="paint12_linear" x1="156.697" y1="62.8917" x2="163.579" y2="53.2446" gradientUnits="userSpaceOnUse">
<stop offset="0.0921788" stop-color="#6134BA"/>
<stop offset="0.2933" stop-color="#B23CC9"/>
<stop offset="0.8101" stop-color="#FF4D6A"/>
<stop offset="1" stop-color="#FFA6B5"/>
</linearGradient>
<linearGradient id="paint13_linear" x1="82.0691" y1="148.904" x2="95.6573" y2="161.036" gradientUnits="userSpaceOnUse">
<stop offset="0.0921788" stop-color="#6134BA"/>
<stop offset="0.2933" stop-color="#B23CC9"/>
<stop offset="0.8101" stop-color="#FF4D6A"/>
<stop offset="1" stop-color="#FFA6B5"/>
</linearGradient>
<linearGradient id="paint14_linear" x1="81.4067" y1="129.365" x2="86.7449" y2="150.276" gradientUnits="userSpaceOnUse">
<stop offset="0.0921788" stop-color="#6134BA"/>
<stop offset="0.2933" stop-color="#B23CC9"/>
<stop offset="0.8101" stop-color="#FF4D6A"/>
<stop offset="1" stop-color="#FFA6B5"/>
</linearGradient>
<linearGradient id="paint15_linear" x1="83.4347" y1="138.575" x2="97.7729" y2="129.575" gradientUnits="userSpaceOnUse">
<stop offset="0.0921788" stop-color="#6134BA"/>
<stop offset="0.2933" stop-color="#B23CC9"/>
<stop offset="0.8101" stop-color="#FF4D6A"/>
<stop offset="1" stop-color="#FFA6B5"/>
</linearGradient>
</defs>
</svg>
