<svg width="439" height="433" viewBox="0 0 439 433" fill="none" xmlns="http://www.w3.org/2000/svg">
<g filter="url(#filter0_d)">
<path d="M129.962 167.098L369.662 176.631L241.556 379.45L129.962 167.098Z" fill="url(#paint0_linear)"/>
</g>
<path d="M135 265.538L231.072 265.538" stroke="#344ABA" stroke-width="2" stroke-linejoin="round"/>
<path d="M137.553 257.184L228.751 257.184" stroke="#344ABA" stroke-width="2" stroke-linejoin="round"/>
<path d="M141.498 248.366L225.967 248.366" stroke="#344ABA" stroke-width="2" stroke-linejoin="round"/>
<path d="M146.835 240.476L219.933 240.476" stroke="#344ABA" stroke-width="2" stroke-linejoin="round"/>
<path d="M157.045 231.658L209.49 231.658" stroke="#344ABA" stroke-width="2" stroke-linejoin="round"/>
<path d="M135.232 273.428L231.536 273.428" stroke="#344ABA" stroke-width="2" stroke-linejoin="round"/>
<line x1="136.16" y1="280.55" x2="229.911" y2="280.55" stroke="#344ABA" stroke-width="2" stroke-linejoin="round"/>
<line x1="138.945" y1="288.44" x2="227.591" y2="288.44" stroke="#344ABA" stroke-width="2" stroke-linejoin="round"/>
<line x1="142.194" y1="296.33" x2="223.878" y2="296.33" stroke="#344ABA" stroke-width="2" stroke-linejoin="round"/>
<line x1="148.691" y1="304.22" x2="218.309" y2="304.22" stroke="#344ABA" stroke-width="2" stroke-linejoin="round"/>
<line x1="158.438" y1="312.11" x2="208.098" y2="312.11" stroke="#344ABA" stroke-width="2" stroke-linejoin="round"/>
<line x1="178.395" y1="320" x2="187.677" y2="320" stroke="#344ABA" stroke-width="2" stroke-linejoin="round"/>
<line x1="177.931" y1="223" x2="187.213" y2="223" stroke="#344ABA" stroke-width="2" stroke-linejoin="round"/>
<defs>
<filter id="filter0_d" x="0.90918" y="0.688232" width="403.753" height="413.762" filterUnits="userSpaceOnUse" color-interpolation-filters="sRGB">
<feFlood flood-opacity="0" result="BackgroundImageFix"/>
<feColorMatrix in="SourceAlpha" type="matrix" values="0 0 0 0 0 0 0 0 0 0 0 0 0 0 0 0 0 0 127 0"/>
<feOffset dx="-15" dy="-15"/>
<feGaussianBlur stdDeviation="25"/>
<feColorMatrix type="matrix" values="0 0 0 0 0.34902 0 0 0 0 0.964706 0 0 0 0 0.290196 0 0 0 0.54 0"/>
<feBlend mode="normal" in2="BackgroundImageFix" result="effect1_dropShadow"/>
<feBlend mode="normal" in="SourceGraphic" in2="effect1_dropShadow" result="shape"/>
</filter>
<linearGradient id="paint0_linear" x1="129.962" y1="167.098" x2="364.157" y2="315.022" gradientUnits="userSpaceOnUse">
<stop stop-color="#BDF62E"/>
<stop offset="1" stop-color="#56F752"/>
</linearGradient>
</defs>
</svg>
