<svg width="393" height="168" viewBox="0 0 393 168" fill="none" xmlns="http://www.w3.org/2000/svg">
<path d="M40.8002 77.0999C38.5002 77.2999 34.5002 67.8999 32.2002 68.6999L36.9002 67.0999C41.6002 65.7999 39.9002 77.1999 44.9002 76.7999L40.8002 77.0999Z" fill="url(#paint0_linear)"/>
<path d="M212.9 90.0999C214.3 88.3999 207.6 85.5 212.4 81.7L208.3 83.9999C206.4 85.0999 211.2 91.8999 209.7 93.4999L212.9 90.0999Z" fill="url(#paint1_linear)"/>
<path d="M188.3 44.6001C195.9 48.0001 192 66.4001 199.2 66.9001L187.5 69.7001C180.3 69.3001 187.7 54.7001 180.6 54.3001L188.3 44.6001Z" fill="url(#paint2_linear)"/>
<path d="M137.9 100.7C139.4 102.5 135.6 109.3 140.1 111.9L134.7 109.7C133 108.9 136.4 102.5 134.3 98.3999L137.9 100.7Z" fill="url(#paint3_linear)"/>
<path d="M118.6 55.3999C119.5 60.8999 105.4 53.5999 103.2 66.3999L103.7 57.9999C104.3 51.4999 118 51.8999 116.9 45.3999L118.6 55.3999Z" fill="url(#paint4_linear)"/>
<path d="M256.8 83.4001C256.1 81.0001 250 88.1001 246.9 83.7001L248.8 89.4001C250 92.8001 256.2 84.8001 257.8 87.9001L256.8 83.4001Z" fill="url(#paint5_linear)"/>
<path d="M289.2 12.9999C287.6 9.99991 297.5 10.6999 297 7.3999L297.7 11.5999C298.2 14.8999 291 17.0999 291.5 20.1999L289.2 12.9999Z" fill="url(#paint6_linear)"/>
<path d="M296.5 4.39999C296.1 0.999994 305.1 3.3 305 0L305.1 4.29999C305.2 7.69999 297.7 8.69999 297.7 11.9L296.5 4.39999Z" fill="url(#paint7_linear)"/>
<path d="M7.8 115.7C10.4 120.7 18.8 106.4 22.8 110.3L17.6 105.4C13.7 101.5 3.9 109.5 0 105.8L7.8 115.7Z" fill="url(#paint8_linear)"/>
<path d="M27.4 114.6C31.3 118.7 17.1 124.6 20.5 129L16.1 123.4C12.7 119 21.6 110.1 18.3 105.8L27.4 114.6Z" fill="url(#paint9_linear)"/>
<path d="M270 147.9C272.8 145.2 256.8 139.6 261.5 133.6L257 137.9C254.2 140.6 266.5 151.2 263.7 153.9L270 147.9Z" fill="url(#paint10_linear)"/>
<path d="M276.299 144.6C272.999 146.6 260 135 257 137.9L263.1 132C269.4 126.6 275 145.4 282.4 141L276.299 144.6Z" fill="url(#paint11_linear)"/>
<path d="M263.7 153.9C261.3 157 268.4 163.8 266.5 167.1L269.9 161.3C271.8 157.8 266.1 151.6 268.9 148.8L263.7 153.9Z" fill="url(#paint12_linear)"/>
<path d="M177.1 122.2C182.4 129 166.8 141.2 172.9 146.7L163.1 137.9C157 132.4 174.1 118.1 169 111.4L177.1 122.2Z" fill="url(#paint13_linear)"/>
<path d="M387.7 75.0999C384.9 77.1999 372.1 68.0999 369.7 70.9999L374.5 65.0999C379.6 59.5999 386.5 75.8999 392.8 71.1999L387.7 75.0999Z" fill="url(#paint14_linear)"/>
<path d="M359.8 23.3999C358.7 28.6999 348.4 17.1999 341.9 28.0999L345.3 20.5999C348.1 14.8999 360.5 20 361.7 13.7L359.8 23.3999Z" fill="url(#paint15_linear)"/>
<path d="M367 128.7C370.8 127.2 368.8 138.9 372.8 138.6L367.7 138.9C363.7 139.2 362 130.3 358.1 130.5L367 128.7Z" fill="url(#paint16_linear)"/>
<path d="M377.3 138.3C381.4 137.8 376.2 128 380.1 127.1L375.1 128.2C371.2 129.1 372 138.1 368.2 138.9L377.3 138.3Z" fill="url(#paint17_linear)"/>
<defs>
<linearGradient id="paint0_linear" x1="32.2606" y1="72.0209" x2="44.9904" y2="72.0209" gradientUnits="userSpaceOnUse">
<stop stop-color="#3E29A6"/>
<stop offset="0.0921788" stop-color="#344ABA"/>
<stop offset="0.2933" stop-color="#56A3C9"/>
<stop offset="0.8101" stop-color="#00FFAA"/>
<stop offset="1" stop-color="#CCFFD5"/>
</linearGradient>
<linearGradient id="paint1_linear" x1="211.074" y1="93.3667" x2="210.133" y2="83.3667" gradientUnits="userSpaceOnUse">
<stop offset="0.0921788" stop-color="#6134BA"/>
<stop offset="0.2933" stop-color="#B23CC9"/>
<stop offset="0.8101" stop-color="#FF4D6A"/>
<stop offset="1" stop-color="#FFA6B5"/>
</linearGradient>
<linearGradient id="paint2_linear" x1="180.521" y1="57.0898" x2="199.16" y2="57.0898" gradientUnits="userSpaceOnUse">
<stop stop-color="#3E29A6"/>
<stop offset="0.0921788" stop-color="#344ABA"/>
<stop offset="0.2933" stop-color="#56A3C9"/>
<stop offset="0.8101" stop-color="#00FFAA"/>
<stop offset="1" stop-color="#CCFFD5"/>
</linearGradient>
<linearGradient id="paint3_linear" x1="137.178" y1="110.754" x2="136.355" y2="98.4593" gradientUnits="userSpaceOnUse">
<stop stop-color="#3E29A6"/>
<stop offset="0.0921788" stop-color="#344ABA"/>
<stop offset="0.2933" stop-color="#56A3C9"/>
<stop offset="0.8101" stop-color="#00FFAA"/>
<stop offset="1" stop-color="#CCFFD5"/>
</linearGradient>
<linearGradient id="paint4_linear" x1="103.109" y1="66.2202" x2="116.873" y2="49.8085" gradientUnits="userSpaceOnUse">
<stop offset="0.0921788" stop-color="#6134BA"/>
<stop offset="0.2933" stop-color="#B23CC9"/>
<stop offset="0.8101" stop-color="#FF4D6A"/>
<stop offset="1" stop-color="#FFA6B5"/>
</linearGradient>
<linearGradient id="paint5_linear" x1="249.809" y1="91.4041" x2="254.088" y2="81.8305" gradientUnits="userSpaceOnUse">
<stop stop-color="#3E29A6"/>
<stop offset="0.0921788" stop-color="#344ABA"/>
<stop offset="0.2933" stop-color="#56A3C9"/>
<stop offset="0.8101" stop-color="#00FFAA"/>
<stop offset="1" stop-color="#CCFFD5"/>
</linearGradient>
<linearGradient id="paint6_linear" x1="298.587" y1="11.9824" x2="288.44" y2="16.2838" gradientUnits="userSpaceOnUse">
<stop offset="0.0921788" stop-color="#6134BA"/>
<stop offset="0.2933" stop-color="#B23CC9"/>
<stop offset="0.8101" stop-color="#FF4D6A"/>
<stop offset="1" stop-color="#FFA6B5"/>
</linearGradient>
<linearGradient id="paint7_linear" x1="294.778" y1="10.7083" x2="304.55" y2="0.583289" gradientUnits="userSpaceOnUse">
<stop offset="0.0921788" stop-color="#6134BA"/>
<stop offset="0.2933" stop-color="#B23CC9"/>
<stop offset="0.8101" stop-color="#FF4D6A"/>
<stop offset="1" stop-color="#FFA6B5"/>
</linearGradient>
<linearGradient id="paint8_linear" x1="0.0327" y1="110.534" x2="22.8824" y2="110.534" gradientUnits="userSpaceOnUse">
<stop stop-color="#3E29A6"/>
<stop offset="0.0921788" stop-color="#344ABA"/>
<stop offset="0.2933" stop-color="#56A3C9"/>
<stop offset="0.8101" stop-color="#00FFAA"/>
<stop offset="1" stop-color="#CCFFD5"/>
</linearGradient>
<linearGradient id="paint9_linear" x1="15.2727" y1="117.449" x2="28.0501" y2="117.449" gradientUnits="userSpaceOnUse">
<stop stop-color="#3E29A6"/>
<stop offset="0.0921788" stop-color="#344ABA"/>
<stop offset="0.2933" stop-color="#56A3C9"/>
<stop offset="0.8101" stop-color="#00FFAA"/>
<stop offset="1" stop-color="#CCFFD5"/>
</linearGradient>
<linearGradient id="paint10_linear" x1="256.673" y1="138.164" x2="267.923" y2="148.796" gradientUnits="userSpaceOnUse">
<stop stop-color="#A629A6"/>
<stop offset="0.0921788" stop-color="#BA34A2"/>
<stop offset="0.2933" stop-color="#C9567E"/>
<stop offset="0.8101" stop-color="#FFCE00"/>
<stop offset="1" stop-color="#FFEA90"/>
</linearGradient>
<linearGradient id="paint11_linear" x1="269.322" y1="144.156" x2="270.205" y2="132.745" gradientUnits="userSpaceOnUse">
<stop stop-color="#A629A6"/>
<stop offset="0.0921788" stop-color="#BA34A2"/>
<stop offset="0.2933" stop-color="#C9567E"/>
<stop offset="0.8101" stop-color="#FFCE00"/>
<stop offset="1" stop-color="#FFEA90"/>
</linearGradient>
<linearGradient id="paint12_linear" x1="263.653" y1="154.082" x2="273.668" y2="163.611" gradientUnits="userSpaceOnUse">
<stop stop-color="#A629A6"/>
<stop offset="0.0921788" stop-color="#BA34A2"/>
<stop offset="0.2933" stop-color="#C9567E"/>
<stop offset="0.8101" stop-color="#FFCE00"/>
<stop offset="1" stop-color="#FFEA90"/>
</linearGradient>
<linearGradient id="paint13_linear" x1="161.719" y1="129.045" x2="178.192" y2="129.045" gradientUnits="userSpaceOnUse">
<stop stop-color="#3E29A6"/>
<stop offset="0.0921788" stop-color="#344ABA"/>
<stop offset="0.2933" stop-color="#56A3C9"/>
<stop offset="0.8101" stop-color="#00FFAA"/>
<stop offset="1" stop-color="#CCFFD5"/>
</linearGradient>
<linearGradient id="paint14_linear" x1="386.371" y1="77.7774" x2="374.547" y2="62.3362" gradientUnits="userSpaceOnUse">
<stop stop-color="#3E29A6"/>
<stop offset="0.0921788" stop-color="#344ABA"/>
<stop offset="0.2933" stop-color="#56A3C9"/>
<stop offset="0.8101" stop-color="#00FFAA"/>
<stop offset="1" stop-color="#CCFFD5"/>
</linearGradient>
<linearGradient id="paint15_linear" x1="342.822" y1="29.0919" x2="362.233" y2="15.0185" gradientUnits="userSpaceOnUse">
<stop stop-color="#3E29A6"/>
<stop offset="0.0921788" stop-color="#344ABA"/>
<stop offset="0.2933" stop-color="#56A3C9"/>
<stop offset="0.8101" stop-color="#00FFAA"/>
<stop offset="1" stop-color="#CCFFD5"/>
</linearGradient>
<linearGradient id="paint16_linear" x1="369.334" y1="143.141" x2="363.29" y2="129.597" gradientUnits="userSpaceOnUse">
<stop offset="0.0921788" stop-color="#6134BA"/>
<stop offset="0.2933" stop-color="#B23CC9"/>
<stop offset="0.8101" stop-color="#FF4D6A"/>
<stop offset="1" stop-color="#FFA6B5"/>
</linearGradient>
<linearGradient id="paint17_linear" x1="373.99" y1="138.655" x2="374.461" y2="124.92" gradientUnits="userSpaceOnUse">
<stop offset="0.0921788" stop-color="#6134BA"/>
<stop offset="0.2933" stop-color="#B23CC9"/>
<stop offset="0.8101" stop-color="#FF4D6A"/>
<stop offset="1" stop-color="#FFA6B5"/>
</linearGradient>
</defs>
</svg>
