<svg width="293" height="252" viewBox="0 0 293 252" fill="none" xmlns="http://www.w3.org/2000/svg">
<g opacity="0.6">
<path d="M157.015 65.9623C153.988 67.6737 148.13 54.4438 145.102 56.1551L149.907 53.4565C152.935 51.7452 156.818 66.094 159.846 64.3827L157.015 65.9623Z" fill="url(#paint0_linear)"/>
<path d="M79.1504 65.0406C80.7959 66.1596 83.3629 62.342 84.7451 63.6584L82.573 61.5522C81.1908 60.2358 78.1631 64.4482 76.5176 63.3951L79.1504 65.0406Z" fill="url(#paint1_linear)"/>
<path d="M280.626 54.9044C281.942 56.0233 277.664 62.4079 279.178 63.2635L275.755 61.4206C274.241 60.5649 279.77 54.1145 278.256 53.3247L280.626 54.9044Z" fill="url(#paint2_linear)"/>
<path d="M204.933 12.7032C205.196 16.3892 190.32 10.2679 189.86 17.4423L189.399 11.5185C189.136 7.83256 204.538 8.09584 204.274 4.40991L204.933 12.7032Z" fill="url(#paint3_linear)"/>
<path d="M122.855 5.85796C121.604 6.77944 123.711 9.67552 122.394 10.3337L124.501 9.2806C125.817 8.6224 123.513 5.33139 124.698 4.40991L122.855 5.85796Z" fill="url(#paint4_linear)"/>
<path d="M124.632 4.47577C125.883 3.55429 123.777 0.658201 125.093 0L122.987 1.05312C121.67 1.71132 123.974 5.00233 122.789 5.92381L124.632 4.47577Z" fill="url(#paint5_linear)"/>
<path d="M236.987 16.2575C239.686 13.493 229.878 9.21474 232.314 6.18701L229.22 10.0704C226.785 13.0981 232.972 19.351 230.602 22.3129L236.987 16.2575Z" fill="url(#paint6_linear)"/>
<path d="M49.5312 90.1077C49.597 92.0823 41.2379 95.0442 41.8303 97.0188L40.7113 92.8721C39.8557 88.7254 49.597 90.8317 49.4654 86.4875L49.5312 90.1077Z" fill="url(#paint7_linear)"/>
<path d="M133.518 86.5536C131.806 89.1205 121.802 86.8168 120.288 93.4647L120.946 85.7637C121.275 83.3284 130.688 85.2371 135.097 81.0247L133.518 86.5536Z" fill="url(#paint8_linear)"/>
<path d="M75.7934 84.5788C78.5578 86.2244 70.067 89.7128 74.8719 95.505L71.3834 92.1482C68.7506 89.4495 74.0821 83.5915 70.791 81.6169L75.7934 84.5788Z" fill="url(#paint9_linear)"/>
<path d="M221.782 28.6978C223.56 25.8017 228.035 34.6216 230.602 32.4495L227.311 35.214C224.744 37.386 219.15 32.3179 216.714 34.3583L221.782 28.6978Z" fill="url(#paint10_linear)"/>
<path d="M232.906 30.5409C235.604 28.4347 238.237 37.3204 241.067 35.5432L237.447 37.7811C234.617 39.5583 229.812 33.7003 227.113 35.4116L232.906 30.5409Z" fill="url(#paint11_linear)"/>
<path d="M58.2196 140.131C61.9713 140.657 57.5614 130.455 61.2473 129.797L56.5082 130.653C52.8223 131.311 53.283 139.802 49.7288 140.46L58.2196 140.131Z" fill="url(#paint12_linear)"/>
<path d="M65.3283 129.073C69.1458 128.546 66.7105 138.683 70.4622 138.551L65.6574 138.683C61.9056 138.814 60.5892 130.389 56.9691 130.521L65.3283 129.073Z" fill="url(#paint13_linear)"/>
<path d="M43.2783 35.2794C45.8453 36.7274 46.7668 46.9295 49.5312 47.7194L45.1871 46.4688C42.4885 45.679 41.567 34.3579 39 33.0415L43.2783 35.2794Z" fill="url(#paint14_linear)"/>
<path d="M78.6893 159.745C76.5831 160.733 74.2136 157.047 72.0415 157.705L73.4895 156.059C75.6616 155.401 80.9272 158.429 83.0993 157.771L78.6893 159.745Z" fill="url(#paint15_linear)"/>
<path d="M82.3752 152.373C80.2031 153.032 81.3221 158.89 79.15 159.548L83.0992 157.837C85.1397 156.849 83.8233 152.505 85.9953 151.847L82.3752 152.373Z" fill="url(#paint16_linear)"/>
<path d="M88.0356 157.31C85.9294 158.034 84.7446 152.044 82.4409 152.373L86.1268 151.847C88.4964 151.452 89.352 156.849 91.4583 156.125L88.0356 157.31Z" fill="url(#paint17_linear)"/>
<path d="M288.063 20.0093C285.102 20.5358 280.626 29.9481 277.73 29.7507L282.337 30.0798C285.233 30.2772 290.104 19.746 293 19.3511L288.063 20.0093Z" fill="url(#paint18_linear)"/>
<path d="M136.779 183.953C139.792 182.216 145.762 195.396 148.776 193.659L143.994 196.398C140.981 198.135 136.975 183.82 133.962 185.557L136.779 183.953Z" fill="url(#paint19_linear)"/>
<path d="M214.649 184.212C212.994 183.107 210.46 186.947 209.067 185.642L211.256 187.73C212.65 189.034 215.642 184.796 217.296 185.835L214.649 184.212Z" fill="url(#paint20_linear)"/>
<path d="M13.2676 196.062C11.9417 194.955 16.1656 188.534 14.6445 187.691L18.0827 189.505C19.6038 190.348 14.13 196.845 15.6505 197.622L13.2676 196.062Z" fill="url(#paint21_linear)"/>
<path d="M89.3169 237.618C89.0223 233.934 103.949 239.929 104.349 232.751L104.86 238.67C105.155 242.354 89.751 242.222 90.0457 245.905L89.3169 237.618Z" fill="url(#paint22_linear)"/>
<path d="M171.45 243.764C172.692 242.832 170.562 239.954 171.872 239.285L169.775 240.356C168.464 241.025 170.796 244.297 169.619 245.228L171.45 243.764Z" fill="url(#paint23_linear)"/>
<path d="M169.684 245.162C168.441 246.094 170.572 248.972 169.261 249.641L171.359 248.57C172.669 247.901 170.338 244.63 171.515 243.698L169.684 245.162Z" fill="url(#paint24_linear)"/>
<path d="M57.2334 234.336C54.5584 237.124 64.4016 241.318 61.9921 244.367L65.0525 240.457C67.462 237.409 61.222 231.209 63.5662 228.227L57.2334 234.336Z" fill="url(#paint25_linear)"/>
<path d="M244.054 158.894C243.971 156.92 252.305 153.887 251.696 151.917L252.85 156.054C253.741 160.194 243.982 158.17 244.151 162.513L244.054 158.894Z" fill="url(#paint26_linear)"/>
<path d="M160.101 163.162C161.79 160.581 171.814 162.8 173.271 156.139L172.679 163.845C172.37 166.283 162.942 164.455 158.568 168.705L160.101 163.162Z" fill="url(#paint27_linear)"/>
<path d="M217.84 164.646C215.061 163.024 223.522 159.463 218.668 153.712L222.185 157.039C224.841 159.715 219.559 165.619 222.867 167.565L217.84 164.646Z" fill="url(#paint28_linear)"/>
<path d="M72.3315 221.767C70.5791 224.678 66.0285 215.897 63.48 218.091L66.7474 215.298C69.2958 213.105 74.9335 218.125 77.3514 216.064L72.3315 221.767Z" fill="url(#paint29_linear)"/>
<path d="M61.1932 220.019C58.5126 222.148 55.8043 213.285 52.9892 215.086L56.5901 212.818C59.4052 211.016 64.2597 216.833 66.9437 215.099L61.1932 220.019Z" fill="url(#paint30_linear)"/>
<path d="M234.94 108.947C231.184 108.452 235.681 118.616 232.001 119.306L236.732 118.41C240.412 117.72 239.879 109.234 243.428 108.545L234.94 108.947Z" fill="url(#paint31_linear)"/>
<path d="M227.926 120.064C224.113 120.623 226.462 110.467 222.711 110.63L227.515 110.458C231.266 110.294 232.654 118.708 236.272 118.545L227.926 120.064Z" fill="url(#paint32_linear)"/>
<path d="M250.773 213.667C248.194 212.241 247.186 202.047 244.415 201.281L248.769 202.494C251.475 203.261 252.492 214.574 255.07 215.868L250.773 213.667Z" fill="url(#paint33_linear)"/>
<path d="M214.304 89.5068C216.402 88.5016 218.803 92.1672 220.969 91.4905L219.535 93.1483C217.369 93.8249 212.078 90.8422 209.911 91.5188L214.304 89.5068Z" fill="url(#paint34_linear)"/>
<path d="M210.681 96.9098C212.848 96.2332 211.679 90.3849 213.845 89.7083L209.911 91.4531C207.879 92.4578 209.232 96.7905 207.066 97.4672L210.681 96.9098Z" fill="url(#paint35_linear)"/>
<path d="M204.979 92.0216C207.079 91.2796 208.315 97.259 210.616 96.9103L206.934 97.4682C204.568 97.8833 203.667 92.4935 201.567 93.2354L204.979 92.0216Z" fill="url(#paint36_linear)"/>
<path d="M6.12685 231.019C9.08416 230.468 13.4797 221.018 16.3773 221.191L11.7673 220.901C8.86963 220.728 4.08874 231.3 1.19612 231.72L6.12685 231.019Z" fill="url(#paint37_linear)"/>
</g>
<defs>
<linearGradient id="paint0_linear" x1="157.898" y1="68.0003" x2="148.954" y2="55.1073" gradientUnits="userSpaceOnUse">
<stop stop-color="#3E29A6"/>
<stop offset="0.0921788" stop-color="#344ABA"/>
<stop offset="0.2933" stop-color="#56A3C9"/>
<stop offset="0.8101" stop-color="#00FFAA"/>
<stop offset="1" stop-color="#CCFFD5"/>
</linearGradient>
<linearGradient id="paint1_linear" x1="79.8691" y1="65.0922" x2="81.6695" y2="61.4624" gradientUnits="userSpaceOnUse">
<stop stop-color="#A629A6"/>
<stop offset="0.0921788" stop-color="#BA34A2"/>
<stop offset="0.2933" stop-color="#C9567E"/>
<stop offset="0.8101" stop-color="#FFCE00"/>
<stop offset="1" stop-color="#FFEA90"/>
</linearGradient>
<linearGradient id="paint2_linear" x1="276.081" y1="63.5312" x2="280.437" y2="54.6456" gradientUnits="userSpaceOnUse">
<stop offset="0.0921788" stop-color="#6134BA"/>
<stop offset="0.2933" stop-color="#B23CC9"/>
<stop offset="0.8101" stop-color="#FF4D6A"/>
<stop offset="1" stop-color="#FFA6B5"/>
</linearGradient>
<linearGradient id="paint3_linear" x1="190.918" y1="17.5419" x2="204.159" y2="5.92653" gradientUnits="userSpaceOnUse">
<stop offset="0.0921788" stop-color="#6134BA"/>
<stop offset="0.2933" stop-color="#B23CC9"/>
<stop offset="0.8101" stop-color="#FF4D6A"/>
<stop offset="1" stop-color="#FFA6B5"/>
</linearGradient>
<linearGradient id="paint4_linear" x1="124.451" y1="9.35182" x2="122.854" y2="5.69301" gradientUnits="userSpaceOnUse">
<stop stop-color="#A629A6"/>
<stop offset="0.0921788" stop-color="#BA34A2"/>
<stop offset="0.2933" stop-color="#C9567E"/>
<stop offset="0.8101" stop-color="#FFCE00"/>
<stop offset="1" stop-color="#FFEA90"/>
</linearGradient>
<linearGradient id="paint5_linear" x1="124.97" y1="3.90952" x2="121.514" y2="0.831502" gradientUnits="userSpaceOnUse">
<stop stop-color="#A629A6"/>
<stop offset="0.0921788" stop-color="#BA34A2"/>
<stop offset="0.2933" stop-color="#C9567E"/>
<stop offset="0.8101" stop-color="#FFCE00"/>
<stop offset="1" stop-color="#FFEA90"/>
</linearGradient>
<linearGradient id="paint6_linear" x1="233.398" y1="22.2802" x2="232.817" y2="7.52882" gradientUnits="userSpaceOnUse">
<stop stop-color="#3E29A6"/>
<stop offset="0.0921788" stop-color="#344ABA"/>
<stop offset="0.2933" stop-color="#56A3C9"/>
<stop offset="0.8101" stop-color="#00FFAA"/>
<stop offset="1" stop-color="#CCFFD5"/>
</linearGradient>
<linearGradient id="paint7_linear" x1="40.0444" y1="95.4968" x2="48.872" y2="87.8307" gradientUnits="userSpaceOnUse">
<stop stop-color="#3E29A6"/>
<stop offset="0.0921788" stop-color="#344ABA"/>
<stop offset="0.2933" stop-color="#56A3C9"/>
<stop offset="0.8101" stop-color="#00FFAA"/>
<stop offset="1" stop-color="#CCFFD5"/>
</linearGradient>
<linearGradient id="paint8_linear" x1="119.333" y1="94.6159" x2="134.491" y2="78.2383" gradientUnits="userSpaceOnUse">
<stop stop-color="#3E29A6"/>
<stop offset="0.0921788" stop-color="#344ABA"/>
<stop offset="0.2933" stop-color="#56A3C9"/>
<stop offset="0.8101" stop-color="#00FFAA"/>
<stop offset="1" stop-color="#CCFFD5"/>
</linearGradient>
<linearGradient id="paint9_linear" x1="71.8" y1="92.4287" x2="74.4135" y2="82.8461" gradientUnits="userSpaceOnUse">
<stop offset="0.0921788" stop-color="#6134BA"/>
<stop offset="0.2933" stop-color="#B23CC9"/>
<stop offset="0.8101" stop-color="#FF4D6A"/>
<stop offset="1" stop-color="#FFA6B5"/>
</linearGradient>
<linearGradient id="paint10_linear" x1="226.466" y1="36.213" x2="220.832" y2="30.5214" gradientUnits="userSpaceOnUse">
<stop offset="0.0921788" stop-color="#6134BA"/>
<stop offset="0.2933" stop-color="#B23CC9"/>
<stop offset="0.8101" stop-color="#FF4D6A"/>
<stop offset="1" stop-color="#FFA6B5"/>
</linearGradient>
<linearGradient id="paint11_linear" x1="238.336" y1="40.7854" x2="231.512" y2="32.2481" gradientUnits="userSpaceOnUse">
<stop offset="0.0921788" stop-color="#6134BA"/>
<stop offset="0.2933" stop-color="#B23CC9"/>
<stop offset="0.8101" stop-color="#FF4D6A"/>
<stop offset="1" stop-color="#FFA6B5"/>
</linearGradient>
<linearGradient id="paint12_linear" x1="55.6314" y1="130.765" x2="55.1668" y2="142.264" gradientUnits="userSpaceOnUse">
<stop stop-color="#A629A6"/>
<stop offset="0.0921788" stop-color="#BA34A2"/>
<stop offset="0.2933" stop-color="#C9567E"/>
<stop offset="0.8101" stop-color="#FFCE00"/>
<stop offset="1" stop-color="#FFEA90"/>
</linearGradient>
<linearGradient id="paint13_linear" x1="64.6314" y1="139.481" x2="62.8503" y2="129.956" gradientUnits="userSpaceOnUse">
<stop stop-color="#A629A6"/>
<stop offset="0.0921788" stop-color="#BA34A2"/>
<stop offset="0.2933" stop-color="#C9567E"/>
<stop offset="0.8101" stop-color="#FFCE00"/>
<stop offset="1" stop-color="#FFEA90"/>
</linearGradient>
<linearGradient id="paint14_linear" x1="46.7822" y1="49.3129" x2="41.9037" y2="31.8898" gradientUnits="userSpaceOnUse">
<stop stop-color="#3E29A6"/>
<stop offset="0.0921788" stop-color="#344ABA"/>
<stop offset="0.2933" stop-color="#56A3C9"/>
<stop offset="0.8101" stop-color="#00FFAA"/>
<stop offset="1" stop-color="#CCFFD5"/>
</linearGradient>
<linearGradient id="paint15_linear" x1="72.0056" y1="157.974" x2="83.1113" y2="157.974" gradientUnits="userSpaceOnUse">
<stop stop-color="#3E29A6"/>
<stop offset="0.0921788" stop-color="#344ABA"/>
<stop offset="0.2933" stop-color="#56A3C9"/>
<stop offset="0.8101" stop-color="#00FFAA"/>
<stop offset="1" stop-color="#CCFFD5"/>
</linearGradient>
<linearGradient id="paint16_linear" x1="79.1804" y1="155.7" x2="86.026" y2="155.7" gradientUnits="userSpaceOnUse">
<stop stop-color="#3E29A6"/>
<stop offset="0.0921788" stop-color="#344ABA"/>
<stop offset="0.2933" stop-color="#56A3C9"/>
<stop offset="0.8101" stop-color="#00FFAA"/>
<stop offset="1" stop-color="#CCFFD5"/>
</linearGradient>
<linearGradient id="paint17_linear" x1="82.4689" y1="154.609" x2="91.479" y2="154.609" gradientUnits="userSpaceOnUse">
<stop stop-color="#3E29A6"/>
<stop offset="0.0921788" stop-color="#344ABA"/>
<stop offset="0.2933" stop-color="#56A3C9"/>
<stop offset="0.8101" stop-color="#00FFAA"/>
<stop offset="1" stop-color="#CCFFD5"/>
</linearGradient>
<linearGradient id="paint18_linear" x1="285.393" y1="31.9839" x2="285.315" y2="19.9041" gradientUnits="userSpaceOnUse">
<stop stop-color="#3E29A6"/>
<stop offset="0.0921788" stop-color="#344ABA"/>
<stop offset="0.2933" stop-color="#56A3C9"/>
<stop offset="0.8101" stop-color="#00FFAA"/>
<stop offset="1" stop-color="#CCFFD5"/>
</linearGradient>
<linearGradient id="paint19_linear" x1="135.879" y1="181.923" x2="144.932" y2="194.739" gradientUnits="userSpaceOnUse">
<stop stop-color="#3E29A6"/>
<stop offset="0.0921788" stop-color="#344ABA"/>
<stop offset="0.2933" stop-color="#56A3C9"/>
<stop offset="0.8101" stop-color="#00FFAA"/>
<stop offset="1" stop-color="#CCFFD5"/>
</linearGradient>
<linearGradient id="paint20_linear" x1="213.93" y1="184.167" x2="212.161" y2="187.812" gradientUnits="userSpaceOnUse">
<stop stop-color="#A629A6"/>
<stop offset="0.0921788" stop-color="#BA34A2"/>
<stop offset="0.2933" stop-color="#C9567E"/>
<stop offset="0.8101" stop-color="#FFCE00"/>
<stop offset="1" stop-color="#FFEA90"/>
</linearGradient>
<linearGradient id="paint21_linear" x1="17.7387" y1="187.397" x2="13.4587" y2="196.32" gradientUnits="userSpaceOnUse">
<stop offset="0.0921788" stop-color="#6134BA"/>
<stop offset="0.2933" stop-color="#B23CC9"/>
<stop offset="0.8101" stop-color="#FF4D6A"/>
<stop offset="1" stop-color="#FFA6B5"/>
</linearGradient>
<linearGradient id="paint22_linear" x1="103.29" y1="232.66" x2="90.1478" y2="244.388" gradientUnits="userSpaceOnUse">
<stop offset="0.0921788" stop-color="#6134BA"/>
<stop offset="0.2933" stop-color="#B23CC9"/>
<stop offset="0.8101" stop-color="#FF4D6A"/>
<stop offset="1" stop-color="#FFA6B5"/>
</linearGradient>
<linearGradient id="paint23_linear" x1="169.824" y1="240.284" x2="171.452" y2="243.929" gradientUnits="userSpaceOnUse">
<stop stop-color="#A629A6"/>
<stop offset="0.0921788" stop-color="#BA34A2"/>
<stop offset="0.2933" stop-color="#C9567E"/>
<stop offset="0.8101" stop-color="#FFCE00"/>
<stop offset="1" stop-color="#FFEA90"/>
</linearGradient>
<linearGradient id="paint24_linear" x1="169.352" y1="245.731" x2="172.833" y2="248.779" gradientUnits="userSpaceOnUse">
<stop stop-color="#A629A6"/>
<stop offset="0.0921788" stop-color="#BA34A2"/>
<stop offset="0.2933" stop-color="#C9567E"/>
<stop offset="0.8101" stop-color="#FFCE00"/>
<stop offset="1" stop-color="#FFEA90"/>
</linearGradient>
<linearGradient id="paint25_linear" x1="60.7709" y1="228.283" x2="61.4772" y2="243.029" gradientUnits="userSpaceOnUse">
<stop stop-color="#3E29A6"/>
<stop offset="0.0921788" stop-color="#344ABA"/>
<stop offset="0.2933" stop-color="#56A3C9"/>
<stop offset="0.8101" stop-color="#00FFAA"/>
<stop offset="1" stop-color="#CCFFD5"/>
</linearGradient>
<linearGradient id="paint26_linear" x1="253.495" y1="153.424" x2="244.733" y2="161.165" gradientUnits="userSpaceOnUse">
<stop stop-color="#3E29A6"/>
<stop offset="0.0921788" stop-color="#344ABA"/>
<stop offset="0.2933" stop-color="#56A3C9"/>
<stop offset="0.8101" stop-color="#00FFAA"/>
<stop offset="1" stop-color="#CCFFD5"/>
</linearGradient>
<linearGradient id="paint27_linear" x1="174.217" y1="154.98" x2="159.198" y2="171.486" gradientUnits="userSpaceOnUse">
<stop stop-color="#3E29A6"/>
<stop offset="0.0921788" stop-color="#344ABA"/>
<stop offset="0.2933" stop-color="#56A3C9"/>
<stop offset="0.8101" stop-color="#00FFAA"/>
<stop offset="1" stop-color="#CCFFD5"/>
</linearGradient>
<linearGradient id="paint28_linear" x1="221.766" y1="156.762" x2="219.234" y2="166.367" gradientUnits="userSpaceOnUse">
<stop offset="0.0921788" stop-color="#6134BA"/>
<stop offset="0.2933" stop-color="#B23CC9"/>
<stop offset="0.8101" stop-color="#FF4D6A"/>
<stop offset="1" stop-color="#FFA6B5"/>
</linearGradient>
<linearGradient id="paint29_linear" x1="67.5843" y1="214.292" x2="73.2659" y2="219.936" gradientUnits="userSpaceOnUse">
<stop offset="0.0921788" stop-color="#6134BA"/>
<stop offset="0.2933" stop-color="#B23CC9"/>
<stop offset="0.8101" stop-color="#FF4D6A"/>
<stop offset="1" stop-color="#FFA6B5"/>
</linearGradient>
<linearGradient id="paint30_linear" x1="55.6759" y1="209.821" x2="62.5723" y2="218.3" gradientUnits="userSpaceOnUse">
<stop offset="0.0921788" stop-color="#6134BA"/>
<stop offset="0.2933" stop-color="#B23CC9"/>
<stop offset="0.8101" stop-color="#FF4D6A"/>
<stop offset="1" stop-color="#FFA6B5"/>
</linearGradient>
<linearGradient id="paint31_linear" x1="237.608" y1="118.29" x2="237.975" y2="106.788" gradientUnits="userSpaceOnUse">
<stop stop-color="#A629A6"/>
<stop offset="0.0921788" stop-color="#BA34A2"/>
<stop offset="0.2933" stop-color="#C9567E"/>
<stop offset="0.8101" stop-color="#FFCE00"/>
<stop offset="1" stop-color="#FFEA90"/>
</linearGradient>
<linearGradient id="paint32_linear" x1="228.534" y1="109.651" x2="230.396" y2="119.16" gradientUnits="userSpaceOnUse">
<stop stop-color="#A629A6"/>
<stop offset="0.0921788" stop-color="#BA34A2"/>
<stop offset="0.2933" stop-color="#C9567E"/>
<stop offset="0.8101" stop-color="#FFCE00"/>
<stop offset="1" stop-color="#FFEA90"/>
</linearGradient>
<linearGradient id="paint33_linear" x1="247.15" y1="199.664" x2="252.177" y2="217.045" gradientUnits="userSpaceOnUse">
<stop stop-color="#3E29A6"/>
<stop offset="0.0921788" stop-color="#344ABA"/>
<stop offset="0.2933" stop-color="#56A3C9"/>
<stop offset="0.8101" stop-color="#00FFAA"/>
<stop offset="1" stop-color="#CCFFD5"/>
</linearGradient>
<linearGradient id="paint34_linear" x1="221.003" y1="91.2208" x2="209.897" y2="91.3153" gradientUnits="userSpaceOnUse">
<stop stop-color="#3E29A6"/>
<stop offset="0.0921788" stop-color="#344ABA"/>
<stop offset="0.2933" stop-color="#56A3C9"/>
<stop offset="0.8101" stop-color="#00FFAA"/>
<stop offset="1" stop-color="#CCFFD5"/>
</linearGradient>
<linearGradient id="paint35_linear" x1="213.848" y1="93.5562" x2="207.002" y2="93.6145" gradientUnits="userSpaceOnUse">
<stop stop-color="#3E29A6"/>
<stop offset="0.0921788" stop-color="#344ABA"/>
<stop offset="0.2933" stop-color="#56A3C9"/>
<stop offset="0.8101" stop-color="#00FFAA"/>
<stop offset="1" stop-color="#CCFFD5"/>
</linearGradient>
<linearGradient id="paint36_linear" x1="210.569" y1="94.6753" x2="201.559" y2="94.752" gradientUnits="userSpaceOnUse">
<stop stop-color="#3E29A6"/>
<stop offset="0.0921788" stop-color="#344ABA"/>
<stop offset="0.2933" stop-color="#56A3C9"/>
<stop offset="0.8101" stop-color="#00FFAA"/>
<stop offset="1" stop-color="#CCFFD5"/>
</linearGradient>
<linearGradient id="paint37_linear" x1="8.69583" y1="219.023" x2="8.87609" y2="231.101" gradientUnits="userSpaceOnUse">
<stop stop-color="#3E29A6"/>
<stop offset="0.0921788" stop-color="#344ABA"/>
<stop offset="0.2933" stop-color="#56A3C9"/>
<stop offset="0.8101" stop-color="#00FFAA"/>
<stop offset="1" stop-color="#CCFFD5"/>
</linearGradient>
</defs>
</svg>
