<svg width="57" height="57" viewBox="0 0 57 57" fill="none" xmlns="http://www.w3.org/2000/svg">
<path fill-rule="evenodd" clip-rule="evenodd" d="M26.453 14.7455L20.7493 9.08749C20.7483 9.08638 20.7472 9.08528 20.7461 9.08417C20.7429 9.08092 20.7397 9.07764 20.7365 9.07424C18.7378 7.00321 18.7375 3.63063 20.736 1.55614C22.4493 -0.218539 25.3321 -0.134041 27.4745 1.73995C29.6134 -0.134709 32.4952 -0.219541 34.2092 1.55548C36.2084 3.63074 36.2081 7.00332 34.2094 9.07435L34.1966 9.08749L28.4929 14.7455C28.4697 14.7685 28.4452 14.7901 28.4196 14.8102L28.3541 14.8617L28.3537 14.862C28.1158 15.0496 27.8698 15.2436 27.4992 15.2545C27.4909 15.2547 27.4828 15.2548 27.4746 15.2548C27.4666 15.2548 27.4586 15.2547 27.4506 15.2545C27.0763 15.2438 26.8293 15.049 26.5905 14.8606L26.5263 14.8102C26.5007 14.7901 26.4762 14.7686 26.453 14.7455ZM26.4236 3.04004C25.1796 1.92141 23.183 1.426 21.938 2.71551C20.5581 4.14786 20.5557 6.47596 21.9321 7.90875L27.4729 13.4052L33.0137 7.90875C34.39 6.47596 34.3878 4.14797 33.0072 2.71485C31.7624 1.42556 29.7677 1.92097 28.5234 3.04193C28.434 3.12224 28.364 3.18889 28.3072 3.24306L28.305 3.24521C28.0984 3.44215 27.8644 3.66525 27.4746 3.66525C27.0829 3.66525 26.8429 3.43625 26.6311 3.23419C26.5754 3.18098 26.5076 3.1163 26.4236 3.04004ZM55.9774 43.318L56.976 51.0439C57.0205 51.3924 57.0395 51.9023 56.6843 52.3052C56.3336 52.7048 55.8393 52.7561 55.4475 52.7561H37.9483C38.0006 53.0667 38.0273 53.4029 38.0273 53.7658V55.3912C38.0273 56.1248 37.4306 56.7227 36.6958 56.7227H20.5056C19.7708 56.7227 19.1741 56.1248 19.1741 55.3912V53.7658C19.1741 53.4029 19.2019 53.0667 19.2531 52.7561H1.88963C1.6603 52.7561 1.05356 52.7561 0.659458 52.3063C0.305435 51.9044 0.325474 51.3967 0.370005 51.0494L1.35637 43.3902C1.52225 42.1001 1.86959 41.0669 2.34497 40.2297C2.20803 40.1964 2.06442 40.1652 1.9119 40.1351L1.79278 40.1106C1.17157 39.9893 0.39895 39.8368 0.100591 39.1109C-0.202222 38.375 0.228618 37.5813 0.689517 36.901C2.34497 34.4564 3.02073 30.7392 3.02073 24.0697C3.02073 19.8115 4.93101 16.415 7.56503 15.9942L7.58173 15.9908C9.00996 13.5139 12.4578 12.1724 16.254 12.6422C19.9789 13.1031 24.4096 15.4988 25.6766 20.8413C25.8892 21.7463 26.0183 22.7182 26.0963 23.994C26.0974 24.0107 26.0985 24.0285 26.0985 24.0452C26.0985 25.8832 26.1297 28.0451 26.3601 30.137C26.4113 30.5945 26.0807 31.0075 25.622 31.0576C25.1633 31.1089 24.7514 30.7782 24.7002 30.3195C24.462 28.1575 24.4286 25.9489 24.4286 24.0708C24.3562 22.9053 24.2393 22.0269 24.0512 21.2243C22.9825 16.7167 19.2163 14.6916 16.0491 14.2998C12.8885 13.909 9.97072 15.0044 8.95207 16.9648C8.65927 17.527 8.12824 17.6005 7.90224 17.6317C7.87998 17.635 7.8566 17.6384 7.83322 17.6417C6.28587 17.8889 4.69054 20.3603 4.69054 24.0697C4.69054 31.1032 3.93139 35.0921 2.0711 37.8384C1.89854 38.0934 1.79946 38.2737 1.74379 38.3939C1.76749 38.3997 1.83467 38.4148 1.92992 38.4361L1.93022 38.4362L1.9316 38.4365L1.93187 38.4365L1.93251 38.4367L1.933 38.4368C2.318 38.5231 3.15337 38.7102 3.44155 38.8036C4.9467 37.3398 7.01062 36.7776 8.92323 36.2577L9.15702 36.1931C9.61569 36.0684 9.88845 35.4784 10.0744 34.993C7.8468 33.2975 6.237 30.6368 6.237 28.3012V26.01C6.237 25.5714 6.57543 25.2074 7.01295 25.1762C8.23919 25.0905 8.70135 24.6189 9.19092 24.1193L9.19165 24.1186L9.19181 24.1184C9.72606 23.5729 10.4575 22.8261 11.9536 23.2112C12.3432 23.3114 12.6739 23.3994 12.96 23.4762C13.7938 23.6989 14.2124 23.8102 14.5598 23.8102C14.906 23.8102 15.3246 23.6989 16.1584 23.4762C16.4446 23.3994 16.7763 23.3114 17.166 23.2112C18.6585 22.825 19.3899 23.5717 19.9243 24.1172L19.9246 24.1175L19.9267 24.1196C20.4157 24.6187 20.8782 25.0906 22.1055 25.1762C22.543 25.2074 22.8826 25.5714 22.8826 26.01V28.3012C22.8826 30.6379 21.2717 33.2975 19.0441 34.993C19.2311 35.4773 19.5039 36.0684 19.9614 36.1931C19.9614 36.1931 21.5668 36.6317 22.2336 36.8577C22.5966 35.9582 23.1131 35.1611 23.78 34.492C25.0491 33.2184 26.7568 32.5003 28.5892 32.4703H28.6159C30.4473 32.5003 32.155 33.2184 33.423 34.492C33.9974 35.0676 34.4617 35.7367 34.8112 36.4848C35.0875 36.4077 35.8856 36.1946 36.204 36.1096L36.2075 36.1087L36.2089 36.1083L36.2135 36.1071L36.2148 36.1067L36.3069 36.0821C36.3275 36.0748 36.3482 36.0674 36.3697 36.0615C36.8208 35.9383 37.0943 35.3735 37.2823 34.8922C34.278 32.951 32.0139 29.5009 32.0139 26.5062C32.0139 26.5062 32.0131 21.2421 32.0122 21.186C31.9211 15.325 34.5968 13.8989 36.4382 13.6099C37.3405 12.5948 38.6438 11.9393 40.2314 11.7065C41.7524 11.4834 43.4983 11.6694 45.1465 12.2305C49.0796 13.5692 51.6211 16.6051 51.6211 19.9648V26.5062C51.6211 29.5022 49.3658 32.9503 46.3722 34.8901C46.56 35.3707 46.8332 35.9384 47.2841 36.0614L47.4524 36.1074L47.4527 36.1075C47.5916 36.1455 47.7305 36.1836 47.8696 36.2208L47.8706 36.2211L47.8707 36.2211L47.8707 36.2211L47.8707 36.2211L47.8708 36.2211C49.095 36.5461 50.3614 36.8823 51.5567 37.4276C51.9764 37.6191 52.1612 38.1145 51.9697 38.5342C51.7782 38.9528 51.2828 39.1376 50.8631 38.9473C49.7996 38.461 48.6056 38.1442 47.4509 37.8377L47.441 37.8351L47.4074 37.8262C47.3427 37.8091 47.2775 37.7919 47.2139 37.7738L43.4043 40.3554C43.0047 40.6516 42.4658 40.9878 41.8268 40.98C41.1833 40.9822 40.649 40.6516 40.2493 40.3554L36.4409 37.775C36.3507 37.7983 35.6237 37.9921 35.351 38.0678C35.5102 38.7524 35.5903 39.4816 35.5903 40.2498V42.1323C35.5903 44.2097 34.0797 46.5887 32.0446 47.9881C32.1437 48.2041 32.2695 48.4089 32.4209 48.4501C32.5501 48.4857 32.6825 48.5214 32.8173 48.557L32.9513 48.5929L32.9517 48.593C33.1171 48.6373 33.2873 48.6828 33.4596 48.7318L33.4708 48.7345C33.4776 48.7364 33.4847 48.7385 33.4919 48.7407L33.4919 48.7407C34.8934 49.137 36.452 49.7137 37.3293 51.0864H47.9472V47.539C47.9472 47.0779 48.321 46.704 48.7821 46.704C49.2433 46.704 49.6171 47.0779 49.6171 47.539V51.0864H55.2972L54.3208 43.5319C54.195 42.5533 53.9178 41.7428 53.4703 41.0515C53.2198 40.664 53.3311 40.1475 53.7185 39.897C54.106 39.6465 54.6225 39.7578 54.873 40.1452C55.4508 41.038 55.8215 42.1056 55.9774 43.318ZM42.4235 39.004C42.4336 38.9962 42.4436 38.9896 42.4536 38.9829L45.5867 36.8593C45.2687 36.4902 45.0517 36.0651 44.8951 35.6922C44.7184 35.7704 44.5408 35.8449 44.3613 35.9114C43.4368 36.2557 42.6316 36.4162 41.8284 36.4162C41.0266 36.4162 40.2207 36.2558 39.2923 35.9114C39.1132 35.845 38.9358 35.7707 38.7595 35.6929C38.6028 36.0663 38.3856 36.4911 38.0675 36.8597L41.2 38.9829C41.2112 38.9896 41.2201 38.9962 41.2301 39.004C41.5708 39.2567 41.7366 39.3102 41.8157 39.3102C41.819 39.3113 41.8224 39.3102 41.8268 39.3102H41.8379C41.917 39.3102 42.0829 39.2567 42.4235 39.004ZM37.5307 14.9073C37.3883 15.0922 37.1751 15.209 36.9426 15.2296C34.1751 15.4744 33.6419 18.5897 33.6819 21.1599C33.6831 21.2267 33.6838 24.0301 33.6838 24.0301C34.4952 23.9143 34.6772 23.3879 34.9391 22.1092L34.9391 22.109C35.1853 20.9064 35.5575 19.089 37.8177 19.089H40.657C43.2295 19.089 44.6692 20.4393 45.9393 21.6306L45.9394 21.6307L45.9396 21.6309C46.9925 22.6185 47.8242 23.3986 49.1561 23.3986H49.9512V19.9648C49.9512 16.7652 47.073 14.6502 44.6083 13.8114C43.6371 13.4807 42.5589 13.283 41.5192 13.283C39.9269 13.283 38.4243 13.7467 37.5307 14.9073ZM33.6837 25.7072V26.5063C33.6837 29.4591 36.5759 33.1224 39.8731 34.3458C40.6097 34.6191 41.231 34.7464 41.8284 34.7464C42.4263 34.7464 43.0464 34.6193 43.7795 34.3463C47.0676 33.1262 49.9511 29.4629 49.9511 26.5063V25.0686H49.156C47.1634 25.0686 45.9061 23.8893 44.7968 22.8489C43.651 21.7741 42.5688 20.759 40.6569 20.759H37.8176C37.0027 20.759 36.8546 21.0783 36.5749 22.4442C36.3221 23.6794 35.9458 25.5105 33.6837 25.7072ZM28.6025 34.1403C26.5796 34.1793 24.4389 35.3894 23.6251 37.9265C23.4487 38.4514 23.3835 38.9127 23.3499 39.1823C23.6543 39.0301 23.86 38.8202 24.0821 38.5937L24.0836 38.5922C24.3951 38.274 24.7244 37.971 25.1524 37.8208C25.7113 37.6248 26.2674 37.7451 26.8217 37.8913C26.9641 37.9288 27.1069 37.9698 27.2503 38.0108C27.6266 38.1186 28.0063 38.2273 28.3904 38.2786C28.7384 38.3251 29.0811 38.2351 29.416 38.1471L29.4826 38.1297C29.6664 38.0818 29.8494 38.0308 30.0323 37.9799L30.0324 37.9799C30.1829 37.938 30.3333 37.8961 30.4843 37.8559C30.8181 37.7669 31.1628 37.695 31.5103 37.7161C32.3003 37.7572 32.7587 38.2242 33.1169 38.589L33.1169 38.589L33.1189 38.5911C33.1702 38.6434 33.2203 38.6935 33.2704 38.7425C33.4407 38.9117 33.6177 39.0643 33.8548 39.1823C33.8281 38.9685 33.7925 38.7614 33.7491 38.5622C33.6244 37.9777 33.4329 37.4544 33.1913 36.9891C32.2038 35.09 30.3581 34.1737 28.6025 34.1403ZM25.2772 39.7599C24.8909 40.1552 24.341 40.714 23.2844 40.9656H23.2843V42.1322C23.2843 43.9814 25.1167 46.3481 27.174 47.202C27.233 47.2265 27.2909 47.2488 27.3499 47.271C27.8966 47.4748 28.3485 47.5571 28.8172 47.5193C29.1412 47.4948 29.473 47.4124 29.8504 47.2721C31.9811 46.4828 33.9204 44.0326 33.9204 42.1322V40.9655C32.8635 40.7141 32.3135 40.1547 31.9262 39.7606L31.9254 39.7598C31.9029 39.7368 31.8799 39.712 31.8563 39.6865L31.8562 39.6864C31.721 39.5405 31.5652 39.3724 31.3609 39.3791C31.2553 39.3826 31.1491 39.4126 31.0458 39.4418L31.0458 39.4418L31.0457 39.4418C31.0324 39.4456 31.019 39.4494 31.0058 39.4531C30.9899 39.4575 30.9741 39.4618 30.9584 39.4659C30.8093 39.505 30.6603 39.5444 30.5113 39.584C30.4148 39.6097 30.3183 39.6362 30.2216 39.6628L30.2214 39.6628C29.8428 39.7668 29.4619 39.8714 29.0743 39.9275C28.6567 39.9879 28.2447 39.9607 27.8331 39.8743C27.4654 39.7972 27.1022 39.698 26.7393 39.5989C26.6002 39.5609 26.4612 39.5229 26.3219 39.4862C26.2848 39.4764 26.2451 39.4642 26.204 39.4515L26.2037 39.4514C26.0507 39.4043 25.8768 39.3508 25.7306 39.3897C25.5827 39.4289 25.4587 39.5639 25.3505 39.6817C25.3253 39.7092 25.3009 39.7358 25.2772 39.7599ZM29.0122 51.0651L31.3022 49.7202C30.9615 49.4553 30.7333 49.1035 30.5741 48.7806C30.5564 48.7876 30.5389 48.7948 30.5215 48.8019C30.4916 48.814 30.4618 48.8262 30.4316 48.8374C29.7814 49.079 29.1914 49.2003 28.6014 49.2003H28.6003C28.0659 49.2003 27.5326 49.1013 26.9548 48.9042C26.8936 48.8831 26.8313 48.8608 26.7689 48.8374C26.7351 48.8248 26.7018 48.8111 26.6687 48.7975L26.6275 48.7806C26.4683 49.1035 26.2401 49.4553 25.8994 49.7214L26.7823 50.239L28.1895 51.0651C28.1995 51.0718 28.2084 51.0773 28.2184 51.0829C28.5936 51.3245 28.6092 51.3245 28.9777 51.0862C28.9788 51.0851 28.9799 51.0851 28.981 51.084L28.9883 51.0794L28.9966 51.0745L29.0023 51.0712C29.0057 51.0692 29.009 51.0672 29.0122 51.0651ZM7.90703 26.7371V28.3013C7.90703 30.7203 10.2739 33.7227 12.9725 34.727C13.5703 34.9486 14.0746 35.051 14.56 35.051C15.042 35.051 15.5464 34.9486 16.1442 34.7259C18.8439 33.7228 21.2129 30.7204 21.2129 28.3013V26.7371C19.8825 26.4592 19.2056 25.7696 18.7337 25.2888L18.7315 25.2865C18.255 24.7989 18.1414 24.6842 17.5826 24.8278C17.1974 24.9269 16.8712 25.0138 16.5895 25.0895L16.5783 25.0924L16.5783 25.0925L16.5782 25.0925L16.5782 25.0925L16.5781 25.0925C15.6413 25.3422 15.1233 25.4802 14.56 25.4802C13.9967 25.4802 13.4787 25.3422 12.5417 25.0924L12.5305 25.0895C12.2477 25.0138 11.9215 24.9269 11.5374 24.8289C10.9763 24.6831 10.8617 24.7989 10.3841 25.2865C9.91316 25.7686 9.2374 26.4588 7.90703 26.7371ZM15.1655 39.0899L18.2659 36.9902C17.9698 36.6462 17.7638 36.2532 17.6115 35.9003C17.3209 36.0484 17.0259 36.1797 16.7253 36.2922C15.9349 36.585 15.2469 36.7208 14.56 36.7208C13.8709 36.7208 13.1818 36.585 12.3913 36.2922C12.0919 36.1809 11.7968 36.0495 11.5074 35.9003C11.3549 36.2543 11.1489 36.6462 10.8539 36.9902L13.9531 39.0899C13.9602 39.0941 13.9668 39.0987 13.9732 39.1033L13.9843 39.111C14.522 39.5118 14.5977 39.5118 15.1355 39.111C15.1418 39.1068 15.1481 39.1021 15.1545 39.0976L15.1655 39.0899ZM8.60728 51.0862H19.8746C20.7507 49.718 22.3036 49.1391 23.7032 48.7429C23.7165 48.7384 23.731 48.7351 23.7443 48.7307C23.9625 48.6694 24.1752 48.6126 24.3823 48.5581C24.4807 48.5312 24.5786 48.505 24.6759 48.4789L24.783 48.4501C24.9333 48.4078 25.058 48.2041 25.1571 47.9881C23.1244 46.5887 21.6147 44.2108 21.6147 42.1323V40.2498C21.6147 39.6275 21.6693 39.0319 21.7728 38.4641C21.175 38.2581 20.5471 38.0845 19.8925 37.9052L16.1175 40.4624C15.5575 40.8766 15.0587 41.0825 14.56 41.0825C14.0612 41.0825 13.5625 40.8766 13.0025 40.4624L9.22638 37.9052C7.23027 38.4496 5.50145 38.9428 4.36034 40.2453C4.3236 40.2988 4.28352 40.3466 4.23676 40.3889C3.62446 41.1493 3.19807 42.1701 3.01327 43.6029L2.04917 51.0862H6.93736V47.5383C6.93736 47.0774 7.31142 46.7034 7.77232 46.7034C8.23322 46.7034 8.60728 47.0774 8.60728 47.5383V51.0862ZM20.8442 55.0528H36.3575H36.3576V53.7659C36.3576 53.3852 36.3197 53.0512 36.2474 52.7562C36.0526 51.9724 35.6084 51.4659 34.9549 51.0862C34.5162 50.8302 33.9819 50.6309 33.3662 50.445L32.2741 51.0862L29.8716 52.4968C29.708 52.6025 29.5499 52.6894 29.3951 52.7562C29.1224 52.8753 28.8619 52.9354 28.6025 52.9354C28.3075 52.9354 28.0113 52.8586 27.6963 52.705C27.3333 52.6259 27.094 52.4611 26.9392 52.2685L23.8377 50.4472C21.9553 51.025 20.8442 51.7318 20.8442 53.7658V55.0528ZM45.2163 27.1607C45.4146 26.9695 45.7496 26.9695 45.9478 27.1607C46.1098 27.317 46.3187 27.3947 46.5273 27.3947C46.7461 27.3947 46.9645 27.3092 47.1284 27.1395C47.4486 26.8076 47.439 26.279 47.1071 25.9589C46.2662 25.1478 44.8979 25.1478 44.057 25.9589C43.7252 26.279 43.7156 26.8076 44.0358 27.1395C44.3559 27.4713 44.8844 27.4808 45.2163 27.1607ZM36.5502 25.9588C37.3903 25.1486 38.7571 25.1484 39.5972 25.9588C39.929 26.279 39.9386 26.8076 39.6184 27.1393C39.4545 27.3091 39.2361 27.3946 39.0174 27.3946C38.8087 27.3946 38.5999 27.3169 38.4379 27.1606C38.2404 26.9702 37.9069 26.9703 37.7095 27.1606C37.3776 27.4807 36.849 27.4713 36.5289 27.1393C36.2088 26.8075 36.2183 26.2789 36.5502 25.9588ZM43.9767 30.3352C44.3029 30.6612 44.3031 31.1899 43.9771 31.5161C43.4032 32.0906 42.6396 32.4068 41.827 32.4068C41.0145 32.4068 40.251 32.0906 39.677 31.5161C39.351 31.1899 39.3512 30.6612 39.6774 30.3352C40.0036 30.0093 40.5323 30.0095 40.8583 30.3357C41.1168 30.5944 41.4609 30.7369 41.827 30.7369C42.1933 30.7369 42.5373 30.5944 42.7958 30.3357C43.1218 30.0095 43.6505 30.0094 43.9767 30.3352ZM26.9907 42.3774C26.9907 42.8385 26.6169 43.2124 26.1558 43.2124C25.6946 43.2124 25.3208 42.8385 25.3208 42.3774V41.8462C25.3208 41.385 25.6946 41.0112 26.1558 41.0112C26.6169 41.0112 26.9907 41.385 26.9907 41.8462V42.3774ZM30.8857 43.2124C31.3469 43.2124 31.7207 42.8385 31.7207 42.3774V41.8462C31.7207 41.385 31.3469 41.0112 30.8857 41.0112C30.4246 41.0112 30.0508 41.385 30.0508 41.8462V42.3774C30.0509 42.8385 30.4246 43.2124 30.8857 43.2124ZM13.0265 32.7954C13.4714 33.2407 14.0623 33.4859 14.6909 33.4859H14.694C15.3221 33.4851 15.9119 33.2393 16.3546 32.7939C16.6795 32.4669 16.678 31.9382 16.3509 31.6131C16.0237 31.2881 15.4951 31.2897 15.1701 31.6168C15.0427 31.745 14.8728 31.8158 14.6918 31.816H14.6909C14.5087 31.816 14.3372 31.7447 14.2078 31.6152C13.8818 31.2889 13.3533 31.2888 13.0271 31.6146C12.7009 31.9406 12.7005 32.4692 13.0265 32.7954ZM11.441 28.5738C11.269 28.4071 10.9786 28.4071 10.8066 28.5738C10.4754 28.8949 9.9469 28.8864 9.62605 28.5552C9.30509 28.2241 9.31333 27.6954 9.64453 27.3746C10.4602 26.5841 11.7875 26.5841 12.6032 27.3746C12.9343 27.6955 12.9426 28.2241 12.6217 28.5552C12.4579 28.7242 12.24 28.8092 12.0219 28.8092C11.8126 28.8092 11.6032 28.731 11.441 28.5738ZM17.9423 28.5739C18.1139 28.4075 18.4022 28.4067 18.5718 28.572C18.7341 28.7303 18.9445 28.8092 19.1547 28.8092C19.3719 28.8092 19.5889 28.7249 19.7525 28.5571C20.0745 28.227 20.0678 27.6983 19.7377 27.3764C18.9245 26.5833 17.5978 26.5825 16.7803 27.3745C16.4491 27.6954 16.4408 28.224 16.7617 28.5551C17.0825 28.8864 17.6111 28.8948 17.9423 28.5739Z" fill="url(#paint0_linear)"/>
<defs>
<linearGradient id="paint0_linear" x1="10.204" y1="7.33291" x2="33.1883" y2="81.8349" gradientUnits="userSpaceOnUse">
<stop stop-color="#4350F6"/>
<stop offset="1" stop-color="#00FFAA"/>
</linearGradient>
</defs>
</svg>
