<svg width="42" height="60" viewBox="0 0 42 60" fill="none" xmlns="http://www.w3.org/2000/svg">
<path d="M30.9278 42.7714C29.4551 42.7714 28.1188 42.0214 27.3536 40.765C27.0662 40.2933 26.4508 40.1438 25.9793 40.4312C25.5078 40.7184 25.3582 41.3338 25.6456 41.8054C26.1778 42.6792 26.8983 43.3847 27.7371 43.8895L26.7007 48.5929L24.2021 45.7158C24.6557 45.1943 24.5462 44.585 24.1555 44.2453C23.739 43.883 23.1072 43.9269 22.7447 44.3437L20.9865 46.3657L16.5575 41.4445C16.9343 40.7208 17.1628 39.9263 17.2281 39.0983C25.7998 41.6215 34.3744 35.1522 34.3744 26.2656V18C34.3744 17.4477 33.9267 17 33.3744 17C32.8222 17 32.3744 17.4477 32.3744 18V26.2656C32.3744 32.5377 27.2717 37.6405 20.9995 37.6405C14.7272 37.6405 9.62449 32.5378 9.62449 26.2656V17.779C12.0624 17.6406 14.136 16.11 14.875 13.336C19.0387 16.0025 23.706 17.7301 28.6039 18.4157C29.1529 18.4922 29.6567 18.1093 29.7329 17.564C29.8094 17.0171 29.4282 16.5116 28.8813 16.435C23.8938 15.7368 19.0268 13.8702 14.7022 10.8087C14.0411 10.3405 13.1205 10.8169 13.1245 11.6314C13.1246 11.6562 13.1152 14.1363 11.234 15.2681C10.0444 15.9838 8.84112 15.7527 8.63412 15.7505C8.12299 15.7456 7.68987 16.1291 7.63162 16.635C7.62062 16.7317 7.6245 16.4023 7.6245 24.6369C6.9565 24.2905 6.4995 23.601 6.4995 22.8075V10.625C6.4995 9.31536 7.56487 8.24998 8.87449 8.24998C9.28337 8.24998 9.65111 8.00098 9.80299 7.62136C11.169 4.20649 14.428 2 18.106 2H26.6818C31.6129 2 35.6244 6.01161 35.6244 10.9426V22.8075C35.6244 23.3597 36.0722 23.8075 36.6244 23.8075C37.1767 23.8075 37.6244 23.3597 37.6244 22.8075V10.9426C37.6244 4.90887 32.7157 0 26.6818 0H18.106C13.816 0 9.99136 2.45375 8.19537 6.30261C6.10437 6.62999 4.4995 8.44361 4.4995 10.625V22.8075C4.4995 24.7206 5.838 26.3284 7.63462 26.7601C7.82124 31.8674 10.8846 36.2529 15.2495 38.3399V38.6037C15.2495 39.7178 14.815 40.7645 14.0261 41.5513C12.627 42.9464 10.8639 42.7714 11.0709 42.7714C5.36638 42.7714 0.749512 47.3877 0.749512 53.0928V58.9999C0.749512 59.5521 1.19726 59.9999 1.74951 59.9999C2.30176 59.9999 2.74951 59.5521 2.74951 58.9999V53.0928C2.74951 48.4934 6.47137 44.7713 11.0711 44.7714C11.5087 44.7714 11.9456 44.7249 12.3776 44.6325L13.773 50.965C13.9496 51.7669 14.9669 52.0245 15.5046 51.4055L17.4747 49.137L16.2573 58.8759C16.1888 59.4239 16.5777 59.9236 17.1256 59.9921C17.6746 60.0605 18.1735 59.6711 18.242 59.1239L19.6488 47.8688C19.7125 47.9394 20.2683 48.5628 20.3396 48.6257C20.7523 48.9879 21.3811 48.9512 21.7481 48.5373C21.9458 48.3109 21.4343 48.8988 22.3478 47.8483L23.7572 59.1238C23.8256 59.671 24.3243 60.0605 24.8736 59.992C25.4216 59.9235 25.8103 59.4238 25.7418 58.8758L24.5245 49.1369L26.4946 51.4054C27.0331 52.0255 28.0498 51.7654 28.2262 50.9649L29.6216 44.6322C30.0452 44.7222 30.4819 44.7712 30.9279 44.7712C35.5272 44.7713 39.2494 48.493 39.2494 53.0928V58.9999C39.2494 59.5521 39.6972 59.9999 40.2494 59.9999C40.8017 59.9999 41.2494 59.5521 41.2494 58.9999V53.0928C41.2494 47.3882 36.633 42.7712 30.9278 42.7714ZM15.2982 48.5929L14.2616 43.8882C14.6429 43.6579 15.0005 43.3838 15.3301 43.0703L17.7546 45.7643L15.2982 48.5929Z" fill="url(#paint0_linear)"/>
<defs>
<linearGradient id="paint0_linear" x1="8" y1="7.5" x2="41" y2="79" gradientUnits="userSpaceOnUse">
<stop stop-color="#4350F6"/>
<stop offset="1" stop-color="#00FFAA"/>
</linearGradient>
</defs>
</svg>
