<svg width="39" height="57" viewBox="0 0 39 57" fill="none" xmlns="http://www.w3.org/2000/svg">
<path d="M38.7374 50.4381V56.0499C38.7374 56.5745 38.312 56.9999 37.7874 56.9999C37.2627 56.9999 36.8374 56.5745 36.8374 56.0499V50.4381C36.8374 46.0689 33.3016 42.5327 28.9318 42.5328C28.1713 42.5328 27.437 42.3891 26.7585 42.1211L24.5901 56.1946C24.5103 56.7135 24.0249 57.0688 23.5066 56.9888C22.9881 56.9089 22.6325 56.4238 22.7124 55.9053L25.0043 41.0301C24.5867 40.6529 24.2172 40.2135 23.9137 39.7151C23.6407 39.2671 23.7826 38.6826 24.2308 38.4096C24.6787 38.1365 25.2633 38.2786 25.5363 38.7267C26.2558 39.9078 27.5267 40.6327 28.9318 40.6327C34.3511 40.6327 38.7374 45.0182 38.7374 50.4381ZM23.0458 44.161C22.7244 43.7462 22.1278 43.6701 21.7129 43.9914L19.4998 45.7048L14.0677 41.4992L13.9951 41.0286C15.0875 40.0447 15.7955 38.6845 15.9171 37.1434C24.0272 39.531 32.1406 33.4447 32.2055 25.0518C32.2061 25.0307 32.2059 18.4274 32.2059 18.4062C32.2059 18.05 32.0013 17.7105 31.6655 17.55C31.4582 17.4506 27.611 16.624 25.9638 12.4745C25.6928 11.7915 24.7749 11.6599 24.3255 12.2488C20.8491 16.8056 15.9125 19.8494 10.3791 20.9462C9.86443 21.0482 9.53003 21.5481 9.63192 22.0628C9.72169 22.5151 10.1187 22.8282 10.5628 22.8282C10.8015 22.8282 18.7988 21.6459 24.8821 14.5784C26.1472 16.7421 28.0841 18.2909 30.3059 19.0961V24.9524C30.3059 30.911 25.4583 35.7586 19.4997 35.7586C13.9227 35.7586 8.69344 31.4239 8.69344 24.5813C8.69344 24.0567 8.26808 23.6313 7.74344 23.6313C7.2188 23.6313 6.79344 24.0567 6.79344 24.5813C6.79344 24.6305 6.79249 25.1058 6.79499 25.1531C6.87241 30.1198 9.81408 34.4042 14.0372 36.4234V36.6736C14.0372 37.732 13.6244 38.7264 12.875 39.4738C11.5412 40.8037 9.82014 40.633 10.0675 40.633C8.53562 40.633 7.05849 40.9843 5.7247 41.6446V12.7656C5.7247 6.77432 10.599 1.9 16.5903 1.9H22.5278C28.5191 1.9 33.3934 6.77432 33.3934 12.7656V38.4749C33.3934 38.9996 33.8188 39.4249 34.3434 39.4249C34.868 39.4249 35.2934 38.9996 35.2934 38.4749V12.7656C35.2934 5.72659 29.5667 0 22.5278 0H16.5903C9.55141 0 3.8247 5.72659 3.8247 12.7656V42.877C1.55135 44.7608 0.262207 47.4954 0.262207 50.4381V56.0499C0.262207 56.5745 0.687569 56.9999 1.21221 56.9999C1.73684 56.9999 2.1622 56.5745 2.1622 56.0499V50.4381C2.1622 48.3265 2.98455 46.3413 4.47771 44.8481C7.1168 42.209 10.4715 42.5327 10.0678 42.5327C10.8243 42.5327 11.5584 42.3896 12.2407 42.1185L14.4095 56.1944C14.4817 56.6639 14.8864 56.9999 15.3471 56.9999C15.9317 56.9999 16.3756 56.4795 16.2871 55.9051L14.488 44.2274L18.9181 47.6572C19.2612 47.9228 19.7395 47.9219 20.0813 47.6572L22.876 45.4936C23.2909 45.1725 23.3669 44.5758 23.0458 44.161Z" fill="url(#paint0_linear)"/>
<defs>
<linearGradient id="paint0_linear" x1="7.15022" y1="7.12502" x2="38.5002" y2="75.0503" gradientUnits="userSpaceOnUse">
<stop stop-color="#4350F6"/>
<stop offset="1" stop-color="#00FFAA"/>
</linearGradient>
</defs>
</svg>
