<svg width="106" height="106" viewBox="0 0 106 106" fill="none" xmlns="http://www.w3.org/2000/svg">
<g clip-path="url(#clip0)">
<path d="M32.1511 10.4258C23.967 10.4258 16.5126 20.3653 16.5126 31.2772C16.5126 32.2368 17.2906 33.0148 18.2502 33.0148C19.2098 33.0148 19.9878 32.2368 19.9878 31.2772C19.9878 21.4912 26.5268 13.901 32.1511 13.901C33.1107 13.901 33.8888 13.123 33.8888 12.1634C33.8888 11.2038 33.1107 10.4258 32.1511 10.4258Z" fill="url(#paint0_linear)"/>
<path d="M99.9182 51.5898C99.9182 28.8913 85.4963 10.4257 67.7723 10.4257C65.3126 10.4359 62.8674 10.7973 60.5104 11.5015C54.5094 4.08018 46.6426 0 38.2327 0C20.5087 0 6.08679 18.4656 6.08679 41.1641C6.08679 60.0573 15.8821 76.3959 29.6626 81.0182L28.8583 82.6294C28.5893 83.1682 28.6181 83.8079 28.9346 84.3195C29.2519 84.832 29.8111 85.1434 30.4135 85.1434H35.7426C34.7388 86.0181 34.1636 87.2865 34.167 88.6186C34.2009 90.1662 34.956 91.6085 36.2067 92.5198C36.9194 93.1552 37.0856 93.3521 37.0856 93.8281C37.0856 94.304 36.9126 94.5043 36.2067 95.1398C34.9289 96.0289 34.1661 97.4874 34.1661 99.0443C34.1661 100.601 34.9289 102.06 36.2067 102.949C36.9194 103.586 37.0856 103.785 37.0856 104.262C37.0856 105.222 37.8637 106 38.8233 106C39.7829 106 40.5609 105.222 40.5609 104.262C40.5278 102.714 39.7735 101.27 38.5212 100.358C37.8085 99.7205 37.6422 99.522 37.6422 99.046C37.6422 98.57 37.8162 98.3681 38.5212 97.7326C39.7998 96.8443 40.5617 95.3867 40.5617 93.8298C40.5617 92.2729 39.7998 90.8152 38.5212 89.9269C37.8085 89.2914 37.6422 89.0946 37.6422 88.6186C37.6422 88.1426 37.8162 87.9458 38.5212 87.312C39.2466 86.7291 39.827 85.9876 40.2173 85.1434H44.3144C44.9168 85.1434 45.4759 84.832 45.7933 84.3195C46.1097 83.8079 46.1386 83.1682 45.8696 82.6294L45.1866 81.2634C45.2698 81.2456 45.3605 81.2091 45.4505 81.1904C48.98 85.8331 53.7424 89.3907 59.1953 91.4592L58.3978 93.0551C58.1288 93.5939 58.1577 94.2336 58.4741 94.7452C58.7915 95.2577 59.3506 95.5691 59.953 95.5691H65.1658V102.52C65.1658 103.479 65.9439 104.257 66.9035 104.257C67.8631 104.257 68.6411 103.479 68.6411 102.52V95.5691H73.8539C74.458 95.5725 75.0197 95.2619 75.3387 94.7495C75.6577 94.2362 75.6874 93.5947 75.4176 93.0551L74.6778 91.5763C89.4297 87.6751 99.9182 71.2984 99.9182 51.5898ZM42.2764 78.2192C41.736 78.3134 41.2719 78.6578 41.0241 79.1482C40.7772 79.6386 40.7764 80.2164 41.0216 80.7068L41.5027 81.6681H33.2252L33.7063 80.7068C33.943 80.2342 33.9506 79.6785 33.7283 79.1983C33.5052 78.7181 33.0759 78.366 32.5609 78.2412C19.2335 75.0044 9.56203 59.4108 9.56203 41.1641C9.56203 20.3822 22.4202 3.47524 38.2327 3.47524C45.5667 3.65002 52.451 7.0489 57.0496 12.7649C56.9953 12.7886 56.9469 12.82 56.8935 12.8446C56.5643 12.9957 56.247 13.1747 55.9237 13.3393C55.4443 13.5828 54.9624 13.8229 54.4949 14.0936C54.1598 14.2904 53.8365 14.5093 53.5082 14.718C53.0704 14.9955 52.6394 15.272 52.205 15.5741C51.8749 15.8091 51.5585 16.0628 51.2369 16.3097C50.8305 16.6236 50.4241 16.9367 50.0211 17.2735C49.7029 17.5433 49.3966 17.8276 49.0878 18.111C48.7111 18.4588 48.3335 18.8067 47.9687 19.1749C47.6666 19.4786 47.3748 19.7951 47.0804 20.1133C46.7333 20.49 46.3855 20.8726 46.0486 21.2689C45.7636 21.604 45.487 21.9476 45.2129 22.2955C44.8897 22.7044 44.5732 23.121 44.2644 23.5444C43.9996 23.9075 43.7426 24.2766 43.4906 24.6516C43.1936 25.0894 42.9068 25.5357 42.6218 25.9896C42.3808 26.3774 42.1458 26.7677 41.9167 27.1656C41.6469 27.6331 41.3949 28.1116 41.1344 28.5927C40.9189 29.0008 40.7051 29.4106 40.5023 29.8297C40.2605 30.3269 40.0315 30.8326 39.8075 31.3416C39.6174 31.7693 39.4282 32.1943 39.2526 32.6304C39.0388 33.1522 38.8428 33.6876 38.6485 34.2238C38.4864 34.6658 38.3235 35.1053 38.1734 35.5533C37.9892 36.1074 37.8263 36.6724 37.6609 37.2375C37.5311 37.6872 37.3936 38.1318 37.2757 38.5874C37.1204 39.1762 36.9906 39.7743 36.8583 40.3734C36.7573 40.8239 36.6495 41.2668 36.5613 41.7224C36.4374 42.3562 36.3424 43.0027 36.2431 43.6492C36.177 44.0802 36.0972 44.5036 36.0421 44.9397C35.9496 45.6685 35.8885 46.4067 35.8266 47.1448C35.7952 47.5079 35.7476 47.866 35.7239 48.2325C35.6586 49.3423 35.6263 50.4614 35.6263 51.5898C35.6263 52.8778 35.6789 54.1564 35.7706 55.4248C35.8003 55.8439 35.8571 56.2554 35.8978 56.6746C35.9793 57.5171 36.0709 58.3596 36.1821 59.1902C36.2533 59.6789 36.356 60.1566 36.434 60.6394C36.5647 61.3885 36.6988 62.1352 36.86 62.8708C36.9728 63.3748 37.1035 63.8677 37.2282 64.3632C37.4021 65.0581 37.5913 65.7529 37.7983 66.4487C37.9477 66.945 38.1114 67.4337 38.276 67.9233C38.5026 68.591 38.7384 69.2511 38.9921 69.9044C39.1779 70.3838 39.3714 70.8564 39.5724 71.3272C39.8473 71.9687 40.1358 72.5957 40.4413 73.2184C40.6602 73.6732 40.8808 74.1271 41.1158 74.57C41.439 75.1851 41.7843 75.7867 42.1356 76.3755C42.3859 76.7997 42.6294 77.2248 42.8933 77.6371C42.9849 77.7814 43.0672 77.9358 43.1588 78.0783C42.8738 78.1199 42.5768 78.1649 42.2764 78.2192ZM71.816 88.6449C71.2738 88.7382 70.8089 89.0818 70.5603 89.5723C70.3125 90.0627 70.3108 90.6413 70.556 91.1325L71.0371 92.0938H62.7647L63.2458 91.1325C63.4851 90.654 63.4902 90.0923 63.2602 89.6096C63.0295 89.126 62.59 88.7764 62.0673 88.6602C56.9588 87.5275 51.774 83.7952 47.4715 78.1683C41.8828 70.4466 38.9463 61.1213 39.1016 51.5898C39.1016 49.4865 39.2356 47.3858 39.5029 45.2994C41.3601 30.9293 49.4543 18.9781 60.4536 15.1431C62.8072 14.326 65.2804 13.906 67.7723 13.901C83.5848 13.901 96.443 30.808 96.443 51.5898C96.443 70.5925 86.0869 86.1861 71.8211 88.6449H71.816Z" fill="url(#paint1_linear)"/>
<path d="M61.6906 20.8514C53.3758 20.8514 47.7897 31.625 47.7897 41.7029C47.7897 42.6625 48.5677 43.4405 49.5273 43.4405C50.4869 43.4405 51.2649 42.6625 51.2649 41.7029C51.2649 32.4463 56.1299 24.3267 61.6906 24.3267C62.6502 24.3267 63.4282 23.5487 63.4282 22.5891C63.4282 21.6295 62.6502 20.8514 61.6906 20.8514Z" fill="url(#paint2_linear)"/>
</g>
<defs>
<linearGradient id="paint0_linear" x1="-3.34141" y1="-4.81141" x2="120.03" y2="109.871" gradientUnits="userSpaceOnUse">
<stop stop-color="#FFF200"/>
<stop offset="1" stop-color="#FF4D6A"/>
</linearGradient>
<linearGradient id="paint1_linear" x1="-6.25719" y1="-1.67507" x2="117.114" y2="113.008" gradientUnits="userSpaceOnUse">
<stop stop-color="#FFF200"/>
<stop offset="1" stop-color="#FF4D6A"/>
</linearGradient>
<linearGradient id="paint2_linear" x1="5.55515" y1="-14.3823" x2="128.926" y2="100.301" gradientUnits="userSpaceOnUse">
<stop stop-color="#FFF200"/>
<stop offset="1" stop-color="#FF4D6A"/>
</linearGradient>
<clipPath id="clip0">
<rect width="106" height="106" fill="white"/>
</clipPath>
</defs>
</svg>
