<svg width="868" height="620" viewBox="0 0 868 620" fill="none" xmlns="http://www.w3.org/2000/svg">
<path d="M358 440V625L345.47 624.978H345V440H358Z" fill="#344ABA"/>
<path d="M217.523 439.85H365.197V335.309C365.197 285.027 332.141 244.263 291.36 244.263C250.582 244.263 217.523 285.027 217.523 335.309V439.85Z" fill="#4B6AF4"/>
<path d="M407.193 244.264H286.854V362.816H392.497L407.193 244.264Z" fill="#4B6AF4"/>
<path d="M333.355 439.85H481.03V335.31C481.03 285.027 447.973 244.263 407.192 244.263C366.415 244.263 333.355 285.027 333.355 335.31V439.85Z" fill="#2F31B6"/>
<path d="M341.305 429.324H473.085V336.036C473.085 291.165 443.587 254.789 407.195 254.789C370.807 254.789 341.305 291.165 341.305 336.036V429.324Z" fill="#1C2C79"/>
<path d="M598.311 439.85H331.138C328.78 439.85 326.868 437.495 326.868 434.588C326.868 431.682 328.78 429.324 331.138 429.324H598.311C600.668 429.324 602.581 431.682 602.581 434.588C602.581 437.495 600.668 439.85 598.311 439.85Z" fill="#2F31B6"/>
<path d="M321.641 449.5H384.227C386.44 449.5 388.237 447.284 388.237 444.555V439.611H317.403V444.268C317.403 447.157 319.301 449.5 321.641 449.5Z" fill="#344ABA"/>
<path d="M475.539 247.329L490.713 312.722C490.935 313.686 491.01 314.662 490.96 315.605C490.774 319.044 488.868 322.127 486.027 323.128L393.927 355.625C391.073 356.631 388.129 355.233 386.497 352.413C386.057 351.654 385.714 350.793 385.496 349.845L370.329 284.481C369.291 280.008 371.384 275.354 375.004 274.077L467.104 241.579C470.717 240.304 474.488 242.871 475.539 247.329Z" fill="#FFE67C"/>
<path d="M490.957 315.605C490.771 319.044 488.864 322.127 486.024 323.128L393.925 355.625C391.071 356.631 388.124 355.233 386.496 352.413L433.406 299.717L490.957 315.605Z" fill="#FCDF67"/>
<path d="M475.54 246.9L434.307 310.034L371.105 287.396L370.329 284.051C369.291 279.578 371.387 274.924 375.005 273.647L467.106 241.151C470.72 239.875 474.488 242.443 475.54 246.9Z" fill="#FFCE00"/>
<path d="M295.062 323.445C295.849 324.56 295.949 325.803 295.56 327.133L295.551 327.151C294.83 329.611 292.446 332.357 289.676 335.1C289.323 335.453 289.007 335.772 288.733 336.07C288.663 336.147 288.589 336.223 288.521 336.303C288.465 336.365 288.412 336.426 288.359 336.484C285.778 339.42 286.748 340.092 282.11 346.051C276.818 352.837 273.176 352.957 272.139 352.339C271.264 351.813 273.044 348.212 275.018 344.169C275.112 343.972 275.206 343.776 275.307 343.576C275.569 343.039 275.828 342.494 276.09 341.952C278.403 337.084 277.808 334.799 277.26 327.551C276.815 321.661 269.832 294.652 269.832 294.652L279.968 292.498C279.968 292.498 283.023 314.006 286.385 317.32C288.185 319.085 290.198 319.107 291.927 320.415C292.051 320.506 292.169 320.6 292.287 320.695C293.271 321.498 294.27 322.326 295.062 323.445Z" fill="#FFB27D"/>
<path d="M295.063 323.445C295.849 324.56 295.95 325.803 295.561 327.133L295.552 327.151C294.668 329.611 292.343 332.343 289.668 335.075C289.317 335.434 289.008 335.761 288.734 336.07C288.663 336.147 288.589 336.223 288.522 336.303C288.466 336.365 288.413 336.426 288.36 336.484C285.778 339.42 286.748 340.092 282.11 346.051C276.818 352.837 273.177 352.957 272.14 352.339C271.264 351.813 273.044 348.212 275.018 344.169C276.049 343.704 280.831 341.306 284.45 335.598C287.635 330.588 289.759 324.146 291.928 320.415C292.051 320.506 292.169 320.6 292.287 320.695C293.271 321.498 294.27 322.326 295.063 323.445Z" fill="#233862"/>
<path d="M213.31 315.639C212.685 319.498 208.224 318.855 203.239 317.35C198.256 315.85 199.44 317.634 192.348 316.667C185.254 315.701 183.106 312.438 182.89 311.138C182.696 309.982 186.201 309.576 189.96 309.041C190.432 308.976 190.907 308.907 191.382 308.834C195.627 308.177 198.735 304.798 202.59 302.026C206.241 299.399 211.692 288.696 211.692 288.696L221.418 289.644C221.418 289.644 216.315 299.207 214.341 303.363C213.18 305.808 213.242 309.038 213.386 311.534C213.46 312.893 213.533 314.28 213.31 315.639Z" fill="#FFB27D"/>
<path d="M203.239 317.35C198.256 315.85 199.44 317.634 192.348 316.667C185.254 315.701 183.106 312.438 182.89 311.138C182.696 309.982 186.201 309.576 189.96 309.041L189.995 309.132C189.995 309.132 194.249 312.849 200.153 313.023C204.965 313.169 210.063 311.468 213.386 311.534C213.46 312.893 213.533 314.28 213.31 315.639C212.685 319.498 208.224 318.855 203.239 317.35Z" fill="#233862"/>
<path d="M250.588 238.942L259.68 269.112L271.554 308.51C271.554 308.51 274.775 308.891 277.86 307.798C280.7 306.788 283.959 304.139 283.959 304.139C283.959 304.139 280.665 261.838 274.513 237.554C272.939 231.324 271.171 226.281 269.224 223.443C259.689 209.55 250.588 238.942 250.588 238.942Z" fill="#02BB93"/>
<path d="M259.836 191.027C265.794 188.659 282.786 191.7 299.854 195.82L303.425 188.55L340.294 185C340.294 185 352.46 218.269 345.798 239.465C344.819 242.578 342.875 244.576 339.56 244.642H339.021C339.021 244.642 317.079 244.627 309.955 244.627C291.619 244.627 271.15 229.088 268.504 228.434C264.17 227.366 262.438 238.051 258.104 249.274C253.769 260.497 217.366 298.972 217.366 298.972C217.366 298.972 211.771 299.041 209.458 297.973C206.974 296.825 206.064 295.331 206.064 295.331C206.064 295.331 246.4 196.372 259.836 191.027Z" fill="#0AE5B6"/>
<path d="M293.155 125.345C304.782 137.005 332.795 157.21 332.947 157.124C332.947 157.124 341.922 163.752 348.044 160.5C358.247 155.078 366.086 136.099 351.97 115.102C344.929 104.629 339.095 101.178 340.463 87.2546C341.947 72.1714 336.423 53.2041 322.342 52.4078C321.168 52.3415 314.039 51.1665 308.945 53.1378C295.978 58.1577 274.29 117.62 293.155 125.345Z" fill="#312827"/>
<path d="M331.289 107.717C331.348 107.728 328.452 115.506 324.243 117.391C319.768 119.409 313.41 116.134 313.47 116.09C314.234 115.553 314.777 112.019 314.48 107.761C314.463 107.56 314.451 107.356 314.43 107.147C314.036 102.385 312.921 97.1736 312.85 96.8337L312.847 96.8191L326.49 92.0095L327.299 91.7245C328.156 105.02 329.433 107.462 331.289 107.717Z" fill="#FFB27D"/>
<path d="M326.492 92.0111C325.168 96.8987 321.791 105.735 314.432 107.149C314.038 102.389 312.924 97.1764 312.85 96.8366L312.847 96.822L326.492 92.0111Z" fill="#ED975D"/>
<path d="M310.578 101.886C310.578 101.886 328.971 100.379 328.032 86.2694C327.093 72.1633 328.834 62.4667 317.052 62.8309C305.274 63.199 303.352 68.8123 302.736 73.6165C302.121 78.4169 305.771 101.917 310.578 101.886Z" fill="#FFB27D"/>
<path d="M307.271 62.5776C307.271 62.5776 311.842 79.1123 322.69 81.0359C330.606 82.4371 333.748 79.7974 333.748 79.7974C333.748 79.7974 329.332 74.6226 326.937 66.6609C326.23 64.3116 324.561 62.6047 322.558 62.2215C316.92 61.1493 309.651 56.5512 307.271 62.5776Z" fill="#453B3A"/>
<path d="M311.172 65.5072C311.172 65.5072 307.886 67.1394 305.599 73.1856C304.344 76.4885 303.439 84.356 304.212 87.5972C304.212 87.5972 298.924 72.5143 302.754 65.7156C306.816 58.504 311.172 65.5072 311.172 65.5072Z" fill="#403A3A"/>
<path d="M346.598 159.786C346.271 161.497 345.991 163.074 345.764 164.527C345.39 166.874 345.133 168.898 344.954 170.682C344.391 176.244 344.562 179.539 344.182 183.147C343.973 185.164 343.587 187.278 342.812 189.934C342.052 192.517 322.119 194.82 310.778 193.894C307.178 193.603 304.435 192.978 303.459 191.943C299.414 187.609 299.818 197.138 299.261 151.542C298.993 129.304 314.564 109.496 314.564 109.496C314.564 109.496 315.808 118.997 331.253 107.69C331.801 107.294 337.885 118.401 343.737 132.076C350.187 147.183 348.419 150.376 346.598 159.786Z" fill="#FFCE00"/>
<path d="M259.681 269.112L271.556 308.51C271.556 308.51 274.776 308.891 277.861 307.798C280.701 306.788 283.96 304.139 283.96 304.139C283.96 304.139 280.666 261.838 274.514 237.554L259.681 269.112Z" fill="#0AE5B6"/>
<path d="M314.566 109.49C314.566 109.49 298.676 112.815 296.811 121.251C294.943 129.687 282.052 176.871 282.052 176.871C282.052 176.871 292.04 181.074 295.773 176.471C299.504 171.871 308.758 133.778 308.758 133.778L314.566 109.49Z" fill="#FFCE00"/>
<path d="M313.649 92.8237C313.649 92.8237 313.199 95.269 311.195 95.6778C309.191 96.0902 308.599 95.8311 308.149 95.3858C307.699 94.9406 307.187 94.0098 307.187 94.0098C307.187 94.0098 310.399 92.5207 313.649 92.8237Z" fill="white"/>
<path d="M344.954 170.679C344.391 176.241 344.562 179.537 344.182 183.144C329.753 183.202 310.463 169.404 310.463 169.404L344.954 170.679Z" fill="#ECB800"/>
<path d="M310.463 157.741C310.463 157.741 332.941 156.912 336.731 141.159C340.891 123.851 345.555 148.276 345.555 148.276L343.074 163.866H318.413L310.463 157.741Z" fill="#ECB800"/>
<path d="M315.028 183.862L280.154 184.265L262.991 134.535L297.865 134.135L315.028 183.862Z" fill="#F9DDBF"/>
<path d="M310.466 161.39L307.909 157.517C307.909 157.517 306.179 155.613 304.924 155.289C303.669 154.966 301.017 153.081 300.761 153.611C300.505 154.141 302.797 157.931 302.797 157.931L302.915 157.953C300.281 160.394 293.633 158.24 292.814 159.235C291.819 160.441 294.182 163.054 295.451 164.518C296.718 165.985 300.345 168.427 303.171 167.341C305.236 166.549 308.489 165.742 308.489 165.742L310.466 161.39Z" fill="#FFB27D"/>
<path d="M331.256 107.692C331.256 107.692 345.847 108.869 349.495 115.888C353.142 122.904 357.665 158.53 355.768 170.767C353.87 183 307.146 168.427 307.146 168.427L308.637 157.811C308.637 157.811 335.602 158.004 337.14 153.673C339.182 147.914 331.256 107.692 331.256 107.692Z" fill="#FFCE00"/>
<path d="M265.615 143.282C265.615 143.282 267.805 140.212 269.201 141.684C270.595 143.159 268.836 150.407 267.507 149.669C266.178 148.932 264.849 144.183 265.615 143.282Z" fill="#FFB27D"/>
<path d="M545.481 264.146L514.284 235.231L518.866 231.428L519.276 231.593L545.481 264.146ZM545.481 264.146L529.473 233.35L532.333 229.665L545.481 264.146Z" fill="#B5D1F8"/>
<path d="M545.48 264.145L519.276 231.593L499.039 206.452L526.076 226.815L529.472 233.349L545.48 264.145Z" fill="#F8FBFF"/>
<path d="M545.48 264.144L532.332 229.663L542.84 222.201L545.48 264.144Z" fill="#F8FBFF"/>
<path d="M383.91 106.009L423.081 107.815L423.463 108.073L423.893 114.608L383.91 106.009ZM383.91 106.009L415.83 95.0292L415.214 99.9686L383.91 106.009Z" fill="#B5D1F8"/>
<path d="M383.906 106.009L415.213 99.9664L421.854 98.6859L453.331 109.21L423.077 107.815L383.906 106.009Z" fill="#F8FBFF"/>
<path d="M383.906 106.011L413.99 80.8663L415.826 95.0315L383.906 106.011Z" fill="#F8FBFF"/>
<path d="M49.022 342.29L35.787 364.194C35.592 364.518 35.3574 364.786 35.1005 364.993C34.1656 365.76 32.9022 365.76 31.9514 364.888L1.10064 336.542C0.144827 335.667 -0.211394 334.166 0.122435 332.837C0.212006 332.48 0.351372 332.135 0.542889 331.816L13.7723 309.922C14.6777 308.422 16.3928 308.113 17.6056 309.228L48.456 337.571C49.6664 338.682 49.9204 340.793 49.022 342.29Z" fill="#CDE0FB"/>
<path d="M35.1005 364.993C34.1656 365.76 32.9022 365.76 31.9514 364.888L1.10064 336.542C0.144827 335.667 -0.211394 334.166 0.122435 332.837L25.1941 338.468L35.1005 364.993Z" fill="#BED7FB"/>
<path d="M49.0219 342.289L22.63 341.439L13.0951 311.041L13.7722 309.922C14.6776 308.421 16.3927 308.112 17.6055 309.228L48.4559 337.57C49.6663 338.682 49.9203 340.793 49.0219 342.289Z" fill="#DFEBFD"/>
<g filter="url(#filter0_d)">
<path fill-rule="evenodd" clip-rule="evenodd" d="M194.245 572.162C190.156 549.394 170.111 532.246 146.214 532.531C119.586 532.85 98.2581 554.694 98.5764 581.322C98.7734 597.799 107.212 612.246 119.927 620.792C115.399 631.087 112.946 642.492 113.089 654.471C113.626 699.388 150.474 735.366 195.392 734.829C240.31 734.292 276.287 697.444 275.75 652.526C275.216 607.875 238.801 572.058 194.245 572.162Z" fill="url(#paint0_linear)"/>
</g>
<path fill-rule="evenodd" clip-rule="evenodd" d="M750.65 122.758L742.312 130.462L743.67 131.931L752.007 124.227L750.65 122.758ZM762.377 97.8128L715.268 141.336L716.625 142.805L763.734 99.2819L762.377 97.8128ZM698.57 142.081L764.23 81.4178L765.587 82.8869L699.927 143.55L698.57 142.081ZM762.476 69.9014L686.602 140.001L687.959 141.47L763.834 71.3704L762.476 69.9014ZM676.783 134.391L758.702 58.7069L760.059 60.1759L678.14 135.86L676.783 134.391ZM667.766 128.812L754.062 49.084L755.419 50.553L669.123 130.281L667.766 128.812ZM660.801 122.111L747.306 42.1895L748.663 43.6586L662.158 123.58L660.801 122.111ZM740.411 36.3985L656.198 114.201L657.556 115.67L741.768 37.8675L740.411 36.3985ZM651.735 105.189L731.362 31.623L732.719 33.092L653.092 106.658L651.735 105.189ZM721.895 27.2316L648.522 95.0201L649.879 96.4891L723.253 28.7006L721.895 27.2316ZM646.977 83.3107L709.511 25.5365L710.868 27.0055L648.334 84.7797L646.977 83.3107ZM694.209 26.5382L649.601 67.7504L650.958 69.2195L695.566 28.0072L694.209 26.5382ZM661.397 43.7157L669.735 36.0125L671.092 37.4815L662.754 45.1847L661.397 43.7157Z" fill="url(#paint1_linear)"/>
<path d="M747.322 431.646C748.194 434.817 757.387 428.554 757.882 437.337L758.511 430.518C758.873 427.357 746.496 428.151 745.787 424.993L747.322 431.646Z" fill="url(#paint2_linear)"/>
<path d="M679.766 381.657C673.67 381.693 674.391 367.769 668.647 368.813L677.949 367.053C683.785 365.935 683.396 381.6 689.307 381.714L679.766 381.657Z" fill="url(#paint3_linear)"/>
<path d="M688.959 381.851C695.055 381.815 694.335 395.739 700.078 394.695L690.777 396.454C684.94 397.573 685.329 381.908 679.419 381.794L688.959 381.851Z" fill="url(#paint4_linear)"/>
<path d="M650.576 509.203C645.501 508.417 642.958 520.079 638.485 518.52L645.87 521.032C650.505 522.604 653.649 509.596 658.584 510.209L650.576 509.203Z" fill="url(#paint5_linear)"/>
<path d="M637.459 518.199C632.683 516.453 627.927 527.461 623.823 525.03L630.352 528.949C634.455 531.38 640.208 519.139 644.914 520.797L637.459 518.199Z" fill="url(#paint6_linear)"/>
<path d="M638.676 437.448C634.554 443.354 653.346 447.287 649.76 453.478L654.34 445.481C657.926 439.291 645.168 430.494 648.661 424.378L638.676 437.448Z" fill="url(#paint7_linear)"/>
<path d="M691.609 601.52C697.227 604.309 682.036 619.28 698.385 623.604L685.304 622.385C679.206 621.849 685.318 598.844 679.655 596.379L691.609 601.52Z" fill="url(#paint8_linear)"/>
<path d="M602.959 589.194C611.445 593.832 604.024 615.022 612.428 616.138L598.172 618.591C589.768 617.475 600.719 601.043 592.292 600.089L602.959 589.194Z" fill="url(#paint9_linear)"/>
<path d="M752.809 485.758C749.684 483.973 754.541 475.18 751.141 474.191L745.69 472.558C749.161 473.634 744.626 481.307 747.843 483.018L752.809 485.758Z" fill="url(#paint10_linear)"/>
<path d="M739.293 480.011C742.347 481.709 746.342 472.607 749.883 473.77L744.362 472.051C740.822 470.888 737.452 479.056 734.398 477.357L739.293 480.011Z" fill="url(#paint11_linear)"/>
<path d="M800.548 593.615C791.356 593.421 798.231 617.147 788.995 617.849L800.813 616.931C810.048 616.229 812.445 595.646 821.262 594.995L800.548 593.615Z" fill="url(#paint12_linear)"/>
<g filter="url(#filter1_d)">
<path d="M199.528 521.645L297.032 532.407L238.96 611.467L199.528 521.645Z" fill="url(#paint13_linear)"/>
</g>
<g filter="url(#filter2_d)">
<path d="M698.544 142.357L736.939 141.722L775.281 143.827L787.75 180.146L797.597 217.262L766.908 240.343L734.652 261.178L703.216 239.124L673.434 214.884L684.695 178.173L698.544 142.357Z" fill="url(#paint14_linear)"/>
</g>
<defs>
<filter id="filter0_d" x="38" y="471" width="278.723" height="304.964" filterUnits="userSpaceOnUse" color-interpolation-filters="sRGB">
<feFlood flood-opacity="0" result="BackgroundImageFix"/>
<feColorMatrix in="SourceAlpha" type="matrix" values="0 0 0 0 0 0 0 0 0 0 0 0 0 0 0 0 0 0 127 0"/>
<feOffset dx="-10" dy="-10"/>
<feGaussianBlur stdDeviation="25"/>
<feColorMatrix type="matrix" values="0 0 0 0 0.203922 0 0 0 0 0.290196 0 0 0 0 0.729412 0 0 0 0.46 0"/>
<feBlend mode="normal" in2="BackgroundImageFix" result="effect1_dropShadow"/>
<feBlend mode="normal" in="SourceGraphic" in2="effect1_dropShadow" result="shape"/>
</filter>
<filter id="filter1_d" x="134.528" y="456.645" width="197.504" height="189.822" filterUnits="userSpaceOnUse" color-interpolation-filters="sRGB">
<feFlood flood-opacity="0" result="BackgroundImageFix"/>
<feColorMatrix in="SourceAlpha" type="matrix" values="0 0 0 0 0 0 0 0 0 0 0 0 0 0 0 0 0 0 127 0"/>
<feOffset dx="-15" dy="-15"/>
<feGaussianBlur stdDeviation="25"/>
<feColorMatrix type="matrix" values="0 0 0 0 1 0 0 0 0 0.807843 0 0 0 0 0 0 0 0 0.34 0"/>
<feBlend mode="normal" in2="BackgroundImageFix" result="effect1_dropShadow"/>
<feBlend mode="normal" in="SourceGraphic" in2="effect1_dropShadow" result="shape"/>
</filter>
<filter id="filter2_d" x="608.434" y="76.7223" width="224.163" height="219.456" filterUnits="userSpaceOnUse" color-interpolation-filters="sRGB">
<feFlood flood-opacity="0" result="BackgroundImageFix"/>
<feColorMatrix in="SourceAlpha" type="matrix" values="0 0 0 0 0 0 0 0 0 0 0 0 0 0 0 0 0 0 127 0"/>
<feOffset dx="-15" dy="-15"/>
<feGaussianBlur stdDeviation="25"/>
<feColorMatrix type="matrix" values="0 0 0 0 1 0 0 0 0 0.301961 0 0 0 0 0.415686 0 0 0 0.3 0"/>
<feBlend mode="normal" in2="BackgroundImageFix" result="effect1_dropShadow"/>
<feBlend mode="normal" in="SourceGraphic" in2="effect1_dropShadow" result="shape"/>
</filter>
<linearGradient id="paint0_linear" x1="119.024" y1="593.39" x2="275.844" y2="660.318" gradientUnits="userSpaceOnUse">
<stop stop-color="#6500F4"/>
<stop offset="1" stop-color="#4389F4"/>
</linearGradient>
<linearGradient id="paint1_linear" x1="747.213" y1="128.657" x2="665.357" y2="40.0569" gradientUnits="userSpaceOnUse">
<stop stop-color="#00FFAA"/>
<stop offset="1" stop-color="#4350F6"/>
</linearGradient>
<linearGradient id="paint2_linear" x1="748.791" y1="433.714" x2="756.497" y2="427.502" gradientUnits="userSpaceOnUse">
<stop stop-color="#A629A6"/>
<stop offset="0.0921788" stop-color="#BA34A2"/>
<stop offset="0.2933" stop-color="#C9567E"/>
<stop offset="0.8101" stop-color="#FFCE00"/>
<stop offset="1" stop-color="#FFEA90"/>
</linearGradient>
<linearGradient id="paint3_linear" x1="683.646" y1="388.302" x2="675.22" y2="367.429" gradientUnits="userSpaceOnUse">
<stop stop-color="#3E29A6"/>
<stop offset="0.0921788" stop-color="#344ABA"/>
<stop offset="0.2933" stop-color="#56A3C9"/>
<stop offset="0.8101" stop-color="#00FFAA"/>
<stop offset="1" stop-color="#CCFFD5"/>
</linearGradient>
<linearGradient id="paint4_linear" x1="682.481" y1="382.932" x2="701.867" y2="400.336" gradientUnits="userSpaceOnUse">
<stop stop-color="#3E29A6"/>
<stop offset="0.0921788" stop-color="#344ABA"/>
<stop offset="0.2933" stop-color="#56A3C9"/>
<stop offset="0.8101" stop-color="#00FFAA"/>
<stop offset="1" stop-color="#CCFFD5"/>
</linearGradient>
<linearGradient id="paint5_linear" x1="651.207" y1="521.754" x2="646.597" y2="510.756" gradientUnits="userSpaceOnUse">
<stop stop-color="#A629A6"/>
<stop offset="0.0921788" stop-color="#BA34A2"/>
<stop offset="0.2933" stop-color="#C9567E"/>
<stop offset="0.8101" stop-color="#FFCE00"/>
<stop offset="1" stop-color="#FFEA90"/>
</linearGradient>
<linearGradient id="paint6_linear" x1="643.388" y1="520.619" x2="626.495" y2="525.121" gradientUnits="userSpaceOnUse">
<stop stop-color="#A629A6"/>
<stop offset="0.0921788" stop-color="#BA34A2"/>
<stop offset="0.2933" stop-color="#C9567E"/>
<stop offset="0.8101" stop-color="#FFCE00"/>
<stop offset="1" stop-color="#FFEA90"/>
</linearGradient>
<linearGradient id="paint7_linear" x1="655.247" y1="449.386" x2="642.287" y2="430.953" gradientUnits="userSpaceOnUse">
<stop stop-color="#A629A6"/>
<stop offset="0.0921788" stop-color="#BA34A2"/>
<stop offset="0.2933" stop-color="#C9567E"/>
<stop offset="0.8101" stop-color="#FFCE00"/>
<stop offset="1" stop-color="#FFEA90"/>
</linearGradient>
<linearGradient id="paint8_linear" x1="696.351" y1="625.924" x2="680.283" y2="599.799" gradientUnits="userSpaceOnUse">
<stop stop-color="#3E29A6"/>
<stop offset="0.0921788" stop-color="#344ABA"/>
<stop offset="0.2933" stop-color="#56A3C9"/>
<stop offset="0.8101" stop-color="#00FFAA"/>
<stop offset="1" stop-color="#CCFFD5"/>
</linearGradient>
<linearGradient id="paint9_linear" x1="610.646" y1="615.4" x2="595.249" y2="598.262" gradientUnits="userSpaceOnUse">
<stop offset="0.0921788" stop-color="#6134BA"/>
<stop offset="0.2933" stop-color="#B23CC9"/>
<stop offset="0.8101" stop-color="#FF4D6A"/>
<stop offset="1" stop-color="#FFA6B5"/>
</linearGradient>
<linearGradient id="paint10_linear" x1="747.465" y1="473.076" x2="754.642" y2="490.459" gradientUnits="userSpaceOnUse">
<stop stop-color="#3E29A6"/>
<stop offset="0.0921788" stop-color="#344ABA"/>
<stop offset="0.2933" stop-color="#56A3C9"/>
<stop offset="0.8101" stop-color="#00FFAA"/>
<stop offset="1" stop-color="#CCFFD5"/>
</linearGradient>
<linearGradient id="paint11_linear" x1="739.02" y1="483.795" x2="742.682" y2="471.896" gradientUnits="userSpaceOnUse">
<stop stop-color="#3E29A6"/>
<stop offset="0.0921788" stop-color="#344ABA"/>
<stop offset="0.2933" stop-color="#56A3C9"/>
<stop offset="0.8101" stop-color="#00FFAA"/>
<stop offset="1" stop-color="#CCFFD5"/>
</linearGradient>
<linearGradient id="paint12_linear" x1="804.995" y1="616.114" x2="804.078" y2="593.205" gradientUnits="userSpaceOnUse">
<stop stop-color="#3E29A6"/>
<stop offset="0.0921788" stop-color="#344ABA"/>
<stop offset="0.2933" stop-color="#56A3C9"/>
<stop offset="0.8101" stop-color="#00FFAA"/>
<stop offset="1" stop-color="#CCFFD5"/>
</linearGradient>
<linearGradient id="paint13_linear" x1="199.528" y1="521.645" x2="290.818" y2="588.701" gradientUnits="userSpaceOnUse">
<stop stop-color="#FFE67C"/>
<stop offset="1" stop-color="#FFCE00"/>
</linearGradient>
<linearGradient id="paint14_linear" x1="698.544" y1="142.357" x2="773.259" y2="249.446" gradientUnits="userSpaceOnUse">
<stop stop-color="#F77652"/>
<stop offset="1" stop-color="#F5398E"/>
</linearGradient>
</defs>
</svg>
