<svg width="1749" height="1180" viewBox="0 0 1749 1180" fill="none" xmlns="http://www.w3.org/2000/svg">
<g filter="url(#filter0_d)">
<path d="M1504.13 744.672L1571.62 743.556L1639.03 747.255L1660.95 811.102L1678.26 876.35L1624.31 916.926L1567.6 953.552L1512.34 914.782L1459.99 872.17L1479.78 807.633L1504.13 744.672Z" fill="url(#paint0_linear)"/>
</g>
<path d="M1516.32 789.661C1517.63 794.047 1529.79 785.858 1530.84 797.922L1531.4 788.6C1531.75 784.281 1515.05 784.834 1513.95 780.472L1516.32 789.661Z" fill="url(#paint1_linear)"/>
<path d="M1422.8 718.191C1414.55 717.976 1414.93 698.917 1407.2 700.098L1419.7 698.09C1427.55 696.81 1427.7 718.271 1435.7 718.683L1422.8 718.191Z" fill="url(#paint2_linear)"/>
<path d="M1435.23 718.856C1443.48 719.071 1443.11 738.13 1450.83 736.949L1438.33 738.958C1430.48 740.238 1430.33 718.776 1422.33 718.364L1435.23 718.856Z" fill="url(#paint3_linear)"/>
<path d="M1388.86 891.802C1381.96 890.503 1379.03 906.384 1372.91 904.052L1383 907.816C1389.34 910.172 1393.03 892.474 1399.73 893.528L1388.86 891.802Z" fill="url(#paint4_linear)"/>
<path d="M1371.51 903.567C1364.98 900.966 1359.02 915.852 1353.37 912.341L1362.37 917.998C1368.02 921.509 1375.27 904.975 1381.7 907.453L1371.51 903.567Z" fill="url(#paint5_linear)"/>
<path d="M1369.65 792.904C1364.33 800.822 1389.92 807.03 1385.34 815.362L1391.18 804.597C1395.76 796.265 1378.13 783.65 1382.59 775.417L1369.65 792.904Z" fill="url(#paint6_linear)"/>
<path d="M1448.35 1020.16C1456.06 1024.22 1436.17 1044.09 1458.47 1050.73L1440.73 1048.49C1432.46 1047.49 1439.72 1016.21 1431.96 1012.59L1448.35 1020.16Z" fill="url(#paint7_linear)"/>
<path d="M1327.94 999.412C1339.61 1006.14 1330.5 1034.87 1341.91 1036.76L1322.74 1039.51C1311.33 1037.61 1325.42 1015.56 1313.98 1013.89L1327.94 999.412Z" fill="url(#paint8_linear)"/>
<path d="M1526.09 864.092C1521.78 861.508 1527.97 849.662 1523.33 848.159L1515.89 845.685C1520.63 847.31 1514.83 857.634 1519.25 860.119L1526.09 864.092Z" fill="url(#paint9_linear)"/>
<path d="M1507.56 855.625C1511.76 858.086 1516.77 845.779 1521.61 847.527L1514.07 844.931C1509.23 843.183 1505.03 854.236 1500.82 851.774L1507.56 855.625Z" fill="url(#paint10_linear)"/>
<path d="M1595.32 1014.04C1582.88 1013.38 1593.21 1046.21 1580.75 1046.77L1596.69 1046.02C1609.15 1045.46 1611.5 1017.34 1623.39 1016.83L1595.32 1014.04Z" fill="url(#paint11_linear)"/>
<g filter="url(#filter1_d)">
<path d="M1439.13 567.364L1582.85 583.226L1497.25 699.753L1439.13 567.364Z" fill="url(#paint12_linear)"/>
</g>
<g filter="url(#filter2_b)">
<path d="M1416.24 549.178L1608.87 570.439L1494.14 726.632L1416.24 549.178Z" fill="#F2F3FF" fill-opacity="0.2"/>
</g>
<g filter="url(#filter3_d)">
<path d="M364.464 309.81L415.693 256.881L470.566 207.74L536.735 240.106L600.427 277.108L590.093 350.04L574.584 422.049L502.028 434.757L428.751 442.26L394.243 377.182L364.464 309.81Z" fill="url(#paint13_linear)"/>
</g>
<g filter="url(#filter4_b)">
<path d="M310.077 320.747L383.231 245.165L461.589 174.993L556.077 221.211L647.029 274.049L632.271 378.195L610.125 481.023L506.516 499.171L401.877 509.884L352.601 416.954L310.077 320.747Z" fill="white" fill-opacity="0.1"/>
</g>
<path d="M108.143 242.45C112.389 240.738 103.121 229.379 115.038 227.228L105.704 227.531C101.371 227.576 103.452 244.156 99.2089 245.647L108.143 242.45Z" fill="url(#paint14_linear)"/>
<path d="M45.5429 342.127C46.0844 350.354 27.0711 351.731 28.9552 359.312L25.8094 347.047C23.8159 339.353 45.1729 337.234 44.8502 329.232L45.5429 342.127Z" fill="url(#paint15_linear)"/>
<path d="M45.0656 329.68C44.5241 321.453 63.5374 320.076 61.6533 312.495L64.7991 324.76C66.7925 332.453 45.4356 334.573 45.7584 342.574L45.0656 329.68Z" fill="url(#paint16_linear)"/>
<path d="M221.534 360.015C220.872 367.003 236.955 368.468 235.193 374.773L238.016 364.375C239.782 357.849 221.82 355.799 222.256 349.031L221.534 360.015Z" fill="url(#paint17_linear)"/>
<path d="M234.838 376.211C232.848 382.956 248.217 387.521 245.239 393.473L250.047 383.994C253.025 378.042 235.897 372.34 237.774 365.704L234.838 376.211Z" fill="url(#paint18_linear)"/>
<path d="M124.811 388.201C133.183 392.77 137.022 366.728 145.738 370.526L134.483 365.69C125.766 361.892 114.82 380.607 106.212 376.923L124.811 388.201Z" fill="url(#paint19_linear)"/>
<path d="M343.896 289.013C347.239 280.956 368.846 298.943 373.413 276.133L372.809 294.006C372.571 302.332 340.761 297.962 337.862 306.026L343.896 289.013Z" fill="url(#paint20_linear)"/>
<path d="M334.273 410.818C339.901 398.575 369.347 405.02 370.189 393.482L374.678 412.32C373.837 423.858 350.584 411.843 349.965 423.385L334.273 410.818Z" fill="url(#paint21_linear)"/>
<path d="M181.365 225.903C179.186 230.424 166.823 225.349 165.752 230.109L163.97 237.745C165.154 232.876 175.965 237.705 178.035 233.072L181.365 225.903Z" fill="url(#paint22_linear)"/>
<path d="M174.631 245.126C176.697 240.715 163.983 236.857 165.28 231.878L163.386 239.624C162.089 244.603 173.48 247.774 171.414 252.186L174.631 245.126Z" fill="url(#paint23_linear)"/>
<path d="M324.341 143.219C324.818 155.666 356.563 142.376 358.264 154.73L356.06 138.925C354.36 126.571 326.145 126.809 324.547 115.011L324.341 143.219Z" fill="url(#paint24_linear)"/>
<path fill-rule="evenodd" clip-rule="evenodd" d="M285.821 627.061L269.176 642.438L270.534 643.907L287.178 628.53L285.821 627.061ZM309.906 577.994L215.863 664.879L217.221 666.348L311.263 579.463L309.906 577.994ZM182.528 666.365L313.605 545.265L314.962 546.734L183.886 667.834L182.528 666.365ZM310.104 522.275L158.638 662.213L159.995 663.682L311.461 523.744L310.104 522.275ZM139.039 651.014L302.572 499.928L303.929 501.397L140.396 652.484L139.039 651.014ZM121.038 639.878L293.31 480.718L294.667 482.187L122.395 641.347L121.038 639.878ZM107.132 626.499L279.82 466.955L281.178 468.424L108.49 627.968L107.132 626.499ZM265.379 454.663L97.2682 609.978L98.6254 611.447L266.736 456.132L265.379 454.663ZM88.3588 591.987L247.315 445.129L248.672 446.598L89.716 593.456L88.3588 591.987ZM228.417 436.363L81.9439 571.687L83.3011 573.156L229.774 437.832L228.417 436.363ZM78.8624 548.312L203.697 432.979L205.054 434.448L80.2196 549.781L78.8624 548.312ZM173.149 434.979L84.0999 517.25L85.4571 518.719L174.506 436.448L173.149 434.979ZM107.646 469.27L124.291 453.892L125.648 455.361L109.003 470.739L107.646 469.27Z" fill="url(#paint25_linear)"/>
<defs>
<filter id="filter0_d" x="1349.61" y="617.214" width="399.221" height="397.169" filterUnits="userSpaceOnUse" color-interpolation-filters="sRGB">
<feFlood flood-opacity="0" result="BackgroundImageFix"/>
<feColorMatrix in="SourceAlpha" type="matrix" values="0 0 0 0 0 0 0 0 0 0 0 0 0 0 0 0 0 0 127 0"/>
<feOffset dx="-15" dy="-15"/>
<feGaussianBlur stdDeviation="25"/>
<feColorMatrix type="matrix" values="0 0 0 0 0.262745 0 0 0 0 0.313725 0 0 0 0 0.964706 0 0 0 0.16 0"/>
<feBlend mode="normal" in2="BackgroundImageFix" result="effect1_dropShadow"/>
<feBlend mode="normal" in="SourceGraphic" in2="effect1_dropShadow" result="shape"/>
</filter>
<filter id="filter1_d" x="1331.34" y="444.101" width="286.508" height="290.652" filterUnits="userSpaceOnUse" color-interpolation-filters="sRGB">
<feFlood flood-opacity="0" result="BackgroundImageFix"/>
<feColorMatrix in="SourceAlpha" type="matrix" values="0 0 0 0 0 0 0 0 0 0 0 0 0 0 0 0 0 0 127 0"/>
<feOffset dx="-15" dy="-15"/>
<feGaussianBlur stdDeviation="25"/>
<feColorMatrix type="matrix" values="0 0 0 0 1 0 0 0 0 0.807843 0 0 0 0 0 0 0 0 0.34 0"/>
<feBlend mode="normal" in2="BackgroundImageFix" result="effect1_dropShadow"/>
<feBlend mode="normal" in="SourceGraphic" in2="effect1_dropShadow" result="shape"/>
</filter>
<filter id="filter2_b" x="1343.87" y="456.082" width="279.995" height="285.551" filterUnits="userSpaceOnUse" color-interpolation-filters="sRGB">
<feFlood flood-opacity="0" result="BackgroundImageFix"/>
<feGaussianBlur in="BackgroundImage" stdDeviation="7.5"/>
<feComposite in2="SourceAlpha" operator="in" result="effect1_backgroundBlur"/>
<feBlend mode="normal" in="SourceGraphic" in2="effect1_backgroundBlur" result="shape"/>
</filter>
<filter id="filter3_d" x="278.556" y="127.55" width="367.444" height="374.75" filterUnits="userSpaceOnUse" color-interpolation-filters="sRGB">
<feFlood flood-opacity="0" result="BackgroundImageFix"/>
<feColorMatrix in="SourceAlpha" type="matrix" values="0 0 0 0 0 0 0 0 0 0 0 0 0 0 0 0 0 0 127 0"/>
<feOffset dx="-15" dy="-15"/>
<feGaussianBlur stdDeviation="25"/>
<feColorMatrix type="matrix" values="0 0 0 0 1 0 0 0 0 0.301961 0 0 0 0 0.415686 0 0 0 0.3 0"/>
<feBlend mode="normal" in2="BackgroundImageFix" result="effect1_dropShadow"/>
<feBlend mode="normal" in="SourceGraphic" in2="effect1_dropShadow" result="shape"/>
</filter>
<filter id="filter4_b" x="265.22" y="138.301" width="411.907" height="422.339" filterUnits="userSpaceOnUse" color-interpolation-filters="sRGB">
<feFlood flood-opacity="0" result="BackgroundImageFix"/>
<feGaussianBlur in="BackgroundImage" stdDeviation="7.5"/>
<feComposite in2="SourceAlpha" operator="in" result="effect1_backgroundBlur"/>
<feBlend mode="normal" in="SourceGraphic" in2="effect1_backgroundBlur" result="shape"/>
</filter>
<linearGradient id="paint0_linear" x1="1504.13" y1="744.672" x2="1635.47" y2="932.928" gradientUnits="userSpaceOnUse">
<stop stop-color="#4350F6"/>
<stop offset="1" stop-color="#00FFAA"/>
</linearGradient>
<linearGradient id="paint1_linear" x1="1518.39" y1="792.56" x2="1528.54" y2="784.378" gradientUnits="userSpaceOnUse">
<stop stop-color="#A629A6"/>
<stop offset="0.0921788" stop-color="#BA34A2"/>
<stop offset="0.2933" stop-color="#C9567E"/>
<stop offset="0.8101" stop-color="#FFCE00"/>
<stop offset="1" stop-color="#FFEA90"/>
</linearGradient>
<linearGradient id="paint2_linear" x1="1428.33" y1="727.47" x2="1417.1" y2="698.078" gradientUnits="userSpaceOnUse">
<stop stop-color="#3E29A6"/>
<stop offset="0.0921788" stop-color="#344ABA"/>
<stop offset="0.2933" stop-color="#56A3C9"/>
<stop offset="0.8101" stop-color="#00FFAA"/>
<stop offset="1" stop-color="#CCFFD5"/>
</linearGradient>
<linearGradient id="paint3_linear" x1="1426.52" y1="720.057" x2="1453.99" y2="744.194" gradientUnits="userSpaceOnUse">
<stop stop-color="#3E29A6"/>
<stop offset="0.0921788" stop-color="#344ABA"/>
<stop offset="0.2933" stop-color="#56A3C9"/>
<stop offset="0.8101" stop-color="#00FFAA"/>
<stop offset="1" stop-color="#CCFFD5"/>
</linearGradient>
<linearGradient id="paint4_linear" x1="1390.25" y1="909.037" x2="1384.08" y2="893.543" gradientUnits="userSpaceOnUse">
<stop stop-color="#A629A6"/>
<stop offset="0.0921788" stop-color="#BA34A2"/>
<stop offset="0.2933" stop-color="#C9567E"/>
<stop offset="0.8101" stop-color="#FFCE00"/>
<stop offset="1" stop-color="#FFEA90"/>
</linearGradient>
<linearGradient id="paint5_linear" x1="1379.63" y1="907.142" x2="1357.3" y2="913.663" gradientUnits="userSpaceOnUse">
<stop stop-color="#A629A6"/>
<stop offset="0.0921788" stop-color="#BA34A2"/>
<stop offset="0.2933" stop-color="#C9567E"/>
<stop offset="0.8101" stop-color="#FFCE00"/>
<stop offset="1" stop-color="#FFEA90"/>
</linearGradient>
<linearGradient id="paint6_linear" x1="1392.58" y1="809.99" x2="1374.48" y2="784" gradientUnits="userSpaceOnUse">
<stop stop-color="#A629A6"/>
<stop offset="0.0921788" stop-color="#BA34A2"/>
<stop offset="0.2933" stop-color="#C9567E"/>
<stop offset="0.8101" stop-color="#FFCE00"/>
<stop offset="1" stop-color="#FFEA90"/>
</linearGradient>
<linearGradient id="paint7_linear" x1="1455.82" y1="1053.82" x2="1433.56" y2="1016.94" gradientUnits="userSpaceOnUse">
<stop stop-color="#3E29A6"/>
<stop offset="0.0921788" stop-color="#344ABA"/>
<stop offset="0.2933" stop-color="#56A3C9"/>
<stop offset="0.8101" stop-color="#00FFAA"/>
<stop offset="1" stop-color="#CCFFD5"/>
</linearGradient>
<linearGradient id="paint8_linear" x1="1339.47" y1="1035.68" x2="1317.74" y2="1011.66" gradientUnits="userSpaceOnUse">
<stop offset="0.0921788" stop-color="#6134BA"/>
<stop offset="0.2933" stop-color="#B23CC9"/>
<stop offset="0.8101" stop-color="#FF4D6A"/>
<stop offset="1" stop-color="#FFA6B5"/>
</linearGradient>
<linearGradient id="paint9_linear" x1="1518.31" y1="846.472" x2="1527.9" y2="870.957" gradientUnits="userSpaceOnUse">
<stop stop-color="#3E29A6"/>
<stop offset="0.0921788" stop-color="#344ABA"/>
<stop offset="0.2933" stop-color="#56A3C9"/>
<stop offset="0.8101" stop-color="#00FFAA"/>
<stop offset="1" stop-color="#CCFFD5"/>
</linearGradient>
<linearGradient id="paint10_linear" x1="1507.35" y1="860.802" x2="1512.75" y2="844.973" gradientUnits="userSpaceOnUse">
<stop stop-color="#3E29A6"/>
<stop offset="0.0921788" stop-color="#344ABA"/>
<stop offset="0.2933" stop-color="#56A3C9"/>
<stop offset="0.8101" stop-color="#00FFAA"/>
<stop offset="1" stop-color="#CCFFD5"/>
</linearGradient>
<linearGradient id="paint11_linear" x1="1602.31" y1="1045.08" x2="1602.04" y2="1013.62" gradientUnits="userSpaceOnUse">
<stop stop-color="#3E29A6"/>
<stop offset="0.0921788" stop-color="#344ABA"/>
<stop offset="0.2933" stop-color="#56A3C9"/>
<stop offset="0.8101" stop-color="#00FFAA"/>
<stop offset="1" stop-color="#CCFFD5"/>
</linearGradient>
<linearGradient id="paint12_linear" x1="1439.13" y1="567.364" x2="1573.69" y2="666.198" gradientUnits="userSpaceOnUse">
<stop stop-color="#FFE67C"/>
<stop offset="1" stop-color="#FFCE00"/>
</linearGradient>
<linearGradient id="paint13_linear" x1="364.464" y1="309.81" x2="611.053" y2="353.777" gradientUnits="userSpaceOnUse">
<stop stop-color="#F77652"/>
<stop offset="1" stop-color="#F5398E"/>
</linearGradient>
<linearGradient id="paint14_linear" x1="110.839" y1="240.118" x2="101.761" y2="230.76" gradientUnits="userSpaceOnUse">
<stop stop-color="#A629A6"/>
<stop offset="0.0921788" stop-color="#BA34A2"/>
<stop offset="0.2933" stop-color="#C9567E"/>
<stop offset="0.8101" stop-color="#FFCE00"/>
<stop offset="1" stop-color="#FFEA90"/>
</linearGradient>
<linearGradient id="paint15_linear" x1="54.2757" y1="335.765" x2="26.0371" y2="349.644" gradientUnits="userSpaceOnUse">
<stop stop-color="#3E29A6"/>
<stop offset="0.0921788" stop-color="#344ABA"/>
<stop offset="0.2933" stop-color="#56A3C9"/>
<stop offset="0.8101" stop-color="#00FFAA"/>
<stop offset="1" stop-color="#CCFFD5"/>
</linearGradient>
<linearGradient id="paint16_linear" x1="47.0598" y1="338.246" x2="68.5787" y2="308.683" gradientUnits="userSpaceOnUse">
<stop stop-color="#3E29A6"/>
<stop offset="0.0921788" stop-color="#344ABA"/>
<stop offset="0.2933" stop-color="#56A3C9"/>
<stop offset="0.8101" stop-color="#00FFAA"/>
<stop offset="1" stop-color="#CCFFD5"/>
</linearGradient>
<linearGradient id="paint17_linear" x1="238.568" y1="357.045" x2="223.705" y2="364.61" gradientUnits="userSpaceOnUse">
<stop stop-color="#A629A6"/>
<stop offset="0.0921788" stop-color="#BA34A2"/>
<stop offset="0.2933" stop-color="#C9567E"/>
<stop offset="0.8101" stop-color="#FFCE00"/>
<stop offset="1" stop-color="#FFEA90"/>
</linearGradient>
<linearGradient id="paint18_linear" x1="237.654" y1="367.795" x2="246.195" y2="389.435" gradientUnits="userSpaceOnUse">
<stop stop-color="#A629A6"/>
<stop offset="0.0921788" stop-color="#BA34A2"/>
<stop offset="0.2933" stop-color="#C9567E"/>
<stop offset="0.8101" stop-color="#FFCE00"/>
<stop offset="1" stop-color="#FFEA90"/>
</linearGradient>
<linearGradient id="paint19_linear" x1="139.725" y1="363.806" x2="115.503" y2="384.214" gradientUnits="userSpaceOnUse">
<stop stop-color="#A629A6"/>
<stop offset="0.0921788" stop-color="#BA34A2"/>
<stop offset="0.2933" stop-color="#C9567E"/>
<stop offset="0.8101" stop-color="#FFCE00"/>
<stop offset="1" stop-color="#FFEA90"/>
</linearGradient>
<linearGradient id="paint20_linear" x1="376.735" y1="278.49" x2="342.048" y2="304.031" gradientUnits="userSpaceOnUse">
<stop stop-color="#3E29A6"/>
<stop offset="0.0921788" stop-color="#344ABA"/>
<stop offset="0.2933" stop-color="#56A3C9"/>
<stop offset="0.8101" stop-color="#00FFAA"/>
<stop offset="1" stop-color="#CCFFD5"/>
</linearGradient>
<linearGradient id="paint21_linear" x1="369.328" y1="396.012" x2="347.406" y2="419.852" gradientUnits="userSpaceOnUse">
<stop offset="0.0921788" stop-color="#6134BA"/>
<stop offset="0.2933" stop-color="#B23CC9"/>
<stop offset="0.8101" stop-color="#FF4D6A"/>
<stop offset="1" stop-color="#FFA6B5"/>
</linearGradient>
<linearGradient id="paint22_linear" x1="164.532" y1="235.261" x2="188.034" y2="223.466" gradientUnits="userSpaceOnUse">
<stop stop-color="#3E29A6"/>
<stop offset="0.0921788" stop-color="#344ABA"/>
<stop offset="0.2933" stop-color="#56A3C9"/>
<stop offset="0.8101" stop-color="#00FFAA"/>
<stop offset="1" stop-color="#CCFFD5"/>
</linearGradient>
<linearGradient id="paint23_linear" x1="179.806" y1="244.857" x2="163.548" y2="240.935" gradientUnits="userSpaceOnUse">
<stop stop-color="#3E29A6"/>
<stop offset="0.0921788" stop-color="#344ABA"/>
<stop offset="0.2933" stop-color="#56A3C9"/>
<stop offset="0.8101" stop-color="#00FFAA"/>
<stop offset="1" stop-color="#CCFFD5"/>
</linearGradient>
<linearGradient id="paint24_linear" x1="354.611" y1="133.415" x2="323.301" y2="136.565" gradientUnits="userSpaceOnUse">
<stop stop-color="#3E29A6"/>
<stop offset="0.0921788" stop-color="#344ABA"/>
<stop offset="0.2933" stop-color="#56A3C9"/>
<stop offset="0.8101" stop-color="#00FFAA"/>
<stop offset="1" stop-color="#CCFFD5"/>
</linearGradient>
<linearGradient id="paint25_linear" x1="277.608" y1="637.371" x2="115.553" y2="461.965" gradientUnits="userSpaceOnUse">
<stop stop-color="#00FFAA"/>
<stop offset="1" stop-color="#4350F6"/>
</linearGradient>
</defs>
</svg>
