<svg width="80" height="93" viewBox="0 0 80 93" fill="none" xmlns="http://www.w3.org/2000/svg">
<mask id="path-1-inside-1" fill="white">
<path fill-rule="evenodd" clip-rule="evenodd" d="M0 13.2857L39.8571 0L79.7143 13.2857V53.1429C79.7143 75.1577 61.872 93 39.8571 93C17.8423 93 0 75.1577 0 53.1429V13.2857ZM39.8571 85.5268C57.741 85.5268 72.2411 71.0267 72.2411 53.1429V18.8906L39.8571 7.47321L7.47321 18.8906V53.1429C7.47321 71.0267 21.9733 85.5268 39.8571 85.5268ZM24.7787 41.8576C25.232 42.046 25.6437 42.3221 25.99 42.67L36.8469 53.5269L57.2633 33.1209C57.5909 32.7927 57.98 32.5323 58.4083 32.3546C58.8367 32.177 59.2958 32.0855 59.7596 32.0855C60.2233 32.0855 60.6825 32.177 61.1108 32.3546C61.5391 32.5323 61.9282 32.7927 62.2558 33.1209L62.5465 33.4115C62.8747 33.7391 63.135 34.1282 63.3127 34.5565C63.4904 34.9849 63.5818 35.444 63.5818 35.9078C63.5818 36.3715 63.4904 36.8306 63.3127 37.259C63.135 37.6873 62.8747 38.0764 62.5465 38.404L39.3484 61.6021C39.0208 61.9303 38.6317 62.1907 38.2033 62.3684C37.775 62.546 37.3158 62.6375 36.8521 62.6375C36.3884 62.6375 35.9292 62.546 35.5009 62.3684C35.0725 62.1907 34.6834 61.9303 34.3558 61.6021L34.1379 61.3841L20.7068 47.9531C20.3589 47.6068 20.0829 47.1951 19.8945 46.7418C19.7061 46.2885 19.6091 45.8024 19.6091 45.3115C19.6091 44.8206 19.7061 44.3346 19.8945 43.8813C20.0829 43.4279 20.3589 43.0163 20.7068 42.67C21.0532 42.3221 21.4648 42.046 21.9181 41.8576C22.3714 41.6692 22.8575 41.5723 23.3484 41.5723C23.8393 41.5723 24.3254 41.6692 24.7787 41.8576Z"/>
</mask>
<path fill-rule="evenodd" clip-rule="evenodd" d="M0 13.2857L39.8571 0L79.7143 13.2857V53.1429C79.7143 75.1577 61.872 93 39.8571 93C17.8423 93 0 75.1577 0 53.1429V13.2857ZM39.8571 85.5268C57.741 85.5268 72.2411 71.0267 72.2411 53.1429V18.8906L39.8571 7.47321L7.47321 18.8906V53.1429C7.47321 71.0267 21.9733 85.5268 39.8571 85.5268ZM24.7787 41.8576C25.232 42.046 25.6437 42.3221 25.99 42.67L36.8469 53.5269L57.2633 33.1209C57.5909 32.7927 57.98 32.5323 58.4083 32.3546C58.8367 32.177 59.2958 32.0855 59.7596 32.0855C60.2233 32.0855 60.6825 32.177 61.1108 32.3546C61.5391 32.5323 61.9282 32.7927 62.2558 33.1209L62.5465 33.4115C62.8747 33.7391 63.135 34.1282 63.3127 34.5565C63.4904 34.9849 63.5818 35.444 63.5818 35.9078C63.5818 36.3715 63.4904 36.8306 63.3127 37.259C63.135 37.6873 62.8747 38.0764 62.5465 38.404L39.3484 61.6021C39.0208 61.9303 38.6317 62.1907 38.2033 62.3684C37.775 62.546 37.3158 62.6375 36.8521 62.6375C36.3884 62.6375 35.9292 62.546 35.5009 62.3684C35.0725 62.1907 34.6834 61.9303 34.3558 61.6021L34.1379 61.3841L20.7068 47.9531C20.3589 47.6068 20.0829 47.1951 19.8945 46.7418C19.7061 46.2885 19.6091 45.8024 19.6091 45.3115C19.6091 44.8206 19.7061 44.3346 19.8945 43.8813C20.0829 43.4279 20.3589 43.0163 20.7068 42.67C21.0532 42.3221 21.4648 42.046 21.9181 41.8576C22.3714 41.6692 22.8575 41.5723 23.3484 41.5723C23.8393 41.5723 24.3254 41.6692 24.7787 41.8576Z" fill="url(#paint0_linear)"/>
<path d="M39.8571 0L40.4896 -1.89737L39.8571 -2.10819L39.2247 -1.89737L39.8571 0ZM0 13.2857L-0.632456 11.3883L-2 11.8442V13.2857H0ZM79.7143 13.2857H81.7143V11.8442L80.3467 11.3883L79.7143 13.2857ZM72.2411 18.8906H74.2411V17.4751L72.9061 17.0044L72.2411 18.8906ZM39.8571 7.47321L40.5222 5.58701L39.8571 5.35255L39.1921 5.58701L39.8571 7.47321ZM7.47321 18.8906L6.80821 17.0044L5.47321 17.4751V18.8906H7.47321ZM25.99 42.67L24.5725 44.081L24.5758 44.0842L25.99 42.67ZM24.7787 41.8576L25.5462 40.0107L25.5462 40.0107L24.7787 41.8576ZM36.8469 53.5269L35.4327 54.9411L36.8465 56.355L38.2608 54.9415L36.8469 53.5269ZM57.2633 33.1209L58.6772 34.5354L58.6788 34.5338L57.2633 33.1209ZM58.4083 32.3546L59.1746 34.202L59.1746 34.202L58.4083 32.3546ZM61.1108 32.3546L60.3446 34.202L60.3446 34.202L61.1108 32.3546ZM62.2558 33.1209L60.8403 34.5338L60.8416 34.5351L62.2558 33.1209ZM62.5465 33.4115L61.1322 34.8257L61.1336 34.827L62.5465 33.4115ZM63.3127 34.5565L61.4653 35.3228L61.4653 35.3228L63.3127 34.5565ZM63.3127 37.259L61.4653 36.4927L61.4653 36.4928L63.3127 37.259ZM62.5465 38.404L61.1336 36.9885L61.1322 36.9898L62.5465 38.404ZM39.3484 61.6021L37.9341 60.1879L37.9328 60.1892L39.3484 61.6021ZM38.2033 62.3684L38.9695 64.2158H38.9696L38.2033 62.3684ZM35.5009 62.3684L36.2671 60.521L36.2671 60.521L35.5009 62.3684ZM34.3558 61.6021L35.7714 60.1892L35.77 60.1879L34.3558 61.6021ZM20.7068 47.9531L22.121 46.5389L22.1178 46.5357L20.7068 47.9531ZM19.8945 46.7418L21.7414 45.9744H21.7414L19.8945 46.7418ZM19.8945 43.8813L21.7414 44.6487L21.7414 44.6487L19.8945 43.8813ZM20.7068 42.67L22.1178 44.0874L22.1243 44.081L20.7068 42.67ZM39.2247 -1.89737L-0.632456 11.3883L0.632456 15.1831L40.4896 1.89737L39.2247 -1.89737ZM80.3467 11.3883L40.4896 -1.89737L39.2247 1.89737L79.0818 15.1831L80.3467 11.3883ZM81.7143 53.1429V13.2857H77.7143V53.1429H81.7143ZM39.8571 95C62.9766 95 81.7143 76.2623 81.7143 53.1429H77.7143C77.7143 74.0531 60.7674 91 39.8571 91V95ZM-2 53.1429C-2 76.2623 16.7377 95 39.8571 95V91C18.9469 91 2 74.0531 2 53.1429H-2ZM-2 13.2857V53.1429H2V13.2857H-2ZM70.2411 53.1429C70.2411 69.9221 56.6364 83.5268 39.8571 83.5268V87.5268C58.8455 87.5268 74.2411 72.1312 74.2411 53.1429H70.2411ZM70.2411 18.8906V53.1429H74.2411V18.8906H70.2411ZM39.1921 9.35942L71.5761 20.7768L72.9061 17.0044L40.5222 5.58701L39.1921 9.35942ZM8.13822 20.7768L40.5222 9.35942L39.1921 5.58701L6.80821 17.0044L8.13822 20.7768ZM9.47321 53.1429V18.8906H5.47321V53.1429H9.47321ZM39.8571 83.5268C23.0779 83.5268 9.47321 69.9221 9.47321 53.1429H5.47321C5.47321 72.1312 20.8688 87.5268 39.8571 87.5268V83.5268ZM27.4074 41.259C26.8752 40.7244 26.2427 40.3002 25.5462 40.0107L24.0112 43.7045C24.2213 43.7918 24.4121 43.9197 24.5726 44.081L27.4074 41.259ZM38.2611 52.1127L27.4042 41.2558L24.5758 44.0842L35.4327 54.9411L38.2611 52.1127ZM55.8495 31.7063L35.433 52.1123L38.2608 54.9415L58.6772 34.5354L55.8495 31.7063ZM57.6421 30.5072C56.9709 30.7856 56.3611 31.1937 55.8478 31.708L58.6788 34.5338C58.8207 34.3917 58.9891 34.2789 59.1746 34.202L57.6421 30.5072ZM59.7596 30.0855C59.0329 30.0855 58.3133 30.2288 57.6421 30.5072L59.1746 34.202C59.36 34.1251 59.5588 34.0855 59.7596 34.0855V30.0855ZM61.877 30.5072C61.2058 30.2288 60.4862 30.0855 59.7596 30.0855V34.0855C59.9603 34.0855 60.1591 34.1251 60.3446 34.202L61.877 30.5072ZM63.6714 31.708C63.158 31.1937 62.5483 30.7856 61.877 30.5072L60.3446 34.202C60.53 34.2789 60.6985 34.3917 60.8403 34.5338L63.6714 31.708ZM63.9607 31.9973L63.67 31.7067L60.8416 34.5351L61.1322 34.8257L63.9607 31.9973ZM65.1601 33.7903C64.8817 33.119 64.4737 32.5093 63.9593 31.996L61.1336 34.827C61.2757 34.9689 61.3884 35.1373 61.4653 35.3228L65.1601 33.7903ZM65.5818 35.9078C65.5818 35.1811 65.4385 34.4615 65.1601 33.7903L61.4653 35.3228C61.5422 35.5082 61.5818 35.707 61.5818 35.9078H65.5818ZM65.1601 38.0252C65.4385 37.354 65.5818 36.6345 65.5818 35.9078H61.5818C61.5818 36.1085 61.5422 36.3073 61.4653 36.4927L65.1601 38.0252ZM63.9593 39.8195C64.4737 39.3062 64.8817 38.6965 65.1601 38.0252L61.4653 36.4928C61.3884 36.6782 61.2757 36.8466 61.1336 36.9885L63.9593 39.8195ZM40.7626 63.0163L63.9607 39.8182L61.1322 36.9898L37.9341 60.1879L40.7626 63.0163ZM38.9696 64.2158C39.6408 63.9374 40.2505 63.5293 40.7639 63.015L37.9328 60.1892C37.791 60.3313 37.6225 60.4441 37.4371 60.521L38.9696 64.2158ZM36.8521 64.6375C37.5788 64.6375 38.2983 64.4942 38.9695 64.2158L37.4371 60.521C37.2516 60.5979 37.0529 60.6375 36.8521 60.6375V64.6375ZM34.7346 64.2158C35.4059 64.4942 36.1254 64.6375 36.8521 64.6375V60.6375C36.6513 60.6375 36.4525 60.5979 36.2671 60.521L34.7346 64.2158ZM32.9403 63.015C33.4536 63.5293 34.0634 63.9374 34.7346 64.2158L36.2671 60.521C36.0817 60.4441 35.9132 60.3313 35.7714 60.1892L32.9403 63.015ZM32.7236 62.7984L32.9416 63.0163L35.77 60.1879L35.5521 59.9699L32.7236 62.7984ZM19.2926 49.3673L32.7236 62.7984L35.5521 59.9699L22.121 46.5389L19.2926 49.3673ZM18.0476 47.5093C18.337 48.2059 18.7613 48.8384 19.2958 49.3705L22.1178 46.5357C21.9566 46.3752 21.8287 46.1844 21.7414 45.9744L18.0476 47.5093ZM17.6091 45.3115C17.6091 46.0658 17.7581 46.8127 18.0476 47.5093L21.7414 45.9744C21.6541 45.7643 21.6091 45.539 21.6091 45.3115H17.6091ZM18.0476 43.1138C17.7581 43.8104 17.6091 44.5572 17.6091 45.3115H21.6091C21.6091 45.084 21.6541 44.8588 21.7414 44.6487L18.0476 43.1138ZM19.2958 41.2525C18.7613 41.7847 18.337 42.4172 18.0476 43.1138L21.7414 44.6487C21.8287 44.4387 21.9566 44.2479 22.1178 44.0874L19.2958 41.2525ZM21.1506 40.0107C20.4541 40.3002 19.8216 40.7244 19.2894 41.259L22.1243 44.081C22.2848 43.9197 22.4755 43.7918 22.6856 43.7045L21.1506 40.0107ZM23.3484 39.5723C22.5941 39.5723 21.8472 39.7213 21.1506 40.0107L22.6856 43.7045C22.8957 43.6172 23.1209 43.5723 23.3484 43.5723V39.5723ZM25.5462 40.0107C24.8496 39.7213 24.1027 39.5723 23.3484 39.5723V43.5723C23.5759 43.5723 23.8011 43.6172 24.0112 43.7045L25.5462 40.0107Z" fill="white" mask="url(#path-1-inside-1)"/>
<defs>
<linearGradient id="paint0_linear" x1="41.5955" y1="32.0855" x2="41.5955" y2="62.6375" gradientUnits="userSpaceOnUse">
<stop stop-color="#FF4D6A"/>
<stop offset="1" stop-color="#FFCE00"/>
</linearGradient>
</defs>
</svg>
