<svg width="106" height="106" viewBox="0 0 106 106" fill="none" xmlns="http://www.w3.org/2000/svg">
<g clip-path="url(#clip0)">
<path d="M92.3122 37.1834C90.8492 31.4806 86.0185 27.271 80.1682 26.6033C78.9165 15.246 71.2883 5.60189 60.5245 1.76753H60.4486C50.4034 -1.85204 39.1893 0.169089 31.0392 7.06748H31.1212C24.4065 12.634 20.4592 20.8556 20.3142 29.5759C20.1685 38.2962 23.8398 46.6446 30.3647 52.432C32.9724 54.7593 34.4604 58.0908 34.4526 61.5861V65.367H32.686V68.9003H36.3728L37.8177 84.8002H36.2193C35.2437 84.8002 34.4526 85.5912 34.4526 86.5668V90.1001H32.686V93.6334H34.4526V97.1667C34.4587 102.043 38.4095 105.994 43.2859 106H57.4191C62.2955 105.994 66.2463 102.043 66.2524 97.1667V93.6334H68.019V90.1001H66.2524V86.5668C66.2524 85.5912 65.4613 84.8002 64.4857 84.8002H62.8959L64.3408 68.9003H68.019V65.367H66.2524V61.8337H90.9855C97.5181 61.7811 102.883 56.6554 103.234 50.1322C103.585 43.6091 98.8017 37.9373 92.3122 37.1834ZM50.3525 81.2669C52.5901 81.2763 54.5811 82.6902 55.3272 84.8002H45.3777C46.1239 82.6902 48.1148 81.2763 50.3525 81.2669ZM48.5858 75.9669C48.5858 74.9913 49.3769 74.2002 50.3525 74.2002C51.3281 74.2002 52.1191 74.9913 52.1191 75.9669C52.1191 76.9425 51.3281 77.7336 50.3525 77.7336C49.3769 77.7336 48.5858 76.9425 48.5858 75.9669ZM54.7338 78.9438C56.2373 76.7355 55.8621 73.7534 53.8582 71.9868C51.8552 70.2201 48.8498 70.2201 46.8468 71.9868C44.8438 73.7534 44.4685 76.7355 45.9712 78.9438C43.7724 80.1929 42.2162 82.3253 41.6961 84.8002H41.364L39.9294 68.9003H60.7937L59.3479 84.8002H59.0089C58.4888 82.3253 56.9326 80.1929 54.7338 78.9438ZM53.8858 58.2788V65.367H46.8192V58.2788C46.7873 55.3562 45.979 52.4949 44.478 49.9864C41.5192 44.9271 39.7526 36.8073 39.7526 28.2673C39.7526 17.745 42.4293 8.05691 46.4448 3.84731C47.2721 3.71361 48.1062 3.62476 48.943 3.58162C49.0801 3.58162 49.2199 3.58162 49.3579 3.56782C50.0644 3.54108 50.7942 3.53763 51.5291 3.56782H51.6861C52.5151 3.61182 53.3544 3.69463 54.1989 3.81367L54.2636 3.82402C58.2774 8.08538 60.9524 17.7683 60.9524 28.2673C60.9524 36.8073 59.1858 44.9271 56.227 49.9864C54.726 52.4949 53.9177 55.3562 53.8858 58.2788ZM32.7162 49.7992C26.6951 44.4484 23.4421 36.6434 23.8829 28.5994C24.5247 18.084 31.2911 8.92902 41.1552 5.2301C38.08 10.7914 36.2193 19.1796 36.2193 28.2673C36.2193 37.5439 38.1188 46.1107 41.4295 51.7634C42.6148 53.7328 43.2557 55.9817 43.2859 58.2788V65.367H37.9859V61.5861C37.9937 57.0832 36.0761 52.7917 32.7162 49.7941V49.7992ZM62.7191 97.1667H57.4191V100.7H61.3414C60.3443 101.82 58.9183 102.462 57.4191 102.467H43.2859C40.359 102.467 37.9859 100.094 37.9859 97.1667V93.6334H62.7191V97.1667ZM62.7191 90.1001H37.9859V88.3335H62.7191V90.1001ZM62.839 59.6409V59.6521C62.7605 60.2999 62.7208 60.9512 62.7191 61.6042V65.367H57.4191V58.2788C57.4502 55.9817 58.0902 53.7328 59.2763 51.7634C62.5862 46.1107 64.4857 37.5439 64.4857 28.2673C64.4857 19.1796 62.6164 10.7776 59.5394 5.20508C60.9136 5.71575 62.2438 6.33857 63.5161 7.06748H63.5791C71.3039 11.4789 76.2786 19.4936 76.8031 28.3734C76.8367 28.9212 76.8523 29.4672 76.8523 30.0305C76.8471 37.6492 73.5588 44.8969 67.8284 49.9174C65.0162 52.4268 63.2375 55.8928 62.839 59.6409ZM90.9855 58.3004H66.6785C67.2375 56.0886 68.4486 54.0951 70.1549 52.5803C76.6133 46.9224 80.3373 38.768 80.3856 30.1823C84.9143 30.9647 88.4269 34.5679 89.0955 39.1148C89.2844 40.0059 90.0746 40.6408 90.9855 40.6339C95.8636 40.6339 99.8187 44.589 99.8187 49.4671C99.8187 54.3453 95.8636 58.3004 90.9855 58.3004Z" fill="url(#paint0_linear)"/>
<path d="M20.3196 91.8669H7.95291C5.33828 91.8678 3.11269 89.9613 2.71329 87.3778C2.31303 84.7933 3.858 82.3038 6.351 81.5145C7.06785 78.2762 9.93696 75.9704 13.2529 75.9669C15.1326 75.9634 16.9346 76.7148 18.2544 78.0536C18.9221 77.8414 19.6191 77.7336 20.3196 77.7336C24.2221 77.7336 27.3862 80.8977 27.3862 84.8002C27.3862 88.7028 24.2221 91.8669 20.3196 91.8669ZM13.2529 79.5002C11.3016 79.5002 9.71958 81.0823 9.71958 83.0336C9.71958 84.0092 8.92854 84.8002 7.95291 84.8002C6.97727 84.8002 6.18624 85.5913 6.18624 86.5669C6.18624 87.5425 6.97727 88.3336 7.95291 88.3336H20.3196C22.2708 88.3336 23.8529 86.7515 23.8529 84.8002C23.8529 82.849 22.2708 81.2669 20.3196 81.2669C19.7123 81.2721 19.1171 81.4368 18.5935 81.7439C17.774 82.2089 16.7336 81.9484 16.2298 81.1522C15.588 80.1256 14.4632 79.502 13.2529 79.5002Z" fill="url(#paint1_linear)"/>
</g>
<defs>
<linearGradient id="paint0_linear" x1="14.6821" y1="113.637" x2="88.8815" y2="-6.49507" gradientUnits="userSpaceOnUse">
<stop stop-color="#FFF200"/>
<stop offset="1" stop-color="#FF4D6A"/>
</linearGradient>
<linearGradient id="paint1_linear" x1="2.53989" y1="106.138" x2="76.7398" y2="-13.9953" gradientUnits="userSpaceOnUse">
<stop stop-color="#FFCE00"/>
<stop offset="1" stop-color="#FF4D6A"/>
</linearGradient>
<clipPath id="clip0">
<rect width="106" height="106" fill="white"/>
</clipPath>
</defs>
</svg>
