<svg width="106" height="106" viewBox="0 0 106 106" fill="none" xmlns="http://www.w3.org/2000/svg">
<path d="M43.0625 52.1719C43.0625 51.3529 42.8197 50.5524 42.3647 49.8715C41.9097 49.1905 41.263 48.6598 40.5064 48.3464C39.7498 48.033 38.9173 47.951 38.1141 48.1108C37.3109 48.2706 36.5731 48.6649 35.994 49.244C35.4149 49.8231 35.0206 50.5609 34.8608 51.3641C34.701 52.1673 34.783 52.9998 35.0964 53.7564C35.4098 54.513 35.9405 55.1597 36.6215 55.6147C37.3024 56.0697 38.1029 56.3125 38.9219 56.3125C40.02 56.3125 41.0732 55.8763 41.8497 55.0997C42.6263 54.3232 43.0625 53.27 43.0625 52.1719ZM38.0938 52.1719C38.0938 52.0081 38.1423 51.848 38.2333 51.7118C38.3243 51.5756 38.4537 51.4695 38.605 51.4068C38.7563 51.3441 38.9228 51.3277 39.0834 51.3597C39.2441 51.3916 39.3916 51.4705 39.5075 51.5863C39.6233 51.7021 39.7021 51.8497 39.7341 52.0103C39.766 52.171 39.7496 52.3375 39.687 52.4888C39.6243 52.6401 39.5181 52.7694 39.382 52.8604C39.2458 52.9514 39.0857 53 38.9219 53C38.7022 53 38.4916 52.9128 38.3363 52.7575C38.181 52.6021 38.0938 52.3915 38.0938 52.1719Z" fill="url(#paint0_linear)"/>
<path d="M67.0781 48.0312C66.2592 48.0313 65.4586 48.2741 64.7777 48.7291C64.0968 49.184 63.5661 49.8307 63.2527 50.5873C62.9393 51.3439 62.8573 52.1765 63.0171 52.9797C63.1768 53.7829 63.5712 54.5207 64.1503 55.0997C64.7293 55.6788 65.4671 56.0732 66.2703 56.2329C67.0735 56.3927 67.9061 56.3107 68.6627 55.9973C69.4193 55.6839 70.066 55.1532 70.5209 54.4723C70.9759 53.7914 71.2188 52.9908 71.2188 52.1719C71.2188 51.0737 70.7825 50.0205 70.006 49.244C69.2295 48.4675 68.1763 48.0312 67.0781 48.0312ZM67.0781 53C66.9143 53 66.7542 52.9514 66.618 52.8604C66.4819 52.7694 66.3757 52.6401 66.313 52.4888C66.2504 52.3375 66.234 52.171 66.2659 52.0103C66.2979 51.8497 66.3767 51.7021 66.4926 51.5863C66.6084 51.4705 66.7559 51.3916 66.9166 51.3597C67.0772 51.3277 67.2437 51.3441 67.395 51.4068C67.5464 51.4695 67.6757 51.5756 67.7667 51.7118C67.8577 51.848 67.9063 52.0081 67.9063 52.1719C67.9063 52.3915 67.819 52.6021 67.6637 52.7574C67.5084 52.9128 67.2978 53 67.0781 53Z" fill="url(#paint1_linear)"/>
<path d="M53 61.2812C43.8674 61.2812 36.4375 66.8529 36.4375 73.7031C36.4375 80.5534 43.8674 86.125 53 86.125C62.1326 86.125 69.5625 80.5534 69.5625 73.7031C69.5625 66.8529 62.1326 61.2812 53 61.2812ZM53 82.8125C45.6943 82.8125 39.75 78.7249 39.75 73.7031C39.75 68.6814 45.6943 64.5938 53 64.5938C60.3057 64.5938 66.25 68.6814 66.25 73.7031C66.25 78.7249 60.3057 82.8125 53 82.8125Z" fill="url(#paint2_linear)"/>
<path d="M46.375 67.9062C45.3923 67.9062 44.4316 68.1977 43.6145 68.7436C42.7974 69.2896 42.1605 70.0656 41.7845 70.9735C41.4084 71.8815 41.31 72.8805 41.5017 73.8444C41.6934 74.8082 42.1667 75.6935 42.8616 76.3884C43.5565 77.0833 44.4418 77.5566 45.4056 77.7483C46.3695 77.94 47.3685 77.8416 48.2765 77.4655C49.1844 77.0895 49.9604 76.4526 50.5064 75.6355C51.0523 74.8184 51.3438 73.8577 51.3438 72.875C51.3438 71.5572 50.8203 70.2934 49.8884 69.3616C48.9566 68.4297 47.6928 67.9062 46.375 67.9062ZM46.375 74.5313C46.0474 74.5313 45.7272 74.4341 45.4548 74.2521C45.1825 74.0701 44.9702 73.8115 44.8448 73.5088C44.7195 73.2062 44.6867 72.8732 44.7506 72.5519C44.8145 72.2306 44.9722 71.9355 45.2039 71.7039C45.4355 71.4722 45.7306 71.3145 46.0519 71.2506C46.3732 71.1867 46.7062 71.2195 47.0088 71.3448C47.3115 71.4702 47.5701 71.6825 47.7521 71.9548C47.9341 72.2272 48.0313 72.5474 48.0313 72.875C48.0313 73.3143 47.8568 73.7355 47.5461 74.0462C47.2355 74.3568 46.8143 74.5313 46.375 74.5313Z" fill="url(#paint3_linear)"/>
<path d="M59.625 67.9062C58.6423 67.9062 57.6816 68.1977 56.8645 68.7436C56.0474 69.2896 55.4106 70.0656 55.0345 70.9735C54.6584 71.8815 54.56 72.8805 54.7517 73.8444C54.9434 74.8082 55.4167 75.6935 56.1116 76.3884C56.8065 77.0833 57.6918 77.5566 58.6557 77.7483C59.6195 77.94 60.6185 77.8416 61.5265 77.4655C62.4344 77.0895 63.2104 76.4526 63.7564 75.6355C64.3023 74.8184 64.5938 73.8577 64.5938 72.875C64.5938 71.5572 64.0703 70.2934 63.1384 69.3616C62.2066 68.4297 60.9428 67.9062 59.625 67.9062ZM59.625 74.5313C59.2974 74.5313 58.9772 74.4341 58.7048 74.2521C58.4325 74.0701 58.2202 73.8115 58.0948 73.5088C57.9695 73.2062 57.9367 72.8732 58.0006 72.5519C58.0645 72.2306 58.2222 71.9355 58.4539 71.7039C58.6855 71.4722 58.9806 71.3145 59.3019 71.2506C59.6232 71.1867 59.9562 71.2195 60.2588 71.3448C60.5615 71.4702 60.8201 71.6825 61.0021 71.9548C61.1841 72.2272 61.2813 72.5474 61.2813 72.875C61.2813 73.3143 61.1068 73.7355 60.7962 74.0462C60.4855 74.3568 60.0643 74.5313 59.625 74.5313Z" fill="url(#paint4_linear)"/>
<path d="M85.9015 28.9844C85.7562 28.7328 85.5474 28.5239 85.296 28.3786C85.0445 28.2332 84.7592 28.1565 84.4688 28.1562C81.1414 28.1562 74.8278 29.8125 72.3136 35.6756C70.2956 34.3286 68.1424 33.1962 65.889 32.2969C67.7942 29.0464 68.3782 25.1884 67.5204 21.5197C67.7687 20.4367 67.8981 19.3298 67.9063 18.2187C67.9063 14.2654 66.3358 10.4739 63.5404 7.67844C60.7449 4.88298 56.9534 3.3125 53 3.3125C49.0467 3.3125 45.2552 4.88298 42.4597 7.67844C39.6643 10.4739 38.0938 14.2654 38.0938 18.2187C38.1019 19.3304 38.2313 20.4378 38.4797 21.5213C37.6217 25.1913 38.2063 29.0506 40.1128 32.3018C37.8594 33.2006 35.7062 34.3325 33.6882 35.6789C31.174 29.8125 24.8587 28.1562 21.5313 28.1562C21.2409 28.1565 20.9556 28.2332 20.7041 28.3786C20.4527 28.5239 20.2439 28.7328 20.0986 28.9844C19.7127 29.6469 11.0158 44.9722 19.5902 54.9875C18.6876 58.11 18.226 61.3434 18.2188 64.5937C18.152 69.361 19.227 74.075 21.354 78.3419C23.481 82.6089 26.5982 86.3049 30.4452 89.1211L32.0054 96.1569C32.3867 97.8852 33.3088 99.447 34.638 100.616C35.9671 101.784 37.6342 102.499 39.397 102.655C41.1599 102.812 42.9268 102.403 44.4414 101.487C45.9559 100.572 47.1391 99.1969 47.8193 97.563L48.553 95.8157C50.0302 95.9732 51.5145 96.0556 53 96.0625C54.4856 96.0553 55.9698 95.9735 57.4471 95.8174L58.1758 97.5548C58.855 99.1898 60.0377 100.566 61.5522 101.483C63.0667 102.4 64.834 102.81 66.5976 102.654C68.3613 102.499 70.0293 101.785 71.3594 100.616C72.6896 99.4477 73.6127 97.8857 73.9947 96.1569L75.5549 89.1211C79.4019 86.3049 82.5191 82.6089 84.6461 78.3419C86.7731 74.075 87.8481 69.361 87.7813 64.5937C87.7748 61.3436 87.3143 58.1103 86.4132 54.9875C95.0174 45.0301 86.2907 29.6469 85.9015 28.9844ZM53 6.625C55.5023 6.62905 57.9362 7.44148 59.9391 8.94124C61.9421 10.441 63.4069 12.5478 64.1151 14.9477C62.7231 13.3728 61.0123 12.1118 59.096 11.2481C57.1798 10.3844 55.1019 9.93774 53 9.93774C50.8982 9.93774 48.8203 10.3844 46.9041 11.2481C44.9878 12.1118 43.277 13.3728 41.885 14.9477C42.5932 12.5478 44.058 10.441 46.0609 8.94124C48.0639 7.44148 50.4978 6.62905 53 6.625ZM53 13.25C55.2931 13.25 57.5346 13.93 59.4412 15.2039C61.3478 16.4778 62.8338 18.2885 63.7113 20.407C64.5888 22.5255 64.8184 24.8566 64.371 27.1056C63.9237 29.3545 62.8195 31.4204 61.1981 33.0418C59.5767 34.6632 57.5108 35.7674 55.2619 36.2147C53.0129 36.6621 50.6818 36.4325 48.5633 35.555C46.4448 34.6775 44.6341 33.1915 43.3602 31.2849C42.0863 29.3783 41.4063 27.1368 41.4063 24.8437C41.4098 21.77 42.6324 18.8231 44.8059 16.6496C46.9794 14.4761 49.9263 13.2535 53 13.25ZM22.4952 31.5383C24.5722 31.7785 29.3538 32.8633 30.9322 37.7194C26.5493 41.307 23.1114 45.9129 20.9185 51.1351C16.8309 44.1689 21.0162 34.5013 22.4952 31.5383ZM44.7619 96.2977C44.3515 97.2814 43.6384 98.1087 42.7259 98.6596C41.8134 99.2104 40.7492 99.4561 39.6876 99.3611C38.626 99.266 37.6223 98.835 36.8223 98.1308C36.0222 97.4266 35.4674 96.4857 35.2384 95.4447L34.3821 91.5807C37.7565 93.3903 41.3936 94.66 45.161 95.3437L44.7619 96.2977ZM70.765 95.4447C70.5901 96.2425 70.2228 96.9855 69.695 97.6089C69.1673 98.2323 68.4951 98.7173 67.7371 99.0215C66.9791 99.3257 66.1582 99.44 65.3459 99.3544C64.5336 99.2688 63.7546 98.9859 63.0767 98.5303C62.2531 97.9845 61.6126 97.2037 61.2382 96.2894L60.8407 95.3453C64.6087 94.6606 68.2462 93.3904 71.6213 91.5807L70.765 95.4447ZM53 92.75C34.4716 92.75 21.5313 81.1728 21.5313 64.5937C21.5261 58.1475 23.5044 51.8558 27.1977 46.5725C30.8911 41.2892 36.1206 37.2703 42.1765 35.0612C43.5641 36.541 45.2405 37.7205 47.102 38.5268C48.9635 39.3332 50.9706 39.7492 52.9992 39.7492C55.0279 39.7492 57.035 39.3332 58.8965 38.5268C60.758 37.7205 62.4343 36.541 63.822 35.0612C69.881 37.2657 75.1137 41.2835 78.808 46.5677C82.5023 51.852 84.4789 58.1462 84.4688 64.5937C84.4688 81.1728 71.5285 92.75 53 92.75ZM75.0712 37.7112C76.6513 32.86 81.4362 31.7768 83.5065 31.5367C84.9855 34.4897 89.1659 44.1242 85.0833 51.1202C82.8907 45.9001 79.4533 41.2964 75.0712 37.7112Z" fill="url(#paint5_linear)"/>
<path d="M51.3437 29.8125C50.9045 29.8125 50.4832 29.638 50.1726 29.3274C49.862 29.0167 49.6875 28.5955 49.6875 28.1562H46.375C46.375 29.474 46.8985 30.7378 47.8303 31.6696C48.7621 32.6015 50.0259 33.125 51.3437 33.125V34.7812H54.6562V33.125C55.974 33.125 57.2379 32.6015 58.1697 31.6696C59.1015 30.7378 59.625 29.474 59.625 28.1562C59.625 26.8384 59.1015 25.5746 58.1697 24.6428C57.2379 23.7109 55.974 23.1875 54.6562 23.1875V19.875C55.0955 19.875 55.5168 20.0495 55.8274 20.3601C56.138 20.6707 56.3125 21.0919 56.3125 21.5312H59.625C59.625 20.2134 59.1015 18.9496 58.1697 18.0178C57.2379 17.0859 55.974 16.5625 54.6562 16.5625H54.6248L54.6562 14.9393L51.3437 14.8731L51.3106 16.5625C49.9928 16.5668 48.7307 17.0946 47.802 18.0295C46.8733 18.9644 46.354 20.23 46.3584 21.5478C46.3628 22.8656 46.8905 24.1276 47.8255 25.0564C48.7604 25.9851 50.0259 26.5043 51.3437 26.5V29.8125ZM54.6562 26.5C55.0955 26.5 55.5168 26.6745 55.8274 26.9851C56.138 27.2957 56.3125 27.7169 56.3125 28.1562C56.3125 28.5955 56.138 29.0167 55.8274 29.3274C55.5168 29.638 55.0955 29.8125 54.6562 29.8125V26.5ZM51.3437 23.1875C50.9045 23.1875 50.4832 23.013 50.1726 22.7024C49.862 22.3917 49.6875 21.9705 49.6875 21.5312C49.6875 21.0919 49.862 20.6707 50.1726 20.3601C50.4832 20.0495 50.9045 19.875 51.3437 19.875V23.1875Z" fill="url(#paint6_linear)"/>
<defs>
<linearGradient id="paint0_linear" x1="-9.82491" y1="105.637" x2="83.3558" y2="3.43835" gradientUnits="userSpaceOnUse">
<stop stop-color="#FFF200"/>
<stop offset="1" stop-color="#CD118C"/>
</linearGradient>
<linearGradient id="paint1_linear" x1="90.6879" y1="646.302" x2="556.591" y2="135.316" gradientUnits="userSpaceOnUse">
<stop stop-color="#FFF200"/>
<stop offset="1" stop-color="#CD118C"/>
</linearGradient>
<linearGradient id="paint2_linear" x1="208.091" y1="1897.58" x2="1516.12" y2="-15.288" gradientUnits="userSpaceOnUse">
<stop stop-color="#FFF200"/>
<stop offset="1" stop-color="#CD118C"/>
</linearGradient>
<linearGradient id="paint3_linear" x1="68.7145" y1="780.376" x2="627.799" y2="167.192" gradientUnits="userSpaceOnUse">
<stop stop-color="#FFF200"/>
<stop offset="1" stop-color="#CD118C"/>
</linearGradient>
<linearGradient id="paint4_linear" x1="125.381" y1="819.957" x2="684.466" y2="206.773" gradientUnits="userSpaceOnUse">
<stop stop-color="#FFF200"/>
<stop offset="1" stop-color="#CD118C"/>
</linearGradient>
<linearGradient id="paint5_linear" x1="54.63" y1="37.5976" x2="54.63" y2="70.2441" gradientUnits="userSpaceOnUse">
<stop stop-color="#FF4D6A"/>
<stop offset="1" stop-color="#FFCE00"/>
</linearGradient>
<linearGradient id="paint6_linear" x1="-79.7405" y1="1219.77" x2="991.965" y2="436.465" gradientUnits="userSpaceOnUse">
<stop stop-color="#FFF200"/>
<stop offset="1" stop-color="#CD118C"/>
</linearGradient>
</defs>
</svg>
