<svg width="95" height="84" viewBox="0 0 95 84" fill="none" xmlns="http://www.w3.org/2000/svg">
<path d="M82.4858 29.8789H38.3257C37.5571 29.8789 36.9341 30.502 36.9341 31.2705C36.9341 32.039 37.5571 32.6621 38.3257 32.6621H82.4858C83.2544 32.6621 83.8774 32.039 83.8774 31.2705C83.8774 30.502 83.2544 29.8789 82.4858 29.8789Z" fill="url(#paint0_linear)"/>
<path d="M82.4858 40.5168H38.3257C37.5571 40.5168 36.9341 41.1399 36.9341 41.9084C36.9341 42.677 37.5571 43.3 38.3257 43.3H82.4858C83.2544 43.3 83.8774 42.677 83.8774 41.9084C83.8774 41.1399 83.2544 40.5168 82.4858 40.5168Z" fill="url(#paint1_linear)"/>
<path d="M82.4858 51.1548H38.3257C37.5571 51.1548 36.9341 51.7779 36.9341 52.5464C36.9341 53.3149 37.5571 53.938 38.3257 53.938H82.4858C83.2544 53.938 83.8774 53.3149 83.8774 52.5464C83.8774 51.7779 83.2544 51.1548 82.4858 51.1548Z" fill="url(#paint2_linear)"/>
<path d="M86.9062 17.7085H33.9054C29.4425 17.7085 25.8115 21.3393 25.8115 25.8024V59.1298C25.8115 63.5928 29.4423 67.2237 33.9054 67.2237H71.054C71.4512 67.2237 71.8203 67.4024 72.0667 67.7143L84.0632 82.9019C84.536 83.5005 85.2259 83.8266 85.9482 83.8266C86.2167 83.8266 86.4898 83.7815 86.7577 83.6884C87.7461 83.3451 88.3848 82.4473 88.3848 81.401V67.0855C92.1375 66.3845 95.0001 63.0667 95.0001 59.1298V25.8022C95.0001 21.3393 91.3693 17.7085 86.9062 17.7085ZM92.2169 59.1298C92.2169 62.0201 89.8655 64.4016 86.9752 64.4383C86.2137 64.4481 85.6014 65.0682 85.6014 65.8299V80.3591L74.2508 65.9891C73.4735 65.0048 72.3083 64.4403 71.054 64.4403H33.9054C30.9771 64.4403 28.5947 62.0579 28.5947 59.1296V25.8022C28.5947 22.8739 30.977 20.4915 33.9054 20.4915H86.9062C89.8345 20.4915 92.2169 22.8739 92.2169 25.8022V59.1298Z" fill="url(#paint3_linear)"/>
<path d="M20.5018 40.7184C19.55 40.8535 18.6976 41.3436 18.1016 42.098L8.54202 54.2005V42.0711C8.54202 41.3094 7.92972 40.6893 7.16823 40.6795C4.75037 40.6487 2.7832 38.6565 2.7832 36.2384V7.22612C2.7832 4.77635 4.77635 2.7832 7.22612 2.7832H53.3648C55.8145 2.7832 57.8077 4.77635 57.8077 7.22612V12.5944C57.8077 13.3629 58.4308 13.986 59.1993 13.986C59.9678 13.986 60.5909 13.3629 60.5909 12.5944V7.22612C60.5909 3.24169 57.3492 0 53.3648 0H7.22612C3.24169 0 0 3.24169 0 7.22612V36.2384C0 39.702 2.48095 42.6283 5.759 43.3122V55.6262C5.759 56.6148 6.3624 57.4633 7.29645 57.7876C7.54972 57.8756 7.80763 57.9183 8.06146 57.9183C8.74371 57.9183 9.39591 57.6099 9.84252 57.0445L20.2858 43.8232C20.4365 43.6323 20.6523 43.5083 20.8931 43.474C21.6541 43.366 22.1834 42.6615 22.0753 41.9006C21.9673 41.1396 21.2639 40.6099 20.5018 40.7184Z" fill="url(#paint4_linear)"/>
<defs>
<linearGradient id="paint0_linear" x1="61.4295" y1="30.8391" x2="61.4295" y2="31.7535" gradientUnits="userSpaceOnUse">
<stop stop-color="#FF4D6A"/>
<stop offset="1" stop-color="#FFCE00"/>
</linearGradient>
<linearGradient id="paint1_linear" x1="61.4295" y1="41.4771" x2="61.4295" y2="42.3914" gradientUnits="userSpaceOnUse">
<stop stop-color="#FF4D6A"/>
<stop offset="1" stop-color="#FFCE00"/>
</linearGradient>
<linearGradient id="paint2_linear" x1="61.4295" y1="52.115" x2="61.4295" y2="53.0293" gradientUnits="userSpaceOnUse">
<stop stop-color="#FF4D6A"/>
<stop offset="1" stop-color="#FFCE00"/>
</linearGradient>
<linearGradient id="paint3_linear" x1="61.9146" y1="40.5196" x2="61.9146" y2="62.2405" gradientUnits="userSpaceOnUse">
<stop stop-color="#FF4D6A"/>
<stop offset="1" stop-color="#FFCE00"/>
</linearGradient>
<linearGradient id="paint4_linear" x1="31.6167" y1="19.9821" x2="31.6167" y2="39.0092" gradientUnits="userSpaceOnUse">
<stop stop-color="#FF4D6A"/>
<stop offset="1" stop-color="#FFCE00"/>
</linearGradient>
</defs>
</svg>
