<svg width="243" height="55" viewBox="0 0 243 55" fill="none" xmlns="http://www.w3.org/2000/svg">
<path d="M46.9229 8.74265H50.9463C53.1925 8.74265 54.8989 9.17281 56.0656 10.0331C56.5781 10.3933 57.0415 10.9184 57.4559 11.6087C57.8702 12.299 58.0774 13.1893 58.0774 14.2797C58.0774 16.0503 57.3414 17.3908 55.8694 18.3012C56.6108 18.4712 57.265 18.7463 57.832 19.1265C58.399 19.4966 58.8406 19.9268 59.1568 20.4169C59.484 20.9071 59.7238 21.4073 59.8765 21.9175C60.04 22.4277 60.1218 22.9429 60.1218 23.4631C60.1218 24.3934 59.9038 25.2487 59.4676 26.029C59.0424 26.8093 58.5026 27.4295 57.8484 27.8897C57.4232 28.1998 56.9761 28.4549 56.5072 28.655C56.0384 28.8451 55.5477 28.9801 55.0352 29.0601C54.5337 29.1302 54.103 29.1802 53.7431 29.2102C53.3942 29.2302 52.9744 29.2402 52.4838 29.2402H46.9229V8.74265ZM49.3925 10.8884V17.746H51.2734C51.6115 17.746 51.9331 17.731 52.2384 17.7009C52.5546 17.6709 52.9308 17.5909 53.367 17.4609C53.814 17.3208 54.1902 17.1407 54.4955 16.9207C54.8117 16.6906 55.0843 16.3555 55.3133 15.9153C55.5423 15.4651 55.6567 14.9399 55.6567 14.3397C55.6567 13.8795 55.5859 13.4644 55.4441 13.0943C55.3024 12.7141 55.1279 12.409 54.9207 12.1789C54.7245 11.9388 54.4737 11.7337 54.1684 11.5637C53.874 11.3936 53.5959 11.2686 53.3343 11.1885C53.0835 11.0985 52.8054 11.0335 52.5001 10.9935C52.1948 10.9435 51.9604 10.9134 51.7968 10.9034C51.6442 10.8934 51.4915 10.8884 51.3389 10.8884H49.3925ZM49.3925 19.7717V27.0944H52.2548C53.1162 27.0944 53.8576 27.0394 54.4791 26.9293C55.1116 26.8093 55.6731 26.5742 56.1638 26.2241C56.6108 25.924 56.9652 25.5288 57.2269 25.0387C57.4995 24.5485 57.6358 24.0033 57.6358 23.403C57.6358 22.6628 57.4504 22.0425 57.0797 21.5424C56.709 21.0322 56.2619 20.647 55.7385 20.3869C54.9535 19.9768 53.6886 19.7717 51.944 19.7717H49.3925Z" fill="#464646"/>
<path d="M76.7718 29.2402V16.3354C76.7718 15.7452 76.7609 15.3001 76.7391 15C76.7173 14.6898 76.6519 14.2997 76.5429 13.8295C76.4338 13.3493 76.243 12.9292 75.9704 12.5691C75.6978 12.2089 75.3325 11.8738 74.8746 11.5637C74.4602 11.1735 73.866 10.8634 73.0918 10.6333C72.3177 10.3933 71.658 10.2732 71.1128 10.2732C69.5536 10.2732 68.3051 10.7034 67.3674 11.5637C66.9203 11.8738 66.5605 12.2089 66.2879 12.5691C66.0153 12.9292 65.8245 13.3443 65.7154 13.8145C65.6064 14.2847 65.541 14.6798 65.5192 15C65.4974 15.3101 65.4865 15.7552 65.4865 16.3354V29.2402H63.1476V15.8703C63.1476 15.3001 63.1531 14.8599 63.164 14.5498C63.1858 14.2297 63.2348 13.8295 63.3112 13.3493C63.3984 12.8592 63.5401 12.404 63.7364 11.9838C63.9436 11.5537 64.2162 11.1285 64.5542 10.7084C65.9608 8.98774 68.147 8.12742 71.1128 8.12742C74.0786 8.12742 76.2812 8.98774 77.7205 10.7084C78.6582 12.539 79.127 14.2597 79.127 15.8703V29.2402H76.7718Z" fill="#464646"/>
<path d="M94.7139 8.74265V10.8884H85.6039V16.9807H94.4523V19.1265H85.6039V27.0944H94.7139V29.2402H83.1342V8.74265H94.7139Z" fill="#464646"/>
<path d="M110.268 29.2402V20.447C108.033 20.597 106.49 20.672 105.639 20.672C103.001 20.672 101.158 20.3019 100.111 19.5616C99.6642 19.2515 99.2935 18.8914 98.9991 18.4812C98.7047 18.0711 98.4975 17.6359 98.3776 17.1758C98.2577 16.7156 98.1759 16.3104 98.1323 15.9603C98.0886 15.6102 98.0668 15.22 98.0668 14.7899V8.74265H100.553V14.4898C100.553 14.7899 100.558 15.045 100.569 15.255C100.591 15.4651 100.64 15.7502 100.716 16.1104C100.793 16.4705 100.929 16.8006 101.125 17.1007C101.322 17.4008 101.578 17.6559 101.894 17.866C102.265 18.1261 102.755 18.3012 103.366 18.3912C103.988 18.4712 104.789 18.5112 105.77 18.5112C107.09 18.5112 108.589 18.4412 110.268 18.3012V8.74265H112.738V29.2402H110.268Z" fill="#464646"/>
<path d="M132.643 29.2402L130.026 23.4631H120.507L117.824 29.2402H115.077L125.364 7.75228L135.39 29.2402H132.643ZM121.488 21.3173H129.044L125.299 13.1093L121.488 21.3173Z" fill="#464646"/>
<path d="M149.718 10.8884H144.288V29.2402H141.818V10.8884H136.388V8.74265H149.718V10.8884Z" fill="#464646"/>
<path d="M161.052 12.8542L153.561 29.2402H150.732L161.052 7.69226L171.405 29.2402H168.592L161.052 12.8542Z" fill="#464646"/>
<path d="M185.324 8.74265V10.8884H176.214V16.9807H185.062V19.1265H176.214V27.0944H185.324V29.2402H173.744V8.74265H185.324Z" fill="#464646"/>
<path d="M191.49 8.74265V17.0707H202.955V8.74265H205.425V29.2402H202.955V19.2165H191.49V29.2402H189.02V8.74265H191.49Z" fill="#464646"/>
<path d="M211.935 8.74265V21.3173C211.935 21.7774 211.94 22.1326 211.951 22.3827C211.962 22.6328 211.995 22.9729 212.049 23.403C212.115 23.8232 212.202 24.1733 212.311 24.4534C212.431 24.7335 212.611 25.0437 212.851 25.3838C213.09 25.7139 213.379 26.014 213.717 26.2841C214.164 26.6342 214.731 26.9193 215.418 27.1394C216.105 27.3495 216.765 27.4545 217.397 27.4545C218.03 27.4545 218.689 27.3495 219.376 27.1394C220.074 26.9193 220.647 26.6342 221.094 26.2841C221.519 25.954 221.857 25.5989 222.108 25.2187C222.369 24.8286 222.549 24.3834 222.648 23.8832C222.746 23.383 222.806 22.9779 222.827 22.6678C222.849 22.3577 222.86 21.9075 222.86 21.3173V8.74265H225.346V21.9325C225.346 22.9329 225.248 23.8282 225.052 24.6185C224.866 25.3988 224.496 26.1391 223.94 26.8393C223.253 27.6996 222.337 28.3799 221.192 28.8801C220.058 29.3702 218.793 29.6153 217.397 29.6153C216.002 29.6153 214.737 29.3702 213.603 28.8801C212.469 28.3799 211.558 27.6996 210.871 26.8393C210.315 26.1391 209.939 25.3988 209.743 24.6185C209.558 23.8282 209.465 22.9329 209.465 21.9325V8.74265H211.935Z" fill="#464646"/>
<path d="M228.339 29.2402L234.914 20.1468C233.399 20.0068 232.145 19.5766 231.152 18.8564C229.866 17.896 229.222 16.5005 229.222 14.6698C229.222 12.9892 229.735 11.6287 230.76 10.5883C231.163 10.1682 231.621 9.82305 232.134 9.55295C232.646 9.28285 233.175 9.09778 233.72 8.99774C234.276 8.8877 234.734 8.81768 235.094 8.78766C235.454 8.75765 235.863 8.74265 236.321 8.74265H241.538V29.2402H239.069V20.2669H237.727L231.365 29.2402H228.339ZM239.069 10.8884H236.648C236.135 10.8884 235.699 10.9034 235.339 10.9335C234.991 10.9635 234.571 11.0635 234.08 11.2336C233.589 11.4036 233.175 11.6487 232.837 11.9688C232.117 12.6691 231.758 13.5494 231.758 14.6098C231.758 15.8203 232.183 16.7406 233.033 17.3708C233.829 17.951 234.969 18.2411 236.452 18.2411H239.069V10.8884Z" fill="#464646"/>
<path d="M54.1255 36.9685V43.5786H53.1359V39.361C53.1359 39.1883 53.1401 39.0074 53.1484 38.8183C53.1651 38.6293 53.1818 38.4443 53.1985 38.2634H53.1609L50.9688 43.5786H50.0419L47.9124 38.2634H47.8748C47.8999 38.6334 47.9124 39.0116 47.9124 39.398V43.5786H46.9229V36.9685H48.3884L50.5054 42.2837L52.6599 36.9685H54.1255Z" fill="#929292"/>
<path d="M58.8115 36.8575C59.6298 36.8575 60.2353 37.0343 60.6278 37.3878C61.0203 37.7413 61.2165 38.3045 61.2165 39.0773V43.5786H60.4148L60.2019 42.6414H60.1518C59.8595 43.0031 59.5505 43.2703 59.2248 43.443C58.9075 43.6156 58.4649 43.702 57.897 43.702C57.2874 43.702 56.7822 43.5458 56.3814 43.2333C55.9805 42.9127 55.7801 42.4153 55.7801 41.7411C55.7801 41.0834 56.0432 40.5778 56.5693 40.2242C57.0954 39.8625 57.9054 39.6652 58.9994 39.6323L60.1393 39.5953V39.2007C60.1393 38.6498 60.0182 38.2675 59.776 38.0537C59.5338 37.84 59.1914 37.7331 58.7488 37.7331C58.3981 37.7331 58.0641 37.7865 57.7467 37.8934C57.4294 37.9921 57.1329 38.1072 56.8574 38.2387L56.5192 37.4248C56.8114 37.2686 57.158 37.137 57.5588 37.0302C57.9597 36.9151 58.3772 36.8575 58.8115 36.8575ZM59.1371 40.3846C58.3021 40.4174 57.7217 40.549 57.396 40.7792C57.0787 41.0094 56.92 41.3342 56.92 41.7535C56.92 42.1234 57.0327 42.3947 57.2582 42.5674C57.492 42.74 57.7885 42.8264 58.1476 42.8264C58.7154 42.8264 59.1873 42.6743 59.563 42.3701C59.9388 42.0577 60.1267 41.5808 60.1267 40.9395V40.3476L59.1371 40.3846Z" fill="#929292"/>
<path d="M67.3863 36.9685V37.8811H64.3925V43.5786H63.2902V36.9685H67.3863Z" fill="#929292"/>
<path d="M71.2521 36.8575C72.0705 36.8575 72.6759 37.0343 73.0684 37.3878C73.4609 37.7413 73.6572 38.3045 73.6572 39.0773V43.5786H72.8555L72.6425 42.6414H72.5924C72.3001 43.0031 71.9912 43.2703 71.6655 43.443C71.3482 43.6156 70.9056 43.702 70.3377 43.702C69.7281 43.702 69.2229 43.5458 68.822 43.2333C68.4212 42.9127 68.2208 42.4153 68.2208 41.7411C68.2208 41.0834 68.4838 40.5778 69.0099 40.2242C69.536 39.8625 70.346 39.6652 71.44 39.6323L72.5799 39.5953V39.2007C72.5799 38.6498 72.4588 38.2675 72.2166 38.0537C71.9745 37.84 71.6321 37.7331 71.1895 37.7331C70.8387 37.7331 70.5047 37.7865 70.1874 37.8934C69.8701 37.9921 69.5736 38.1072 69.298 38.2387L68.9598 37.4248C69.2521 37.2686 69.5986 37.137 69.9995 37.0302C70.4003 36.9151 70.8179 36.8575 71.2521 36.8575ZM71.5778 40.3846C70.7427 40.4174 70.1623 40.549 69.8366 40.7792C69.5193 41.0094 69.3606 41.3342 69.3606 41.7535C69.3606 42.1234 69.4734 42.3947 69.6989 42.5674C69.9327 42.74 70.2291 42.8264 70.5882 42.8264C71.1561 42.8264 71.6279 42.6743 72.0037 42.3701C72.3795 42.0577 72.5674 41.5808 72.5674 40.9395V40.3476L71.5778 40.3846Z" fill="#929292"/>
<path d="M77.4971 36.8452C78.2653 36.8452 78.8749 36.9973 79.3259 37.3015C79.7852 37.5974 80.0148 38.025 80.0148 38.584C80.0148 38.9869 79.9021 39.3075 79.6766 39.546C79.4512 39.7762 79.1422 39.9447 78.7497 40.0516V40.1009C79.0169 40.1749 79.2633 40.2777 79.4887 40.4092C79.7142 40.5408 79.8937 40.7134 80.0274 40.9272C80.1693 41.1409 80.2403 41.4164 80.2403 41.7535C80.2403 42.3043 80.0065 42.7688 79.5388 43.147C79.0795 43.517 78.3572 43.702 77.3718 43.702C76.8874 43.702 76.449 43.6609 76.0565 43.5786C75.664 43.5046 75.3384 43.4019 75.0795 43.2703V42.2961C75.3634 42.4276 75.6974 42.5468 76.0816 42.6537C76.4741 42.7606 76.9 42.814 77.3593 42.814C77.8603 42.814 78.282 42.7318 78.6244 42.5674C78.9752 42.3947 79.1505 42.1029 79.1505 41.6918C79.1505 40.9518 78.5117 40.5819 77.234 40.5819H76.3321V39.6939H77.0586C77.6348 39.6939 78.0941 39.62 78.4365 39.472C78.7873 39.3158 78.9626 39.0527 78.9626 38.6827C78.9626 38.3703 78.829 38.136 78.5618 37.9797C78.3029 37.8235 77.9271 37.7454 77.4344 37.7454C77.067 37.7454 76.7413 37.7824 76.4574 37.8564C76.1818 37.9222 75.877 38.025 75.543 38.1647L75.1546 37.3015C75.8561 36.9973 76.6369 36.8452 77.4971 36.8452Z" fill="#929292"/>
<path d="M82.9113 41.0012C82.9113 41.0998 82.9072 41.2478 82.8988 41.4451C82.8905 41.6425 82.8779 41.8398 82.8612 42.0371C82.8529 42.2344 82.8445 42.3906 82.8362 42.5057L86.4312 36.9685H87.7841V43.5786H86.7569V39.6816C86.7569 39.5501 86.7569 39.3774 86.7569 39.1637C86.7653 38.9499 86.7736 38.7402 86.782 38.5347C86.7903 38.3209 86.7987 38.1606 86.807 38.0537L83.237 43.5786H81.8717V36.9685H82.9113V41.0012Z" fill="#929292"/>
<path d="M91.0231 36.9685V39.7186H94.6682V36.9685H95.7705V43.5786H94.6682V40.6312H91.0231V43.5786H89.9208V36.9685H91.0231Z" fill="#929292"/>
<path d="M106.054 36.9685V43.5786H104.952V37.8934H101.482V43.5786H100.38V36.9685H106.054Z" fill="#929292"/>
<path d="M114.034 40.2612C114.034 41.3547 113.75 42.2015 113.182 42.8017C112.622 43.4019 111.862 43.702 110.902 43.702C110.309 43.702 109.779 43.5704 109.311 43.3073C108.852 43.036 108.489 42.6455 108.221 42.1358C107.954 41.6178 107.821 40.993 107.821 40.2612C107.821 39.1678 108.1 38.3251 108.66 37.7331C109.219 37.1411 109.979 36.8452 110.94 36.8452C111.549 36.8452 112.084 36.9808 112.543 37.2521C113.011 37.5152 113.374 37.9016 113.633 38.4114C113.9 38.9129 114.034 39.5295 114.034 40.2612ZM108.961 40.2612C108.961 41.0423 109.115 41.663 109.424 42.1234C109.741 42.5756 110.242 42.8017 110.927 42.8017C111.604 42.8017 112.1 42.5756 112.418 42.1234C112.735 41.663 112.894 41.0423 112.894 40.2612C112.894 39.4802 112.735 38.8677 112.418 38.4237C112.1 37.9797 111.599 37.7578 110.915 37.7578C110.23 37.7578 109.733 37.9797 109.424 38.4237C109.115 38.8677 108.961 39.4802 108.961 40.2612Z" fill="#929292"/>
<path d="M120.766 36.9685V42.666H121.743V45.8725H120.678V43.5786H116.006V45.8725H114.954V42.666H115.493C116.069 41.885 116.499 40.9971 116.783 40.0023C117.075 38.9992 117.225 37.988 117.234 36.9685H120.766ZM118.211 37.8194C118.177 38.3785 118.09 38.9581 117.948 39.5583C117.806 40.1502 117.622 40.7175 117.397 41.2602C117.179 41.8028 116.925 42.2714 116.632 42.666H119.701V37.8194H118.211Z" fill="#929292"/>
<path d="M125.602 36.8575C126.42 36.8575 127.026 37.0343 127.418 37.3878C127.811 37.7413 128.007 38.3045 128.007 39.0773V43.5786H127.205L126.992 42.6414H126.942C126.65 43.0031 126.341 43.2703 126.015 43.443C125.698 43.6156 125.255 43.702 124.688 43.702C124.078 43.702 123.573 43.5458 123.172 43.2333C122.771 42.9127 122.571 42.4153 122.571 41.7411C122.571 41.0834 122.834 40.5778 123.36 40.2242C123.886 39.8625 124.696 39.6652 125.79 39.6323L126.93 39.5953V39.2007C126.93 38.6498 126.809 38.2675 126.567 38.0537C126.324 37.84 125.982 37.7331 125.539 37.7331C125.189 37.7331 124.855 37.7865 124.537 37.8934C124.22 37.9921 123.923 38.1072 123.648 38.2387L123.31 37.4248C123.602 37.2686 123.949 37.137 124.349 37.0302C124.75 36.9151 125.168 36.8575 125.602 36.8575ZM125.928 40.3846C125.093 40.4174 124.512 40.549 124.187 40.7792C123.869 41.0094 123.711 41.3342 123.711 41.7535C123.711 42.1234 123.823 42.3947 124.049 42.5674C124.283 42.74 124.579 42.8264 124.938 42.8264C125.506 42.8264 125.978 42.6743 126.354 42.3701C126.729 42.0577 126.917 41.5808 126.917 40.9395V40.3476L125.928 40.3846Z" fill="#929292"/>
<path d="M133.275 36.8452C134.102 36.8452 134.766 37.1288 135.267 37.6961C135.776 38.2634 136.031 39.1184 136.031 40.2612C136.031 41.3876 135.776 42.2426 135.267 42.8264C134.766 43.4101 134.097 43.702 133.262 43.702C132.745 43.702 132.315 43.6074 131.972 43.4183C131.638 43.221 131.375 42.9949 131.183 42.74H131.108C131.125 42.8798 131.141 43.0566 131.158 43.2703C131.175 43.4841 131.183 43.6691 131.183 43.8253V46.5384H130.081V36.9685H130.983L131.133 37.8688H131.183C131.383 37.581 131.646 37.3385 131.972 37.1412C132.298 36.9438 132.732 36.8452 133.275 36.8452ZM133.074 37.7578C132.39 37.7578 131.905 37.9469 131.621 38.3251C131.346 38.7032 131.2 39.2788 131.183 40.0516V40.2612C131.183 41.0752 131.317 41.7041 131.584 42.1481C131.859 42.5838 132.365 42.8017 133.1 42.8017C133.509 42.8017 133.843 42.6907 134.102 42.4687C134.369 42.2467 134.565 41.9467 134.69 41.5685C134.824 41.1821 134.891 40.7422 134.891 40.2489C134.891 39.4925 134.74 38.8882 134.44 38.436C134.148 37.9839 133.692 37.7578 133.074 37.7578Z" fill="#929292"/>
<path d="M141.758 36.9685H142.961L140.092 40.1502L143.199 43.5786H141.921L138.89 40.2242V43.5786H137.787V36.9685H138.89V40.1749L141.758 36.9685Z" fill="#929292"/>
<path d="M150.01 40.2612C150.01 41.3547 149.726 42.2015 149.158 42.8017C148.599 43.4019 147.839 43.702 146.878 43.702C146.286 43.702 145.755 43.5704 145.288 43.3073C144.828 43.036 144.465 42.6455 144.198 42.1358C143.931 41.6178 143.797 40.993 143.797 40.2612C143.797 39.1678 144.077 38.3251 144.636 37.7331C145.196 37.1411 145.956 36.8452 146.916 36.8452C147.526 36.8452 148.06 36.9808 148.519 37.2521C148.987 37.5152 149.35 37.9016 149.609 38.4114C149.876 38.9129 150.01 39.5295 150.01 40.2612ZM144.937 40.2612C144.937 41.0423 145.091 41.663 145.4 42.1234C145.718 42.5756 146.219 42.8017 146.904 42.8017C147.58 42.8017 148.077 42.5756 148.394 42.1234C148.711 41.663 148.87 41.0423 148.87 40.2612C148.87 39.4802 148.711 38.8677 148.394 38.4237C148.077 37.9797 147.576 37.7578 146.891 37.7578C146.206 37.7578 145.709 37.9797 145.4 38.4237C145.091 38.8677 144.937 39.4802 144.937 40.2612Z" fill="#929292"/>
<path d="M157.156 38.6334C157.156 39.0444 157.031 39.3651 156.78 39.5953C156.53 39.8255 156.208 39.9817 155.816 40.0639V40.1132C156.233 40.1708 156.596 40.3188 156.905 40.5572C157.214 40.7874 157.369 41.1492 157.369 41.6425C157.369 42.2015 157.156 42.666 156.73 43.036C156.312 43.3978 155.619 43.5786 154.651 43.5786H151.757V36.9685H154.638C155.114 36.9685 155.54 37.0219 155.916 37.1288C156.3 37.2275 156.601 37.4001 156.818 37.6468C157.043 37.8852 157.156 38.2141 157.156 38.6334ZM156.041 38.769C156.041 38.4566 155.924 38.2305 155.69 38.0907C155.465 37.9428 155.093 37.8688 154.575 37.8688H152.859V39.6816H154.375C155.486 39.6816 156.041 39.3774 156.041 38.769ZM156.229 41.6425C156.229 41.2643 156.083 40.993 155.791 40.8285C155.498 40.6641 155.068 40.5819 154.5 40.5819H152.859V42.703H154.525C155.077 42.703 155.498 42.6249 155.791 42.4687C156.083 42.3043 156.229 42.0289 156.229 41.6425Z" fill="#929292"/>
<path d="M158.749 40.5819C158.749 40.5819 159.304 40.586 160.415 40.5942L161.617 40.5819C161.684 40.6559 161.743 40.771 161.793 40.9272C161.843 41.0834 161.868 41.2149 161.868 41.3218L160.402 41.3095L158.887 41.3218C158.77 41.2067 158.711 41.0752 158.711 40.9272C158.711 40.771 158.724 40.6559 158.749 40.5819Z" fill="#929292"/>
<path d="M169.071 38.6334C169.071 39.0444 168.945 39.3651 168.695 39.5953C168.444 39.8255 168.123 39.9817 167.73 40.0639V40.1132C168.148 40.1708 168.511 40.3188 168.82 40.5572C169.129 40.7874 169.283 41.1492 169.283 41.6425C169.283 42.2015 169.071 42.666 168.645 43.036C168.227 43.3978 167.534 43.5786 166.565 43.5786H163.672V36.9685H166.553C167.029 36.9685 167.455 37.0219 167.83 37.1288C168.215 37.2275 168.515 37.4001 168.732 37.6468C168.958 37.8852 169.071 38.2141 169.071 38.6334ZM167.956 38.769C167.956 38.4566 167.839 38.2305 167.605 38.0907C167.379 37.9428 167.008 37.8688 166.49 37.8688H164.774V39.6816H166.29C167.4 39.6816 167.956 39.3774 167.956 38.769ZM168.144 41.6425C168.144 41.2643 167.997 40.993 167.705 40.8285C167.413 40.6641 166.983 40.5819 166.415 40.5819H164.774V42.703H166.44C166.991 42.703 167.413 42.6249 167.705 42.4687C167.997 42.3043 168.144 42.0289 168.144 41.6425Z" fill="#929292"/>
<path d="M176.563 36.9685V43.5786H175.461V37.8934H171.991V43.5786H170.889V36.9685H176.563Z" fill="#929292"/>
<path d="M181.299 36.8452C181.875 36.8452 182.368 36.9685 182.777 37.2151C183.194 37.4618 183.512 37.8112 183.729 38.2634C183.954 38.7074 184.067 39.2294 184.067 39.8296V40.4832H179.47C179.486 41.2314 179.679 41.8028 180.046 42.1974C180.422 42.5838 180.944 42.777 181.612 42.777C182.038 42.777 182.413 42.74 182.739 42.666C183.073 42.5838 183.416 42.4687 183.766 42.3207V43.2703C183.424 43.4183 183.086 43.5252 182.752 43.591C182.418 43.665 182.021 43.702 181.562 43.702C180.927 43.702 180.363 43.5745 179.871 43.3197C179.386 43.0648 179.006 42.6866 178.731 42.1851C178.464 41.6753 178.33 41.0546 178.33 40.3229C178.33 39.5994 178.451 38.9787 178.693 38.4607C178.944 37.9428 179.29 37.544 179.733 37.2645C180.184 36.9849 180.706 36.8452 181.299 36.8452ZM181.286 37.7331C180.76 37.7331 180.342 37.9016 180.033 38.2387C179.733 38.5676 179.553 39.028 179.495 39.62H182.915C182.906 39.0609 182.773 38.6087 182.514 38.2634C182.255 37.9099 181.846 37.7331 181.286 37.7331Z" fill="#929292"/>
<path d="M186.741 39.3733C186.741 40.1297 187.171 40.5079 188.031 40.5079C188.448 40.5079 188.828 40.4462 189.171 40.3229C189.513 40.1914 189.864 40.0187 190.223 39.8049V36.9685H191.325V43.5786H190.223V40.6312C189.847 40.8696 189.476 41.0587 189.108 41.1985C188.749 41.33 188.315 41.3958 187.805 41.3958C187.121 41.3958 186.586 41.219 186.202 40.8655C185.826 40.512 185.638 40.0393 185.638 39.4473V36.9685H186.741V39.3733Z" fill="#929292"/>
<path d="M196.001 36.8575C196.82 36.8575 197.425 37.0343 197.817 37.3878C198.21 37.7413 198.406 38.3045 198.406 39.0773V43.5786H197.605L197.392 42.6414H197.341C197.049 43.0031 196.74 43.2703 196.415 43.443C196.097 43.6156 195.655 43.702 195.087 43.702C194.477 43.702 193.972 43.5458 193.571 43.2333C193.17 42.9127 192.97 42.4153 192.97 41.7411C192.97 41.0834 193.233 40.5778 193.759 40.2242C194.285 39.8625 195.095 39.6652 196.189 39.6323L197.329 39.5953V39.2007C197.329 38.6498 197.208 38.2675 196.966 38.0537C196.723 37.84 196.381 37.7331 195.939 37.7331C195.588 37.7331 195.254 37.7865 194.936 37.8934C194.619 37.9921 194.323 38.1072 194.047 38.2387L193.709 37.4248C194.001 37.2686 194.348 37.137 194.749 37.0302C195.149 36.9151 195.567 36.8575 196.001 36.8575ZM196.327 40.3846C195.492 40.4174 194.911 40.549 194.586 40.7792C194.268 41.0094 194.11 41.3342 194.11 41.7535C194.11 42.1234 194.222 42.3947 194.448 42.5674C194.682 42.74 194.978 42.8264 195.337 42.8264C195.905 42.8264 196.377 42.6743 196.753 42.3701C197.129 42.0577 197.316 41.5808 197.316 40.9395V40.3476L196.327 40.3846Z" fill="#929292"/>
<path d="M205.115 37.8811H202.923V43.5786H201.833V37.8811H199.666V36.9685H205.115V37.8811Z" fill="#929292"/>
<path d="M211.169 43.5786H210.054V37.8688H208.075C207.966 39.2582 207.816 40.3804 207.624 41.2355C207.432 42.0823 207.177 42.6989 206.86 43.0853C206.542 43.4718 206.141 43.665 205.657 43.665C205.549 43.665 205.44 43.6567 205.331 43.6403C205.231 43.6321 205.148 43.6115 205.081 43.5786V42.7647C205.131 42.7811 205.185 42.7935 205.244 42.8017C205.302 42.8099 205.361 42.814 205.419 42.814C205.87 42.814 206.229 42.3413 206.496 41.3958C206.772 40.4503 206.981 38.9746 207.123 36.9685H211.169V43.5786Z" fill="#929292"/>
<path d="M215.893 36.8452C216.469 36.8452 216.962 36.9685 217.371 37.2151C217.788 37.4618 218.106 37.8112 218.323 38.2634C218.548 38.7074 218.661 39.2294 218.661 39.8296V40.4832H214.064C214.081 41.2314 214.273 41.8028 214.64 42.1974C215.016 42.5838 215.538 42.777 216.206 42.777C216.632 42.777 217.008 42.74 217.333 42.666C217.667 42.5838 218.01 42.4687 218.36 42.3207V43.2703C218.018 43.4183 217.68 43.5252 217.346 43.591C217.012 43.665 216.615 43.702 216.156 43.702C215.521 43.702 214.957 43.5745 214.465 43.3197C213.98 43.0648 213.6 42.6866 213.325 42.1851C213.058 41.6753 212.924 41.0546 212.924 40.3229C212.924 39.5994 213.045 38.9787 213.287 38.4607C213.538 37.9428 213.884 37.544 214.327 37.2645C214.778 36.9849 215.3 36.8452 215.893 36.8452ZM215.88 37.7331C215.354 37.7331 214.936 37.9016 214.628 38.2387C214.327 38.5676 214.147 39.028 214.089 39.62H217.509C217.5 39.0609 217.367 38.6087 217.108 38.2634C216.849 37.9099 216.44 37.7331 215.88 37.7331Z" fill="#929292"/>
<path d="M221.473 36.9685V39.7186H225.118V36.9685H226.22V43.5786H225.118V40.6312H221.473V43.5786H220.37V36.9685H221.473Z" fill="#929292"/>
<path d="M229.386 41.0012C229.386 41.0998 229.381 41.2478 229.373 41.4451C229.365 41.6425 229.352 41.8398 229.336 42.0371C229.327 42.2344 229.319 42.3906 229.31 42.5057L232.906 36.9685H234.258V43.5786H233.231V39.6816C233.231 39.5501 233.231 39.3774 233.231 39.1637C233.24 38.9499 233.248 38.7402 233.256 38.5347C233.265 38.3209 233.273 38.1606 233.281 38.0537L229.711 43.5786H228.346V36.9685H229.386V41.0012Z" fill="#929292"/>
<path d="M241.831 34.2307C241.773 34.8473 241.56 35.316 241.193 35.6366C240.834 35.949 240.257 36.1052 239.464 36.1052C238.646 36.1052 238.065 35.949 237.723 35.6366C237.389 35.3242 237.201 34.8556 237.159 34.2307H238.186C238.228 34.6747 238.345 34.9748 238.537 35.131C238.737 35.279 239.055 35.353 239.489 35.353C239.873 35.353 240.174 35.2749 240.391 35.1186C240.616 34.9542 240.75 34.6582 240.792 34.2307H241.831ZM237.435 41.0012C237.435 41.0998 237.431 41.2478 237.422 41.4451C237.414 41.6425 237.401 41.8398 237.385 42.0371C237.376 42.2344 237.368 42.3906 237.36 42.5057L240.955 36.9685H242.307V43.5786H241.28V39.6816C241.28 39.5501 241.28 39.3774 241.28 39.1637C241.289 38.9499 241.297 38.7402 241.305 38.5347C241.314 38.3209 241.322 38.1606 241.33 38.0537L237.76 43.5786H236.395V36.9685H237.435V41.0012Z" fill="#929292"/>
<circle cx="20.5775" cy="39.8077" r="12.8846" fill="#FFCE00"/>
<path d="M20.5764 31.5384C21.6623 31.5384 22.7376 31.7523 23.7409 32.1679C24.7441 32.5835 25.6557 33.1926 26.4236 33.9604C27.1915 34.7283 27.8006 35.6399 28.2161 36.6432C28.6317 37.6464 28.8456 38.7217 28.8456 39.8077C28.8456 40.8936 28.6317 41.9689 28.2161 42.9722C27.8006 43.9754 27.1915 44.887 26.4236 45.6549C25.6557 46.4228 24.7441 47.0319 23.7409 47.4474C22.7376 47.863 21.6623 48.0769 20.5764 48.0769L20.5764 39.8077V31.5384Z" fill="#FF4D6A"/>
<rect y="1.15381" width="7.69231" height="51.5385" fill="#4350F6"/>
<rect x="1.1543" y="0.384644" width="0.384615" height="54.2308" fill="white"/>
<rect x="2.69287" y="0.384644" width="0.384615" height="54.6154" fill="white"/>
<rect x="4.61572" width="0.384615" height="54.6154" fill="white"/>
<path fill-rule="evenodd" clip-rule="evenodd" d="M20.5775 26.923C27.6935 26.923 33.4621 21.1544 33.4621 14.0384C33.4621 6.92245 27.6935 1.15381 20.5775 1.15381C13.4615 1.15381 7.69287 6.92245 7.69287 14.0384C7.69287 21.1544 13.4615 26.923 20.5775 26.923ZM23.7415 6.39865C22.7383 5.98309 21.663 5.7692 20.577 5.7692V8.89689C21.2522 8.89689 21.9208 9.02988 22.5446 9.28827C23.1684 9.54665 23.7352 9.92538 24.2127 10.4028C24.6901 10.8802 25.0688 11.447 25.3272 12.0708C25.5856 12.6946 25.7186 13.3632 25.7186 14.0384C25.7186 14.7136 25.5856 15.3822 25.3272 16.006C25.0688 16.6298 24.6901 17.1966 24.2127 17.674C23.7352 18.1515 23.1684 18.5302 22.5446 18.7886C21.9208 19.047 21.2522 19.18 20.577 19.18L20.577 22.3077C21.663 22.3077 22.7383 22.0938 23.7415 21.6782C24.7448 21.2626 25.6564 20.6535 26.4243 19.8857C27.1921 19.1178 27.8013 18.2062 28.2168 17.2029C28.6324 16.1997 28.8463 15.1244 28.8463 14.0384C28.8463 12.9525 28.6324 11.8772 28.2168 10.8739C27.8013 9.87066 27.1921 8.95907 26.4243 8.1912C25.6564 7.42333 24.7448 6.81422 23.7415 6.39865ZM17.6932 10.9615C17.6932 11.9174 16.9183 12.6923 15.9624 12.6923C15.0065 12.6923 14.2316 11.9174 14.2316 10.9615C14.2316 10.0056 15.0065 9.23074 15.9624 9.23074C16.9183 9.23074 17.6932 10.0056 17.6932 10.9615ZM15.9624 18.4615C16.9183 18.4615 17.6932 17.6866 17.6932 16.7307C17.6932 15.7749 16.9183 15 15.9624 15C15.0065 15 14.2316 15.7749 14.2316 16.7307C14.2316 17.6866 15.0065 18.4615 15.9624 18.4615Z" fill="#FF4D6A"/>
</svg>
