<svg width="156" height="33" viewBox="0 0 156 33" fill="none" xmlns="http://www.w3.org/2000/svg">
<path d="M30.0448 4.85908H32.621C34.0592 4.85908 35.1519 5.13451 35.8989 5.68537C36.227 5.91597 36.5238 6.25225 36.7891 6.69422C37.0544 7.13618 37.187 7.70626 37.187 8.40444C37.187 9.53819 36.7158 10.3965 35.7732 10.9794C36.248 11.0883 36.6669 11.2644 37.0299 11.5078C37.393 11.7448 37.6757 12.0203 37.8782 12.3341C38.0877 12.648 38.2413 12.9683 38.339 13.2949C38.4437 13.6216 38.4961 13.9515 38.4961 14.2845C38.4961 14.8802 38.3565 15.4279 38.0772 15.9275C37.8049 16.4271 37.4593 16.8243 37.0404 17.1189C36.7681 17.3175 36.4819 17.4808 36.1817 17.6089C35.8815 17.7306 35.5673 17.8171 35.2391 17.8683C34.918 17.9132 34.6422 17.9452 34.4118 17.9644C34.1884 17.9772 33.9196 17.9836 33.6054 17.9836H30.0448V4.85908ZM31.6261 6.23303V10.6239H32.8305C33.0469 10.6239 33.2529 10.6143 33.4484 10.5951C33.6508 10.5759 33.8917 10.5246 34.171 10.4413C34.4572 10.3517 34.6981 10.2364 34.8936 10.0955C35.096 9.94813 35.2706 9.73355 35.4172 9.45172C35.5638 9.16348 35.6371 8.8272 35.6371 8.44288C35.6371 8.14823 35.5917 7.88241 35.501 7.64541C35.4102 7.40201 35.2985 7.20664 35.1658 7.05932C35.0402 6.90559 34.8796 6.77428 34.6841 6.66539C34.4956 6.5565 34.3176 6.47643 34.15 6.42519C33.9894 6.36754 33.8114 6.32591 33.6159 6.30029C33.4204 6.26826 33.2703 6.24904 33.1656 6.24264C33.0679 6.23623 32.9701 6.23303 32.8724 6.23303H31.6261ZM31.6261 11.921V16.6097H33.4588C34.0104 16.6097 34.4851 16.5745 34.8831 16.504C35.288 16.4271 35.6476 16.2766 35.9617 16.0524C36.248 15.8603 36.4749 15.6073 36.6425 15.2934C36.817 14.9795 36.9043 14.6304 36.9043 14.2461C36.9043 13.7721 36.7856 13.375 36.5482 13.0547C36.3108 12.7281 36.0246 12.4814 35.6895 12.3149C35.1868 12.0523 34.3769 11.921 33.2598 11.921H31.6261Z" fill="white"/>
<path d="M49.1571 17.9836V9.72074C49.1571 9.34283 49.1501 9.05779 49.1361 8.86563C49.1222 8.66706 49.0803 8.41725 49.0104 8.1162C48.9406 7.80875 48.8185 7.53972 48.6439 7.30913C48.4694 7.07854 48.2355 6.86396 47.9423 6.66539C47.677 6.41558 47.2965 6.21702 46.8008 6.06969C46.3051 5.91597 45.8827 5.8391 45.5336 5.8391C44.5352 5.8391 43.7358 6.11453 43.1354 6.66539C42.8491 6.86396 42.6187 7.07854 42.4442 7.30913C42.2697 7.53972 42.1475 7.80554 42.0777 8.10659C42.0079 8.40765 41.966 8.66066 41.952 8.86563C41.938 9.06419 41.9311 9.34923 41.9311 9.72074V17.9836H40.4335V9.42289C40.4335 9.05779 40.437 8.77595 40.444 8.57739C40.4579 8.37242 40.4893 8.1162 40.5382 7.80875C40.5941 7.49488 40.6848 7.20344 40.8105 6.93442C40.9432 6.65899 41.1177 6.38676 41.3341 6.11774C42.2348 5.01602 43.6346 4.46516 45.5336 4.46516C47.4326 4.46516 48.8429 5.01602 49.7645 6.11774C50.3649 7.28991 50.6651 8.39163 50.6651 9.42289V17.9836H49.1571Z" fill="white"/>
<path d="M60.6454 4.85908V6.23303H54.8122V10.1339H60.4778V11.5078H54.8122V16.6097H60.6454V17.9836H53.2309V4.85908H60.6454Z" fill="white"/>
<path d="M70.6047 17.9836V12.3533C69.1734 12.4494 68.1855 12.4975 67.641 12.4975C65.9514 12.4975 64.7715 12.2605 64.1013 11.7865C63.815 11.5879 63.5777 11.3573 63.3891 11.0947C63.2006 10.8321 63.068 10.5534 62.9912 10.2588C62.9144 9.96414 62.862 9.70473 62.8341 9.48054C62.8062 9.25635 62.7922 9.00655 62.7922 8.73112V4.85908H64.384V8.53896C64.384 8.73112 64.3875 8.89445 64.3945 9.02896C64.4085 9.16348 64.4399 9.34603 64.4888 9.57662C64.5376 9.80721 64.6249 10.0186 64.7506 10.2108C64.8762 10.4029 65.0403 10.5662 65.2428 10.7008C65.4802 10.8673 65.7943 10.9794 66.1853 11.037C66.5833 11.0883 67.0964 11.1139 67.7248 11.1139C68.5695 11.1139 69.5295 11.0691 70.6047 10.9794V4.85908H72.186V17.9836H70.6047Z" fill="white"/>
<path d="M84.931 17.9836L83.2554 14.2845H77.1604L75.443 17.9836H73.6836L80.2708 4.22496L86.6904 17.9836H84.931ZM77.7888 12.9106H82.6271L80.2289 7.65502L77.7888 12.9106Z" fill="white"/>
<path d="M95.8643 6.23303H92.3874V17.9836H90.8061V6.23303H87.3292V4.85908H95.8643V6.23303Z" fill="white"/>
<path d="M103.122 7.49168L98.3253 17.9836H96.5136L103.122 4.18652L109.751 17.9836H107.95L103.122 7.49168Z" fill="white"/>
<path d="M118.663 4.85908V6.23303H112.83V10.1339H118.495V11.5078H112.83V16.6097H118.663V17.9836H111.248V4.85908H118.663Z" fill="white"/>
<path d="M122.611 4.85908V10.1915H129.952V4.85908H131.534V17.9836H129.952V11.5655H122.611V17.9836H121.03V4.85908H122.611Z" fill="white"/>
<path d="M135.702 4.85908V12.9106C135.702 13.2052 135.705 13.4326 135.712 13.5928C135.719 13.7529 135.74 13.9707 135.775 14.2461C135.817 14.5151 135.873 14.7393 135.942 14.9187C136.019 15.098 136.134 15.2966 136.288 15.5144C136.442 15.7258 136.627 15.9179 136.843 16.0909C137.129 16.315 137.492 16.4976 137.932 16.6385C138.372 16.773 138.794 16.8403 139.199 16.8403C139.604 16.8403 140.027 16.773 140.467 16.6385C140.913 16.4976 141.28 16.315 141.566 16.0909C141.838 15.8795 142.055 15.6521 142.215 15.4087C142.383 15.1589 142.498 14.8738 142.561 14.5536C142.624 14.2333 142.662 13.9739 142.676 13.7753C142.69 13.5768 142.697 13.2885 142.697 12.9106V4.85908H144.289V13.3045C144.289 13.9451 144.226 14.5183 144.1 15.0244C143.982 15.524 143.744 15.998 143.388 16.4464C142.949 16.9972 142.362 17.4328 141.629 17.753C140.903 18.0669 140.093 18.2238 139.199 18.2238C138.306 18.2238 137.496 18.0669 136.77 17.753C136.044 17.4328 135.461 16.9972 135.021 16.4464C134.665 15.998 134.424 15.524 134.298 15.0244C134.18 14.5183 134.12 13.9451 134.12 13.3045V4.85908H135.702Z" fill="white"/>
<path d="M146.205 17.9836L150.415 12.1612C149.445 12.0715 148.642 11.7961 148.007 11.3349C147.183 10.72 146.771 9.82643 146.771 8.65425C146.771 7.57815 147.099 6.70703 147.755 6.04087C148.014 5.77185 148.307 5.55086 148.635 5.37792C148.963 5.20497 149.302 5.08647 149.651 5.02242C150.007 4.95196 150.3 4.90712 150.531 4.88791C150.761 4.86869 151.023 4.85908 151.316 4.85908H154.657V17.9836H153.075V12.238H152.217L148.143 17.9836H146.205ZM153.075 6.23303H151.525C151.197 6.23303 150.918 6.24264 150.688 6.26186C150.464 6.28107 150.195 6.34512 149.881 6.45402C149.567 6.56291 149.302 6.71984 149.085 6.92481C148.625 7.37318 148.394 7.93685 148.394 8.61582C148.394 9.39087 148.666 9.98016 149.211 10.3837C149.721 10.7552 150.45 10.941 151.4 10.941H153.075V6.23303Z" fill="white"/>
<path d="M34.6566 22.9322V27.1647H34.023V24.4641C34.023 24.3535 34.0257 24.2377 34.031 24.1167C34.0417 23.9956 34.0524 23.8771 34.0631 23.7613H34.039L32.6354 27.1647H32.0419L30.6784 23.7613H30.6544C30.6704 23.9982 30.6784 24.2404 30.6784 24.4878V27.1647H30.0448V22.9322H30.9832L32.3387 26.3355L33.7182 22.9322H34.6566Z" fill="white"/>
<path d="M37.6571 22.8611C38.1811 22.8611 38.5687 22.9743 38.82 23.2007C39.0714 23.427 39.197 23.7876 39.197 24.2825V27.1647H38.6837L38.5473 26.5645H38.5153C38.3281 26.7962 38.1303 26.9673 37.9217 27.0778C37.7186 27.1884 37.4352 27.2436 37.0716 27.2436C36.6812 27.2436 36.3577 27.1436 36.1011 26.9436C35.8444 26.7383 35.7161 26.4198 35.7161 25.9881C35.7161 25.567 35.8845 25.2432 36.2214 25.0168C36.5582 24.7852 37.0769 24.6589 37.7774 24.6378L38.5072 24.6141V24.3614C38.5072 24.0087 38.4297 23.764 38.2746 23.6271C38.1196 23.4902 37.9004 23.4218 37.617 23.4218C37.3924 23.4218 37.1785 23.456 36.9753 23.5244C36.7721 23.5876 36.5823 23.6613 36.4059 23.7455L36.1893 23.2244C36.3764 23.1243 36.5983 23.0401 36.855 22.9717C37.1117 22.898 37.379 22.8611 37.6571 22.8611ZM37.8656 25.1195C37.3309 25.1406 36.9593 25.2248 36.7507 25.3722C36.5476 25.5196 36.446 25.7275 36.446 25.996C36.446 26.2329 36.5181 26.4066 36.6625 26.5172C36.8122 26.6277 37.002 26.683 37.232 26.683C37.5956 26.683 37.8977 26.5856 38.1383 26.3908C38.3789 26.1908 38.4992 25.8854 38.4992 25.4748V25.0958L37.8656 25.1195Z" fill="white"/>
<path d="M43.1475 22.9322V23.5165H41.2306V27.1647H40.5248V22.9322H43.1475Z" fill="white"/>
<path d="M45.6228 22.8611C46.1468 22.8611 46.5345 22.9743 46.7858 23.2007C47.0371 23.427 47.1627 23.7876 47.1627 24.2825V27.1647H46.6494L46.5131 26.5645H46.481C46.2938 26.7962 46.096 26.9673 45.8875 27.0778C45.6843 27.1884 45.4009 27.2436 45.0373 27.2436C44.647 27.2436 44.3235 27.1436 44.0668 26.9436C43.8101 26.7383 43.6818 26.4198 43.6818 25.9881C43.6818 25.567 43.8502 25.2432 44.1871 25.0168C44.524 24.7852 45.0426 24.6589 45.7431 24.6378L46.473 24.6141V24.3614C46.473 24.0087 46.3954 23.764 46.2404 23.6271C46.0853 23.4902 45.8661 23.4218 45.5827 23.4218C45.3581 23.4218 45.1442 23.456 44.941 23.5244C44.7379 23.5876 44.548 23.6613 44.3716 23.7455L44.155 23.2244C44.3422 23.1243 44.5641 23.0401 44.8207 22.9717C45.0774 22.898 45.3447 22.8611 45.6228 22.8611ZM45.8313 25.1195C45.2966 25.1406 44.925 25.2248 44.7165 25.3722C44.5133 25.5196 44.4117 25.7275 44.4117 25.996C44.4117 26.2329 44.4839 26.4066 44.6282 26.5172C44.778 26.6277 44.9678 26.683 45.1977 26.683C45.5613 26.683 45.8634 26.5856 46.104 26.3908C46.3446 26.1908 46.4649 25.8854 46.4649 25.4748V25.0958L45.8313 25.1195Z" fill="white"/>
<path d="M49.6214 22.8532C50.1133 22.8532 50.5037 22.9506 50.7924 23.1454C51.0865 23.3349 51.2335 23.6087 51.2335 23.9666C51.2335 24.2246 51.1614 24.4299 51.017 24.5825C50.8726 24.7299 50.6748 24.8379 50.4235 24.9063V24.9379C50.5946 24.9853 50.7523 25.0511 50.8967 25.1353C51.0411 25.2195 51.156 25.3301 51.2416 25.4669C51.3325 25.6038 51.3779 25.7802 51.3779 25.996C51.3779 26.3487 51.2282 26.6461 50.9288 26.8883C50.6347 27.1252 50.1722 27.2436 49.5412 27.2436C49.2311 27.2436 48.9504 27.2173 48.6991 27.1647C48.4477 27.1173 48.2392 27.0515 48.0734 26.9673V26.3434C48.2552 26.4277 48.4691 26.504 48.7151 26.5724C48.9664 26.6409 49.2391 26.6751 49.5332 26.6751C49.854 26.6751 50.124 26.6224 50.3433 26.5172C50.5678 26.4066 50.6801 26.2197 50.6801 25.9565C50.6801 25.4827 50.2711 25.2458 49.453 25.2458H48.8755V24.6773H49.3407C49.7096 24.6773 50.0037 24.6299 50.223 24.5352C50.4475 24.4351 50.5598 24.2667 50.5598 24.0298C50.5598 23.8298 50.4743 23.6797 50.3032 23.5797C50.1374 23.4797 49.8968 23.4297 49.5813 23.4297C49.346 23.4297 49.1375 23.4534 48.9557 23.5007C48.7793 23.5429 48.5841 23.6087 48.3702 23.6981L48.1216 23.1454C48.5707 22.9506 49.0707 22.8532 49.6214 22.8532Z" fill="white"/>
<path d="M53.0882 25.5143C53.0882 25.5775 53.0855 25.6722 53.0802 25.7986C53.0748 25.9249 53.0668 26.0513 53.0561 26.1776C53.0507 26.304 53.0454 26.404 53.0401 26.4777L55.342 22.9322H56.2082V27.1647H55.5505V24.6694C55.5505 24.5852 55.5505 24.4746 55.5505 24.3378C55.5558 24.2009 55.5612 24.0666 55.5665 23.935C55.5719 23.7982 55.5772 23.6955 55.5826 23.6271L53.2967 27.1647H52.4225V22.9322H53.0882V25.5143Z" fill="white"/>
<path d="M58.2821 22.9322V24.6931H60.6161V22.9322H61.3219V27.1647H60.6161V25.2774H58.2821V27.1647H57.5763V22.9322H58.2821Z" fill="white"/>
<path d="M67.9065 22.9322V27.1647H67.2007V23.5244H64.979V27.1647H64.2732V22.9322H67.9065Z" fill="white"/>
<path d="M73.0158 25.0405C73.0158 25.7407 72.834 26.2829 72.4704 26.6672C72.1121 27.0515 71.6255 27.2436 71.0106 27.2436C70.631 27.2436 70.2914 27.1594 69.992 26.9909C69.6979 26.8172 69.4653 26.5672 69.2942 26.2408C69.1231 25.9091 69.0376 25.5091 69.0376 25.0405C69.0376 24.3404 69.2167 23.8008 69.5749 23.4218C69.9332 23.0427 70.4198 22.8532 71.0347 22.8532C71.425 22.8532 71.7672 22.9401 72.0613 23.1138C72.3607 23.2823 72.5933 23.5297 72.7591 23.8561C72.9302 24.1772 73.0158 24.572 73.0158 25.0405ZM69.7674 25.0405C69.7674 25.5406 69.8663 25.9381 70.0642 26.2329C70.2674 26.5224 70.5882 26.6672 71.0267 26.6672C71.4598 26.6672 71.7779 26.5224 71.9811 26.2329C72.1843 25.9381 72.2859 25.5406 72.2859 25.0405C72.2859 24.5404 72.1843 24.1482 71.9811 23.864C71.7779 23.5797 71.4571 23.4376 71.0186 23.4376C70.5802 23.4376 70.262 23.5797 70.0642 23.864C69.8663 24.1482 69.7674 24.5404 69.7674 25.0405Z" fill="white"/>
<path d="M77.3266 22.9322V26.5803H77.9522V28.6334H77.2704V27.1647H74.2787V28.6334H73.605V26.5803H73.9499C74.3188 26.0802 74.5942 25.5117 74.776 24.8747C74.9632 24.2325 75.0594 23.585 75.0648 22.9322H77.3266ZM75.6904 23.477C75.669 23.835 75.6128 24.2061 75.5219 24.5904C75.431 24.9695 75.3134 25.3327 75.169 25.6801C75.03 26.0276 74.8669 26.3276 74.6798 26.5803H76.6448V23.477H75.6904Z" fill="white"/>
<path d="M80.4229 22.8611C80.9469 22.8611 81.3346 22.9743 81.5859 23.2007C81.8372 23.427 81.9629 23.7876 81.9629 24.2825V27.1647H81.4496L81.3132 26.5645H81.2811C81.094 26.7962 80.8961 26.9673 80.6876 27.0778C80.4844 27.1884 80.201 27.2436 79.8374 27.2436C79.4471 27.2436 79.1236 27.1436 78.8669 26.9436C78.6103 26.7383 78.482 26.4198 78.482 25.9881C78.482 25.567 78.6504 25.2432 78.9872 25.0168C79.3241 24.7852 79.8428 24.6589 80.5432 24.6378L81.2731 24.6141V24.3614C81.2731 24.0087 81.1956 23.764 81.0405 23.6271C80.8854 23.4902 80.6662 23.4218 80.3828 23.4218C80.1582 23.4218 79.9444 23.456 79.7412 23.5244C79.538 23.5876 79.3482 23.6613 79.1717 23.7455L78.9552 23.2244C79.1423 23.1243 79.3642 23.0401 79.6209 22.9717C79.8775 22.898 80.1449 22.8611 80.4229 22.8611ZM80.6315 25.1195C80.0968 25.1406 79.7251 25.2248 79.5166 25.3722C79.3134 25.5196 79.2118 25.7275 79.2118 25.996C79.2118 26.2329 79.284 26.4066 79.4284 26.5172C79.5781 26.6277 79.7679 26.683 79.9978 26.683C80.3614 26.683 80.6635 26.5856 80.9042 26.3908C81.1448 26.1908 81.2651 25.8854 81.2651 25.4748V25.0958L80.6315 25.1195Z" fill="white"/>
<path d="M85.3359 22.8532C85.8653 22.8532 86.2903 23.0349 86.6112 23.3981C86.9373 23.7613 87.1004 24.3088 87.1004 25.0405C87.1004 25.7617 86.9373 26.3092 86.6112 26.683C86.2903 27.0567 85.8626 27.2436 85.3279 27.2436C84.9964 27.2436 84.721 27.1831 84.5018 27.062C84.2879 26.9357 84.1194 26.7909 83.9965 26.6277H83.9483C83.959 26.7172 83.9697 26.8304 83.9804 26.9673C83.9911 27.1041 83.9965 27.2226 83.9965 27.3226V29.0598H83.2906V22.9322H83.8681L83.9644 23.5086H83.9965C84.1248 23.3244 84.2932 23.1691 84.5018 23.0427C84.7103 22.9164 84.9883 22.8532 85.3359 22.8532ZM85.2076 23.4376C84.7691 23.4376 84.459 23.5586 84.2772 23.8008C84.1007 24.043 84.0072 24.4115 83.9965 24.9063V25.0405C83.9965 25.5617 84.082 25.9644 84.2531 26.2487C84.4296 26.5277 84.7531 26.6672 85.2236 26.6672C85.4856 26.6672 85.6995 26.5961 85.8652 26.454C86.0364 26.3119 86.162 26.1197 86.2422 25.8776C86.3278 25.6301 86.3705 25.3485 86.3705 25.0326C86.3705 24.5483 86.2743 24.1614 86.0818 23.8719C85.8947 23.5823 85.6032 23.4376 85.2076 23.4376Z" fill="white"/>
<path d="M90.7677 22.9322H91.5377L89.701 24.9695L91.6901 27.1647H90.872L88.931 25.0168V27.1647H88.2252V22.9322H88.931V24.9853L90.7677 22.9322Z" fill="white"/>
<path d="M96.0514 25.0405C96.0514 25.7407 95.8696 26.2829 95.506 26.6672C95.1477 27.0515 94.6611 27.2436 94.0462 27.2436C93.6666 27.2436 93.327 27.1594 93.0276 26.9909C92.7335 26.8172 92.5009 26.5672 92.3298 26.2408C92.1587 25.9091 92.0732 25.5091 92.0732 25.0405C92.0732 24.3404 92.2523 23.8008 92.6105 23.4218C92.9688 23.0427 93.4554 22.8532 94.0703 22.8532C94.4606 22.8532 94.8028 22.9401 95.0969 23.1138C95.3963 23.2823 95.6289 23.5297 95.7947 23.8561C95.9658 24.1772 96.0514 24.572 96.0514 25.0405ZM92.803 25.0405C92.803 25.5406 92.902 25.9381 93.0998 26.2329C93.303 26.5224 93.6238 26.6672 94.0623 26.6672C94.4954 26.6672 94.8135 26.5224 95.0167 26.2329C95.2199 25.9381 95.3215 25.5406 95.3215 25.0405C95.3215 24.5404 95.2199 24.1482 95.0167 23.864C94.8135 23.5797 94.4927 23.4376 94.0542 23.4376C93.6158 23.4376 93.2976 23.5797 93.0998 23.864C92.902 24.1482 92.803 24.5404 92.803 25.0405Z" fill="white"/>
<path d="M100.627 23.9982C100.627 24.2614 100.547 24.4667 100.386 24.6141C100.226 24.7615 100.02 24.8615 99.7686 24.9142V24.9458C100.036 24.9826 100.269 25.0774 100.466 25.23C100.664 25.3774 100.763 25.6091 100.763 25.9249C100.763 26.2829 100.627 26.5803 100.354 26.8172C100.087 27.0488 99.643 27.1647 99.0227 27.1647H97.17V22.9322H99.0147C99.3195 22.9322 99.5922 22.9664 99.8328 23.0349C100.079 23.098 100.271 23.2086 100.41 23.3665C100.555 23.5192 100.627 23.7297 100.627 23.9982ZM99.913 24.0851C99.913 23.885 99.8382 23.7403 99.6884 23.6508C99.5441 23.556 99.3061 23.5086 98.9746 23.5086H97.8758V24.6694H98.8463C99.5574 24.6694 99.913 24.4746 99.913 24.0851ZM100.033 25.9249C100.033 25.6828 99.9397 25.5091 99.7526 25.4038C99.5655 25.2985 99.2901 25.2458 98.9265 25.2458H97.8758V26.604H98.9425C99.2954 26.604 99.5655 26.554 99.7526 26.454C99.9397 26.3487 100.033 26.1723 100.033 25.9249Z" fill="white"/>
<path d="M101.647 25.2458C101.647 25.2458 102.002 25.2485 102.714 25.2537L103.484 25.2458C103.526 25.2932 103.564 25.3669 103.596 25.4669C103.628 25.567 103.644 25.6512 103.644 25.7196L102.706 25.7117L101.735 25.7196C101.66 25.6459 101.623 25.5617 101.623 25.4669C101.623 25.3669 101.631 25.2932 101.647 25.2458Z" fill="white"/>
<path d="M108.256 23.9982C108.256 24.2614 108.176 24.4667 108.015 24.6141C107.855 24.7615 107.649 24.8615 107.398 24.9142V24.9458C107.665 24.9826 107.898 25.0774 108.095 25.23C108.293 25.3774 108.392 25.6091 108.392 25.9249C108.392 26.2829 108.256 26.5803 107.983 26.8172C107.716 27.0488 107.272 27.1647 106.652 27.1647H104.799V22.9322H106.644C106.948 22.9322 107.221 22.9664 107.462 23.0349C107.708 23.098 107.9 23.2086 108.039 23.3665C108.184 23.5192 108.256 23.7297 108.256 23.9982ZM107.542 24.0851C107.542 23.885 107.467 23.7403 107.317 23.6508C107.173 23.556 106.935 23.5086 106.604 23.5086H105.505V24.6694H106.475C107.186 24.6694 107.542 24.4746 107.542 24.0851ZM107.662 25.9249C107.662 25.6828 107.569 25.5091 107.382 25.4038C107.194 25.2985 106.919 25.2458 106.555 25.2458H105.505V26.604H106.571C106.924 26.604 107.194 26.554 107.382 26.454C107.569 26.3487 107.662 26.1723 107.662 25.9249Z" fill="white"/>
<path d="M113.053 22.9322V27.1647H112.348V23.5244H110.126V27.1647H109.42V22.9322H113.053Z" fill="white"/>
<path d="M116.085 22.8532C116.454 22.8532 116.77 22.9322 117.032 23.0901C117.299 23.2481 117.502 23.4718 117.641 23.7613C117.786 24.0456 117.858 24.3799 117.858 24.7642V25.1827H114.914C114.925 25.6617 115.048 26.0276 115.283 26.2803C115.524 26.5277 115.858 26.6514 116.286 26.6514C116.559 26.6514 116.799 26.6277 117.008 26.5803C117.222 26.5277 117.441 26.454 117.665 26.3592V26.9673C117.446 27.062 117.23 27.1304 117.016 27.1726C116.802 27.2199 116.548 27.2436 116.254 27.2436C115.847 27.2436 115.487 27.162 115.171 26.9988C114.861 26.8356 114.618 26.5935 114.441 26.2724C114.27 25.946 114.185 25.5485 114.185 25.08C114.185 24.6168 114.262 24.2193 114.417 23.8877C114.578 23.556 114.799 23.3007 115.083 23.1217C115.372 22.9427 115.706 22.8532 116.085 22.8532ZM116.077 23.4218C115.741 23.4218 115.473 23.5297 115.275 23.7455C115.083 23.9561 114.968 24.2509 114.93 24.6299H117.12C117.115 24.272 117.029 23.9824 116.863 23.7613C116.698 23.535 116.436 23.4218 116.077 23.4218Z" fill="white"/>
<path d="M119.57 24.472C119.57 24.9563 119.845 25.1985 120.396 25.1985C120.663 25.1985 120.907 25.159 121.126 25.08C121.345 24.9958 121.57 24.8852 121.8 24.7484V22.9322H122.505V27.1647H121.8V25.2774C121.559 25.4301 121.321 25.5512 121.086 25.6407C120.856 25.7249 120.578 25.767 120.252 25.767C119.813 25.767 119.471 25.6538 119.225 25.4275C118.984 25.2011 118.864 24.8984 118.864 24.5194V22.9322H119.57V24.472Z" fill="white"/>
<path d="M125.499 22.8611C126.023 22.8611 126.411 22.9743 126.662 23.2007C126.914 23.427 127.039 23.7876 127.039 24.2825V27.1647H126.526L126.39 26.5645H126.358C126.17 26.7962 125.973 26.9673 125.764 27.0778C125.561 27.1884 125.278 27.2436 124.914 27.2436C124.524 27.2436 124.2 27.1436 123.943 26.9436C123.687 26.7383 123.558 26.4198 123.558 25.9881C123.558 25.567 123.727 25.2432 124.064 25.0168C124.401 24.7852 124.919 24.6589 125.62 24.6378L126.35 24.6141V24.3614C126.35 24.0087 126.272 23.764 126.117 23.6271C125.962 23.4902 125.743 23.4218 125.459 23.4218C125.235 23.4218 125.021 23.456 124.818 23.5244C124.614 23.5876 124.425 23.6613 124.248 23.7455L124.032 23.2244C124.219 23.1243 124.441 23.0401 124.697 22.9717C124.954 22.898 125.221 22.8611 125.499 22.8611ZM125.708 25.1195C125.173 25.1406 124.802 25.2248 124.593 25.3722C124.39 25.5196 124.288 25.7275 124.288 25.996C124.288 26.2329 124.36 26.4066 124.505 26.5172C124.655 26.6277 124.844 26.683 125.074 26.683C125.438 26.683 125.74 26.5856 125.981 26.3908C126.221 26.1908 126.342 25.8854 126.342 25.4748V25.0958L125.708 25.1195Z" fill="white"/>
<path d="M131.335 23.5165H129.931V27.1647H129.233V23.5165H127.846V22.9322H131.335V23.5165Z" fill="white"/>
<path d="M135.211 27.1647H134.497V23.5086H133.23C133.161 24.3983 133.064 25.1169 132.941 25.6643C132.818 26.2066 132.655 26.6014 132.452 26.8488C132.249 27.0962 131.992 27.2199 131.682 27.2199C131.613 27.2199 131.543 27.2147 131.474 27.2041C131.409 27.1989 131.356 27.1857 131.313 27.1647V26.6435C131.345 26.654 131.38 26.6619 131.417 26.6672C131.455 26.6725 131.492 26.6751 131.53 26.6751C131.818 26.6751 132.048 26.3724 132.219 25.767C132.396 25.1616 132.53 24.2167 132.621 22.9322H135.211V27.1647Z" fill="white"/>
<path d="M138.236 22.8532C138.605 22.8532 138.92 22.9322 139.182 23.0901C139.45 23.2481 139.653 23.4718 139.792 23.7613C139.936 24.0456 140.008 24.3799 140.008 24.7642V25.1827H137.065C137.076 25.6617 137.199 26.0276 137.434 26.2803C137.674 26.5277 138.009 26.6514 138.436 26.6514C138.709 26.6514 138.95 26.6277 139.158 26.5803C139.372 26.5277 139.591 26.454 139.816 26.3592V26.9673C139.597 27.062 139.38 27.1304 139.166 27.1726C138.952 27.2199 138.698 27.2436 138.404 27.2436C137.998 27.2436 137.637 27.162 137.322 26.9988C137.011 26.8356 136.768 26.5935 136.592 26.2724C136.421 25.946 136.335 25.5485 136.335 25.08C136.335 24.6168 136.413 24.2193 136.568 23.8877C136.728 23.556 136.95 23.3007 137.233 23.1217C137.522 22.9427 137.856 22.8532 138.236 22.8532ZM138.228 23.4218C137.891 23.4218 137.624 23.5297 137.426 23.7455C137.233 23.9561 137.118 24.2509 137.081 24.6299H139.271C139.265 24.272 139.18 23.9824 139.014 23.7613C138.848 23.535 138.586 23.4218 138.228 23.4218Z" fill="white"/>
<path d="M141.809 22.9322V24.6931H144.143V22.9322H144.848V27.1647H144.143V25.2774H141.809V27.1647H141.103V22.9322H141.809Z" fill="white"/>
<path d="M146.875 25.5143C146.875 25.5775 146.873 25.6722 146.867 25.7986C146.862 25.9249 146.854 26.0513 146.843 26.1776C146.838 26.304 146.833 26.404 146.827 26.4777L149.129 22.9322H149.995V27.1647H149.338V24.6694C149.338 24.5852 149.338 24.4746 149.338 24.3378C149.343 24.2009 149.348 24.0666 149.354 23.935C149.359 23.7982 149.364 23.6955 149.37 23.6271L147.084 27.1647H146.21V22.9322H146.875V25.5143Z" fill="white"/>
<path d="M154.844 21.1792C154.807 21.574 154.671 21.8741 154.435 22.0794C154.206 22.2794 153.837 22.3795 153.329 22.3795C152.805 22.3795 152.433 22.2794 152.214 22.0794C152 21.8793 151.88 21.5793 151.853 21.1792H152.511C152.537 21.4635 152.612 21.6556 152.735 21.7556C152.863 21.8504 153.067 21.8978 153.345 21.8978C153.591 21.8978 153.783 21.8478 153.922 21.7477C154.066 21.6425 154.152 21.4529 154.179 21.1792H154.844ZM152.029 25.5143C152.029 25.5775 152.027 25.6722 152.021 25.7986C152.016 25.9249 152.008 26.0513 151.997 26.1776C151.992 26.304 151.986 26.404 151.981 26.4777L154.283 22.9322H155.149V27.1647H154.492V24.6694C154.492 24.5852 154.492 24.4746 154.492 24.3378C154.497 24.2009 154.502 24.0666 154.508 23.935C154.513 23.7982 154.518 23.6955 154.524 23.6271L152.238 27.1647H151.364V22.9322H152.029V25.5143Z" fill="white"/>
<path fill-rule="evenodd" clip-rule="evenodd" d="M13.1754 33C17.7317 33 21.4254 29.3063 21.4254 24.75C21.4254 20.1937 17.7317 16.5 13.1754 16.5C8.619 16.5 4.92535 20.1937 4.92535 24.75C4.92535 29.3063 8.619 33 13.1754 33ZM15.2016 19.8583C14.5592 19.5922 13.8707 19.4552 13.1754 19.4552V24.75V30.0448C13.8707 30.0448 14.5592 29.9078 15.2016 29.6417C15.844 29.3756 16.4277 28.9856 16.9193 28.494C17.411 28.0023 17.801 27.4186 18.0671 26.7762C18.3332 26.1338 18.4701 25.4453 18.4701 24.75C18.4701 24.0547 18.3332 23.3662 18.0671 22.7238C17.801 22.0814 17.411 21.4977 16.9193 21.006C16.4277 20.5144 15.844 20.1244 15.2016 19.8583Z" fill="white"/>
<path fill-rule="evenodd" clip-rule="evenodd" d="M2.95522 0H1.97015V33H2.95522V0ZM3.20149 33H4.92537V0H3.20149V33ZM0.985075 0H1.72388V33H0.985075V0ZM0.738806 0H0V33H0.738806V0Z" fill="white"/>
<path fill-rule="evenodd" clip-rule="evenodd" d="M13.1754 16.5C17.7317 16.5 21.4254 12.8063 21.4254 8.25C21.4254 3.69365 17.7317 0 13.1754 0C8.619 0 4.92535 3.69365 4.92535 8.25C4.92535 12.8063 8.619 16.5 13.1754 16.5ZM15.2016 3.35826C14.5592 3.09218 13.8707 2.95522 13.1754 2.95522V4.95788C13.6077 4.95788 14.0358 5.04304 14.4352 5.20848C14.8346 5.37393 15.1975 5.61642 15.5033 5.92212C15.809 6.22782 16.0514 6.59074 16.2169 6.99016C16.3823 7.38958 16.4675 7.81767 16.4675 8.25C16.4675 8.68233 16.3823 9.11042 16.2169 9.50984C16.0514 9.90926 15.809 10.2722 15.5033 10.5779C15.1975 10.8836 14.8346 11.1261 14.4352 11.2915C14.0358 11.457 13.6077 11.5421 13.1754 11.5421V13.5448C13.8707 13.5448 14.5592 13.4078 15.2016 13.1417C15.844 12.8756 16.4277 12.4856 16.9193 11.994C17.411 11.5023 17.801 10.9186 18.0671 10.2762C18.3332 9.63383 18.4701 8.94532 18.4701 8.25C18.4701 7.55468 18.3332 6.86617 18.0671 6.22378C17.801 5.58139 17.411 4.99769 16.9193 4.50603C16.4277 4.01436 15.844 3.62435 15.2016 3.35826ZM11.3284 6.27985C11.3284 6.8919 10.8322 7.38806 10.2201 7.38806C9.6081 7.38806 9.11194 6.8919 9.11194 6.27985C9.11194 5.6678 9.6081 5.17164 10.2201 5.17164C10.8322 5.17164 11.3284 5.6678 11.3284 6.27985ZM10.2201 11.0821C10.8322 11.0821 11.3284 10.5859 11.3284 9.97388C11.3284 9.36183 10.8322 8.86567 10.2201 8.86567C9.6081 8.86567 9.11194 9.36183 9.11194 9.97388C9.11194 10.5859 9.6081 11.0821 10.2201 11.0821Z" fill="white"/>
</svg>
