<svg width="631" height="134" viewBox="0 0 631 134" fill="none" xmlns="http://www.w3.org/2000/svg">
<path d="M122.595 18.731H133.056C138.896 18.731 143.332 19.8494 146.366 22.0862C147.698 23.0226 148.903 24.3881 149.98 26.1828C151.058 27.9774 151.596 30.2923 151.596 33.1273C151.596 37.731 149.683 41.2163 145.856 43.5832C147.783 44.0253 149.484 44.7406 150.959 45.729C152.433 46.6913 153.581 47.8097 154.403 49.0842C155.253 50.3587 155.877 51.6591 156.274 52.9856C156.699 54.3121 156.912 55.6516 156.912 57.0041C156.912 59.423 156.345 61.6468 155.211 63.6756C154.105 65.7043 152.702 67.3169 151.001 68.5133C149.895 69.3196 148.733 69.9829 147.514 70.5031C146.295 70.9973 145.019 71.3484 143.687 71.5565C142.383 71.7385 141.263 71.8686 140.327 71.9466C139.42 71.9986 138.329 72.0246 137.053 72.0246H122.595V18.731ZM129.016 24.3101V42.1396H133.906C134.785 42.1396 135.621 42.1006 136.415 42.0226C137.237 41.9446 138.215 41.7365 139.349 41.3984C140.512 41.0342 141.49 40.566 142.283 39.9938C143.106 39.3956 143.814 38.5243 144.41 37.3799C145.005 36.2094 145.303 34.8439 145.303 33.2834C145.303 32.0869 145.118 31.0075 144.75 30.0452C144.381 29.0568 143.928 28.2635 143.389 27.6653C142.879 27.0411 142.227 26.5079 141.433 26.0657C140.668 25.6235 139.945 25.2984 139.264 25.0903C138.612 24.8563 137.889 24.6872 137.095 24.5832C136.302 24.4531 135.692 24.3751 135.267 24.3491C134.87 24.3231 134.473 24.3101 134.076 24.3101H129.016ZM129.016 47.4066V66.4456H136.458C138.697 66.4456 140.625 66.3025 142.241 66.0164C143.885 65.7043 145.345 65.0931 146.621 64.1828C147.783 63.4025 148.705 62.3751 149.385 61.1006C150.094 59.8261 150.448 58.4086 150.448 56.848C150.448 54.9233 149.966 53.3107 149.002 52.0103C148.038 50.6838 146.876 49.6824 145.515 49.0062C143.474 47.9398 140.186 47.4066 135.65 47.4066H129.016Z" fill="white"/>
<path d="M200.202 72.0246V38.4723C200.202 36.9377 200.174 35.7803 200.117 35C200.06 34.1937 199.89 33.1793 199.607 31.9569C199.323 30.7084 198.827 29.616 198.118 28.6797C197.41 27.7433 196.46 26.872 195.269 26.0657C194.192 25.0513 192.647 24.245 190.634 23.6468C188.621 23.0226 186.906 22.7105 185.488 22.7105C181.434 22.7105 178.188 23.8289 175.75 26.0657C174.588 26.872 173.652 27.7433 172.944 28.6797C172.235 29.616 171.739 30.6954 171.455 31.9179C171.172 33.1403 171.002 34.1677 170.945 35C170.888 35.8063 170.86 36.9637 170.86 38.4723V72.0246H164.779V37.2628C164.779 35.7803 164.793 34.6359 164.822 33.8296C164.878 32.9973 165.006 31.9569 165.204 30.7084C165.431 29.4339 165.8 28.2505 166.31 27.1581C166.849 26.0397 167.557 24.9343 168.436 23.8419C172.093 19.3682 177.777 17.1314 185.488 17.1314C193.2 17.1314 198.926 19.3682 202.668 23.8419C205.106 28.6016 206.326 33.0753 206.326 37.2628V72.0246H200.202Z" fill="white"/>
<path d="M246.851 18.731V24.3101H223.165V40.1499H246.171V45.729H223.165V66.4456H246.851V72.0246H216.744V18.731H246.851Z" fill="white"/>
<path d="M287.292 72.0246V49.1622C281.481 49.5524 277.469 49.7474 275.258 49.7474C268.397 49.7474 263.606 48.7851 260.885 46.8604C259.722 46.0541 258.758 45.1177 257.993 44.0513C257.227 42.9849 256.689 41.8535 256.377 40.6571C256.065 39.4606 255.852 38.4073 255.739 37.4969C255.626 36.5866 255.569 35.5722 255.569 34.4538V18.731H262.033V33.6735C262.033 34.4538 262.047 35.117 262.075 35.6632C262.132 36.2094 262.26 36.9507 262.458 37.8871C262.656 38.8234 263.011 39.6817 263.521 40.462C264.031 41.2423 264.698 41.9055 265.52 42.4517C266.484 43.128 267.759 43.5832 269.347 43.8172C270.963 44.0253 273.047 44.1294 275.598 44.1294C279.028 44.1294 282.926 43.9473 287.292 43.5832V18.731H293.714V72.0246H287.292Z" fill="white"/>
<path d="M345.466 72.0246L338.662 57.0041H313.913L306.939 72.0246H299.795L326.542 16.1561L352.61 72.0246H345.466ZM316.464 51.425H336.111L326.372 30.0842L316.464 51.425Z" fill="white"/>
<path d="M389.862 24.3101H375.743V72.0246H369.322V24.3101H355.204V18.731H389.862V24.3101Z" fill="white"/>
<path d="M419.331 29.4209L399.855 72.0246H392.498L419.331 16L446.249 72.0246H438.935L419.331 29.4209Z" fill="white"/>
<path d="M482.438 18.731V24.3101H458.751V40.1499H481.757V45.729H458.751V66.4456H482.438V72.0246H452.33V18.731H482.438Z" fill="white"/>
<path d="M498.469 18.731V40.384H528.279V18.731H534.7V72.0246H528.279V45.963H498.469V72.0246H492.048V18.731H498.469Z" fill="white"/>
<path d="M551.625 18.731V51.425C551.625 52.6215 551.639 53.5448 551.668 54.1951C551.696 54.8453 551.781 55.7296 551.923 56.848C552.093 57.9405 552.32 58.8508 552.603 59.5791C552.915 60.3073 553.383 61.1136 554.007 61.9979C554.63 62.8563 555.381 63.6366 556.26 64.3388C557.423 65.2491 558.897 65.9904 560.683 66.5626C562.469 67.1088 564.184 67.3819 565.828 67.3819C567.473 67.3819 569.188 67.1088 570.974 66.5626C572.788 65.9904 574.277 65.2491 575.439 64.3388C576.545 63.4805 577.423 62.5572 578.075 61.5688C578.756 60.5544 579.224 59.397 579.479 58.0965C579.734 56.796 579.89 55.7426 579.947 54.9363C580.003 54.13 580.032 52.9596 580.032 51.425V18.731H586.495V53.0246C586.495 55.6256 586.24 57.9535 585.73 60.0082C585.248 62.037 584.284 63.9617 582.838 65.7823C581.052 68.0192 578.671 69.7878 575.694 71.0883C572.746 72.3628 569.457 73 565.828 73C562.2 73 558.911 72.3628 555.963 71.0883C553.014 69.7878 550.647 68.0192 548.861 65.7823C547.415 63.9617 546.437 62.037 545.927 60.0082C545.445 57.9535 545.204 55.6256 545.204 53.0246V18.731H551.625Z" fill="white"/>
<path d="M594.277 72.0246L611.372 48.3819C607.432 48.0178 604.171 46.8994 601.591 45.0267C598.246 42.5298 596.574 38.9014 596.574 34.1417C596.574 29.7721 597.906 26.2348 600.571 23.5298C601.62 22.4374 602.811 21.54 604.143 20.8378C605.475 20.1355 606.85 19.6543 608.268 19.3943C609.714 19.1081 610.904 18.9261 611.84 18.848C612.775 18.77 613.839 18.731 615.029 18.731H628.595V72.0246H622.173V48.694H618.686L602.144 72.0246H594.277ZM622.173 24.3101H615.88C614.547 24.3101 613.413 24.3491 612.478 24.4271C611.571 24.5051 610.479 24.7652 609.203 25.2074C607.928 25.6496 606.85 26.2868 605.972 27.1191C604.1 28.9398 603.165 31.2286 603.165 33.9856C603.165 37.1328 604.271 39.5257 606.482 41.1643C608.551 42.6728 611.514 43.4271 615.369 43.4271H622.173V24.3101Z" fill="white"/>
<path d="M141.321 92.1182V109.305H138.748V98.3387C138.748 97.8898 138.759 97.4195 138.781 96.9279C138.824 96.4362 138.868 95.9552 138.911 95.485H138.814L133.114 109.305H130.704L125.168 95.485H125.07C125.135 96.4469 125.168 97.4302 125.168 98.4349V109.305H122.595V92.1182H126.405L131.909 105.938L137.511 92.1182H141.321Z" fill="#CACACA"/>
<path d="M153.505 91.8297C155.633 91.8297 157.207 92.2892 158.227 93.2084C159.248 94.1276 159.758 95.5919 159.758 97.6012V109.305H157.674L157.12 106.868H156.99C156.23 107.808 155.427 108.503 154.58 108.952C153.755 109.401 152.604 109.625 151.128 109.625C149.543 109.625 148.229 109.219 147.187 108.407C146.145 107.573 145.623 106.28 145.623 104.527C145.623 102.817 146.307 101.502 147.675 100.583C149.043 99.6426 151.149 99.1296 153.994 99.0441L156.957 98.9479V97.9218C156.957 96.4896 156.642 95.4957 156.013 94.9399C155.383 94.3841 154.493 94.1062 153.342 94.1062C152.43 94.1062 151.562 94.2452 150.737 94.523C149.912 94.7796 149.141 95.0788 148.424 95.4208L147.545 93.3046C148.305 92.8985 149.206 92.5564 150.248 92.2786C151.29 91.9793 152.376 91.8297 153.505 91.8297ZM154.352 101C152.181 101.086 150.672 101.428 149.825 102.026C149 102.625 148.587 103.469 148.587 104.559C148.587 105.521 148.88 106.226 149.467 106.675C150.074 107.124 150.845 107.349 151.779 107.349C153.255 107.349 154.482 106.953 155.459 106.162C156.436 105.35 156.925 104.11 156.925 102.443V100.904L154.352 101Z" fill="#CACACA"/>
<path d="M175.8 92.1182V94.491H168.016V109.305H165.15V92.1182H175.8Z" fill="#CACACA"/>
<path d="M185.851 91.8297C187.978 91.8297 189.553 92.2892 190.573 93.2084C191.594 94.1276 192.104 95.5919 192.104 97.6012V109.305H190.019L189.466 106.868H189.336C188.576 107.808 187.772 108.503 186.925 108.952C186.1 109.401 184.95 109.625 183.473 109.625C181.888 109.625 180.575 109.219 179.532 108.407C178.49 107.573 177.969 106.28 177.969 104.527C177.969 102.817 178.653 101.502 180.021 100.583C181.389 99.6426 183.495 99.1296 186.339 99.0441L189.303 98.9479V97.9218C189.303 96.4896 188.988 95.4957 188.358 94.9399C187.729 94.3841 186.839 94.1062 185.688 94.1062C184.776 94.1062 183.907 94.2452 183.082 94.523C182.257 94.7796 181.487 95.0788 180.77 95.4208L179.891 93.3046C180.651 92.8985 181.552 92.5564 182.594 92.2786C183.636 91.9793 184.722 91.8297 185.851 91.8297ZM186.697 101C184.526 101.086 183.017 101.428 182.17 102.026C181.345 102.625 180.933 103.469 180.933 104.559C180.933 105.521 181.226 106.226 181.812 106.675C182.42 107.124 183.191 107.349 184.125 107.349C185.601 107.349 186.828 106.953 187.805 106.162C188.782 105.35 189.27 104.11 189.27 102.443V100.904L186.697 101Z" fill="#CACACA"/>
<path d="M202.088 91.7976C204.085 91.7976 205.67 92.1931 206.842 92.984C208.037 93.7535 208.634 94.8651 208.634 96.3186C208.634 97.3661 208.341 98.1997 207.754 98.8196C207.168 99.4182 206.365 99.8564 205.344 100.134V100.263C206.039 100.455 206.68 100.722 207.266 101.064C207.852 101.406 208.319 101.855 208.666 102.411C209.035 102.967 209.22 103.683 209.22 104.559C209.22 105.991 208.612 107.199 207.396 108.182C206.202 109.144 204.324 109.625 201.762 109.625C200.503 109.625 199.363 109.518 198.342 109.305C197.322 109.112 196.475 108.845 195.802 108.503V105.97C196.54 106.312 197.409 106.622 198.407 106.9C199.428 107.178 200.535 107.317 201.729 107.317C203.032 107.317 204.128 107.103 205.019 106.675C205.931 106.226 206.387 105.468 206.387 104.399C206.387 102.475 204.726 101.513 201.404 101.513H199.059V99.2044H200.948C202.446 99.2044 203.64 99.012 204.53 98.6273C205.442 98.2211 205.898 97.5371 205.898 96.5752C205.898 95.7629 205.551 95.1536 204.856 94.7475C204.183 94.3413 203.206 94.1383 201.925 94.1383C200.969 94.1383 200.123 94.2345 199.384 94.4269C198.668 94.5979 197.875 94.8651 197.007 95.2285L195.997 92.984C197.821 92.1931 199.851 91.7976 202.088 91.7976Z" fill="#CACACA"/>
<path d="M216.165 102.603C216.165 102.86 216.154 103.244 216.132 103.758C216.11 104.271 216.078 104.784 216.034 105.297C216.013 105.81 215.991 106.216 215.969 106.515L225.316 92.1182H228.834V109.305H226.163V99.1723C226.163 98.8303 226.163 98.3814 226.163 97.8257C226.185 97.2699 226.207 96.7248 226.228 96.1904C226.25 95.6346 226.272 95.2178 226.293 94.9399L217.011 109.305H213.462V92.1182H216.165V102.603Z" fill="#CACACA"/>
<path d="M237.255 92.1182V99.2685H246.733V92.1182H249.599V109.305H246.733V101.641H237.255V109.305H234.389V92.1182H237.255Z" fill="#CACACA"/>
<path d="M276.336 92.1182V109.305H273.47V94.523H264.449V109.305H261.582V92.1182H276.336Z" fill="#CACACA"/>
<path d="M297.083 100.679C297.083 103.522 296.345 105.724 294.868 107.285C293.413 108.845 291.438 109.625 288.941 109.625C287.399 109.625 286.02 109.283 284.804 108.599C283.61 107.894 282.666 106.878 281.971 105.553C281.276 104.206 280.929 102.582 280.929 100.679C280.929 97.8363 281.656 95.6453 283.111 94.1062C284.566 92.5671 286.541 91.7976 289.038 91.7976C290.623 91.7976 292.013 92.1503 293.207 92.8557C294.423 93.5397 295.367 94.5444 296.041 95.8697C296.735 97.1737 297.083 98.7769 297.083 100.679ZM283.893 100.679C283.893 102.71 284.294 104.324 285.098 105.521C285.923 106.697 287.225 107.285 289.006 107.285C290.764 107.285 292.056 106.697 292.881 105.521C293.706 104.324 294.119 102.71 294.119 100.679C294.119 98.6486 293.706 97.0561 292.881 95.9018C292.056 94.7475 290.754 94.1703 288.973 94.1703C287.193 94.1703 285.901 94.7475 285.098 95.9018C284.294 97.0561 283.893 98.6486 283.893 100.679Z" fill="#CACACA"/>
<path d="M314.587 92.1182V106.932H317.128V115.269H314.359V109.305H302.211V115.269H299.475V106.932H300.876C302.374 104.901 303.492 102.593 304.23 100.006C304.99 97.3981 305.381 94.7689 305.403 92.1182H314.587ZM307.943 94.3307C307.856 95.7842 307.628 97.2912 307.259 98.8517C306.89 100.391 306.413 101.866 305.826 103.277C305.262 104.687 304.6 105.906 303.84 106.932H311.819V94.3307H307.943Z" fill="#CACACA"/>
<path d="M327.16 91.8297C329.288 91.8297 330.862 92.2892 331.883 93.2084C332.903 94.1276 333.413 95.5919 333.413 97.6012V109.305H331.329L330.775 106.868H330.645C329.885 107.808 329.082 108.503 328.235 108.952C327.41 109.401 326.259 109.625 324.783 109.625C323.198 109.625 321.884 109.219 320.842 108.407C319.8 107.573 319.279 106.28 319.279 104.527C319.279 102.817 319.963 101.502 321.331 100.583C322.698 99.6426 324.805 99.1296 327.649 99.0441L330.613 98.9479V97.9218C330.613 96.4896 330.298 95.4957 329.668 94.9399C329.038 94.3841 328.148 94.1062 326.997 94.1062C326.086 94.1062 325.217 94.2452 324.392 94.523C323.567 94.7796 322.796 95.0788 322.08 95.4208L321.2 93.3046C321.96 92.8985 322.861 92.5564 323.904 92.2786C324.946 91.9793 326.031 91.8297 327.16 91.8297ZM328.007 101C325.836 101.086 324.327 101.428 323.48 102.026C322.655 102.625 322.243 103.469 322.243 104.559C322.243 105.521 322.536 106.226 323.122 106.675C323.73 107.124 324.501 107.349 325.434 107.349C326.911 107.349 328.137 106.953 329.114 106.162C330.091 105.35 330.58 104.11 330.58 102.443V100.904L328.007 101Z" fill="#CACACA"/>
<path d="M347.11 91.7976C349.259 91.7976 350.986 92.5351 352.288 94.01C353.613 95.485 354.275 97.7081 354.275 100.679C354.275 103.608 353.613 105.831 352.288 107.349C350.986 108.866 349.249 109.625 347.077 109.625C345.731 109.625 344.613 109.379 343.723 108.888C342.854 108.375 342.17 107.787 341.671 107.124H341.476C341.519 107.488 341.562 107.947 341.606 108.503C341.649 109.059 341.671 109.54 341.671 109.946V117H338.805V92.1182H341.15L341.541 94.4589H341.671C342.192 93.7108 342.876 93.0802 343.723 92.5671C344.57 92.0541 345.699 91.7976 347.11 91.7976ZM346.589 94.1703C344.808 94.1703 343.549 94.662 342.811 95.6453C342.094 96.6286 341.714 98.1249 341.671 100.134V100.679C341.671 102.796 342.018 104.431 342.713 105.585C343.43 106.718 344.743 107.285 346.654 107.285C347.718 107.285 348.586 106.996 349.259 106.419C349.954 105.842 350.464 105.061 350.79 104.078C351.138 103.073 351.311 101.93 351.311 100.647C351.311 98.6807 350.92 97.1096 350.139 95.9339C349.379 94.7582 348.196 94.1703 346.589 94.1703Z" fill="#CACACA"/>
<path d="M369.166 92.1182H372.293L364.835 100.391L372.912 109.305H369.59L361.708 100.583V109.305H358.842V92.1182H361.708V100.455L369.166 92.1182Z" fill="#CACACA"/>
<path d="M390.621 100.679C390.621 103.522 389.883 105.724 388.407 107.285C386.952 108.845 384.976 109.625 382.479 109.625C380.938 109.625 379.559 109.283 378.343 108.599C377.149 107.894 376.204 106.878 375.51 105.553C374.815 104.206 374.467 102.582 374.467 100.679C374.467 97.8363 375.195 95.6453 376.649 94.1062C378.104 92.5671 380.08 91.7976 382.577 91.7976C384.162 91.7976 385.551 92.1503 386.746 92.8557C387.961 93.5397 388.906 94.5444 389.579 95.8697C390.274 97.1737 390.621 98.7769 390.621 100.679ZM377.431 100.679C377.431 102.71 377.833 104.324 378.636 105.521C379.461 106.697 380.764 107.285 382.544 107.285C384.303 107.285 385.595 106.697 386.42 105.521C387.245 104.324 387.658 102.71 387.658 100.679C387.658 98.6486 387.245 97.0561 386.42 95.9018C385.595 94.7475 384.292 94.1703 382.512 94.1703C380.731 94.1703 379.439 94.7475 378.636 95.9018C377.833 97.0561 377.431 98.6486 377.431 100.679Z" fill="#CACACA"/>
<path d="M409.2 96.4469C409.2 97.5157 408.875 98.3494 408.223 98.9479C407.572 99.5464 406.736 99.9526 405.716 100.166V100.295C406.801 100.444 407.746 100.829 408.549 101.449C409.352 102.047 409.754 102.988 409.754 104.271C409.754 105.724 409.2 106.932 408.093 107.894C407.008 108.834 405.205 109.305 402.687 109.305H395.164V92.1182H402.654C403.892 92.1182 404.999 92.2572 405.976 92.5351C406.975 92.7916 407.757 93.2405 408.321 93.8818C408.907 94.5017 409.2 95.3567 409.2 96.4469ZM406.302 96.7996C406.302 95.9873 405.998 95.3995 405.39 95.0361C404.804 94.6513 403.838 94.4589 402.491 94.4589H398.03V99.1723H401.97C404.858 99.1723 406.302 98.3814 406.302 96.7996ZM406.79 104.271C406.79 103.287 406.41 102.582 405.651 102.154C404.891 101.727 403.772 101.513 402.296 101.513H398.03V107.028H402.361C403.794 107.028 404.891 106.825 405.651 106.419C406.41 105.991 406.79 105.275 406.79 104.271Z" fill="#CACACA"/>
<path d="M413.342 101.513C413.342 101.513 414.786 101.524 417.674 101.545L420.8 101.513C420.974 101.705 421.126 102.005 421.256 102.411C421.387 102.817 421.452 103.159 421.452 103.437L417.641 103.405L413.7 103.437C413.397 103.138 413.245 102.796 413.245 102.411C413.245 102.005 413.277 101.705 413.342 101.513Z" fill="#CACACA"/>
<path d="M440.179 96.4469C440.179 97.5157 439.853 98.3494 439.201 98.9479C438.55 99.5464 437.714 99.9526 436.694 100.166V100.295C437.779 100.444 438.724 100.829 439.527 101.449C440.331 102.047 440.732 102.988 440.732 104.271C440.732 105.724 440.179 106.932 439.071 107.894C437.986 108.834 436.184 109.305 433.665 109.305H426.142V92.1182H433.632C434.87 92.1182 435.977 92.2572 436.954 92.5351C437.953 92.7916 438.735 93.2405 439.299 93.8818C439.885 94.5017 440.179 95.3567 440.179 96.4469ZM437.28 96.7996C437.28 95.9873 436.976 95.3995 436.368 95.0361C435.782 94.6513 434.816 94.4589 433.469 94.4589H429.008V99.1723H432.948C435.836 99.1723 437.28 98.3814 437.28 96.7996ZM437.768 104.271C437.768 103.287 437.389 102.582 436.629 102.154C435.869 101.727 434.75 101.513 433.274 101.513H429.008V107.028H433.339C434.772 107.028 435.869 106.825 436.629 106.419C437.389 105.991 437.768 105.275 437.768 104.271Z" fill="#CACACA"/>
<path d="M459.66 92.1182V109.305H456.794V94.523H447.773V109.305H444.907V92.1182H459.66Z" fill="#CACACA"/>
<path d="M471.972 91.7976C473.47 91.7976 474.751 92.1182 475.815 92.7595C476.9 93.4008 477.725 94.3093 478.29 95.485C478.876 96.6393 479.169 97.9967 479.169 99.5571V101.257H467.217C467.26 103.202 467.759 104.687 468.715 105.713C469.692 106.718 471.049 107.22 472.786 107.22C473.893 107.22 474.87 107.124 475.717 106.932C476.585 106.718 477.476 106.419 478.388 106.034V108.503C477.497 108.888 476.618 109.166 475.75 109.337C474.881 109.529 473.85 109.625 472.656 109.625C471.005 109.625 469.54 109.294 468.259 108.631C466.999 107.969 466.012 106.985 465.295 105.681C464.6 104.356 464.253 102.742 464.253 100.84C464.253 98.9586 464.568 97.3447 465.197 95.998C465.849 94.6513 466.75 93.6146 467.901 92.8878C469.073 92.161 470.43 91.7976 471.972 91.7976ZM471.939 94.1062C470.571 94.1062 469.486 94.5444 468.682 95.4208C467.901 96.2759 467.434 97.4729 467.282 99.012H476.173C476.151 97.5584 475.804 96.3828 475.131 95.485C474.458 94.5658 473.394 94.1062 471.939 94.1062Z" fill="#CACACA"/>
<path d="M486.121 98.3707C486.121 100.337 487.239 101.321 489.476 101.321C490.561 101.321 491.549 101.16 492.439 100.84C493.329 100.498 494.241 100.049 495.175 99.493V92.1182H498.041V109.305H495.175V101.641C494.198 102.261 493.232 102.753 492.276 103.116C491.343 103.458 490.214 103.629 488.889 103.629C487.109 103.629 485.719 103.17 484.721 102.25C483.743 101.331 483.255 100.102 483.255 98.5631V92.1182H486.121V98.3707Z" fill="#CACACA"/>
<path d="M510.198 91.8297C512.326 91.8297 513.9 92.2892 514.921 93.2084C515.941 94.1276 516.451 95.5919 516.451 97.6012V109.305H514.367L513.813 106.868H513.683C512.923 107.808 512.12 108.503 511.273 108.952C510.448 109.401 509.297 109.625 507.821 109.625C506.236 109.625 504.922 109.219 503.88 108.407C502.838 107.573 502.317 106.28 502.317 104.527C502.317 102.817 503.001 101.502 504.368 100.583C505.736 99.6426 507.842 99.1296 510.687 99.0441L513.65 98.9479V97.9218C513.65 96.4896 513.336 95.4957 512.706 94.9399C512.076 94.3841 511.186 94.1062 510.035 94.1062C509.123 94.1062 508.255 94.2452 507.43 94.523C506.605 94.7796 505.834 95.0788 505.117 95.4208L504.238 93.3046C504.998 92.8985 505.899 92.5564 506.941 92.2786C507.983 91.9793 509.069 91.8297 510.198 91.8297ZM511.045 101C508.874 101.086 507.365 101.428 506.518 102.026C505.693 102.625 505.28 103.469 505.28 104.559C505.28 105.521 505.573 106.226 506.16 106.675C506.768 107.124 507.538 107.349 508.472 107.349C509.948 107.349 511.175 106.953 512.152 106.162C513.129 105.35 513.618 104.11 513.618 102.443V100.904L511.045 101Z" fill="#CACACA"/>
<path d="M533.893 94.491H528.194V109.305H525.36V94.491H519.726V92.1182H533.893V94.491Z" fill="#CACACA"/>
<path d="M549.634 109.305H546.735V94.4589H541.589C541.307 98.0715 540.916 100.989 540.417 103.212C539.918 105.414 539.255 107.017 538.43 108.022C537.605 109.027 536.563 109.529 535.304 109.529C535.021 109.529 534.739 109.508 534.457 109.465C534.196 109.444 533.979 109.39 533.806 109.305V107.188C533.936 107.231 534.077 107.263 534.229 107.285C534.381 107.306 534.533 107.317 534.685 107.317C535.857 107.317 536.791 106.088 537.486 103.629C538.202 101.171 538.745 97.334 539.114 92.1182H549.634V109.305Z" fill="#CACACA"/>
<path d="M561.916 91.7976C563.414 91.7976 564.695 92.1182 565.759 92.7595C566.845 93.4008 567.67 94.3093 568.234 95.485C568.821 96.6393 569.114 97.9967 569.114 99.5571V101.257H557.161C557.205 103.202 557.704 104.687 558.659 105.713C559.636 106.718 560.993 107.22 562.73 107.22C563.838 107.22 564.815 107.124 565.661 106.932C566.53 106.718 567.42 106.419 568.332 106.034V108.503C567.442 108.888 566.563 109.166 565.694 109.337C564.826 109.529 563.794 109.625 562.6 109.625C560.95 109.625 559.484 109.294 558.203 108.631C556.944 107.969 555.956 106.985 555.24 105.681C554.545 104.356 554.197 102.742 554.197 100.84C554.197 98.9586 554.512 97.3447 555.142 95.998C555.793 94.6513 556.694 93.6146 557.845 92.8878C559.018 92.161 560.375 91.7976 561.916 91.7976ZM561.884 94.1062C560.516 94.1062 559.43 94.5444 558.627 95.4208C557.845 96.2759 557.378 97.4729 557.226 99.012H566.117C566.096 97.5584 565.748 96.3828 565.075 95.485C564.402 94.5658 563.338 94.1062 561.884 94.1062Z" fill="#CACACA"/>
<path d="M576.424 92.1182V99.2685H585.901V92.1182H588.767V109.305H585.901V101.641H576.424V109.305H573.558V92.1182H576.424Z" fill="#CACACA"/>
<path d="M596.998 102.603C596.998 102.86 596.987 103.244 596.965 103.758C596.944 104.271 596.911 104.784 596.868 105.297C596.846 105.81 596.824 106.216 596.802 106.515L606.15 92.1182H609.667V109.305H606.996V99.1723C606.996 98.8303 606.996 98.3814 606.996 97.8257C607.018 97.2699 607.04 96.7248 607.061 96.1904C607.083 95.6346 607.105 95.2178 607.127 94.9399L597.845 109.305H594.295V92.1182H596.998V102.603Z" fill="#CACACA"/>
<path d="M629.357 85C629.205 86.6032 628.651 87.8216 627.696 88.6553C626.762 89.4676 625.264 89.8737 623.202 89.8737C621.074 89.8737 619.565 89.4676 618.675 88.6553C617.806 87.843 617.318 86.6246 617.209 85H619.88C619.988 86.1543 620.292 86.9345 620.792 87.3407C621.313 87.7254 622.138 87.9178 623.267 87.9178C624.265 87.9178 625.047 87.7148 625.612 87.3086C626.198 86.8811 626.545 86.1116 626.654 85H629.357ZM617.925 102.603C617.925 102.86 617.915 103.244 617.893 103.758C617.871 104.271 617.839 104.784 617.795 105.297C617.773 105.81 617.752 106.216 617.73 106.515L627.077 92.1182H630.595V109.305H627.924V99.1723C627.924 98.8303 627.924 98.3814 627.924 97.8257C627.946 97.2699 627.967 96.7248 627.989 96.1904C628.011 95.6346 628.033 95.2178 628.054 94.9399L618.772 109.305H615.222V92.1182H617.925V102.603Z" fill="#CACACA"/>
<circle cx="54.0946" cy="100.5" r="33.5" fill="#FFCE00"/>
<path d="M54.0946 79C56.918 79 59.7138 79.5561 62.3223 80.6366C64.9308 81.7171 67.3009 83.3007 69.2974 85.2972C71.2939 87.2937 72.8775 89.6638 73.958 92.2723C75.0385 94.8808 75.5946 97.6766 75.5946 100.5C75.5946 103.323 75.0385 106.119 73.958 108.728C72.8775 111.336 71.2939 113.706 69.2974 115.703C67.3009 117.699 64.9308 119.283 62.3223 120.363C59.7138 121.444 56.918 122 54.0946 122L54.0946 100.5V79Z" fill="#FF4D6A"/>
<path fill-rule="evenodd" clip-rule="evenodd" d="M12.5946 0H8.5946V134H12.5946V0ZM13.5946 134H20.5946V0H13.5946V134ZM4.5946 0H7.5946V134H4.5946V0ZM3.5946 0H0.594604V134H3.5946V0Z" fill="#4350F6"/>
<path fill-rule="evenodd" clip-rule="evenodd" d="M54.0946 67C72.5961 67 87.5946 52.0015 87.5946 33.5C87.5946 14.9985 72.5961 0 54.0946 0C35.5931 0 20.5946 14.9985 20.5946 33.5C20.5946 52.0015 35.5931 67 54.0946 67ZM62.3223 13.6366C59.7138 12.5561 56.918 12 54.0946 12V20.132C55.8501 20.132 57.5884 20.4778 59.2103 21.1496C60.8322 21.8214 62.3059 22.8061 63.5472 24.0474C64.7885 25.2887 65.7732 26.7624 66.445 28.3843C67.1168 30.0062 67.4626 31.7445 67.4626 33.5C67.4626 35.2555 67.1168 36.9938 66.445 38.6157C65.7732 40.2376 64.7885 41.7113 63.5472 42.9526C62.3059 44.1939 60.8322 45.1786 59.2103 45.8504C57.5884 46.5222 55.8501 46.868 54.0946 46.868V55C56.918 55 59.7138 54.4439 62.3223 53.3634C64.9308 52.2829 67.3009 50.6993 69.2974 48.7028C71.2939 46.7063 72.8775 44.3362 73.958 41.7277C75.0385 39.1192 75.5946 36.3234 75.5946 33.5C75.5946 30.6766 75.0385 27.8808 73.958 25.2723C72.8775 22.6638 71.2939 20.2937 69.2974 18.2972C67.3009 16.3007 64.9308 14.7171 62.3223 13.6366ZM46.5946 25.5C46.5946 27.9853 44.5799 30 42.0946 30C39.6093 30 37.5946 27.9853 37.5946 25.5C37.5946 23.0147 39.6093 21 42.0946 21C44.5799 21 46.5946 23.0147 46.5946 25.5ZM42.0946 45C44.5799 45 46.5946 42.9853 46.5946 40.5C46.5946 38.0147 44.5799 36 42.0946 36C39.6093 36 37.5946 38.0147 37.5946 40.5C37.5946 42.9853 39.6093 45 42.0946 45Z" fill="#FF4D6A"/>
</svg>
