<svg width="256" height="58" viewBox="0 0 256 58" fill="none" xmlns="http://www.w3.org/2000/svg">
<path d="M49.4824 9.21925H53.7254C56.094 9.21925 57.8935 9.67287 59.1239 10.5801C59.6643 10.9599 60.153 11.5137 60.5899 12.2416C61.0269 12.9695 61.2453 13.9084 61.2453 15.0583C61.2453 16.9255 60.4692 18.3391 58.9169 19.2991C59.6988 19.4784 60.3887 19.7686 60.9866 20.1694C61.5845 20.5598 62.0502 21.0134 62.3837 21.5303C62.7286 22.0472 62.9816 22.5747 63.1426 23.1127C63.3151 23.6507 63.4013 24.194 63.4013 24.7426C63.4013 25.7236 63.1713 26.6256 62.7114 27.4485C62.263 28.2713 61.6938 28.9254 61.0039 29.4106C60.5554 29.7376 60.084 30.0067 59.5896 30.2176C59.0951 30.4181 58.5777 30.5605 58.0373 30.6449C57.5083 30.7187 57.0542 30.7715 56.6747 30.8031C56.3068 30.8242 55.8641 30.8348 55.3466 30.8348H49.4824V9.21925ZM52.0868 11.4821V18.7136H54.0703C54.4268 18.7136 54.766 18.6978 55.0879 18.6662C55.4214 18.6345 55.8181 18.5501 56.278 18.413C56.7494 18.2653 57.1461 18.0754 57.4681 17.8433C57.8016 17.6007 58.089 17.2473 58.3305 16.7831C58.5719 16.3084 58.6927 15.7545 58.6927 15.1216C58.6927 14.6363 58.6179 14.1985 58.4685 13.8082C58.319 13.4073 58.135 13.0856 57.9165 12.8429C57.7096 12.5898 57.4451 12.3735 57.1231 12.1942C56.8127 12.0148 56.5195 11.8829 56.2435 11.7986C55.979 11.7036 55.6858 11.635 55.3639 11.5928C55.0419 11.5401 54.7947 11.5084 54.6222 11.4979C54.4613 11.4874 54.3003 11.4821 54.1393 11.4821H52.0868ZM52.0868 20.8499V28.572H55.1052C56.0135 28.572 56.7954 28.5139 57.4508 28.3979C58.1178 28.2713 58.7099 28.0234 59.2274 27.6542C59.6988 27.3377 60.0725 26.921 60.3485 26.4041C60.6359 25.8872 60.7796 25.3122 60.7796 24.6793C60.7796 23.8986 60.5842 23.2446 60.1932 22.7171C59.8023 22.1791 59.3308 21.7729 58.7789 21.4986C57.951 21.0661 56.6172 20.8499 54.7775 20.8499H52.0868Z" fill="white"/>
<path d="M80.9594 30.8348V17.2262C80.9594 16.6038 80.9479 16.1343 80.9249 15.8178C80.9019 15.4908 80.8329 15.0794 80.718 14.5836C80.603 14.0772 80.4018 13.6341 80.1143 13.2544C79.8268 12.8746 79.4416 12.5212 78.9587 12.1942C78.5218 11.7827 77.8951 11.4557 77.0787 11.2131C76.2623 10.9599 75.5667 10.8333 74.9917 10.8333C73.3475 10.8333 72.0309 11.2869 71.042 12.1942C70.5706 12.5212 70.1911 12.8746 69.9037 13.2544C69.6162 13.6341 69.415 14.0719 69.3 14.5677C69.185 15.0636 69.116 15.4803 69.093 15.8178C69.07 16.1449 69.0585 16.6143 69.0585 17.2262V30.8348H66.5921V16.7356C66.5921 16.1343 66.5979 15.6701 66.6094 15.3431C66.6324 15.0055 66.6841 14.5836 66.7646 14.0772C66.8566 13.5603 67.0061 13.0803 67.213 12.6372C67.4315 12.1836 67.719 11.7353 68.0754 11.2922C69.5587 9.47771 71.8642 8.57047 74.9917 8.57047C78.1193 8.57047 80.442 9.47771 81.9598 11.2922C82.9487 13.2227 83.4431 15.0372 83.4431 16.7356V30.8348H80.9594Z" fill="white"/>
<path d="M99.8801 9.21925V11.4821H90.2732V17.9066H99.6042V20.1694H90.2732V28.572H99.8801V30.8348H87.6688V9.21925H99.8801Z" fill="white"/>
<path d="M116.283 30.8348V21.5619C113.925 21.7202 112.298 21.7993 111.402 21.7993C108.619 21.7993 106.676 21.409 105.572 20.6283C105.1 20.3013 104.709 19.9215 104.399 19.489C104.089 19.0565 103.87 18.5976 103.744 18.1123C103.617 17.627 103.531 17.1998 103.485 16.8306C103.439 16.4613 103.416 16.0499 103.416 15.5963V9.21925H106.038V15.2798C106.038 15.5963 106.043 15.8653 106.055 16.0868C106.078 16.3084 106.13 16.609 106.21 16.9888C106.291 17.3686 106.434 17.7167 106.641 18.0332C106.848 18.3497 107.118 18.6187 107.452 18.8402C107.843 19.1145 108.36 19.2991 109.004 19.3941C109.66 19.4784 110.505 19.5206 111.54 19.5206C112.931 19.5206 114.512 19.4468 116.283 19.2991V9.21925H118.887V30.8348H116.283Z" fill="white"/>
<path d="M139.877 30.8348L137.118 24.7426H127.08L124.251 30.8348H121.353L132.202 8.17487L142.775 30.8348H139.877ZM128.115 22.4797H136.083L132.133 13.824L128.115 22.4797Z" fill="white"/>
<path d="M157.884 11.4821H152.158V30.8348H149.553V11.4821H143.827V9.21925H157.884V11.4821Z" fill="white"/>
<path d="M169.837 13.555L161.937 30.8348H158.953L169.837 8.11157L180.754 30.8348H177.788L169.837 13.555Z" fill="white"/>
<path d="M195.432 9.21925V11.4821H185.825V17.9066H195.156V20.1694H185.825V28.572H195.432V30.8348H183.221V9.21925H195.432Z" fill="white"/>
<path d="M201.935 9.21925V18.0015H214.025V9.21925H216.63V30.8348H214.025V20.2644H201.935V30.8348H199.33V9.21925H201.935Z" fill="white"/>
<path d="M223.494 9.21925V22.4797C223.494 22.965 223.5 23.3395 223.511 23.6032C223.523 23.867 223.557 24.2256 223.615 24.6793C223.684 25.1223 223.776 25.4916 223.891 25.7869C224.017 26.0823 224.207 26.4093 224.46 26.768C224.713 27.1161 225.018 27.4326 225.374 27.7175C225.846 28.0867 226.444 28.3873 227.168 28.6194C227.892 28.841 228.588 28.9517 229.255 28.9517C229.922 28.9517 230.618 28.841 231.342 28.6194C232.078 28.3873 232.682 28.0867 233.153 27.7175C233.601 27.3693 233.958 26.9948 234.222 26.594C234.498 26.1825 234.688 25.7131 234.791 25.1856C234.895 24.6582 234.958 24.2309 234.981 23.9039C235.004 23.5769 235.016 23.1021 235.016 22.4797V9.21925H237.637V23.1285C237.637 24.1834 237.534 25.1276 237.327 25.961C237.131 26.7838 236.74 27.5645 236.154 28.3029C235.43 29.2102 234.464 29.9275 233.256 30.455C232.061 30.9719 230.727 31.2304 229.255 31.2304C227.783 31.2304 226.449 30.9719 225.253 30.455C224.058 29.9275 223.098 29.2102 222.373 28.3029C221.787 27.5645 221.39 26.7838 221.183 25.961C220.988 25.1276 220.89 24.1834 220.89 23.1285V9.21925H223.494Z" fill="white"/>
<path d="M240.794 30.8348L247.727 21.2455C246.129 21.0978 244.807 20.6441 243.76 19.8846C242.403 18.8719 241.725 17.4002 241.725 15.4697C241.725 13.6974 242.265 12.2627 243.346 11.1656C243.772 10.7225 244.255 10.3586 244.795 10.0737C245.336 9.78891 245.893 9.59375 246.468 9.48826C247.055 9.37221 247.537 9.29837 247.917 9.26672C248.296 9.23507 248.728 9.21925 249.211 9.21925H254.713V30.8348H252.108V21.3721H250.694L243.984 30.8348H240.794ZM252.108 11.4821H249.555C249.015 11.4821 248.555 11.4979 248.176 11.5295C247.808 11.5612 247.365 11.6667 246.848 11.846C246.33 12.0254 245.893 12.2838 245.537 12.6214C244.778 13.3599 244.398 14.2882 244.398 15.4064C244.398 16.6829 244.847 17.6534 245.744 18.318C246.583 18.9299 247.785 19.2358 249.348 19.2358H252.108V11.4821Z" fill="white"/>
<path d="M57.0779 38.9853V45.9559H56.0343V41.5082C56.0343 41.3262 56.0387 41.1354 56.0475 40.936C56.0652 40.7366 56.0828 40.5415 56.1004 40.3508H56.0607L53.7491 45.9559H52.7716L50.526 40.3508H50.4863C50.5128 40.7409 50.526 41.1397 50.526 41.5472V45.9559H49.4824V38.9853H51.0279L53.2603 44.5904L55.5324 38.9853H57.0779Z" fill="white"/>
<path d="M62.0195 38.8682C62.8825 38.8682 63.5209 39.0546 63.9348 39.4274C64.3487 39.8002 64.5557 40.3941 64.5557 41.2091V45.9559H63.7103L63.4857 44.9675H63.4329C63.1247 45.349 62.7988 45.6308 62.4554 45.8129C62.1207 45.9949 61.654 46.086 61.0552 46.086C60.4123 46.086 59.8795 45.9212 59.4568 45.5918C59.0341 45.2537 58.8228 44.7291 58.8228 44.0182C58.8228 43.3246 59.1002 42.7914 59.655 42.4186C60.2098 42.0371 61.064 41.829 62.2176 41.7943L63.4197 41.7553V41.3392C63.4197 40.7583 63.292 40.3551 63.0366 40.1297C62.7812 39.9043 62.4202 39.7916 61.9534 39.7916C61.5836 39.7916 61.2313 39.8479 60.8967 39.9606C60.562 40.0647 60.2494 40.186 59.9588 40.3248L59.6021 39.4664C59.9103 39.3017 60.2758 39.163 60.6985 39.0503C61.1212 38.9289 61.5615 38.8682 62.0195 38.8682ZM62.3629 42.5876C61.4823 42.6223 60.8702 42.761 60.5268 43.0038C60.1922 43.2466 60.0248 43.589 60.0248 44.0312C60.0248 44.4213 60.1437 44.7074 60.3815 44.8895C60.6281 45.0716 60.9407 45.1626 61.3194 45.1626C61.9182 45.1626 62.4157 45.0022 62.812 44.6814C63.2083 44.352 63.4065 43.8491 63.4065 43.1729V42.5486L62.3629 42.5876Z" fill="white"/>
<path d="M71.062 38.9853V39.9476H67.9049V45.9559H66.7425V38.9853H71.062Z" fill="white"/>
<path d="M75.1387 38.8682C76.0017 38.8682 76.6401 39.0546 77.054 39.4274C77.4679 39.8002 77.6749 40.3941 77.6749 41.2091V45.9559H76.8295L76.6049 44.9675H76.5521C76.2438 45.349 75.918 45.6308 75.5746 45.8129C75.2399 45.9949 74.7732 46.086 74.1744 46.086C73.5315 46.086 72.9987 45.9212 72.576 45.5918C72.1533 45.2537 71.942 44.7291 71.942 44.0182C71.942 43.3246 72.2194 42.7914 72.7742 42.4186C73.329 42.0371 74.1832 41.829 75.3368 41.7943L76.5389 41.7553V41.3392C76.5389 40.7583 76.4112 40.3551 76.1558 40.1297C75.9004 39.9043 75.5393 39.7916 75.0726 39.7916C74.7027 39.7916 74.3505 39.8479 74.0158 39.9606C73.6812 40.0647 73.3686 40.186 73.078 40.3248L72.7213 39.4664C73.0295 39.3017 73.395 39.163 73.8177 39.0503C74.2404 38.9289 74.6807 38.8682 75.1387 38.8682ZM75.4821 42.5876C74.6015 42.6223 73.9894 42.761 73.646 43.0038C73.3113 43.2466 73.144 43.589 73.144 44.0312C73.144 44.4213 73.2629 44.7074 73.5007 44.8895C73.7473 45.0716 74.0599 45.1626 74.4386 45.1626C75.0374 45.1626 75.5349 45.0022 75.9312 44.6814C76.3275 44.352 76.5257 43.8491 76.5257 43.1729V42.5486L75.4821 42.5876Z" fill="white"/>
<path d="M81.7242 38.8552C82.5344 38.8552 83.1772 39.0156 83.6528 39.3364C84.1371 39.6485 84.3793 40.0993 84.3793 40.6889C84.3793 41.1137 84.2604 41.4519 84.0227 41.7033C83.7849 41.9461 83.459 42.1238 83.0452 42.2365V42.2885C83.327 42.3665 83.5867 42.4749 83.8245 42.6136C84.0623 42.7524 84.2516 42.9344 84.3925 43.1599C84.5422 43.3853 84.6171 43.6757 84.6171 44.0312C84.6171 44.6121 84.3705 45.1019 83.8773 45.5008C83.393 45.8909 82.6313 46.086 81.5921 46.086C81.0813 46.086 80.619 46.0426 80.2051 45.9559C79.7912 45.8779 79.4478 45.7695 79.1748 45.6308V44.6034C79.4742 44.7421 79.8264 44.8678 80.2315 44.9806C80.6454 45.0933 81.0945 45.1496 81.5789 45.1496C82.1073 45.1496 82.552 45.0629 82.9131 44.8895C83.2829 44.7074 83.4679 44.3997 83.4679 43.9662C83.4679 43.1859 82.7942 42.7957 81.4468 42.7957H80.4957V41.8594H81.2619C81.8695 41.8594 82.3539 41.7813 82.7149 41.6253C83.0848 41.4605 83.2697 41.1831 83.2697 40.7929C83.2697 40.4635 83.1288 40.2164 82.847 40.0517C82.574 39.8869 82.1777 39.8046 81.6582 39.8046C81.2707 39.8046 80.9272 39.8436 80.6278 39.9216C80.3372 39.991 80.0158 40.0993 79.6635 40.2467L79.254 39.3364C79.9938 39.0156 80.8172 38.8552 81.7242 38.8552Z" fill="white"/>
<path d="M87.4338 43.2379C87.4338 43.3419 87.4294 43.498 87.4206 43.7061C87.4118 43.9141 87.3986 44.1222 87.381 44.3303C87.3722 44.5384 87.3633 44.7031 87.3545 44.8245L91.1457 38.9853H92.5723V45.9559H91.4891V41.8464C91.4891 41.7076 91.4891 41.5256 91.4891 41.3001C91.4979 41.0747 91.5067 40.8536 91.5155 40.6369C91.5243 40.4115 91.5331 40.2424 91.542 40.1297L87.7772 45.9559H86.3374V38.9853H87.4338V43.2379Z" fill="white"/>
<path d="M95.988 38.9853V41.8854H99.8319V38.9853H100.994V45.9559H99.8319V42.8477H95.988V45.9559H94.8255V38.9853H95.988Z" fill="white"/>
<path d="M111.839 38.9853V45.9559H110.676V39.9606H107.017V45.9559H105.855V38.9853H111.839Z" fill="white"/>
<path d="M120.254 42.4576C120.254 43.6107 119.954 44.5037 119.355 45.1366C118.765 45.7695 117.964 46.086 116.951 46.086C116.326 46.086 115.767 45.9473 115.274 45.6698C114.789 45.3837 114.406 44.9719 114.124 44.4343C113.843 43.8881 113.702 43.2292 113.702 42.4576C113.702 41.3045 113.997 40.4158 114.587 39.7916C115.177 39.1673 115.978 38.8552 116.991 38.8552C117.634 38.8552 118.197 38.9983 118.682 39.2844C119.175 39.5618 119.558 39.9693 119.831 40.5068C120.113 41.0357 120.254 41.686 120.254 42.4576ZM114.904 42.4576C114.904 43.2812 115.067 43.9358 115.393 44.4213C115.727 44.8982 116.256 45.1366 116.978 45.1366C117.691 45.1366 118.215 44.8982 118.55 44.4213C118.884 43.9358 119.052 43.2812 119.052 42.4576C119.052 41.6339 118.884 40.988 118.55 40.5198C118.215 40.0517 117.687 39.8176 116.964 39.8176C116.242 39.8176 115.718 40.0517 115.393 40.5198C115.067 40.988 114.904 41.6339 114.904 42.4576Z" fill="white"/>
<path d="M127.353 38.9853V44.9936H128.384V48.3749H127.261V45.9559H122.334V48.3749H121.224V44.9936H121.792C122.4 44.1699 122.853 43.2335 123.153 42.1845C123.461 41.1267 123.619 40.0603 123.628 38.9853H127.353ZM124.659 39.8826C124.623 40.4722 124.531 41.0834 124.381 41.7163C124.231 42.3405 124.038 42.9388 123.8 43.511C123.571 44.0832 123.302 44.5774 122.994 44.9936H126.23V39.8826H124.659Z" fill="white"/>
<path d="M132.453 38.8682C133.316 38.8682 133.954 39.0546 134.368 39.4274C134.782 39.8002 134.989 40.3941 134.989 41.2091V45.9559H134.144L133.919 44.9675H133.866C133.558 45.349 133.232 45.6308 132.889 45.8129C132.554 45.9949 132.087 46.086 131.489 46.086C130.846 46.086 130.313 45.9212 129.89 45.5918C129.468 45.2537 129.256 44.7291 129.256 44.0182C129.256 43.3246 129.534 42.7914 130.088 42.4186C130.643 42.0371 131.497 41.829 132.651 41.7943L133.853 41.7553V41.3392C133.853 40.7583 133.725 40.3551 133.47 40.1297C133.215 39.9043 132.854 39.7916 132.387 39.7916C132.017 39.7916 131.665 39.8479 131.33 39.9606C130.995 40.0647 130.683 40.186 130.392 40.3248L130.036 39.4664C130.344 39.3017 130.709 39.163 131.132 39.0503C131.555 38.9289 131.995 38.8682 132.453 38.8682ZM132.796 42.5876C131.916 42.6223 131.304 42.761 130.96 43.0038C130.626 43.2466 130.458 43.589 130.458 44.0312C130.458 44.4213 130.577 44.7074 130.815 44.8895C131.061 45.0716 131.374 45.1626 131.753 45.1626C132.352 45.1626 132.849 45.0022 133.245 44.6814C133.642 44.352 133.84 43.8491 133.84 43.1729V42.5486L132.796 42.5876Z" fill="white"/>
<path d="M140.544 38.8552C141.416 38.8552 142.116 39.1543 142.645 39.7525C143.182 40.3508 143.45 41.2525 143.45 42.4576C143.45 43.6454 143.182 44.5471 142.645 45.1626C142.116 45.7782 141.412 46.086 140.531 46.086C139.985 46.086 139.532 45.9863 139.171 45.7869C138.818 45.5788 138.541 45.3404 138.338 45.0716H138.259C138.277 45.219 138.294 45.4054 138.312 45.6308C138.33 45.8562 138.338 46.0513 138.338 46.216V49.0771H137.176V38.9853H138.127L138.285 39.9346H138.338C138.55 39.6312 138.827 39.3754 139.171 39.1673C139.514 38.9592 139.972 38.8552 140.544 38.8552ZM140.333 39.8176C139.611 39.8176 139.1 40.017 138.801 40.4158C138.51 40.8146 138.356 41.4215 138.338 42.2365V42.4576C138.338 43.3159 138.479 43.9792 138.761 44.4473C139.052 44.9069 139.584 45.1366 140.359 45.1366C140.791 45.1366 141.143 45.0196 141.416 44.7855C141.698 44.5514 141.905 44.2349 142.037 43.8361C142.178 43.4286 142.248 42.9648 142.248 42.4446C142.248 41.6469 142.09 41.0097 141.773 40.5328C141.465 40.056 140.985 39.8176 140.333 39.8176Z" fill="white"/>
<path d="M149.49 38.9853H150.758L147.733 42.3405L151.009 45.9559H149.662L146.465 42.4186V45.9559H145.303V38.9853H146.465V42.3665L149.49 38.9853Z" fill="white"/>
<path d="M158.192 42.4576C158.192 43.6107 157.893 44.5037 157.294 45.1366C156.704 45.7695 155.903 46.086 154.89 46.086C154.265 46.086 153.705 45.9473 153.212 45.6698C152.728 45.3837 152.345 44.9719 152.063 44.4343C151.781 43.8881 151.64 43.2292 151.64 42.4576C151.64 41.3045 151.935 40.4158 152.525 39.7916C153.115 39.1673 153.917 38.8552 154.929 38.8552C155.572 38.8552 156.136 38.9983 156.62 39.2844C157.113 39.5618 157.496 39.9693 157.769 40.5068C158.051 41.0357 158.192 41.686 158.192 42.4576ZM152.842 42.4576C152.842 43.2812 153.005 43.9358 153.331 44.4213C153.666 44.8982 154.194 45.1366 154.916 45.1366C155.63 45.1366 156.154 44.8982 156.488 44.4213C156.823 43.9358 156.99 43.2812 156.99 42.4576C156.99 41.6339 156.823 40.988 156.488 40.5198C156.154 40.0517 155.625 39.8176 154.903 39.8176C154.181 39.8176 153.657 40.0517 153.331 40.5198C153.005 40.988 152.842 41.6339 152.842 42.4576Z" fill="white"/>
<path d="M165.728 40.7409C165.728 41.1744 165.596 41.5126 165.331 41.7553C165.067 41.9981 164.728 42.1628 164.314 42.2495V42.3015C164.755 42.3622 165.138 42.5183 165.464 42.7697C165.789 43.0125 165.952 43.3939 165.952 43.9141C165.952 44.5037 165.728 44.9936 165.279 45.3837C164.838 45.7652 164.107 45.9559 163.086 45.9559H160.034V38.9853H163.073C163.575 38.9853 164.024 39.0416 164.42 39.1543C164.825 39.2584 165.142 39.4404 165.371 39.7005C165.609 39.952 165.728 40.2988 165.728 40.7409ZM164.552 40.884C164.552 40.5545 164.429 40.3161 164.182 40.1687C163.944 40.0126 163.553 39.9346 163.007 39.9346H161.197V41.8464H162.795C163.967 41.8464 164.552 41.5256 164.552 40.884ZM164.75 43.9141C164.75 43.5153 164.596 43.2292 164.288 43.0558C163.98 42.8824 163.526 42.7957 162.927 42.7957H161.197V45.0326H162.954C163.535 45.0326 163.98 44.9502 164.288 44.7855C164.596 44.6121 164.75 44.3216 164.75 43.9141Z" fill="white"/>
<path d="M167.408 42.7957C167.408 42.7957 167.993 42.8 169.165 42.8087L170.433 42.7957C170.503 42.8737 170.565 42.9951 170.618 43.1599C170.67 43.3246 170.697 43.4633 170.697 43.576L169.151 43.563L167.553 43.576C167.43 43.4546 167.368 43.3159 167.368 43.1599C167.368 42.9951 167.381 42.8737 167.408 42.7957Z" fill="white"/>
<path d="M178.292 40.7409C178.292 41.1744 178.16 41.5126 177.896 41.7553C177.632 41.9981 177.293 42.1628 176.879 42.2495V42.3015C177.319 42.3622 177.702 42.5183 178.028 42.7697C178.354 43.0125 178.517 43.3939 178.517 43.9141C178.517 44.5037 178.292 44.9936 177.843 45.3837C177.403 45.7652 176.672 45.9559 175.65 45.9559H172.599V38.9853H175.637C176.139 38.9853 176.588 39.0416 176.985 39.1543C177.39 39.2584 177.707 39.4404 177.936 39.7005C178.173 39.952 178.292 40.2988 178.292 40.7409ZM177.117 40.884C177.117 40.5545 176.993 40.3161 176.747 40.1687C176.509 40.0126 176.117 39.9346 175.571 39.9346H173.761V41.8464H175.36C176.531 41.8464 177.117 41.5256 177.117 40.884ZM177.315 43.9141C177.315 43.5153 177.161 43.2292 176.852 43.0558C176.544 42.8824 176.091 42.7957 175.492 42.7957H173.761V45.0326H175.518C176.099 45.0326 176.544 44.9502 176.852 44.7855C177.161 44.6121 177.315 44.3216 177.315 43.9141Z" fill="white"/>
<path d="M186.194 38.9853V45.9559H185.031V39.9606H181.372V45.9559H180.21V38.9853H186.194Z" fill="white"/>
<path d="M191.187 38.8552C191.795 38.8552 192.315 38.9853 192.746 39.2454C193.186 39.5055 193.521 39.8739 193.75 40.3508C193.988 40.819 194.107 41.3695 194.107 42.0024V42.6917H189.259C189.276 43.4806 189.479 44.0832 189.866 44.4994C190.263 44.9069 190.813 45.1106 191.518 45.1106C191.967 45.1106 192.363 45.0716 192.706 44.9936C193.059 44.9069 193.42 44.7855 193.79 44.6294V45.6308C193.429 45.7869 193.072 45.8996 192.72 45.9689C192.367 46.047 191.949 46.086 191.465 46.086C190.795 46.086 190.201 45.9516 189.681 45.6828C189.171 45.4141 188.77 45.0152 188.479 44.4864C188.198 43.9488 188.057 43.2942 188.057 42.5226C188.057 41.7597 188.184 41.1051 188.44 40.5589C188.704 40.0126 189.069 39.5922 189.536 39.2974C190.012 39.0026 190.562 38.8552 191.187 38.8552ZM191.174 39.7916C190.619 39.7916 190.179 39.9693 189.853 40.3248C189.536 40.6716 189.347 41.1571 189.285 41.7813H192.891C192.883 41.1918 192.742 40.7149 192.469 40.3508C192.196 39.978 191.764 39.7916 191.174 39.7916Z" fill="white"/>
<path d="M196.926 41.5212C196.926 42.3189 197.38 42.7177 198.287 42.7177C198.727 42.7177 199.128 42.6527 199.489 42.5226C199.85 42.3839 200.22 42.2018 200.598 41.9764V38.9853H201.761V45.9559H200.598V42.8477C200.202 43.0992 199.81 43.2986 199.423 43.446C199.044 43.5847 198.586 43.654 198.049 43.654C197.327 43.654 196.763 43.4676 196.358 43.0948C195.962 42.722 195.764 42.2235 195.764 41.5993V38.9853H196.926V41.5212Z" fill="white"/>
<path d="M206.692 38.8682C207.555 38.8682 208.193 39.0546 208.607 39.4274C209.021 39.8002 209.228 40.3941 209.228 41.2091V45.9559H208.383L208.158 44.9675H208.105C207.797 45.349 207.471 45.6308 207.128 45.8129C206.793 45.9949 206.326 46.086 205.727 46.086C205.085 46.086 204.552 45.9212 204.129 45.5918C203.706 45.2537 203.495 44.7291 203.495 44.0182C203.495 43.3246 203.772 42.7914 204.327 42.4186C204.882 42.0371 205.736 41.829 206.89 41.7943L208.092 41.7553V41.3392C208.092 40.7583 207.964 40.3551 207.709 40.1297C207.453 39.9043 207.092 39.7916 206.626 39.7916C206.256 39.7916 205.904 39.8479 205.569 39.9606C205.234 40.0647 204.922 40.186 204.631 40.3248L204.274 39.4664C204.583 39.3017 204.948 39.163 205.371 39.0503C205.794 38.9289 206.234 38.8682 206.692 38.8682ZM207.035 42.5876C206.155 42.6223 205.543 42.761 205.199 43.0038C204.864 43.2466 204.697 43.589 204.697 44.0312C204.697 44.4213 204.816 44.7074 205.054 44.8895C205.3 45.0716 205.613 45.1626 205.992 45.1626C206.59 45.1626 207.088 45.0022 207.484 44.6814C207.881 44.352 208.079 43.8491 208.079 43.1729V42.5486L207.035 42.5876Z" fill="white"/>
<path d="M216.302 39.9476H213.991V45.9559H212.841V39.9476H210.556V38.9853H216.302V39.9476Z" fill="white"/>
<path d="M222.687 45.9559H221.511V39.9346H219.424C219.309 41.3998 219.151 42.5833 218.948 43.485C218.746 44.378 218.477 45.0282 218.143 45.4357C217.808 45.8432 217.385 46.047 216.874 46.047C216.76 46.047 216.645 46.0383 216.531 46.021C216.425 46.0123 216.337 45.9906 216.267 45.9559V45.0976C216.32 45.1149 216.377 45.1279 216.438 45.1366C216.5 45.1453 216.562 45.1496 216.623 45.1496C217.099 45.1496 217.478 44.6511 217.759 43.654C218.05 42.657 218.27 41.1007 218.42 38.9853H222.687V45.9559Z" fill="white"/>
<path d="M227.668 38.8552C228.276 38.8552 228.795 38.9853 229.227 39.2454C229.667 39.5055 230.002 39.8739 230.231 40.3508C230.469 40.819 230.587 41.3695 230.587 42.0024V42.6917H225.74C225.757 43.4806 225.96 44.0832 226.347 44.4994C226.744 44.9069 227.294 45.1106 227.998 45.1106C228.448 45.1106 228.844 45.0716 229.187 44.9936C229.54 44.9069 229.901 44.7855 230.27 44.6294V45.6308C229.909 45.7869 229.553 45.8996 229.201 45.9689C228.848 46.047 228.43 46.086 227.946 46.086C227.276 46.086 226.682 45.9516 226.162 45.6828C225.652 45.4141 225.251 45.0152 224.96 44.4864C224.678 43.9488 224.538 43.2942 224.538 42.5226C224.538 41.7597 224.665 41.1051 224.921 40.5589C225.185 40.0126 225.55 39.5922 226.017 39.2974C226.493 39.0026 227.043 38.8552 227.668 38.8552ZM227.655 39.7916C227.1 39.7916 226.66 39.9693 226.334 40.3248C226.017 40.6716 225.828 41.1571 225.766 41.7813H229.372C229.363 41.1918 229.223 40.7149 228.95 40.3508C228.677 39.978 228.245 39.7916 227.655 39.7916Z" fill="white"/>
<path d="M233.552 38.9853V41.8854H237.396V38.9853H238.559V45.9559H237.396V42.8477H233.552V45.9559H232.39V38.9853H233.552Z" fill="white"/>
<path d="M241.897 43.2379C241.897 43.3419 241.893 43.498 241.884 43.7061C241.875 43.9141 241.862 44.1222 241.844 44.3303C241.835 44.5384 241.827 44.7031 241.818 44.8245L245.609 38.9853H247.036V45.9559H245.952V41.8464C245.952 41.7076 245.952 41.5256 245.952 41.3001C245.961 41.0747 245.97 40.8536 245.979 40.6369C245.988 40.4115 245.996 40.2424 246.005 40.1297L242.241 45.9559H240.801V38.9853H241.897V43.2379Z" fill="white"/>
<path d="M255.022 36.0981C254.96 36.7484 254.736 37.2426 254.348 37.5807C253.969 37.9102 253.362 38.0749 252.525 38.0749C251.662 38.0749 251.05 37.9102 250.689 37.5807C250.337 37.2513 250.139 36.7571 250.095 36.0981H251.178C251.222 36.5663 251.345 36.8828 251.548 37.0475C251.759 37.2036 252.094 37.2816 252.552 37.2816C252.957 37.2816 253.274 37.1992 253.503 37.0345C253.74 36.8611 253.881 36.549 253.925 36.0981H255.022ZM250.385 43.2379C250.385 43.3419 250.381 43.498 250.372 43.7061C250.363 43.9141 250.35 44.1222 250.332 44.3303C250.324 44.5384 250.315 44.7031 250.306 44.8245L254.097 38.9853H255.524V45.9559H254.441V41.8464C254.441 41.7076 254.441 41.5256 254.441 41.3001C254.449 41.0747 254.458 40.8536 254.467 40.6369C254.476 40.4115 254.485 40.2424 254.493 40.1297L250.729 45.9559H249.289V38.9853H250.385V43.2379Z" fill="white"/>
<circle cx="21.6987" cy="41.9792" r="13.5874" fill="#FFCE00"/>
<circle cx="21.6987" cy="14.8047" r="13.5874" fill="#FF4D6A"/>
<path d="M21.6997 33.2587C22.8449 33.2587 23.9788 33.4843 25.0368 33.9225C26.0948 34.3607 27.0561 35.0031 27.8659 35.8128C28.6756 36.6226 29.318 37.5839 29.7562 38.6419C30.1944 39.6999 30.42 40.8338 30.42 41.979C30.42 43.1241 30.1944 44.2581 29.7562 45.3161C29.318 46.3741 28.6756 47.3354 27.8659 48.1451C27.0561 48.9549 26.0948 49.5972 25.0368 50.0354C23.9788 50.4737 22.8449 50.6992 21.6997 50.6992L21.6997 41.979V33.2587Z" fill="#FF4D6A"/>
<path d="M21.6997 6.08391C22.8449 6.08391 23.9788 6.30947 25.0368 6.7477C26.0948 7.18594 27.0561 7.82827 27.8659 8.63802C28.6756 9.44777 29.318 10.4091 29.7562 11.4671C30.1944 12.5251 30.42 13.659 30.42 14.8042C30.42 15.9493 30.1944 17.0833 29.7562 18.1413C29.318 19.1992 28.6756 20.1606 27.8659 20.9703C27.0561 21.7801 26.0948 22.4224 25.0368 22.8606C23.9788 23.2989 22.8449 23.5244 21.6997 23.5244L21.6997 20.2261C22.4118 20.2261 23.1168 20.0859 23.7746 19.8134C24.4325 19.5409 25.0302 19.1415 25.5336 18.6381C26.0371 18.1346 26.4365 17.5369 26.709 16.8791C26.9815 16.2212 27.1217 15.5162 27.1217 14.8042C27.1217 14.0921 26.9815 13.3871 26.709 12.7293C26.4365 12.0714 26.0371 11.4737 25.5336 10.9703C25.0302 10.4668 24.4325 10.0674 23.7746 9.79492C23.1168 9.52244 22.4118 9.3822 21.6997 9.3822V6.08391Z" fill="white"/>
<rect y="1.21729" width="8.11186" height="54.3495" fill="#4350F6"/>
<rect x="1.21729" y="0.405762" width="0.405593" height="57.1886" fill="white"/>
<rect x="2.83936" y="0.405762" width="0.405593" height="57.5942" fill="white"/>
<rect x="4.86719" width="0.405593" height="57.5942" fill="white"/>
</svg>
